<svg width="250" height="46" viewBox="0 0 250 46" fill="none" xmlns="http://www.w3.org/2000/svg">
<rect width="250" height="46" rx="3.39024" fill="url(#paint0_linear_3_13)"/>
<path d="M52.4551 23.2285H51.0742V22.251H52.2637C52.6875 22.251 53.0316 22.1895 53.2959 22.0664C53.5602 21.9388 53.7516 21.7633 53.8701 21.54C53.9932 21.3122 54.0547 21.0479 54.0547 20.7471C54.0547 20.4782 53.9863 20.2321 53.8496 20.0088C53.7174 19.7855 53.5124 19.6077 53.2344 19.4756C52.9564 19.3389 52.5986 19.2705 52.1611 19.2705C51.833 19.2705 51.5345 19.3298 51.2656 19.4482C50.9967 19.5667 50.7826 19.7331 50.623 19.9473C50.4681 20.1615 50.3906 20.4144 50.3906 20.7061H48.6748C48.6748 20.2731 48.766 19.8857 48.9482 19.5439C49.1351 19.1976 49.388 18.9036 49.707 18.6621C50.0306 18.4206 50.402 18.236 50.8213 18.1084C51.2451 17.9762 51.6917 17.9102 52.1611 17.9102C52.708 17.9102 53.2025 17.9717 53.6445 18.0947C54.0866 18.2132 54.4671 18.391 54.7861 18.6279C55.1051 18.8649 55.349 19.1611 55.5176 19.5166C55.6862 19.8675 55.7705 20.2754 55.7705 20.7402C55.7705 21.082 55.6908 21.4033 55.5312 21.7041C55.3763 22.0049 55.153 22.2692 54.8613 22.4971C54.5697 22.7249 54.2188 22.9049 53.8086 23.0371C53.403 23.1647 52.9518 23.2285 52.4551 23.2285ZM51.0742 22.6338H52.4551C53.0065 22.6338 53.4964 22.6908 53.9248 22.8047C54.3532 22.9186 54.7155 23.085 55.0117 23.3037C55.3079 23.5225 55.5335 23.7936 55.6885 24.1172C55.8434 24.4362 55.9209 24.8031 55.9209 25.2178C55.9209 25.6826 55.8275 26.0973 55.6406 26.4619C55.4583 26.8219 55.1986 27.1273 54.8613 27.3779C54.5241 27.6286 54.1253 27.8177 53.665 27.9453C53.2093 28.0729 52.708 28.1367 52.1611 28.1367C51.7191 28.1367 51.2816 28.082 50.8486 27.9727C50.4202 27.8587 50.0306 27.6855 49.6797 27.4531C49.3333 27.2161 49.0553 26.9154 48.8457 26.5508C48.6361 26.1862 48.5312 25.7487 48.5312 25.2383H50.2539C50.2539 25.5208 50.3337 25.7806 50.4932 26.0176C50.6572 26.25 50.8805 26.4368 51.1631 26.5781C51.4502 26.7148 51.7829 26.7832 52.1611 26.7832C52.5941 26.7832 52.9609 26.7148 53.2617 26.5781C53.5671 26.4414 53.7995 26.2546 53.959 26.0176C54.123 25.7806 54.2051 25.514 54.2051 25.2178C54.2051 24.9352 54.1618 24.6914 54.0752 24.4863C53.9932 24.2767 53.8701 24.1081 53.7061 23.9805C53.542 23.8483 53.3392 23.7503 53.0977 23.6865C52.8561 23.6227 52.5781 23.5908 52.2637 23.5908H51.0742V22.6338ZM61.5537 26.5166V22.9893C61.5537 22.7249 61.5059 22.4971 61.4102 22.3057C61.3145 22.1143 61.1686 21.9661 60.9727 21.8613C60.7812 21.7565 60.5397 21.7041 60.248 21.7041C59.9792 21.7041 59.7467 21.7497 59.5508 21.8408C59.3548 21.932 59.2021 22.055 59.0928 22.21C58.9834 22.3649 58.9287 22.5404 58.9287 22.7363H57.2881C57.2881 22.4447 57.3587 22.1621 57.5 21.8887C57.6413 21.6152 57.8464 21.3714 58.1152 21.1572C58.3841 20.943 58.7054 20.7744 59.0791 20.6514C59.4528 20.5283 59.8721 20.4668 60.3369 20.4668C60.8929 20.4668 61.3851 20.5602 61.8135 20.7471C62.2464 20.9339 62.5859 21.2165 62.832 21.5947C63.0827 21.9684 63.208 22.4378 63.208 23.0029V26.291C63.208 26.6283 63.2308 26.9313 63.2764 27.2002C63.3265 27.4645 63.3971 27.6947 63.4883 27.8906V28H61.7998C61.7223 27.8223 61.6608 27.5967 61.6152 27.3232C61.5742 27.0452 61.5537 26.7764 61.5537 26.5166ZM61.793 23.502L61.8066 24.5205H60.624C60.3187 24.5205 60.0498 24.5501 59.8174 24.6094C59.585 24.6641 59.3913 24.7461 59.2363 24.8555C59.0814 24.9648 58.9652 25.097 58.8877 25.252C58.8102 25.4069 58.7715 25.5824 58.7715 25.7783C58.7715 25.9743 58.8171 26.1543 58.9082 26.3184C58.9993 26.4779 59.1315 26.6032 59.3047 26.6943C59.4824 26.7855 59.6966 26.8311 59.9473 26.8311C60.2845 26.8311 60.5785 26.7627 60.8291 26.626C61.0843 26.4847 61.2848 26.3138 61.4307 26.1133C61.5765 25.9082 61.654 25.7145 61.6631 25.5322L62.1963 26.2637C62.1416 26.4505 62.0482 26.651 61.916 26.8652C61.7839 27.0794 61.6107 27.2845 61.3965 27.4805C61.1868 27.6719 60.9339 27.8291 60.6377 27.9521C60.346 28.0752 60.0088 28.1367 59.626 28.1367C59.1429 28.1367 58.7122 28.041 58.334 27.8496C57.9557 27.6536 57.6595 27.3916 57.4453 27.0635C57.2311 26.7308 57.124 26.3548 57.124 25.9355C57.124 25.5436 57.1969 25.1973 57.3428 24.8965C57.4932 24.5911 57.7119 24.3359 57.999 24.1309C58.2907 23.9258 58.6462 23.7708 59.0654 23.666C59.4847 23.5566 59.9632 23.502 60.501 23.502H61.793ZM66.708 20.6035V28H65.0605V20.6035H66.708ZM71.5342 20.6035L68.2051 25.0537H66.3252L66.1064 23.5635H67.4805L69.4766 20.6035H71.5342ZM69.6064 28L67.3779 24.7734L68.6768 23.8369L71.7734 28H69.6064ZM76.8389 26.5166V22.9893C76.8389 22.7249 76.791 22.4971 76.6953 22.3057C76.5996 22.1143 76.4538 21.9661 76.2578 21.8613C76.0664 21.7565 75.8249 21.7041 75.5332 21.7041C75.2643 21.7041 75.0319 21.7497 74.8359 21.8408C74.64 21.932 74.4873 22.055 74.3779 22.21C74.2686 22.3649 74.2139 22.5404 74.2139 22.7363H72.5732C72.5732 22.4447 72.6439 22.1621 72.7852 21.8887C72.9264 21.6152 73.1315 21.3714 73.4004 21.1572C73.6693 20.943 73.9906 20.7744 74.3643 20.6514C74.738 20.5283 75.1572 20.4668 75.6221 20.4668C76.1781 20.4668 76.6702 20.5602 77.0986 20.7471C77.5316 20.9339 77.8711 21.2165 78.1172 21.5947C78.3678 21.9684 78.4932 22.4378 78.4932 23.0029V26.291C78.4932 26.6283 78.516 26.9313 78.5615 27.2002C78.6117 27.4645 78.6823 27.6947 78.7734 27.8906V28H77.085C77.0075 27.8223 76.946 27.5967 76.9004 27.3232C76.8594 27.0452 76.8389 26.7764 76.8389 26.5166ZM77.0781 23.502L77.0918 24.5205H75.9092C75.6038 24.5205 75.335 24.5501 75.1025 24.6094C74.8701 24.6641 74.6764 24.7461 74.5215 24.8555C74.3665 24.9648 74.2503 25.097 74.1729 25.252C74.0954 25.4069 74.0566 25.5824 74.0566 25.7783C74.0566 25.9743 74.1022 26.1543 74.1934 26.3184C74.2845 26.4779 74.4167 26.6032 74.5898 26.6943C74.7676 26.7855 74.9818 26.8311 75.2324 26.8311C75.5697 26.8311 75.8636 26.7627 76.1143 26.626C76.3695 26.4847 76.57 26.3138 76.7158 26.1133C76.8617 25.9082 76.9391 25.7145 76.9482 25.5322L77.4814 26.2637C77.4268 26.4505 77.3333 26.651 77.2012 26.8652C77.069 27.0794 76.8958 27.2845 76.6816 27.4805C76.472 27.6719 76.2191 27.8291 75.9229 27.9521C75.6312 28.0752 75.2939 28.1367 74.9111 28.1367C74.4281 28.1367 73.9974 28.041 73.6191 27.8496C73.2409 27.6536 72.9447 27.3916 72.7305 27.0635C72.5163 26.7308 72.4092 26.3548 72.4092 25.9355C72.4092 25.5436 72.4821 25.1973 72.6279 24.8965C72.7783 24.5911 72.9971 24.3359 73.2842 24.1309C73.5758 23.9258 73.9313 23.7708 74.3506 23.666C74.7699 23.5566 75.2484 23.502 75.7861 23.502H77.0781ZM83.2783 24.4658H81.8564V23.6318H83.0049C83.2965 23.6318 83.529 23.5931 83.7021 23.5156C83.8799 23.4382 84.0052 23.3311 84.0781 23.1943C84.1556 23.0531 84.1943 22.889 84.1943 22.7021C84.1943 22.5381 84.1556 22.3831 84.0781 22.2373C84.0052 22.0869 83.8799 21.9639 83.7021 21.8682C83.5244 21.7725 83.2829 21.7246 82.9775 21.7246C82.7269 21.7246 82.5013 21.7656 82.3008 21.8477C82.1048 21.9297 81.9499 22.0436 81.8359 22.1895C81.722 22.3353 81.665 22.5039 81.665 22.6953H80.0176C80.0176 22.235 80.1475 21.8385 80.4072 21.5059C80.6715 21.1732 81.0247 20.918 81.4668 20.7402C81.9089 20.5625 82.3942 20.4736 82.9229 20.4736C83.374 20.4736 83.7796 20.5215 84.1396 20.6172C84.4997 20.7083 84.805 20.8451 85.0557 21.0273C85.3109 21.2051 85.5046 21.4284 85.6367 21.6973C85.7734 21.9616 85.8418 22.2692 85.8418 22.6201C85.8418 22.8708 85.7826 23.1077 85.6641 23.3311C85.5456 23.5544 85.3747 23.7526 85.1514 23.9258C84.9281 24.0944 84.6569 24.2266 84.3379 24.3223C84.0234 24.418 83.6702 24.4658 83.2783 24.4658ZM81.8564 23.9873H83.2783C83.7158 23.9873 84.1032 24.0306 84.4404 24.1172C84.7777 24.1992 85.0602 24.3223 85.2881 24.4863C85.516 24.6504 85.6868 24.8532 85.8008 25.0947C85.9193 25.3317 85.9785 25.6051 85.9785 25.915C85.9785 26.2614 85.9033 26.5736 85.7529 26.8516C85.6071 27.125 85.3975 27.3574 85.124 27.5488C84.8551 27.7402 84.5339 27.8861 84.1602 27.9863C83.7865 28.0866 83.374 28.1367 82.9229 28.1367C82.4307 28.1367 81.9521 28.0547 81.4873 27.8906C81.027 27.7266 80.6465 27.4736 80.3457 27.1318C80.0495 26.7855 79.9014 26.3457 79.9014 25.8125H81.5488C81.5488 25.9993 81.6058 26.1748 81.7197 26.3389C81.8337 26.5029 81.9977 26.6374 82.2119 26.7422C82.4261 26.8424 82.6836 26.8926 82.9844 26.8926C83.2943 26.8926 83.5472 26.8447 83.7432 26.749C83.9391 26.6488 84.085 26.5189 84.1807 26.3594C84.2764 26.1953 84.3242 26.0221 84.3242 25.8398C84.3242 25.5938 84.2764 25.3955 84.1807 25.2451C84.085 25.0947 83.9391 24.9854 83.7432 24.917C83.5472 24.8441 83.3011 24.8076 83.0049 24.8076H81.8564V23.9873ZM91.5498 26.5166V22.9893C91.5498 22.7249 91.502 22.4971 91.4062 22.3057C91.3105 22.1143 91.1647 21.9661 90.9688 21.8613C90.7773 21.7565 90.5358 21.7041 90.2441 21.7041C89.9753 21.7041 89.7428 21.7497 89.5469 21.8408C89.3509 21.932 89.1982 22.055 89.0889 22.21C88.9795 22.3649 88.9248 22.5404 88.9248 22.7363H87.2842C87.2842 22.4447 87.3548 22.1621 87.4961 21.8887C87.6374 21.6152 87.8424 21.3714 88.1113 21.1572C88.3802 20.943 88.7015 20.7744 89.0752 20.6514C89.4489 20.5283 89.8682 20.4668 90.333 20.4668C90.889 20.4668 91.3812 20.5602 91.8096 20.7471C92.2425 20.9339 92.582 21.2165 92.8281 21.5947C93.0788 21.9684 93.2041 22.4378 93.2041 23.0029V26.291C93.2041 26.6283 93.2269 26.9313 93.2725 27.2002C93.3226 27.4645 93.3932 27.6947 93.4844 27.8906V28H91.7959C91.7184 27.8223 91.6569 27.5967 91.6113 27.3232C91.5703 27.0452 91.5498 26.7764 91.5498 26.5166ZM91.7891 23.502L91.8027 24.5205H90.6201C90.3148 24.5205 90.0459 24.5501 89.8135 24.6094C89.5811 24.6641 89.3874 24.7461 89.2324 24.8555C89.0775 24.9648 88.9613 25.097 88.8838 25.252C88.8063 25.4069 88.7676 25.5824 88.7676 25.7783C88.7676 25.9743 88.8132 26.1543 88.9043 26.3184C88.9954 26.4779 89.1276 26.6032 89.3008 26.6943C89.4785 26.7855 89.6927 26.8311 89.9434 26.8311C90.2806 26.8311 90.5745 26.7627 90.8252 26.626C91.0804 26.4847 91.2809 26.3138 91.4268 26.1133C91.5726 25.9082 91.6501 25.7145 91.6592 25.5322L92.1924 26.2637C92.1377 26.4505 92.0443 26.651 91.9121 26.8652C91.7799 27.0794 91.6068 27.2845 91.3926 27.4805C91.1829 27.6719 90.93 27.8291 90.6338 27.9521C90.3421 28.0752 90.0049 28.1367 89.6221 28.1367C89.139 28.1367 88.7083 28.041 88.3301 27.8496C87.9518 27.6536 87.6556 27.3916 87.4414 27.0635C87.2272 26.7308 87.1201 26.3548 87.1201 25.9355C87.1201 25.5436 87.193 25.1973 87.3389 24.8965C87.4893 24.5911 87.708 24.3359 87.9951 24.1309C88.2868 23.9258 88.6423 23.7708 89.0615 23.666C89.4808 23.5566 89.9593 23.502 90.4971 23.502H91.7891ZM98.249 20.6035V28H96.5947V20.6035H98.249ZM100.676 20.6035V21.9023H94.209V20.6035H100.676ZM103 22.9551H105.181C105.819 22.9551 106.361 23.0622 106.808 23.2764C107.254 23.4906 107.594 23.7891 107.826 24.1719C108.063 24.5501 108.182 24.9831 108.182 25.4707C108.182 25.8307 108.116 26.1657 107.983 26.4756C107.851 26.7809 107.655 27.0475 107.396 27.2754C107.14 27.5033 106.826 27.681 106.452 27.8086C106.083 27.9362 105.659 28 105.181 28H101.906V20.6035H103.561V26.6943H105.181C105.509 26.6943 105.771 26.6374 105.967 26.5234C106.163 26.4095 106.304 26.2614 106.391 26.0791C106.482 25.8968 106.527 25.7031 106.527 25.498C106.527 25.2884 106.482 25.0902 106.391 24.9033C106.304 24.7165 106.163 24.5638 105.967 24.4453C105.771 24.3268 105.509 24.2676 105.181 24.2676H103V22.9551ZM114.642 22.0254V30.8438H112.994V20.6035H114.512L114.642 22.0254ZM119.461 24.2334V24.377C119.461 24.9147 119.397 25.4137 119.27 25.874C119.146 26.3298 118.962 26.7285 118.716 27.0703C118.474 27.4076 118.176 27.6696 117.82 27.8564C117.465 28.0433 117.055 28.1367 116.59 28.1367C116.13 28.1367 115.726 28.0524 115.38 27.8838C115.038 27.7106 114.749 27.4668 114.512 27.1523C114.275 26.8379 114.083 26.4688 113.938 26.0449C113.796 25.6165 113.696 25.1471 113.637 24.6367V24.083C113.696 23.5407 113.796 23.0485 113.938 22.6064C114.083 22.1644 114.275 21.7839 114.512 21.4648C114.749 21.1458 115.038 20.8997 115.38 20.7266C115.722 20.5534 116.12 20.4668 116.576 20.4668C117.041 20.4668 117.453 20.5579 117.813 20.7402C118.174 20.918 118.477 21.1732 118.723 21.5059C118.969 21.834 119.153 22.2305 119.276 22.6953C119.399 23.1556 119.461 23.6683 119.461 24.2334ZM117.813 24.377V24.2334C117.813 23.8916 117.782 23.5749 117.718 23.2832C117.654 22.987 117.554 22.7272 117.417 22.5039C117.28 22.2806 117.105 22.1074 116.891 21.9844C116.681 21.8568 116.428 21.793 116.132 21.793C115.84 21.793 115.59 21.8431 115.38 21.9434C115.17 22.0391 114.995 22.1735 114.854 22.3467C114.712 22.5199 114.603 22.7227 114.525 22.9551C114.448 23.1829 114.393 23.4313 114.361 23.7002V25.0264C114.416 25.3545 114.509 25.6553 114.642 25.9287C114.774 26.2021 114.961 26.4209 115.202 26.585C115.448 26.7445 115.763 26.8242 116.146 26.8242C116.442 26.8242 116.695 26.7604 116.904 26.6328C117.114 26.5052 117.285 26.3298 117.417 26.1064C117.554 25.8786 117.654 25.6165 117.718 25.3203C117.782 25.0241 117.813 24.7096 117.813 24.377ZM125.032 26.5166V22.9893C125.032 22.7249 124.984 22.4971 124.889 22.3057C124.793 22.1143 124.647 21.9661 124.451 21.8613C124.26 21.7565 124.018 21.7041 123.727 21.7041C123.458 21.7041 123.225 21.7497 123.029 21.8408C122.833 21.932 122.681 22.055 122.571 22.21C122.462 22.3649 122.407 22.5404 122.407 22.7363H120.767C120.767 22.4447 120.837 22.1621 120.979 21.8887C121.12 21.6152 121.325 21.3714 121.594 21.1572C121.863 20.943 122.184 20.7744 122.558 20.6514C122.931 20.5283 123.351 20.4668 123.815 20.4668C124.371 20.4668 124.864 20.5602 125.292 20.7471C125.725 20.9339 126.064 21.2165 126.311 21.5947C126.561 21.9684 126.687 22.4378 126.687 23.0029V26.291C126.687 26.6283 126.709 26.9313 126.755 27.2002C126.805 27.4645 126.876 27.6947 126.967 27.8906V28H125.278C125.201 27.8223 125.139 27.5967 125.094 27.3232C125.053 27.0452 125.032 26.7764 125.032 26.5166ZM125.271 23.502L125.285 24.5205H124.103C123.797 24.5205 123.528 24.5501 123.296 24.6094C123.063 24.6641 122.87 24.7461 122.715 24.8555C122.56 24.9648 122.444 25.097 122.366 25.252C122.289 25.4069 122.25 25.5824 122.25 25.7783C122.25 25.9743 122.296 26.1543 122.387 26.3184C122.478 26.4779 122.61 26.6032 122.783 26.6943C122.961 26.7855 123.175 26.8311 123.426 26.8311C123.763 26.8311 124.057 26.7627 124.308 26.626C124.563 26.4847 124.763 26.3138 124.909 26.1133C125.055 25.9082 125.132 25.7145 125.142 25.5322L125.675 26.2637C125.62 26.4505 125.527 26.651 125.395 26.8652C125.262 27.0794 125.089 27.2845 124.875 27.4805C124.665 27.6719 124.412 27.8291 124.116 27.9521C123.825 28.0752 123.487 28.1367 123.104 28.1367C122.621 28.1367 122.191 28.041 121.812 27.8496C121.434 27.6536 121.138 27.3916 120.924 27.0635C120.71 26.7308 120.603 26.3548 120.603 25.9355C120.603 25.5436 120.675 25.1973 120.821 24.8965C120.972 24.5911 121.19 24.3359 121.478 24.1309C121.769 23.9258 122.125 23.7708 122.544 23.666C122.963 23.5566 123.442 23.502 123.979 23.502H125.271ZM131.431 26.8242C131.7 26.8242 131.941 26.7718 132.155 26.667C132.374 26.5576 132.549 26.4072 132.682 26.2158C132.818 26.0244 132.894 25.8034 132.907 25.5527H134.459C134.45 26.0312 134.309 26.4665 134.035 26.8584C133.762 27.2503 133.399 27.5625 132.948 27.7949C132.497 28.0228 131.998 28.1367 131.451 28.1367C130.886 28.1367 130.394 28.041 129.975 27.8496C129.555 27.6536 129.207 27.3848 128.929 27.043C128.651 26.7012 128.441 26.307 128.3 25.8604C128.163 25.4137 128.095 24.9352 128.095 24.4248V24.1855C128.095 23.6751 128.163 23.1966 128.3 22.75C128.441 22.2988 128.651 21.9023 128.929 21.5605C129.207 21.2188 129.555 20.9521 129.975 20.7607C130.394 20.5648 130.884 20.4668 131.444 20.4668C132.037 20.4668 132.556 20.5853 133.003 20.8223C133.45 21.0547 133.8 21.3805 134.056 21.7998C134.315 22.2145 134.45 22.6976 134.459 23.249H132.907C132.894 22.9756 132.825 22.7295 132.702 22.5107C132.584 22.2874 132.415 22.1097 132.196 21.9775C131.982 21.8454 131.725 21.7793 131.424 21.7793C131.091 21.7793 130.815 21.8477 130.597 21.9844C130.378 22.1165 130.207 22.2988 130.084 22.5312C129.961 22.7591 129.872 23.0166 129.817 23.3037C129.767 23.5863 129.742 23.8802 129.742 24.1855V24.4248C129.742 24.7301 129.767 25.0264 129.817 25.3135C129.868 25.6006 129.954 25.8581 130.077 26.0859C130.205 26.3092 130.378 26.4893 130.597 26.626C130.815 26.7581 131.093 26.8242 131.431 26.8242ZM141.664 20.6035V28H140.017V20.6035H141.664ZM140.967 23.8779V25.1836C140.766 25.2702 140.541 25.3499 140.29 25.4229C140.044 25.4912 139.784 25.5482 139.511 25.5938C139.237 25.6348 138.962 25.6553 138.684 25.6553C138.032 25.6553 137.469 25.555 136.995 25.3545C136.526 25.154 136.163 24.8464 135.908 24.4316C135.658 24.0124 135.532 23.4814 135.532 22.8389V20.5967H137.173V22.8389C137.173 23.208 137.228 23.502 137.337 23.7207C137.451 23.9395 137.619 24.0967 137.843 24.1924C138.066 24.2881 138.346 24.3359 138.684 24.3359C138.966 24.3359 139.233 24.3177 139.483 24.2812C139.734 24.2402 139.982 24.1855 140.229 24.1172C140.475 24.0488 140.721 23.9691 140.967 23.8779ZM146.682 28.1367C146.135 28.1367 145.64 28.0479 145.198 27.8701C144.761 27.6878 144.387 27.4349 144.077 27.1113C143.772 26.7878 143.537 26.4072 143.373 25.9697C143.209 25.5322 143.127 25.0605 143.127 24.5547V24.2812C143.127 23.7025 143.211 23.1784 143.38 22.709C143.549 22.2396 143.783 21.8385 144.084 21.5059C144.385 21.1686 144.74 20.9111 145.15 20.7334C145.561 20.5557 146.005 20.4668 146.483 20.4668C147.012 20.4668 147.475 20.5557 147.871 20.7334C148.268 20.9111 148.596 21.1618 148.855 21.4854C149.12 21.8044 149.316 22.1849 149.443 22.627C149.576 23.069 149.642 23.5566 149.642 24.0898V24.7939H143.927V23.6113H148.015V23.4814C148.006 23.1852 147.946 22.9072 147.837 22.6475C147.732 22.3877 147.57 22.1781 147.352 22.0186C147.133 21.859 146.841 21.7793 146.477 21.7793C146.203 21.7793 145.959 21.8385 145.745 21.957C145.535 22.071 145.36 22.2373 145.219 22.4561C145.077 22.6748 144.968 22.9391 144.891 23.249C144.818 23.5544 144.781 23.8984 144.781 24.2812V24.5547C144.781 24.8783 144.825 25.179 144.911 25.457C145.002 25.7305 145.134 25.9697 145.308 26.1748C145.481 26.3799 145.69 26.5417 145.937 26.6602C146.183 26.7741 146.463 26.8311 146.777 26.8311C147.174 26.8311 147.527 26.7513 147.837 26.5918C148.147 26.4323 148.416 26.2067 148.644 25.915L149.512 26.7559C149.352 26.9883 149.145 27.2116 148.89 27.4258C148.634 27.6354 148.322 27.8063 147.953 27.9385C147.589 28.0706 147.165 28.1367 146.682 28.1367ZM154.276 20.6035V28H152.622V20.6035H154.276ZM156.703 20.6035V21.9023H150.236V20.6035H156.703ZM165.692 18.0127V28H164.045V19.9678L161.604 20.7949V19.4346L165.494 18.0127H165.692ZM175.673 22.5449V24.0283H168.851V22.5449H175.673ZM173.062 19.7559V27.002H171.469V19.7559H173.062ZM181.429 18.0127V28H179.781V19.9678L177.341 20.7949V19.4346L181.23 18.0127H181.429ZM191.047 21.3145V22.668H185.113V21.3145H191.047ZM191.047 24.2129V25.5664H185.113V24.2129H191.047ZM194.697 22.2783H195.682C196.064 22.2783 196.381 22.2122 196.632 22.0801C196.887 21.9479 197.076 21.7656 197.199 21.5332C197.322 21.3008 197.384 21.0342 197.384 20.7334C197.384 20.4189 197.327 20.1501 197.213 19.9268C197.104 19.6989 196.935 19.5234 196.707 19.4004C196.484 19.2773 196.199 19.2158 195.853 19.2158C195.561 19.2158 195.297 19.2751 195.06 19.3936C194.827 19.5075 194.643 19.6715 194.506 19.8857C194.369 20.0954 194.301 20.346 194.301 20.6377H192.646C192.646 20.109 192.785 19.6396 193.063 19.2295C193.341 18.8193 193.72 18.498 194.198 18.2656C194.681 18.0286 195.224 17.9102 195.825 17.9102C196.468 17.9102 197.028 18.0173 197.507 18.2314C197.99 18.4411 198.366 18.7555 198.635 19.1748C198.904 19.5941 199.038 20.1136 199.038 20.7334C199.038 21.016 198.972 21.3031 198.84 21.5947C198.708 21.8864 198.512 22.153 198.252 22.3945C197.992 22.6315 197.669 22.8252 197.281 22.9756C196.894 23.1214 196.445 23.1943 195.935 23.1943H194.697V22.2783ZM194.697 23.5635V22.6611H195.935C196.518 22.6611 197.015 22.7295 197.425 22.8662C197.84 23.0029 198.177 23.1921 198.437 23.4336C198.696 23.6706 198.885 23.9417 199.004 24.2471C199.127 24.5524 199.188 24.876 199.188 25.2178C199.188 25.6826 199.104 26.0973 198.936 26.4619C198.771 26.8219 198.537 27.1273 198.231 27.3779C197.926 27.6286 197.568 27.8177 197.158 27.9453C196.753 28.0729 196.311 28.1367 195.832 28.1367C195.404 28.1367 194.993 28.0775 194.602 27.959C194.21 27.8405 193.859 27.665 193.549 27.4326C193.239 27.1956 192.993 26.9017 192.811 26.5508C192.633 26.1953 192.544 25.7852 192.544 25.3203H194.191C194.191 25.6165 194.26 25.8786 194.396 26.1064C194.538 26.3298 194.734 26.5052 194.984 26.6328C195.24 26.7604 195.531 26.8242 195.859 26.8242C196.206 26.8242 196.504 26.7627 196.755 26.6396C197.006 26.5166 197.197 26.3343 197.329 26.0928C197.466 25.8512 197.534 25.5596 197.534 25.2178C197.534 24.8304 197.459 24.516 197.309 24.2744C197.158 24.0329 196.944 23.8551 196.666 23.7412C196.388 23.6227 196.06 23.5635 195.682 23.5635H194.697Z" fill="white"/>
<defs>
<linearGradient id="paint0_linear_3_13" x1="250" y1="0" x2="188.709" y2="132.978" gradientUnits="userSpaceOnUse">
<stop stop-color="#FF621F"/>
<stop offset="0.58125" stop-color="#FF831F"/>
<stop offset="1" stop-color="#FF981F"/>
</linearGradient>
</defs>
</svg>
