<?xml version="1.0" encoding="utf-8"?>
<svg xmlns="http://www.w3.org/2000/svg" xml:space="preserve" width="15.2644mm" height="27.9104mm" version="1.1" style="shape-rendering:geometricPrecision; text-rendering:geometricPrecision; image-rendering:optimizeQuality; fill-rule:evenodd; clip-rule:evenodd" viewBox="0 0 70.18 128.33">
  <polygon class="str0" stroke="#5B5B5B" stroke-width="1.3" stroke-miterlimit="22.9" fill="#FEFEFE" points="0.69,0.69 69.49,0.69 69.49,127.64 0.69,127.64 "/>
  <polygon class="str0" stroke="#5B5B5B" stroke-width="1.3" stroke-miterlimit="22.9" fill="#FEFEFE" points="6.65,127.6 63.53,127.6 63.53,6.37 6.65,6.37 "/>
  <path class="str0" stroke="#5B5B5B" stroke-width="1.3" stroke-miterlimit="22.9" fill="#FEFEFE" d="M53.75 71.76c-2.91,-0.65 -7.06,0.98 -9.54,2.14 -1.78,0.83 -3.66,1.56 -5.66,1.76 -2.75,0.14 -4.93,0.42 -7.65,-0.37 -2.02,-0.49 -4.67,-1.88 -6.5,-2.8 -1.67,-1.22 -6.36,-0.49 -6.89,-0.85 0.04,-6.19 -0.21,-50.81 -0.12,-50.92 3.79,-0.59 3.92,-0.12 7.78,-2.03 3.12,-1.54 6.48,-3.22 10.14,-2.86 0.01,-0.01 0.01,-0.01 0.01,-0.01 2.84,0.22 3.89,-0.07 6.71,0.96 2.83,1.04 5.79,3.12 8.55,3.36 1.09,0.1 2.09,0.04 3.17,0.01 0.07,0.11 -0.22,43.7 0,51.61z"/>
  <path fill="#FEFEFE" d="M54.45 78.51c-3.01,-0.69 -7.3,1.04 -9.86,2.27 -1.84,0.88 -3.79,1.66 -5.86,1.87 -2.84,0.15 -5.09,0.45 -7.91,-0.39 -2.09,-0.52 -4.83,-1.99 -6.73,-2.97 -2.36,-1.22 -6.7,-0.58 -7.25,-0.96 0.01,-0.1 -0.13,9.29 0.03,40.36 0,0 17.52,0.55 37.61,0.11 0.08,0.12 -0.1,-40.31 -0.03,-40.3z"/>
  <path fill="#5B5B5B" d="M53.08 79.73c-1.03,-0.02 -2.2,0.2 -3.35,0.52 -1.69,0.48 -3.32,1.18 -4.54,1.77 -0.97,0.47 -1.98,0.91 -2.99,1.25 -1.06,0.36 -2.17,0.63 -3.32,0.74 -0.02,0 -0.04,0 -0.06,0l0 0c-0.31,0.02 -0.75,0.04 -1.16,0.07 -2.44,0.15 -4.55,0.28 -7.19,-0.5 -2.06,-0.52 -4.58,-1.82 -6.49,-2.81l-0.51 -0.26c-1.22,-0.63 -3.34,-0.65 -4.83,-0.66 -0.15,-0 -0.29,-0 -0.43,-0 -0.03,3.64 -0.08,14.35 0.03,37.5 4.39,0.11 19.04,0.43 35.58,0.09 0.32,-1.5 -0.71,-10.33 -0.73,-19.58 -0.02,-7.59 -0.04,-15.03 -0.02,-18.13zm1.38 -1.22c-3.01,-0.69 -7.3,1.04 -9.86,2.27 -1.84,0.88 -3.79,1.66 -5.86,1.87 -2.84,0.15 -5.09,0.45 -7.91,-0.39 -2.09,-0.52 -4.83,-1.99 -6.73,-2.97 -2.36,-1.22 -6.7,-0.58 -7.25,-0.96 0.01,0.1 -0.13,9.61 0.03,40.36 0,0 17.52,0.55 37.61,0.11 0.08,0.12 -0.1,-40.31 -0.03,-40.3z"/>
  <rect fill="#5B5B5B" x="53.13" y="78.92" width="1.09" height="39.71"/>
</svg>
