<?xml version="1.0" encoding="UTF-8"?>
<svg xmlns="http://www.w3.org/2000/svg" xml:space="preserve" width="2014px" height="1998px" version="1.1" style="shape-rendering:geometricPrecision; text-rendering:geometricPrecision; image-rendering:optimizeQuality; fill-rule:evenodd; clip-rule:evenodd" viewBox="0 0 741.7 735.91">
 <defs>
  <style type="text/css">
   <![CDATA[
    .fil0 {fill:black}
   ]]>
  </style>
 </defs>
   <path fill="black" d="M0 363.61c0,57.08 7.86,102.72 30,153.98l12.99 27.56c4.93,8.8 9.98,18.33 15.78,26.23 11.33,15.45 21.31,32.7 36.47,47.55 11.07,10.84 4.08,6.85 20.22,20.35l15.92 14.5c33.7,28.34 35.9,26.49 68.25,46.19 22.97,13.99 86.54,35.94 113.28,35.94 8.09,0 15.86,-4.62 19.9,-9.07 11.54,-12.67 10.64,-33.98 -5.74,-45.65 -13.45,-9.59 -68.4,-6.63 -144.13,-63.03 -18.26,-13.6 -32.59,-28.44 -47.87,-44.84 -40.95,-43.94 -74.23,-127.82 -74.23,-189.43 0,-66.12 4.78,-87.22 28.36,-144.03 10.59,-25.51 26.36,-46.45 42.61,-67.48 3.12,-4.04 5.82,-6.04 8.92,-9.92 3.58,-4.47 4.68,-5.86 8.84,-9.99l18.81 -17.41c5.8,-5.81 14.44,-11.39 21.18,-16.48 42.98,-32.43 112.59,-57.74 165.36,-57.74 47.76,0 70.98,0.76 116.08,15.74 24.92,8.28 51.02,21.72 70.79,34.97 -2.39,8.95 -40.13,49.25 -17.38,49.25l100.23 -8.41c30.91,-3.62 21.37,-20.27 14.51,-45.49l-20.37 -73.79c-1.78,-5.55 -3.77,-8.18 -7.46,-11.38 -11.54,2.69 -19.79,19.54 -26.06,28.98 -2.26,3.39 -6.22,7.7 -7.25,11.58 -6.5,-3.44 -12.55,-7.88 -18.91,-11.51 -49.42,-28.28 -112.46,-50.78 -172.31,-50.78l-30.43 0c-67.01,0 -149.69,30.14 -200.96,68.48 -9.11,6.82 -16.56,12.7 -25.24,19.67 -53.88,43.27 -106,126.3 -119.9,194.45 -6.27,30.72 -10.26,46.86 -10.26,81.01z"/>
   <path fill="black" d="M327.39 160.8l0 230.33c0,5.38 40.05,23.66 46.84,27.04l83.06 42.98c13.74,6.86 91.49,49.22 100.72,49.87 16.12,1.12 35.07,-18.47 20.69,-39.45 -5.94,-8.66 -78.75,-43.39 -92.94,-50.48l-81.11 -42.03c-8.24,-4.08 -19.75,-12.08 -28,-14l0 -194.12c0,-16.61 2.75,-27.65 -10.44,-37.37 -13.24,-9.74 -38.82,-4.55 -38.82,27.23z"/>
   <path fill="black" d="M680.86 363.61c0,12.62 0.64,25.33 7.2,33.36 18.16,22.25 53.64,9.25 53.64,-17.43l0 -23.18c0,-35.33 -60.84,-44.26 -60.84,7.25z"/>
   <path fill="black" d="M599.74 591.05c0,14.97 14.21,30.41 26.07,30.41 18.45,0 20.91,-1.59 32.87,-16.38 7.05,-8.74 14.94,-16.47 14.94,-29.97 0,-19.9 -19.64,-35.64 -41.9,-27.42 -7.46,2.76 -14.18,12.19 -19.28,18.39 -5.11,6.22 -12.7,15.74 -12.7,24.97z"/>
   <path fill="black" d="M511.37 664.93c0,17.52 13.3,30.42 24.63,30.42 17.81,0 18.25,-1.1 37.98,-14.17 30.59,-20.28 10.78,-56.81 -14.81,-56.81 -7.63,0 -47.8,15.5 -47.8,40.56z"/>
   <path fill="black" d="M659.13 492.54c0,29.23 40.42,40.58 56.5,14.49 6.05,-9.82 10.14,-26.04 10.14,-37.67 0,-28.2 -43.39,-38.77 -56.52,-10.17 -2.85,6.21 -10.12,25.13 -10.12,33.35z"/>
   <path fill="black" d="M657.68 241.92c0,17.16 11.12,52.15 36.22,52.15 17.25,0 30.42,-15.69 30.42,-26.07 0,-18.27 -9.46,-53.6 -34.77,-53.6 -18.85,0 -31.87,11.58 -31.87,27.52z"/>
   <path fill="black" d="M402.72 704.04c0,18.82 12.24,31.87 28.98,31.87 10.95,0 35.82,-4.62 43.74,-14.2 16.06,-19.46 5.27,-47.07 -20.1,-50.04 -9.84,-1.15 -52.62,3.98 -52.62,32.37z"/>
</svg>
