<svg width="116" height="14" viewBox="0 0 116 14" fill="none" xmlns="http://www.w3.org/2000/svg">
<path d="M6.1001 6.10107H6.80908C7.15641 6.10107 7.44287 6.04378 7.66846 5.9292C7.89762 5.81104 8.06771 5.65169 8.17871 5.45117C8.29329 5.24707 8.35059 5.0179 8.35059 4.76367C8.35059 4.46289 8.30046 4.21045 8.2002 4.00635C8.09993 3.80225 7.94954 3.64827 7.74902 3.54443C7.5485 3.44059 7.29427 3.38867 6.98633 3.38867C6.70703 3.38867 6.45996 3.44417 6.24512 3.55518C6.03385 3.6626 5.86735 3.81657 5.74561 4.01709C5.62744 4.21761 5.56836 4.45394 5.56836 4.72607H4.57471C4.57471 4.32861 4.67497 3.96696 4.87549 3.64111C5.07601 3.31527 5.3571 3.05566 5.71875 2.8623C6.08398 2.66895 6.50651 2.57227 6.98633 2.57227C7.45898 2.57227 7.87256 2.65641 8.22705 2.82471C8.58154 2.98942 8.85726 3.23649 9.0542 3.56592C9.25114 3.89176 9.34961 4.29818 9.34961 4.78516C9.34961 4.9821 9.30306 5.19336 9.20996 5.41895C9.12044 5.64095 8.979 5.84863 8.78564 6.04199C8.59587 6.23535 8.3488 6.39469 8.04443 6.52002C7.74007 6.64176 7.37484 6.70264 6.94873 6.70264H6.1001V6.10107ZM6.1001 6.91748V6.32129H6.94873C7.44645 6.32129 7.85824 6.38037 8.18408 6.49854C8.50993 6.6167 8.76595 6.77425 8.95215 6.97119C9.14193 7.16813 9.27441 7.38477 9.34961 7.62109C9.42839 7.85384 9.46777 8.08659 9.46777 8.31934C9.46777 8.68457 9.40511 9.00863 9.27979 9.2915C9.15804 9.57438 8.98438 9.81429 8.75879 10.0112C8.53678 10.2082 8.27539 10.3568 7.97461 10.457C7.67383 10.5573 7.34619 10.6074 6.9917 10.6074C6.65153 10.6074 6.33105 10.5591 6.03027 10.4624C5.73307 10.3657 5.46989 10.2261 5.24072 10.0435C5.01156 9.85726 4.83252 9.62988 4.70361 9.36133C4.57471 9.08919 4.51025 8.77946 4.51025 8.43213H5.50391C5.50391 8.70426 5.56299 8.94238 5.68115 9.14648C5.8029 9.35059 5.97477 9.50993 6.19678 9.62451C6.42236 9.73551 6.68734 9.79102 6.9917 9.79102C7.29606 9.79102 7.55745 9.7391 7.77588 9.63525C7.99788 9.52783 8.16797 9.3667 8.28613 9.15186C8.40788 8.93701 8.46875 8.66667 8.46875 8.34082C8.46875 8.01497 8.40072 7.74821 8.26465 7.54053C8.12858 7.32926 7.93522 7.1735 7.68457 7.07324C7.4375 6.9694 7.14567 6.91748 6.80908 6.91748H6.1001ZM13.0567 6.76709V7.5835H10.4356V6.76709H13.0567ZM15.2491 7.72852H16.3234L14.6422 10.5H13.568L15.2491 7.72852ZM16.0817 4.68848H18.5094V10.5H17.5157V5.49414H16.0817C15.7988 5.49414 15.5678 5.54248 15.3888 5.63916C15.2097 5.73226 15.079 5.854 14.9967 6.00439C14.9143 6.15479 14.8732 6.31055 14.8732 6.47168C14.8732 6.62923 14.9108 6.78141 14.9859 6.92822C15.0611 7.07145 15.1793 7.18962 15.3404 7.28271C15.5016 7.37581 15.7093 7.42236 15.9635 7.42236H17.7843V8.23877H15.9635C15.6305 8.23877 15.3351 8.19401 15.0773 8.10449C14.8194 8.01497 14.601 7.89144 14.422 7.73389C14.2429 7.57275 14.1069 7.38477 14.0138 7.16992C13.9207 6.9515 13.8741 6.71517 13.8741 6.46094C13.8741 6.20671 13.9225 5.97217 14.0192 5.75732C14.1194 5.54248 14.2626 5.35449 14.4488 5.19336C14.6386 5.03223 14.8696 4.90869 15.1417 4.82275C15.4174 4.73324 15.7307 4.68848 16.0817 4.68848ZM23.9739 4.68848H24.9675L24.8816 6.86377C24.8601 7.4152 24.7974 7.89144 24.6936 8.29248C24.5897 8.69352 24.4573 9.03548 24.2961 9.31836C24.135 9.59766 23.9542 9.83219 23.7536 10.022C23.5567 10.2118 23.3526 10.3711 23.1413 10.5H22.6472L22.674 9.68896L22.8781 9.68359C22.9963 9.54395 23.1109 9.40072 23.2219 9.25391C23.3329 9.10352 23.435 8.92627 23.5281 8.72217C23.6212 8.51449 23.6981 8.26204 23.759 7.96484C23.8235 7.66406 23.8646 7.29704 23.8825 6.86377L23.9739 4.68848ZM24.2209 4.68848H27.7175V10.5H26.7239V5.60693H24.2209V4.68848ZM22.4216 9.68359H28.4641V12.2134H27.4704V10.5H23.4153V12.2134H22.4162L22.4216 9.68359ZM32.3377 7.94336H30.4309L30.4202 7.14844H31.9778C32.2858 7.14844 32.5418 7.118 32.7459 7.05713C32.9536 6.99626 33.1093 6.90495 33.2132 6.7832C33.317 6.66146 33.3689 6.51107 33.3689 6.33203C33.3689 6.19238 33.3385 6.07064 33.2776 5.9668C33.2203 5.85938 33.1326 5.77165 33.0144 5.70361C32.8963 5.632 32.7495 5.58008 32.574 5.54785C32.4021 5.51204 32.1998 5.49414 31.9671 5.49414H30.6941V10.5H29.7005V4.68848H31.9671C32.3359 4.68848 32.6671 4.7207 32.9607 4.78516C33.2579 4.84961 33.5104 4.94808 33.718 5.08057C33.9293 5.20947 34.0904 5.37419 34.2014 5.57471C34.3124 5.77523 34.3679 6.01156 34.3679 6.28369C34.3679 6.45915 34.3321 6.62565 34.2605 6.7832C34.1889 6.94076 34.0833 7.0804 33.9436 7.20215C33.804 7.32389 33.6321 7.42415 33.428 7.50293C33.2239 7.57812 32.9894 7.62646 32.7244 7.64795L32.3377 7.94336ZM32.3377 10.5H30.0711L30.5652 9.69434H32.3377C32.6134 9.69434 32.8426 9.66032 33.0252 9.59229C33.2078 9.52067 33.3439 9.42041 33.4334 9.2915C33.5265 9.15902 33.573 9.00146 33.573 8.81885C33.573 8.63623 33.5265 8.48047 33.4334 8.35156C33.3439 8.21908 33.2078 8.11882 33.0252 8.05078C32.8426 7.97917 32.6134 7.94336 32.3377 7.94336H30.8284L30.8391 7.14844H32.7244L33.0843 7.44922C33.4029 7.47428 33.6733 7.55306 33.8953 7.68555C34.1173 7.81803 34.2856 7.98633 34.4002 8.19043C34.5148 8.39095 34.5721 8.60938 34.5721 8.8457C34.5721 9.11784 34.5201 9.35775 34.4163 9.56543C34.316 9.77311 34.1692 9.94678 33.9759 10.0864C33.7825 10.2225 33.548 10.3263 33.2722 10.3979C32.9965 10.466 32.685 10.5 32.3377 10.5ZM38.3597 10.6074C37.9551 10.6074 37.5881 10.5394 37.2586 10.4033C36.9328 10.2637 36.6517 10.0685 36.4154 9.81787C36.1826 9.56722 36.0036 9.27002 35.8783 8.92627C35.7529 8.58252 35.6903 8.20654 35.6903 7.79834V7.57275C35.6903 7.1001 35.7601 6.67936 35.8997 6.31055C36.0394 5.93815 36.2292 5.62305 36.4691 5.36523C36.709 5.10742 36.9811 4.91227 37.2855 4.77979C37.5898 4.6473 37.905 4.58105 38.2308 4.58105C38.6462 4.58105 39.0042 4.65267 39.305 4.7959C39.6094 4.93913 39.8582 5.13965 40.0516 5.39746C40.245 5.65169 40.3882 5.95247 40.4813 6.2998C40.5744 6.64355 40.6209 7.01953 40.6209 7.42773V7.87354H36.2811V7.0625H39.6273V6.9873C39.613 6.72949 39.5592 6.47884 39.4661 6.23535C39.3766 5.99186 39.2334 5.79134 39.0365 5.63379C38.8395 5.47624 38.571 5.39746 38.2308 5.39746C38.0052 5.39746 37.7975 5.4458 37.6077 5.54248C37.418 5.63558 37.255 5.77523 37.119 5.96143C36.9829 6.14762 36.8773 6.375 36.8021 6.64355C36.7269 6.91211 36.6893 7.22184 36.6893 7.57275V7.79834C36.6893 8.07406 36.7269 8.33366 36.8021 8.57715C36.8809 8.81706 36.9937 9.02832 37.1405 9.21094C37.2909 9.39355 37.4717 9.53678 37.6829 9.64062C37.8978 9.74447 38.1413 9.79639 38.4134 9.79639C38.7643 9.79639 39.0615 9.72477 39.305 9.58154C39.5485 9.43831 39.7616 9.24674 39.9442 9.00684L40.5457 9.48486C40.4204 9.67464 40.2611 9.85547 40.0677 10.0273C39.8744 10.1992 39.6362 10.3389 39.3534 10.4463C39.0741 10.5537 38.7428 10.6074 38.3597 10.6074ZM42.8187 5.80566V12.7344H41.8197V4.68848H42.7328L42.8187 5.80566ZM46.7343 7.5459V7.65869C46.7343 8.08122 46.6841 8.47331 46.5839 8.83496C46.4836 9.19303 46.3368 9.50456 46.1434 9.76953C45.9537 10.0345 45.7191 10.2404 45.4398 10.3872C45.1605 10.534 44.8401 10.6074 44.4784 10.6074C44.1096 10.6074 43.7837 10.5465 43.5009 10.4248C43.218 10.3031 42.9781 10.1258 42.7811 9.89307C42.5842 9.66032 42.4267 9.38102 42.3085 9.05518C42.1939 8.72933 42.1151 8.3623 42.0722 7.9541V7.35254C42.1151 6.92285 42.1957 6.53792 42.3139 6.19775C42.432 5.85758 42.5878 5.56755 42.7811 5.32764C42.9781 5.08415 43.2162 4.89974 43.4955 4.77441C43.7748 4.64551 44.0971 4.58105 44.4623 4.58105C44.8275 4.58105 45.1516 4.65267 45.4345 4.7959C45.7173 4.93555 45.9555 5.13607 46.1488 5.39746C46.3422 5.65885 46.4872 5.97217 46.5839 6.3374C46.6841 6.69906 46.7343 7.10189 46.7343 7.5459ZM45.7352 7.65869V7.5459C45.7352 7.25586 45.7048 6.98372 45.6439 6.72949C45.5831 6.47168 45.4882 6.24609 45.3593 6.05273C45.2339 5.85579 45.0728 5.70182 44.8759 5.59082C44.6789 5.47624 44.4444 5.41895 44.1723 5.41895C43.9216 5.41895 43.7032 5.46191 43.517 5.54785C43.3344 5.63379 43.1786 5.75016 43.0497 5.89697C42.9208 6.0402 42.8152 6.20492 42.7328 6.39111C42.654 6.57373 42.5949 6.76351 42.5556 6.96045V8.35156C42.6272 8.60221 42.7274 8.83854 42.8563 9.06055C42.9852 9.27897 43.1571 9.45622 43.372 9.59229C43.5868 9.72477 43.8572 9.79102 44.183 9.79102C44.4516 9.79102 44.6825 9.73551 44.8759 9.62451C45.0728 9.50993 45.2339 9.35417 45.3593 9.15723C45.4882 8.96029 45.5831 8.7347 45.6439 8.48047C45.7048 8.22266 45.7352 7.94873 45.7352 7.65869ZM48.8623 6.68652H50.6079C51.0769 6.68652 51.4726 6.76888 51.7949 6.93359C52.1171 7.09473 52.3606 7.31852 52.5253 7.60498C52.6936 7.88786 52.7778 8.21012 52.7778 8.57178C52.7778 8.84033 52.7312 9.09277 52.6381 9.3291C52.545 9.56185 52.4054 9.76595 52.2192 9.94141C52.0366 10.1169 51.8092 10.2547 51.5371 10.355C51.2685 10.4517 50.9588 10.5 50.6079 10.5H48.1372V4.68848H49.1308V9.68359H50.6079C50.8943 9.68359 51.1235 9.63167 51.2954 9.52783C51.4672 9.42399 51.5908 9.28971 51.666 9.125C51.7412 8.96029 51.7788 8.78841 51.7788 8.60938C51.7788 8.43392 51.7412 8.26204 51.666 8.09375C51.5908 7.92546 51.4672 7.78581 51.2954 7.6748C51.1235 7.56022 50.8943 7.50293 50.6079 7.50293H48.8623V6.68652ZM59.5635 7.94336H57.6568L57.6461 7.14844H59.2037C59.5116 7.14844 59.7676 7.118 59.9717 7.05713C60.1794 6.99626 60.3352 6.90495 60.439 6.7832C60.5429 6.66146 60.5948 6.51107 60.5948 6.33203C60.5948 6.19238 60.5643 6.07064 60.5035 5.9668C60.4462 5.85938 60.3585 5.77165 60.2403 5.70361C60.1221 5.632 59.9753 5.58008 59.7999 5.54785C59.628 5.51204 59.4257 5.49414 59.1929 5.49414H57.92V10.5H56.9263V4.68848H59.1929C59.5617 4.68848 59.893 4.7207 60.1866 4.78516C60.4838 4.84961 60.7362 4.94808 60.9439 5.08057C61.1552 5.20947 61.3163 5.37419 61.4273 5.57471C61.5383 5.77523 61.5938 6.01156 61.5938 6.28369C61.5938 6.45915 61.558 6.62565 61.4864 6.7832C61.4148 6.94076 61.3091 7.0804 61.1695 7.20215C61.0298 7.32389 60.858 7.42415 60.6539 7.50293C60.4498 7.57812 60.2152 7.62646 59.9503 7.64795L59.5635 7.94336ZM59.5635 10.5H57.2969L57.7911 9.69434H59.5635C59.8392 9.69434 60.0684 9.66032 60.251 9.59229C60.4337 9.52067 60.5697 9.42041 60.6592 9.2915C60.7523 9.15902 60.7989 9.00146 60.7989 8.81885C60.7989 8.63623 60.7523 8.48047 60.6592 8.35156C60.5697 8.21908 60.4337 8.11882 60.251 8.05078C60.0684 7.97917 59.8392 7.94336 59.5635 7.94336H58.0543L58.065 7.14844H59.9503L60.3101 7.44922C60.6288 7.47428 60.8991 7.55306 61.1212 7.68555C61.3432 7.81803 61.5115 7.98633 61.626 8.19043C61.7406 8.39095 61.7979 8.60938 61.7979 8.8457C61.7979 9.11784 61.746 9.35775 61.6421 9.56543C61.5419 9.77311 61.3951 9.94678 61.2017 10.0864C61.0084 10.2225 60.7738 10.3263 60.4981 10.3979C60.2224 10.466 59.9109 10.5 59.5635 10.5ZM69.819 4.68848V5.51025H66.881V4.68848H69.819ZM67.026 4.68848V10.5H66.0324V4.68848H67.026ZM70.6999 4.68848V10.5H69.7009V4.68848H70.6999ZM72.0759 7.65869V7.53516C72.0759 7.11621 72.1368 6.7277 72.2585 6.36963C72.3803 6.00798 72.5557 5.69466 72.7849 5.42969C73.0141 5.16113 73.2916 4.95345 73.6174 4.80664C73.9433 4.65625 74.3085 4.58105 74.7131 4.58105C75.1213 4.58105 75.4883 4.65625 75.8142 4.80664C76.1436 4.95345 76.4229 5.16113 76.6521 5.42969C76.8848 5.69466 77.0621 6.00798 77.1838 6.36963C77.3056 6.7277 77.3664 7.11621 77.3664 7.53516V7.65869C77.3664 8.07764 77.3056 8.46615 77.1838 8.82422C77.0621 9.18229 76.8848 9.49561 76.6521 9.76416C76.4229 10.0291 76.1454 10.2368 75.8196 10.3872C75.4973 10.534 75.1321 10.6074 74.7239 10.6074C74.3157 10.6074 73.9486 10.534 73.6228 10.3872C73.2969 10.2368 73.0176 10.0291 72.7849 9.76416C72.5557 9.49561 72.3803 9.18229 72.2585 8.82422C72.1368 8.46615 72.0759 8.07764 72.0759 7.65869ZM73.0696 7.53516V7.65869C73.0696 7.94873 73.1036 8.22266 73.1716 8.48047C73.2396 8.7347 73.3417 8.96029 73.4778 9.15723C73.6174 9.35417 73.7911 9.50993 73.9988 9.62451C74.2064 9.73551 74.4481 9.79102 74.7239 9.79102C74.996 9.79102 75.2341 9.73551 75.4382 9.62451C75.6459 9.50993 75.8178 9.35417 75.9538 9.15723C76.0899 8.96029 76.192 8.7347 76.26 8.48047C76.3316 8.22266 76.3674 7.94873 76.3674 7.65869V7.53516C76.3674 7.2487 76.3316 6.97835 76.26 6.72412C76.192 6.46631 76.0881 6.23893 75.9485 6.04199C75.8124 5.84147 75.6405 5.68392 75.4328 5.56934C75.2287 5.45475 74.9888 5.39746 74.7131 5.39746C74.441 5.39746 74.2011 5.45475 73.9934 5.56934C73.7893 5.68392 73.6174 5.84147 73.4778 6.04199C73.3417 6.23893 73.2396 6.46631 73.1716 6.72412C73.1036 6.97835 73.0696 7.2487 73.0696 7.53516ZM79.3172 4.68848H80.3108L80.2249 6.86377C80.2034 7.4152 80.1407 7.89144 80.0369 8.29248C79.9331 8.69352 79.8006 9.03548 79.6394 9.31836C79.4783 9.59766 79.2975 9.83219 79.097 10.022C78.9 10.2118 78.6959 10.3711 78.4846 10.5H77.9905L78.0174 9.68896L78.2215 9.68359C78.3396 9.54395 78.4542 9.40072 78.5652 9.25391C78.6762 9.10352 78.7783 8.92627 78.8714 8.72217C78.9645 8.51449 79.0415 8.26204 79.1023 7.96484C79.1668 7.66406 79.208 7.29704 79.2259 6.86377L79.3172 4.68848ZM79.5642 4.68848H83.0608V10.5H82.0672V5.60693H79.5642V4.68848ZM77.7649 9.68359H83.8074V12.2134H82.8138V10.5H78.7586V12.2134H77.7596L77.7649 9.68359ZM88.3792 9.50635V6.51465C88.3792 6.28548 88.3327 6.08675 88.2396 5.91846C88.1501 5.74658 88.014 5.6141 87.8314 5.521C87.6488 5.4279 87.4232 5.38135 87.1546 5.38135C86.904 5.38135 86.6838 5.42432 86.494 5.51025C86.3078 5.59619 86.161 5.70898 86.0536 5.84863C85.9497 5.98828 85.8978 6.13867 85.8978 6.2998H84.9041C84.9041 6.09212 84.9579 5.88623 85.0653 5.68213C85.1727 5.47803 85.3267 5.29362 85.5272 5.12891C85.7313 4.96061 85.9748 4.82812 86.2577 4.73145C86.5441 4.63118 86.8628 4.58105 87.2137 4.58105C87.6362 4.58105 88.0086 4.65267 88.3309 4.7959C88.6567 4.93913 88.911 5.15576 89.0936 5.4458C89.2798 5.73226 89.3729 6.09212 89.3729 6.52539V9.23242C89.3729 9.42578 89.389 9.63167 89.4212 9.8501C89.457 10.0685 89.509 10.2565 89.577 10.4141V10.5H88.5404C88.4902 10.3854 88.4509 10.2332 88.4222 10.0435C88.3936 9.8501 88.3792 9.67106 88.3792 9.50635ZM88.5511 6.97656L88.5619 7.6748H87.5575C87.2746 7.6748 87.0221 7.69808 86.8001 7.74463C86.5781 7.7876 86.3919 7.85384 86.2415 7.94336C86.0912 8.03288 85.9766 8.14567 85.8978 8.28174C85.819 8.41423 85.7796 8.56999 85.7796 8.74902C85.7796 8.93164 85.8208 9.09814 85.9032 9.24854C85.9855 9.39893 86.1091 9.51888 86.2738 9.6084C86.4421 9.69434 86.648 9.7373 86.8914 9.7373C87.1958 9.7373 87.4644 9.67285 87.6971 9.54395C87.9299 9.41504 88.1143 9.25749 88.2503 9.07129C88.39 8.88509 88.4652 8.70426 88.4759 8.52881L88.9002 9.00684C88.8752 9.15723 88.8071 9.32373 88.6961 9.50635C88.5851 9.68896 88.4365 9.86442 88.2503 10.0327C88.0677 10.1974 87.8493 10.3353 87.5951 10.4463C87.3444 10.5537 87.0615 10.6074 86.7464 10.6074C86.3525 10.6074 86.007 10.5304 85.7098 10.3765C85.4162 10.2225 85.187 10.0166 85.0223 9.75879C84.8612 9.4974 84.7806 9.20557 84.7806 8.8833C84.7806 8.57178 84.8415 8.29785 84.9632 8.06152C85.085 7.82161 85.2604 7.62288 85.4896 7.46533C85.7188 7.3042 85.9945 7.18245 86.3167 7.1001C86.639 7.01774 86.9989 6.97656 87.3963 6.97656H88.5511ZM91.9735 5.80566V12.7344H90.9745V4.68848H91.8876L91.9735 5.80566ZM95.8891 7.5459V7.65869C95.8891 8.08122 95.8389 8.47331 95.7387 8.83496C95.6384 9.19303 95.4916 9.50456 95.2982 9.76953C95.1085 10.0345 94.8739 10.2404 94.5946 10.3872C94.3153 10.534 93.9949 10.6074 93.6332 10.6074C93.2644 10.6074 92.9385 10.5465 92.6557 10.4248C92.3728 10.3031 92.1329 10.1258 91.9359 9.89307C91.739 9.66032 91.5814 9.38102 91.4633 9.05518C91.3487 8.72933 91.2699 8.3623 91.227 7.9541V7.35254C91.2699 6.92285 91.3505 6.53792 91.4687 6.19775C91.5868 5.85758 91.7426 5.56755 91.9359 5.32764C92.1329 5.08415 92.371 4.89974 92.6503 4.77441C92.9296 4.64551 93.2519 4.58105 93.6171 4.58105C93.9823 4.58105 94.3064 4.65267 94.5893 4.7959C94.8721 4.93555 95.1103 5.13607 95.3036 5.39746C95.497 5.65885 95.642 5.97217 95.7387 6.3374C95.8389 6.69906 95.8891 7.10189 95.8891 7.5459ZM94.89 7.65869V7.5459C94.89 7.25586 94.8596 6.98372 94.7987 6.72949C94.7379 6.47168 94.643 6.24609 94.5141 6.05273C94.3887 5.85579 94.2276 5.70182 94.0307 5.59082C93.8337 5.47624 93.5992 5.41895 93.327 5.41895C93.0764 5.41895 92.858 5.46191 92.6718 5.54785C92.4892 5.63379 92.3334 5.75016 92.2045 5.89697C92.0756 6.0402 91.97 6.20492 91.8876 6.39111C91.8088 6.57373 91.7497 6.76351 91.7104 6.96045V8.35156C91.782 8.60221 91.8822 8.83854 92.0111 9.06055C92.14 9.27897 92.3119 9.45622 92.5268 9.59229C92.7416 9.72477 93.0119 9.79102 93.3378 9.79102C93.6063 9.79102 93.8373 9.73551 94.0307 9.62451C94.2276 9.50993 94.3887 9.35417 94.5141 9.15723C94.643 8.96029 94.7379 8.7347 94.7987 8.48047C94.8596 8.22266 94.89 7.94873 94.89 7.65869ZM96.9375 7.65869V7.53516C96.9375 7.11621 96.9983 6.7277 97.1201 6.36963C97.2418 6.00798 97.4173 5.69466 97.6464 5.42969C97.8756 5.16113 98.1531 4.95345 98.479 4.80664C98.8048 4.65625 99.17 4.58105 99.5747 4.58105C99.9829 4.58105 100.35 4.65625 100.676 4.80664C101.005 4.95345 101.284 5.16113 101.514 5.42969C101.746 5.69466 101.924 6.00798 102.045 6.36963C102.167 6.7277 102.228 7.11621 102.228 7.53516V7.65869C102.228 8.07764 102.167 8.46615 102.045 8.82422C101.924 9.18229 101.746 9.49561 101.514 9.76416C101.284 10.0291 101.007 10.2368 100.681 10.3872C100.359 10.534 99.9936 10.6074 99.5854 10.6074C99.1772 10.6074 98.8102 10.534 98.4843 10.3872C98.1585 10.2368 97.8792 10.0291 97.6464 9.76416C97.4173 9.49561 97.2418 9.18229 97.1201 8.82422C96.9983 8.46615 96.9375 8.07764 96.9375 7.65869ZM97.9311 7.53516V7.65869C97.9311 7.94873 97.9651 8.22266 98.0332 8.48047C98.1012 8.7347 98.2032 8.96029 98.3393 9.15723C98.479 9.35417 98.6526 9.50993 98.8603 9.62451C99.068 9.73551 99.3097 9.79102 99.5854 9.79102C99.8575 9.79102 100.096 9.73551 100.3 9.62451C100.507 9.50993 100.679 9.35417 100.815 9.15723C100.951 8.96029 101.054 8.7347 101.122 8.48047C101.193 8.22266 101.229 7.94873 101.229 7.65869V7.53516C101.229 7.2487 101.193 6.97835 101.122 6.72412C101.054 6.46631 100.95 6.23893 100.81 6.04199C100.674 5.84147 100.502 5.68392 100.294 5.56934C100.09 5.45475 99.8504 5.39746 99.5747 5.39746C99.3025 5.39746 99.0626 5.45475 98.8549 5.56934C98.6508 5.68392 98.479 5.84147 98.3393 6.04199C98.2032 6.23893 98.1012 6.46631 98.0332 6.72412C97.9651 6.97835 97.9311 7.2487 97.9311 7.53516ZM104.598 4.68848V10.5H103.604V4.68848H104.598ZM108.411 4.68848L105.656 8.01855H104.265L104.114 7.14844H105.253L107.203 4.68848H108.411ZM107.342 10.5L105.205 7.86816L105.844 7.14844L108.604 10.5H107.342ZM110.695 2.67969L110.625 8.29248H109.728L109.653 2.67969H110.695ZM109.621 10.0005C109.621 9.83936 109.669 9.70329 109.766 9.59229C109.866 9.48128 110.013 9.42578 110.206 9.42578C110.396 9.42578 110.541 9.48128 110.641 9.59229C110.745 9.70329 110.797 9.83936 110.797 10.0005C110.797 10.1545 110.745 10.2869 110.641 10.3979C110.541 10.509 110.396 10.5645 110.206 10.5645C110.013 10.5645 109.866 10.509 109.766 10.3979C109.669 10.2869 109.621 10.1545 109.621 10.0005Z" fill="#FF141F"/>
<rect x="0.25" y="0.75" width="115.5" height="12.5" rx="3.75" stroke="#FD0209" stroke-width="0.5"/>
</svg>