<svg width="92" height="89" viewBox="0 0 92 89" fill="none" xmlns="http://www.w3.org/2000/svg">
<rect width="92" height="89" fill="#FC0100"/>
<path d="M4.10977 50.5611V49.5455H11.2007V50.5611H8.22767V59H7.08279V50.5611H4.10977ZM12.0836 61.6591V51.9091H13.1361V53.0355H13.2654C13.3454 52.9124 13.4562 52.7554 13.5978 52.5646C13.7424 52.3707 13.9486 52.1984 14.2164 52.0476C14.4872 51.8937 14.8535 51.8168 15.3151 51.8168C15.9122 51.8168 16.4385 51.966 16.894 52.2646C17.3494 52.5631 17.7049 52.9863 17.9604 53.5341C18.2158 54.0819 18.3435 54.7282 18.3435 55.473C18.3435 56.224 18.2158 56.8749 17.9604 57.4258C17.7049 57.9736 17.351 58.3983 16.8986 58.6999C16.4462 58.9985 15.9245 59.1477 15.3336 59.1477C14.8781 59.1477 14.5134 59.0723 14.2395 58.9215C13.9656 58.7676 13.7547 58.5937 13.607 58.3999C13.4593 58.2029 13.3454 58.0398 13.2654 57.9105H13.1731V61.6591H12.0836ZM13.1546 55.4545C13.1546 55.9901 13.2331 56.4625 13.39 56.8718C13.547 57.2781 13.7763 57.5966 14.0779 57.8274C14.3795 58.0552 14.7488 58.169 15.1859 58.169C15.6414 58.169 16.0214 58.049 16.3261 57.8089C16.6339 57.5658 16.8647 57.2396 17.0186 56.8303C17.1756 56.4179 17.254 55.9593 17.254 55.4545C17.254 54.956 17.1771 54.5066 17.0232 54.1065C16.8724 53.7034 16.6431 53.3848 16.3354 53.1509C16.0307 52.9139 15.6475 52.7955 15.1859 52.7955C14.7427 52.7955 14.3703 52.9078 14.0687 53.1325C13.7671 53.354 13.5393 53.6649 13.3854 54.065C13.2315 54.462 13.1546 54.9252 13.1546 55.4545ZM22.9785 59.1477C22.2952 59.1477 21.7059 58.9969 21.2104 58.6953C20.7179 58.3906 20.3378 57.9659 20.0701 57.4212C19.8054 56.8733 19.6731 56.2363 19.6731 55.5099C19.6731 54.7836 19.8054 54.1435 20.0701 53.5895C20.3378 53.0324 20.7102 52.5985 21.1873 52.2876C21.6674 51.9737 22.2275 51.8168 22.8677 51.8168C23.237 51.8168 23.6017 51.8783 23.9618 52.0014C24.3219 52.1245 24.6496 52.3246 24.9451 52.6016C25.2405 52.8755 25.476 53.2386 25.6514 53.6911C25.8268 54.1435 25.9146 54.7005 25.9146 55.3622V55.8239H20.4486V54.8821H24.8066C24.8066 54.482 24.7266 54.125 24.5665 53.8111C24.4096 53.4972 24.1849 53.2494 23.8925 53.0678C23.6032 52.8862 23.2616 52.7955 22.8677 52.7955C22.4337 52.7955 22.0583 52.9032 21.7413 53.1186C21.4273 53.331 21.1857 53.608 21.0165 53.9496C20.8472 54.2912 20.7626 54.6574 20.7626 55.0483V55.6761C20.7626 56.2116 20.8549 56.6656 21.0396 57.038C21.2273 57.4073 21.4873 57.6889 21.8197 57.8828C22.1521 58.0736 22.5384 58.169 22.9785 58.169C23.2647 58.169 23.5232 58.129 23.754 58.049C23.9879 57.9659 24.1895 57.8428 24.3588 57.6797C24.5281 57.5135 24.6589 57.3073 24.7512 57.0611L25.8038 57.3565C25.693 57.7135 25.5068 58.0275 25.2452 58.2983C24.9836 58.5661 24.6604 58.7753 24.2757 58.9261C23.891 59.0739 23.4586 59.1477 22.9785 59.1477ZM26.9117 52.9247V51.9091H32.6731V52.9247H30.3464V59H29.2569V52.9247H26.9117ZM35.2041 54.4759H37.2353C38.0663 54.4759 38.7018 54.6867 39.1419 55.1083C39.582 55.5299 39.8021 56.0639 39.8021 56.7102C39.8021 57.1349 39.7036 57.5212 39.5066 57.869C39.3096 58.2137 39.0203 58.4891 38.6387 58.6953C38.2571 58.8984 37.7893 59 37.2353 59H34.2623V51.9091H35.3518V57.9844H37.2353C37.6662 57.9844 38.0201 57.8705 38.2971 57.6428C38.5741 57.415 38.7126 57.1226 38.7126 56.7656C38.7126 56.3902 38.5741 56.0839 38.2971 55.8469C38.0201 55.61 37.6662 55.4915 37.2353 55.4915H35.2041V54.4759ZM45.7262 59V52.9062H43.8426C43.4179 52.9062 43.084 53.0047 42.8409 53.2017C42.5977 53.3987 42.4762 53.6695 42.4762 54.0142C42.4762 54.3527 42.5854 54.619 42.8039 54.8129C43.0255 55.0067 43.3287 55.1037 43.7134 55.1037H46.0032V56.1193H43.7134C43.2333 56.1193 42.8193 56.0347 42.4715 55.8654C42.1238 55.6961 41.856 55.4545 41.6683 55.1406C41.4805 54.8236 41.3867 54.4482 41.3867 54.0142C41.3867 53.5772 41.4852 53.2017 41.6821 52.8878C41.8791 52.5739 42.1607 52.3323 42.5269 52.163C42.8963 51.9937 43.3348 51.9091 43.8426 51.9091H46.7603V59H45.7262ZM40.9989 59L43.0117 55.473H44.1935L42.1807 59H40.9989ZM51.6595 61.0312V57.9844H52.2504C52.395 57.8336 52.5197 57.6705 52.6243 57.495C52.729 57.3196 52.8198 57.1119 52.8967 56.8718C52.9767 56.6287 53.0444 56.3332 53.0998 55.9854C53.1552 55.6346 53.2045 55.2114 53.2476 54.7159L53.4876 51.9091H57.9933V57.9844H59.0828V61.0312H57.9933V59H52.749V61.0312H51.6595ZM53.4876 57.9844H56.9038V52.9247H54.5032L54.3186 54.7159C54.2416 55.4576 54.1462 56.1055 54.0324 56.6594C53.9185 57.2134 53.7369 57.6551 53.4876 57.9844ZM60.5289 59V51.9091H63.428C64.1913 51.9091 64.7976 52.0814 65.2469 52.4261C65.6963 52.7708 65.9209 53.2263 65.9209 53.7926C65.9209 54.2235 65.7932 54.5574 65.5378 54.7944C65.2823 55.0283 64.9546 55.1868 64.5545 55.2699C64.8161 55.3068 65.07 55.3991 65.3162 55.5469C65.5655 55.6946 65.7717 55.8977 65.9348 56.1562C66.0979 56.4117 66.1795 56.7256 66.1795 57.098C66.1795 57.4612 66.0871 57.7859 65.9025 58.0721C65.7178 58.3583 65.4531 58.5845 65.1084 58.7507C64.7637 58.9169 64.3513 59 63.8712 59H60.5289ZM61.563 58.0028H63.8712C64.2467 58.0028 64.5406 57.9136 64.753 57.7351C64.9653 57.5566 65.0715 57.3134 65.0715 57.0057C65.0715 56.6394 64.9653 56.3517 64.753 56.1424C64.5406 55.93 64.2467 55.8239 63.8712 55.8239H61.563V58.0028ZM61.563 54.8821H63.428C63.7204 54.8821 63.9713 54.8421 64.1805 54.7621C64.3898 54.679 64.5498 54.562 64.6606 54.4112C64.7745 54.2573 64.8315 54.0758 64.8315 53.8665C64.8315 53.5679 64.7068 53.334 64.4575 53.1648C64.2082 52.9924 63.8651 52.9062 63.428 52.9062H61.563V54.8821ZM70.8017 59.1477C70.1185 59.1477 69.5291 58.9969 69.0336 58.6953C68.5412 58.3906 68.1611 57.9659 67.8933 57.4212C67.6287 56.8733 67.4963 56.2363 67.4963 55.5099C67.4963 54.7836 67.6287 54.1435 67.8933 53.5895C68.1611 53.0324 68.5335 52.5985 69.0105 52.2876C69.4906 51.9737 70.0508 51.8168 70.6909 51.8168C71.0602 51.8168 71.4249 51.8783 71.785 52.0014C72.1451 52.1245 72.4729 52.3246 72.7683 52.6016C73.0638 52.8755 73.2992 53.2386 73.4747 53.6911C73.6501 54.1435 73.7378 54.7005 73.7378 55.3622V55.8239H68.2719V54.8821H72.6298C72.6298 54.482 72.5498 54.125 72.3898 53.8111C72.2328 53.4972 72.0082 53.2494 71.7158 53.0678C71.4265 52.8862 71.0849 52.7955 70.6909 52.7955C70.257 52.7955 69.8815 52.9032 69.5645 53.1186C69.2506 53.331 69.009 53.608 68.8397 53.9496C68.6704 54.2912 68.5858 54.6574 68.5858 55.0483V55.6761C68.5858 56.2116 68.6781 56.6656 68.8628 57.038C69.0505 57.4073 69.3106 57.6889 69.643 57.8828C69.9754 58.0736 70.3616 58.169 70.8017 58.169C71.0879 58.169 71.3465 58.129 71.5773 58.049C71.8112 57.9659 72.0128 57.8428 72.182 57.6797C72.3513 57.5135 72.4821 57.3073 72.5744 57.0611L73.627 57.3565C73.5162 57.7135 73.33 58.0275 73.0684 58.2983C72.8068 58.5661 72.4837 58.7753 72.0989 58.9261C71.7142 59.0739 71.2818 59.1477 70.8017 59.1477ZM75.3951 61.6591V51.9091H76.4477V53.0355H76.5769C76.6569 52.9124 76.7677 52.7554 76.9093 52.5646C77.054 52.3707 77.2602 52.1984 77.5279 52.0476C77.7988 51.8937 78.165 51.8168 78.6266 51.8168C79.2237 51.8168 79.75 51.966 80.2055 52.2646C80.661 52.5631 81.0164 52.9863 81.2719 53.5341C81.5273 54.0819 81.6551 54.7282 81.6551 55.473C81.6551 56.224 81.5273 56.8749 81.2719 57.4258C81.0164 57.9736 80.6625 58.3983 80.2101 58.6999C79.7577 58.9985 79.236 59.1477 78.6451 59.1477C78.1896 59.1477 77.8249 59.0723 77.551 58.9215C77.2771 58.7676 77.0663 58.5937 76.9185 58.3999C76.7708 58.2029 76.6569 58.0398 76.5769 57.9105H76.4846V61.6591H75.3951ZM76.4661 55.4545C76.4661 55.9901 76.5446 56.4625 76.7016 56.8718C76.8585 57.2781 77.0878 57.5966 77.3894 57.8274C77.691 58.0552 78.0604 58.169 78.4974 58.169C78.9529 58.169 79.333 58.049 79.6377 57.8089C79.9454 57.5658 80.1762 57.2396 80.3301 56.8303C80.4871 56.4179 80.5656 55.9593 80.5656 55.4545C80.5656 54.956 80.4886 54.5066 80.3347 54.1065C80.1839 53.7034 79.9546 53.3848 79.6469 53.1509C79.3422 52.9139 78.959 52.7955 78.4974 52.7955C78.0542 52.7955 77.6818 52.9078 77.3802 53.1325C77.0786 53.354 76.8508 53.6649 76.697 54.065C76.5431 54.462 76.4661 54.9252 76.4661 55.4545ZM84.2587 54.4759H86.29C87.121 54.4759 87.7565 54.6867 88.1966 55.1083C88.6367 55.5299 88.8568 56.0639 88.8568 56.7102C88.8568 57.1349 88.7583 57.5212 88.5613 57.869C88.3643 58.2137 88.075 58.4891 87.6934 58.6953C87.3118 58.8984 86.844 59 86.29 59H83.317V51.9091H84.4065V57.9844H86.29C86.7209 57.9844 87.0748 57.8705 87.3518 57.6428C87.6288 57.415 87.7673 57.1226 87.7673 56.7656C87.7673 56.3902 87.6288 56.0839 87.3518 55.8469C87.0748 55.61 86.7209 55.4915 86.29 55.4915H84.2587V54.4759ZM13.4991 77V69.9091H16.3983C17.1615 69.9091 17.7678 70.0814 18.2172 70.4261C18.6665 70.7708 18.8912 71.2263 18.8912 71.7926C18.8912 72.2235 18.7634 72.5574 18.508 72.7944C18.2525 73.0283 17.9248 73.1868 17.5247 73.2699C17.7863 73.3068 18.0402 73.3991 18.2864 73.5469C18.5357 73.6946 18.7419 73.8977 18.905 74.1562C19.0681 74.4117 19.1497 74.7256 19.1497 75.098C19.1497 75.4612 19.0574 75.7859 18.8727 76.0721C18.688 76.3583 18.4234 76.5845 18.0787 76.7507C17.734 76.9169 17.3216 77 16.8414 77H13.4991ZM14.5332 76.0028H16.8414C17.2169 76.0028 17.5108 75.9136 17.7232 75.7351C17.9355 75.5566 18.0417 75.3134 18.0417 75.0057C18.0417 74.6394 17.9355 74.3517 17.7232 74.1424C17.5108 73.93 17.2169 73.8239 16.8414 73.8239H14.5332V76.0028ZM14.5332 72.8821H16.3983C16.6906 72.8821 16.9415 72.8421 17.1507 72.7621C17.36 72.679 17.5201 72.562 17.6309 72.4112C17.7447 72.2573 17.8017 72.0758 17.8017 71.8665C17.8017 71.5679 17.677 71.334 17.4277 71.1648C17.1784 70.9924 16.8353 70.9062 16.3983 70.9062H14.5332V72.8821ZM24.4552 77V69.9091H30.0319V77H28.9424V70.9247H25.5447V77H24.4552ZM34.9023 77.1477C34.2621 77.1477 33.7004 76.9954 33.2172 76.6907C32.7371 76.386 32.3617 75.9598 32.0908 75.4119C31.8231 74.8641 31.6892 74.224 31.6892 73.4915C31.6892 72.7528 31.8231 72.1081 32.0908 71.5572C32.3617 71.0063 32.7371 70.5785 33.2172 70.2738C33.7004 69.9691 34.2621 69.8168 34.9023 69.8168C35.5424 69.8168 36.1025 69.9691 36.5827 70.2738C37.0658 70.5785 37.4413 71.0063 37.7091 71.5572C37.9799 72.1081 38.1153 72.7528 38.1153 73.4915C38.1153 74.224 37.9799 74.8641 37.7091 75.4119C37.4413 75.9598 37.0658 76.386 36.5827 76.6907C36.1025 76.9954 35.5424 77.1477 34.9023 77.1477ZM34.9023 76.169C35.3885 76.169 35.7886 76.0444 36.1025 75.7951C36.4165 75.5458 36.6488 75.218 36.7996 74.8118C36.9504 74.4055 37.0258 73.9654 37.0258 73.4915C37.0258 73.0175 36.9504 72.5759 36.7996 72.1665C36.6488 71.7572 36.4165 71.4264 36.1025 71.174C35.7886 70.9216 35.3885 70.7955 34.9023 70.7955C34.416 70.7955 34.0159 70.9216 33.702 71.174C33.3881 71.4264 33.1557 71.7572 33.0049 72.1665C32.8541 72.5759 32.7787 73.0175 32.7787 73.4915C32.7787 73.9654 32.8541 74.4055 33.0049 74.8118C33.1557 75.218 33.3881 75.5458 33.702 75.7951C34.0159 76.0444 34.416 76.169 34.9023 76.169ZM39.0213 79.0312V75.9844H39.6122C39.7569 75.8336 39.8815 75.6705 39.9862 75.495C40.0908 75.3196 40.1816 75.1119 40.2585 74.8718C40.3385 74.6287 40.4063 74.3332 40.4616 73.9854C40.517 73.6346 40.5663 73.2114 40.6094 72.7159L40.8494 69.9091H45.3551V75.9844H46.4446V79.0312H45.3551V77H40.1108V79.0312H39.0213ZM40.8494 75.9844H44.2656V70.9247H41.8651L41.6804 72.7159C41.6035 73.4576 41.508 74.1055 41.3942 74.6594C41.2803 75.2134 41.0987 75.6551 40.8494 75.9844ZM49.9774 77.1662C49.528 77.1662 49.1202 77.0816 48.754 76.9123C48.3878 76.7399 48.0969 76.4922 47.8815 76.169C47.666 75.8428 47.5583 75.4489 47.5583 74.9872C47.5583 74.581 47.6383 74.2517 47.7984 73.9993C47.9584 73.7438 48.1723 73.5438 48.4401 73.3991C48.7078 73.2545 49.0033 73.1468 49.3264 73.076C49.6527 73.0021 49.9804 72.9437 50.3097 72.9006C50.7406 72.8452 51.0899 72.8036 51.3577 72.7759C51.6285 72.7451 51.8255 72.6944 51.9486 72.6236C52.0748 72.5528 52.1379 72.4297 52.1379 72.2543V72.2173C52.1379 71.7618 52.0132 71.4079 51.7639 71.1555C51.5177 70.9032 51.1438 70.777 50.6421 70.777C50.122 70.777 49.7142 70.8909 49.4188 71.1186C49.1233 71.3464 48.9156 71.5895 48.7955 71.848L47.7615 71.4787C47.9461 71.0478 48.1923 70.7124 48.5001 70.4723C48.8109 70.2292 49.1495 70.0599 49.5157 69.9645C49.885 69.866 50.2482 69.8168 50.6052 69.8168C50.8329 69.8168 51.0945 69.8445 51.39 69.8999C51.6885 69.9522 51.9763 70.0614 52.2533 70.2276C52.5334 70.3938 52.7657 70.6446 52.9504 70.9801C53.135 71.3156 53.2274 71.7649 53.2274 72.3281V77H52.1379V76.0398H52.0825C52.0086 76.1937 51.8855 76.3583 51.7132 76.5337C51.5408 76.7092 51.3115 76.8584 51.0253 76.9815C50.7391 77.1046 50.3898 77.1662 49.9774 77.1662ZM50.1436 76.1875C50.5744 76.1875 50.9376 76.1029 51.233 75.9336C51.5316 75.7643 51.7562 75.5458 51.907 75.2781C52.0609 75.0103 52.1379 74.7287 52.1379 74.4332V73.4361C52.0917 73.4915 51.9901 73.5423 51.8332 73.5884C51.6793 73.6315 51.5008 73.67 51.2977 73.7038C51.0976 73.7346 50.9022 73.7623 50.7114 73.7869C50.5236 73.8085 50.3713 73.8269 50.2544 73.8423C49.9712 73.8793 49.7065 73.9393 49.4603 74.0224C49.2172 74.1024 49.0202 74.224 48.8694 74.3871C48.7217 74.5471 48.6478 74.7656 48.6478 75.0426C48.6478 75.4212 48.7878 75.7074 49.0679 75.9013C49.3511 76.0921 49.7096 76.1875 50.1436 76.1875ZM55.2159 79.6591V69.9091H56.2685V71.0355H56.3977C56.4777 70.9124 56.5885 70.7554 56.7301 70.5646C56.8748 70.3707 57.081 70.1984 57.3487 70.0476C57.6196 69.8937 57.9858 69.8168 58.4474 69.8168C59.0445 69.8168 59.5708 69.966 60.0263 70.2646C60.4818 70.5631 60.8372 70.9863 61.0927 71.5341C61.3481 72.0819 61.4759 72.7282 61.4759 73.473C61.4759 74.224 61.3481 74.8749 61.0927 75.4258C60.8372 75.9736 60.4833 76.3983 60.0309 76.6999C59.5785 76.9985 59.0568 77.1477 58.4659 77.1477C58.0104 77.1477 57.6457 77.0723 57.3718 76.9215C57.0979 76.7676 56.8871 76.5937 56.7393 76.3999C56.5916 76.2029 56.4777 76.0398 56.3977 75.9105H56.3054V79.6591H55.2159ZM56.2869 73.4545C56.2869 73.9901 56.3654 74.4625 56.5224 74.8718C56.6793 75.2781 56.9086 75.5966 57.2102 75.8274C57.5118 76.0552 57.8812 76.169 58.3182 76.169C58.7737 76.169 59.1538 76.049 59.4585 75.8089C59.7662 75.5658 59.997 75.2396 60.1509 74.8303C60.3079 74.4179 60.3864 73.9593 60.3864 73.4545C60.3864 72.956 60.3094 72.5066 60.1555 72.1065C60.0047 71.7034 59.7755 71.3848 59.4677 71.1509C59.163 70.9139 58.7798 70.7955 58.3182 70.7955C57.875 70.7955 57.5026 70.9078 57.201 71.1325C56.8994 71.354 56.6716 71.6649 56.5178 72.065C56.3639 72.462 56.2869 72.9252 56.2869 73.4545ZM66.0185 77.1477C65.3783 77.1477 64.8166 76.9954 64.3335 76.6907C63.8533 76.386 63.4779 75.9598 63.207 75.4119C62.9393 74.8641 62.8054 74.224 62.8054 73.4915C62.8054 72.7528 62.9393 72.1081 63.207 71.5572C63.4779 71.0063 63.8533 70.5785 64.3335 70.2738C64.8166 69.9691 65.3783 69.8168 66.0185 69.8168C66.6586 69.8168 67.2188 69.9691 67.6989 70.2738C68.1821 70.5785 68.5575 71.0063 68.8253 71.5572C69.0961 72.1081 69.2315 72.7528 69.2315 73.4915C69.2315 74.224 69.0961 74.8641 68.8253 75.4119C68.5575 75.9598 68.1821 76.386 67.6989 76.6907C67.2188 76.9954 66.6586 77.1477 66.0185 77.1477ZM66.0185 76.169C66.5047 76.169 66.9048 76.0444 67.2188 75.7951C67.5327 75.5458 67.765 75.218 67.9158 74.8118C68.0666 74.4055 68.142 73.9654 68.142 73.4915C68.142 73.0175 68.0666 72.5759 67.9158 72.1665C67.765 71.7572 67.5327 71.4264 67.2188 71.174C66.9048 70.9216 66.5047 70.7955 66.0185 70.7955C65.5322 70.7955 65.1321 70.9216 64.8182 71.174C64.5043 71.4264 64.2719 71.7572 64.1211 72.1665C63.9703 72.5759 63.8949 73.0175 63.8949 73.4915C63.8949 73.9654 63.9703 74.4055 64.1211 74.8118C64.2719 75.218 64.5043 75.5458 64.8182 75.7951C65.1321 76.0444 65.5322 76.169 66.0185 76.169ZM70.8946 77V69.9091H71.9841V72.9929H72.7043L75.2526 69.9091H76.656L73.7938 73.3253L76.6929 77H75.2895L72.9628 74.0085H71.9841V77H70.8946ZM79.3174 67.5455L79.2251 74.3409H78.154L78.0617 67.5455H79.3174ZM78.6895 77.0739C78.4618 77.0739 78.2664 76.9923 78.1032 76.8292C77.9401 76.6661 77.8586 76.4706 77.8586 76.2429C77.8586 76.0152 77.9401 75.8197 78.1032 75.6566C78.2664 75.4935 78.4618 75.4119 78.6895 75.4119C78.9173 75.4119 79.1127 75.4935 79.2758 75.6566C79.439 75.8197 79.5205 76.0152 79.5205 76.2429C79.5205 76.3937 79.482 76.5322 79.4051 76.6584C79.3312 76.7846 79.2312 76.8861 79.105 76.9631C78.9819 77.0369 78.8434 77.0739 78.6895 77.0739Z" fill="white"/>
<path d="M16.82 16.4293V35H12.8936V20.1562H12.7848L8.53208 22.8221V19.3401L13.1294 16.4293H16.82ZM26.7831 32.1709V19.331H30.0294V32.1709H26.7831ZM21.9863 27.3741V24.1278H34.8262V27.3741H21.9863ZM46.6686 16.4293V35H42.7423V20.1562H42.6335L38.3807 22.8221V19.3401L42.978 16.4293H46.6686ZM51.9891 24.3182V21.0901H64.5116V24.3182H51.9891ZM51.9891 30.3392V27.1111H64.5116V30.3392H51.9891ZM75.3022 35.2539C73.948 35.2539 72.742 35.0212 71.6841 34.5557C70.6323 34.0842 69.8011 33.4373 69.1905 32.6152C68.586 31.787 68.2747 30.8319 68.2565 29.7498H72.2101C72.2343 30.2032 72.3824 30.6022 72.6544 30.9467C72.9325 31.2853 73.3012 31.5482 73.7606 31.7356C74.2201 31.923 74.7369 32.0167 75.3112 32.0167C75.9097 32.0167 76.4386 31.9109 76.8981 31.6994C77.3575 31.4878 77.7172 31.1946 77.9771 30.8198C78.2371 30.445 78.367 30.0128 78.367 29.5231C78.367 29.0274 78.228 28.5891 77.9499 28.2083C77.6779 27.8214 77.285 27.5191 76.7711 27.3015C76.2633 27.0839 75.6588 26.9751 74.9576 26.9751H73.2257V24.0915H74.9576C75.55 24.0915 76.0729 23.9888 76.5263 23.7832C76.9857 23.5777 77.3424 23.2936 77.5963 22.9309C77.8502 22.5621 77.9771 22.1329 77.9771 21.6433C77.9771 21.1778 77.8653 20.7697 77.6416 20.4191C77.424 20.0625 77.1157 19.7844 76.7167 19.5849C76.3238 19.3854 75.8644 19.2857 75.3384 19.2857C74.8065 19.2857 74.3198 19.3824 73.8785 19.5758C73.4372 19.7632 73.0836 20.0322 72.8176 20.3829C72.5516 20.7335 72.4096 21.1445 72.3914 21.6161H68.6283C68.6465 20.5461 68.9517 19.603 69.5442 18.7869C70.1366 17.9708 70.9345 17.3331 71.938 16.8736C72.9476 16.4082 74.0871 16.1754 75.3566 16.1754C76.6381 16.1754 77.7595 16.4082 78.7207 16.8736C79.6819 17.3391 80.4284 17.9678 80.9604 18.7597C81.4984 19.5456 81.7644 20.4282 81.7584 21.4075C81.7644 22.4473 81.441 23.3147 80.7881 24.0099C80.1413 24.7051 79.298 25.1464 78.2582 25.3338V25.4789C79.6244 25.6542 80.6642 26.1288 81.3775 26.9025C82.0969 27.6703 82.4536 28.6314 82.4475 29.7861C82.4536 30.844 82.1483 31.784 81.5317 32.6061C80.9211 33.4283 80.0778 34.0751 79.0018 34.5466C77.9258 35.0181 76.6925 35.2539 75.3022 35.2539Z" fill="white"/>
</svg>