<svg width="93" height="88" viewBox="0 0 93 88" fill="none" xmlns="http://www.w3.org/2000/svg">
<rect width="93" height="88" fill="white"/>
<path d="M21.8867 16V6.54545H28.1605V8.19354H23.8856V10.0401H25.4229C26.1708 10.0401 26.8155 10.1617 27.3572 10.4048C27.9019 10.6449 28.322 10.985 28.6175 11.4251C28.913 11.8652 29.0607 12.3838 29.0607 12.9808C29.0607 13.5748 28.913 14.0996 28.6175 14.555C28.322 15.0075 27.9019 15.3614 27.3572 15.6168C26.8155 15.8723 26.1708 16 25.4229 16H21.8867ZM23.8856 14.3935H25.4229C25.7799 14.3935 26.0815 14.3288 26.3277 14.1996C26.5739 14.0672 26.7601 13.8933 26.8863 13.6779C27.0156 13.4594 27.0802 13.2209 27.0802 12.9624C27.0802 12.5869 26.9371 12.2699 26.6509 12.0114C26.3677 11.7498 25.9584 11.619 25.4229 11.619H23.8856V14.3935ZM33.5214 16.1385C32.8043 16.1385 32.1841 15.9862 31.6609 15.6815C31.1408 15.3737 30.7392 14.9459 30.456 14.3981C30.1729 13.8472 30.0313 13.2086 30.0313 12.4822C30.0313 11.7498 30.1729 11.1096 30.456 10.5618C30.7392 10.0109 31.1408 9.5831 31.6609 9.27841C32.1841 8.97064 32.8043 8.81676 33.5214 8.81676C34.2384 8.81676 34.8571 8.97064 35.3772 9.27841C35.9004 9.5831 36.3035 10.0109 36.5867 10.5618C36.8698 11.1096 37.0114 11.7498 37.0114 12.4822C37.0114 13.2086 36.8698 13.8472 36.5867 14.3981C36.3035 14.9459 35.9004 15.3737 35.3772 15.6815C34.8571 15.9862 34.2384 16.1385 33.5214 16.1385ZM33.5306 14.6151C33.8568 14.6151 34.1292 14.5227 34.3477 14.3381C34.5662 14.1503 34.7309 13.8949 34.8417 13.5717C34.9555 13.2486 35.0125 12.8808 35.0125 12.4684C35.0125 12.056 34.9555 11.6882 34.8417 11.3651C34.7309 11.0419 34.5662 10.7865 34.3477 10.5987C34.1292 10.411 33.8568 10.3171 33.5306 10.3171C33.2013 10.3171 32.9243 10.411 32.6996 10.5987C32.478 10.7865 32.3103 11.0419 32.1964 11.3651C32.0856 11.6882 32.0302 12.056 32.0302 12.4684C32.0302 12.8808 32.0856 13.2486 32.1964 13.5717C32.3103 13.8949 32.478 14.1503 32.6996 14.3381C32.9243 14.5227 33.2013 14.6151 33.5306 14.6151ZM37.8747 16L37.8655 14.4396H38.1009C38.2671 14.4396 38.4102 14.3996 38.5302 14.3196C38.6533 14.2365 38.7549 14.1026 38.8349 13.918C38.9149 13.7333 38.978 13.4886 39.0242 13.1839C39.0704 12.8762 39.1011 12.4976 39.1165 12.0483L39.2319 8.90909H44.624V16H42.7497V10.4556H41L40.8892 12.6207C40.8616 13.2147 40.7892 13.7256 40.6723 14.1534C40.5584 14.5812 40.3999 14.9321 40.1968 15.206C39.9937 15.4768 39.749 15.6768 39.4628 15.8061C39.1765 15.9354 38.8441 16 38.4656 16H37.8747ZM47.3812 11.0881H49.5001C50.4388 11.0881 51.1713 11.3127 51.6976 11.7621C52.2239 12.2083 52.487 12.8054 52.487 13.5533C52.487 14.0395 52.3685 14.4673 52.1315 14.8366C51.8945 15.2029 51.5529 15.4891 51.1067 15.6953C50.6604 15.8984 50.1249 16 49.5001 16H46.1486V8.90909H48.0275V14.4535H49.5001C49.8294 14.4535 50.1003 14.3704 50.3126 14.2042C50.525 14.038 50.6327 13.8256 50.6358 13.5671C50.6327 13.2932 50.525 13.0701 50.3126 12.8977C50.1003 12.7223 49.8294 12.6346 49.5001 12.6346H47.3812V11.0881ZM53.7911 8.90909H55.6701V14.4396H57.669V8.90909H59.5479V14.4396H61.5468V8.90909H63.4257V16H53.7911V8.90909ZM68.1819 16.1385C67.4525 16.1385 66.8246 15.9908 66.2983 15.6953C65.7751 15.3968 65.372 14.9751 65.0888 14.4304C64.8057 13.8826 64.6641 13.2347 64.6641 12.4869C64.6641 11.7575 64.8057 11.1173 65.0888 10.5664C65.372 10.0155 65.7705 9.58617 66.2845 9.27841C66.8015 8.97064 67.4078 8.81676 68.1034 8.81676C68.5712 8.81676 69.0067 8.89216 69.4098 9.04297C69.8161 9.1907 70.17 9.41383 70.4716 9.71236C70.7763 10.0109 71.0133 10.3864 71.1826 10.8388C71.3518 11.2881 71.4365 11.8144 71.4365 12.4176V12.9577H65.4489V11.739H69.5853C69.5853 11.4558 69.5237 11.205 69.4006 10.9865C69.2775 10.768 69.1067 10.5972 68.8882 10.4741C68.6727 10.3479 68.4219 10.2848 68.1357 10.2848C67.8372 10.2848 67.5725 10.354 67.3417 10.4925C67.1139 10.628 66.9354 10.8111 66.8062 11.0419C66.6769 11.2696 66.6107 11.5236 66.6076 11.8036V12.9624C66.6076 13.3132 66.6723 13.6164 66.8015 13.8718C66.9339 14.1272 67.1201 14.3242 67.3601 14.4627C67.6002 14.6012 67.8849 14.6705 68.2142 14.6705C68.4327 14.6705 68.6327 14.6397 68.8143 14.5781C68.9959 14.5166 69.1513 14.4242 69.2806 14.3011C69.4098 14.178 69.5083 14.0272 69.576 13.8487L71.3949 13.9688C71.3026 14.4058 71.1133 14.7874 70.8271 15.1136C70.544 15.4368 70.1777 15.6892 69.7284 15.8707C69.2821 16.0492 68.7666 16.1385 68.1819 16.1385ZM21.9466 34.0312V30.9844H22.5375C22.6822 30.8336 22.8068 30.6705 22.9114 30.495C23.0161 30.3196 23.1069 30.1119 23.1838 29.8718C23.2638 29.6287 23.3315 29.3332 23.3869 28.9854C23.4423 28.6346 23.4916 28.2114 23.5347 27.7159L23.7747 24.9091H28.2804V30.9844H29.3699V34.0312H28.2804V32H23.0361V34.0312H21.9466ZM23.7747 30.9844H27.1909V25.9247H24.7903L24.6057 27.7159C24.5287 28.4576 24.4333 29.1055 24.3195 29.6594C24.2056 30.2134 24.024 30.6551 23.7747 30.9844ZM30.816 32V24.9091H33.7152C34.4784 24.9091 35.0847 25.0814 35.534 25.4261C35.9834 25.7708 36.2081 26.2263 36.2081 26.7926C36.2081 27.2235 36.0803 27.5574 35.8249 27.7944C35.5694 28.0283 35.2417 28.1868 34.8416 28.2699C35.1032 28.3068 35.3571 28.3991 35.6033 28.5469C35.8526 28.6946 36.0588 28.8977 36.2219 29.1562C36.385 29.4117 36.4666 29.7256 36.4666 30.098C36.4666 30.4612 36.3742 30.7859 36.1896 31.0721C36.0049 31.3583 35.7402 31.5845 35.3956 31.7507C35.0509 31.9169 34.6385 32 34.1583 32H30.816ZM31.8501 31.0028H34.1583C34.5338 31.0028 34.8277 30.9136 35.0401 30.7351C35.2524 30.5566 35.3586 30.3134 35.3586 30.0057C35.3586 29.6394 35.2524 29.3517 35.0401 29.1424C34.8277 28.93 34.5338 28.8239 34.1583 28.8239H31.8501V31.0028ZM31.8501 27.8821H33.7152C34.0075 27.8821 34.2584 27.8421 34.4676 27.7621C34.6769 27.679 34.837 27.562 34.9478 27.4112C35.0616 27.2573 35.1186 27.0758 35.1186 26.8665C35.1186 26.5679 34.9939 26.334 34.7446 26.1648C34.4953 25.9924 34.1522 25.9062 33.7152 25.9062H31.8501V27.8821ZM41.0888 32.1477C40.4056 32.1477 39.8162 31.9969 39.3207 31.6953C38.8283 31.3906 38.4482 30.9659 38.1804 30.4212C37.9158 29.8733 37.7834 29.2363 37.7834 28.5099C37.7834 27.7836 37.9158 27.1435 38.1804 26.5895C38.4482 26.0324 38.8206 25.5985 39.2976 25.2876C39.7777 24.9737 40.3379 24.8168 40.978 24.8168C41.3473 24.8168 41.712 24.8783 42.0721 25.0014C42.4322 25.1245 42.76 25.3246 43.0554 25.6016C43.3509 25.8755 43.5863 26.2386 43.7618 26.6911C43.9372 27.1435 44.0249 27.7005 44.0249 28.3622V28.8239H38.559V27.8821H42.9169C42.9169 27.482 42.8369 27.125 42.6769 26.8111C42.5199 26.4972 42.2953 26.2494 42.0029 26.0678C41.7136 25.8862 41.372 25.7955 40.978 25.7955C40.5441 25.7955 40.1686 25.9032 39.8516 26.1186C39.5377 26.331 39.2961 26.608 39.1268 26.9496C38.9575 27.2912 38.8729 27.6574 38.8729 28.0483V28.6761C38.8729 29.2116 38.9652 29.6656 39.1499 30.038C39.3376 30.4073 39.5977 30.6889 39.9301 30.8828C40.2625 31.0736 40.6487 31.169 41.0888 31.169C41.375 31.169 41.6336 31.129 41.8644 31.049C42.0983 30.9659 42.2999 30.8428 42.4691 30.6797C42.6384 30.5135 42.7692 30.3073 42.8616 30.0611L43.9141 30.3565C43.8033 30.7135 43.6171 31.0275 43.3555 31.2983C43.0939 31.5661 42.7708 31.7753 42.3861 31.9261C42.0013 32.0739 41.5689 32.1477 41.0888 32.1477ZM45.6822 34.6591V24.9091H46.7348V26.0355H46.864C46.9441 25.9124 47.0549 25.7554 47.1964 25.5646C47.3411 25.3707 47.5473 25.1984 47.815 25.0476C48.0859 24.8937 48.4521 24.8168 48.9138 24.8168C49.5108 24.8168 50.0371 24.966 50.4926 25.2646C50.9481 25.5631 51.3035 25.9863 51.559 26.5341C51.8144 27.0819 51.9422 27.7282 51.9422 28.473C51.9422 29.224 51.8144 29.8749 51.559 30.4258C51.3035 30.9736 50.9496 31.3983 50.4972 31.6999C50.0448 31.9985 49.5231 32.1477 48.9322 32.1477C48.4767 32.1477 48.112 32.0723 47.8381 31.9215C47.5642 31.7676 47.3534 31.5937 47.2057 31.3999C47.0579 31.2029 46.9441 31.0398 46.864 30.9105H46.7717V34.6591H45.6822ZM46.7532 28.4545C46.7532 28.9901 46.8317 29.4625 46.9887 29.8718C47.1456 30.2781 47.3749 30.5966 47.6765 30.8274C47.9781 31.0552 48.3475 31.169 48.7845 31.169C49.24 31.169 49.6201 31.049 49.9248 30.8089C50.2325 30.5658 50.4633 30.2396 50.6172 29.8303C50.7742 29.4179 50.8527 28.9593 50.8527 28.4545C50.8527 27.956 50.7757 27.5066 50.6218 27.1065C50.471 26.7034 50.2418 26.3848 49.934 26.1509C49.6293 25.9139 49.2461 25.7955 48.7845 25.7955C48.3413 25.7955 47.9689 25.9078 47.6673 26.1325C47.3657 26.354 47.1379 26.6649 46.9841 27.065C46.8302 27.462 46.7532 27.9252 46.7532 28.4545ZM56.5771 32.1477C55.8939 32.1477 55.3045 31.9969 54.809 31.6953C54.3166 31.3906 53.9365 30.9659 53.6687 30.4212C53.404 29.8733 53.2717 29.2363 53.2717 28.5099C53.2717 27.7836 53.404 27.1435 53.6687 26.5895C53.9365 26.0324 54.3089 25.5985 54.7859 25.2876C55.266 24.9737 55.8262 24.8168 56.4663 24.8168C56.8356 24.8168 57.2003 24.8783 57.5604 25.0014C57.9205 25.1245 58.2483 25.3246 58.5437 25.6016C58.8392 25.8755 59.0746 26.2386 59.25 26.6911C59.4255 27.1435 59.5132 27.7005 59.5132 28.3622V28.8239H54.0473V27.8821H58.4052C58.4052 27.482 58.3252 27.125 58.1652 26.8111C58.0082 26.4972 57.7835 26.2494 57.4912 26.0678C57.2019 25.8862 56.8602 25.7955 56.4663 25.7955C56.0324 25.7955 55.6569 25.9032 55.3399 26.1186C55.026 26.331 54.7844 26.608 54.6151 26.9496C54.4458 27.2912 54.3612 27.6574 54.3612 28.0483V28.6761C54.3612 29.2116 54.4535 29.6656 54.6382 30.038C54.8259 30.4073 55.086 30.6889 55.4184 30.8828C55.7508 31.0736 56.137 31.169 56.5771 31.169C56.8633 31.169 57.1218 31.129 57.3527 31.049C57.5866 30.9659 57.7882 30.8428 57.9574 30.6797C58.1267 30.5135 58.2575 30.3073 58.3498 30.0611L59.4024 30.3565C59.2916 30.7135 59.1054 31.0275 58.8438 31.2983C58.5822 31.5661 58.259 31.7753 57.8743 31.9261C57.4896 32.0739 57.0572 32.1477 56.5771 32.1477ZM62.26 30.3935L65.6762 24.9091H66.9319V32H65.8424V26.5156L62.4446 32H61.1705V24.9091H62.26V30.3935ZM64.956 22.5455H65.9716C65.9716 23.044 65.7993 23.4518 65.4546 23.7688C65.1099 24.0858 64.6421 24.2443 64.0512 24.2443C63.4695 24.2443 63.0063 24.0858 62.6616 23.7688C62.32 23.4518 62.1492 23.044 62.1492 22.5455H63.1648C63.1648 22.7855 63.231 22.9963 63.3633 23.1779C63.4987 23.3595 63.728 23.4503 64.0512 23.4503C64.3743 23.4503 64.6052 23.3595 64.7437 23.1779C64.8852 22.9963 64.956 22.7855 64.956 22.5455ZM70.3506 30.8068L70.2824 31.267C70.2342 31.5909 70.1603 31.9375 70.0609 32.3068C69.9643 32.6761 69.8634 33.0241 69.7583 33.3509C69.6532 33.6776 69.5665 33.9375 69.4984 34.1307H68.7313C68.7682 33.9489 68.8165 33.7088 68.8762 33.4105C68.9359 33.1122 68.9955 32.7784 69.0552 32.4091C69.1177 32.0426 69.1688 31.6676 69.2086 31.2841L69.2597 30.8068H70.3506ZM25.1379 37.8139L25.8304 39.2947C25.5996 39.4865 25.3439 39.6286 25.0633 39.7209C24.7828 39.8097 24.4472 39.8683 24.0566 39.8967C23.6695 39.9251 23.1972 39.9446 22.6397 39.9553C22.0076 39.9624 21.4927 40.0636 21.0949 40.2589C20.6972 40.4542 20.3954 40.7614 20.1894 41.1804C19.9834 41.5959 19.8485 42.1392 19.7846 42.8104H19.8645C20.1095 42.3097 20.454 41.9226 20.8979 41.6491C21.3453 41.3757 21.8975 41.239 22.5545 41.239C23.2505 41.239 23.8595 41.3917 24.3815 41.6971C24.9071 42.0025 25.3155 42.4411 25.6067 43.0128C25.8979 43.5845 26.0435 44.2699 26.0435 45.0689C26.0435 45.8999 25.8801 46.6225 25.5534 47.2369C25.2302 47.8477 24.7704 48.3217 24.1738 48.6591C23.5772 48.9929 22.867 49.1598 22.0431 49.1598C21.2157 49.1598 20.5019 48.9858 19.9018 48.6378C19.3052 48.2898 18.8435 47.7766 18.5168 47.0984C18.1937 46.4201 18.0321 45.5856 18.0321 44.5948V43.9237C18.0321 41.9528 18.4156 40.4915 19.1827 39.5398C19.9497 38.5881 21.0772 38.1051 22.5651 38.0909C22.9699 38.0838 23.3357 38.082 23.6624 38.0856C23.9891 38.0891 24.275 38.0732 24.52 38.0376C24.7686 38.0021 24.9746 37.9276 25.1379 37.8139ZM22.0538 47.402C22.4018 47.402 22.7001 47.3114 22.9486 47.1303C23.2008 46.9492 23.3943 46.69 23.5293 46.3526C23.6677 46.0153 23.737 45.6122 23.737 45.1435C23.737 44.6783 23.6677 44.2841 23.5293 43.9609C23.3943 43.6342 23.2008 43.3857 22.9486 43.2152C22.6965 43.0447 22.3947 42.9595 22.0431 42.9595C21.7803 42.9595 21.5442 43.0075 21.3347 43.1033C21.1251 43.1992 20.9458 43.3413 20.7967 43.5295C20.6511 43.7141 20.5374 43.9432 20.4557 44.2166C20.3776 44.4865 20.3386 44.7955 20.3386 45.1435C20.3386 45.843 20.4895 46.3952 20.7913 46.8001C21.0967 47.2013 21.5175 47.402 22.0538 47.402ZM31.2463 49.1598C30.4189 49.1598 29.7033 48.984 29.0997 48.6325C28.4995 48.2773 28.0361 47.7837 27.7094 47.1516C27.3827 46.516 27.2193 45.7791 27.2193 44.9411C27.2193 44.0959 27.3827 43.3572 27.7094 42.7251C28.0361 42.0895 28.4995 41.5959 29.0997 41.2443C29.7033 40.8892 30.4189 40.7116 31.2463 40.7116C32.0737 40.7116 32.7875 40.8892 33.3877 41.2443C33.9913 41.5959 34.4565 42.0895 34.7832 42.7251C35.11 43.3572 35.2733 44.0959 35.2733 44.9411C35.2733 45.7791 35.11 46.516 34.7832 47.1516C34.4565 47.7837 33.9913 48.2773 33.3877 48.6325C32.7875 48.984 32.0737 49.1598 31.2463 49.1598ZM31.257 47.402C31.6334 47.402 31.9477 47.2955 32.1998 47.0824C32.4519 46.8658 32.6419 46.571 32.7698 46.1982C32.9011 45.8253 32.9668 45.4009 32.9668 44.9251C32.9668 44.4492 32.9011 44.0249 32.7698 43.652C32.6419 43.2791 32.4519 42.9844 32.1998 42.7678C31.9477 42.5511 31.6334 42.4428 31.257 42.4428C30.877 42.4428 30.5574 42.5511 30.2982 42.7678C30.0425 42.9844 29.8489 43.2791 29.7176 43.652C29.5897 44.0249 29.5258 44.4492 29.5258 44.9251C29.5258 45.4009 29.5897 45.8253 29.7176 46.1982C29.8489 46.571 30.0425 46.8658 30.2982 47.0824C30.5574 47.2955 30.877 47.402 31.257 47.402ZM36.2694 49L36.2587 47.1996H36.5304C36.7222 47.1996 36.8873 47.1534 37.0258 47.0611C37.1678 46.9652 37.285 46.8107 37.3774 46.5977C37.4697 46.3846 37.5425 46.1023 37.5957 45.7507C37.649 45.3956 37.6845 44.9588 37.7023 44.4403L37.8354 40.8182H44.057V49H41.8944V42.6026H39.8756L39.7477 45.1009C39.7158 45.7862 39.6323 46.3757 39.4974 46.8693C39.366 47.3629 39.1831 47.7678 38.9487 48.0838C38.7144 48.3963 38.432 48.6271 38.1018 48.7763C37.7715 48.9254 37.388 49 36.9512 49H36.2694ZM47.2384 43.3324H49.6834C50.7665 43.3324 51.6116 43.5916 52.2189 44.1101C52.8261 44.625 53.1298 45.3139 53.1298 46.1768C53.1298 46.7379 52.993 47.2315 52.7196 47.6577C52.4462 48.0803 52.052 48.4105 51.5371 48.6484C51.0222 48.8828 50.4043 49 49.6834 49H45.8162V40.8182H47.9842V47.2156H49.6834C50.0633 47.2156 50.3758 47.1197 50.6209 46.9279C50.8659 46.7362 50.9902 46.4911 50.9937 46.1928C50.9902 45.8768 50.8659 45.6193 50.6209 45.4205C50.3758 45.218 50.0633 45.1168 49.6834 45.1168H47.2384V43.3324ZM54.6345 40.8182H56.8025V47.1996H59.109V40.8182H61.2769V47.1996H63.5834V40.8182H65.7514V49H54.6345V40.8182ZM71.2392 49.1598C70.3976 49.1598 69.6732 48.9893 69.0659 48.6484C68.4622 48.304 67.997 47.8175 67.6703 47.1889C67.3436 46.5568 67.1803 45.8093 67.1803 44.9464C67.1803 44.1048 67.3436 43.3661 67.6703 42.7305C67.997 42.0948 68.4569 41.5994 69.0499 41.2443C69.6465 40.8892 70.3461 40.7116 71.1487 40.7116C71.6884 40.7116 72.1909 40.7987 72.6561 40.9727C73.1249 41.1431 73.5332 41.4006 73.8813 41.745C74.2328 42.0895 74.5063 42.5227 74.7016 43.0447C74.8969 43.5632 74.9945 44.1705 74.9945 44.8665V45.4897H68.0858V44.0835H72.8585C72.8585 43.7567 72.7875 43.4673 72.6455 43.2152C72.5034 42.9631 72.3063 42.766 72.0542 42.6239C71.8056 42.4783 71.5162 42.4055 71.1859 42.4055C70.8415 42.4055 70.5361 42.4854 70.2698 42.6452C70.007 42.8015 69.801 43.0128 69.6519 43.2791C69.5027 43.5419 69.4264 43.8349 69.4228 44.158V45.495C69.4228 45.8999 69.4974 46.2496 69.6465 46.5444C69.7992 46.8391 70.0141 47.0664 70.2911 47.2262C70.568 47.386 70.8965 47.4659 71.2765 47.4659C71.5286 47.4659 71.7595 47.4304 71.969 47.3594C72.1785 47.2884 72.3578 47.1818 72.507 47.0398C72.6561 46.8977 72.7698 46.7237 72.8479 46.5178L74.9466 46.6562C74.8401 47.1605 74.6217 47.6009 74.2914 47.9773C73.9647 48.3501 73.5421 48.6413 73.0237 48.8509C72.5087 49.0568 71.9139 49.1598 71.2392 49.1598Z" fill="black"/>
<path d="M62.7926 61.7203H59.7303C60.4327 61.3527 60.9745 60.8415 61.2771 60.2433C61.7191 59.37 61.6035 58.4063 60.9602 57.5994C60.1737 56.6128 58.6968 56 57.1056 56C55.8491 56 54.6891 56.3658 53.8392 57.0299L50.0624 59.9815C49.4885 59.5124 48.6473 59.2142 47.7089 59.2142H46.5319C45.5934 59.2142 44.7522 59.5124 44.1783 59.9817L40.4015 57.0301C39.5516 56.3658 38.3918 56 37.1353 56C35.5441 56 34.067 56.6128 33.2807 57.5994C32.6373 58.4065 32.5218 59.3701 32.9638 60.2434C33.2664 60.8416 33.8083 61.3527 34.5104 61.7203H31.4483C30.6483 61.7203 30 62.1836 30 62.7552V68.3713C30 68.9195 30.5971 69.367 31.3517 69.4027V82.4953C31.3517 83.0668 32 83.5301 32.8 83.5301H42.5519H51.689H61.4409C62.2409 83.5301 62.8892 83.0668 62.8892 82.4953V69.4027C63.6438 69.3671 64.2409 68.9196 64.2409 68.3713V62.7552C64.2409 62.1836 63.5926 61.7203 62.7926 61.7203ZM50.2407 63.8001V81.4604H44.0002V63.8001H44.8515H49.3895H50.2407ZM35.6878 59.5396C35.5325 59.2326 35.5713 58.9073 35.7974 58.6238C36.0742 58.2769 36.5743 58.0698 37.1353 58.0698C37.5686 58.0698 37.9693 58.1964 38.2638 58.4266L42.4784 61.7203H42.2854L36.5917 60.1935C36.1642 60.0787 35.843 59.8465 35.6878 59.5396ZM58.5531 59.5394C58.3977 59.8465 58.0766 60.0787 57.6488 60.1934L51.9555 61.7203H51.7625L55.9769 58.4266C56.2712 58.1964 56.6723 58.0698 57.1056 58.0698C57.6666 58.0698 58.1667 58.2769 58.4435 58.6239C58.6692 58.9073 58.7084 59.2326 58.5531 59.5394Z" fill="#FE0100"/>
</svg>