<svg width="100" height="101" viewBox="0 0 100 101" fill="none" xmlns="http://www.w3.org/2000/svg">
<mask id="mask0_257_1081" style="mask-type:luminance" maskUnits="userSpaceOnUse" x="0" y="0" width="100" height="101">
<path d="M0 10C0 4.47715 4.47715 0 10 0H100V101H10C4.47716 101 0 96.5228 0 91V10Z" fill="white"/>
</mask>
<g mask="url(#mask0_257_1081)">
<path fill-rule="evenodd" clip-rule="evenodd" d="M92 4C94.2091 4 96 2.20914 96 0H100V101H96C96 98.7909 94.2091 97 92 97C89.7909 97 88 98.7909 88 101H0V0H88C88 2.20914 89.7909 4 92 4ZM88 0C88 -2.20914 89.7909 -4 92 -4C94.2091 -4 96 -2.20914 96 0H88ZM88 101C88 103.209 89.7909 105 92 105C94.2091 105 96 103.209 96 101H88ZM94 11.7C94 12.8046 93.1046 13.7 92 13.7C90.8954 13.7 90 12.8046 90 11.7C90 10.5954 90.8954 9.7 92 9.7C93.1046 9.7 94 10.5954 94 11.7ZM92 23.4C93.1046 23.4 94 22.5046 94 21.4C94 20.2954 93.1046 19.4 92 19.4C90.8954 19.4 90 20.2954 90 21.4C90 22.5046 90.8954 23.4 92 23.4ZM94 31.1C94 32.2046 93.1046 33.1 92 33.1C90.8954 33.1 90 32.2046 90 31.1C90 29.9954 90.8954 29.1 92 29.1C93.1046 29.1 94 29.9954 94 31.1ZM92 42.8C93.1046 42.8 94 41.9046 94 40.8C94 39.6954 93.1046 38.8 92 38.8C90.8954 38.8 90 39.6954 90 40.8C90 41.9046 90.8954 42.8 92 42.8ZM94 50.5C94 51.6046 93.1046 52.5 92 52.5C90.8954 52.5 90 51.6046 90 50.5C90 49.3954 90.8954 48.5 92 48.5C93.1046 48.5 94 49.3954 94 50.5ZM92 62.2C93.1046 62.2 94 61.3046 94 60.2C94 59.0954 93.1046 58.2 92 58.2C90.8954 58.2 90 59.0954 90 60.2C90 61.3046 90.8954 62.2 92 62.2ZM94 69.9C94 71.0046 93.1046 71.9 92 71.9C90.8954 71.9 90 71.0046 90 69.9C90 68.7954 90.8954 67.9 92 67.9C93.1046 67.9 94 68.7954 94 69.9ZM92 81.6C93.1046 81.6 94 80.7046 94 79.6C94 78.4954 93.1046 77.6 92 77.6C90.8954 77.6 90 78.4954 90 79.6C90 80.7046 90.8954 81.6 92 81.6ZM94 89.3C94 90.4046 93.1046 91.3 92 91.3C90.8954 91.3 90 90.4046 90 89.3C90 88.1954 90.8954 87.3 92 87.3C93.1046 87.3 94 88.1954 94 89.3Z" fill="#FE0002"/>
</g>
</svg>