<svg width="16" height="16" viewBox="0 0 16 16" fill="none" xmlns="http://www.w3.org/2000/svg">
<g clip-path="url(#clip0_304_2)">
<rect width="16" height="16" rx="2" fill="white"/>
<mask id="path-2-inside-1_304_2" fill="white">
<path fill-rule="evenodd" clip-rule="evenodd" d="M8.38216 0.369794C8.26601 -0.00607743 7.73398 -0.00607683 7.61783 0.369794L6.20899 4.92888H9.791L8.38216 0.369794ZM10.3423 5.80186C10.3468 5.80201 10.3513 5.80209 10.3559 5.80209L15.4545 5.80209C15.8612 5.81464 16.0322 6.33482 15.7044 6.58522L3.68983 15.7635C3.35457 16.0197 2.88916 15.6986 3.00517 15.2966L4.58311 10.1904C4.6326 10.0302 4.57697 9.85616 4.44376 9.7544L4.43319 9.74632C4.43001 9.74374 4.42678 9.74121 4.42351 9.73871L0.295536 6.58522C-0.0322347 6.33482 0.138731 5.81464 0.545464 5.80209L5.6441 5.80209C5.64866 5.80209 5.65321 5.80201 5.65774 5.80186H10.3423ZM8.71886 13.0203L11.6091 10.8123L13.0259 15.3971C13.1408 15.7692 12.7103 16.0695 12.4009 15.8331L8.71886 13.0203Z"/>
</mask>
<path fill-rule="evenodd" clip-rule="evenodd" d="M8.38216 0.369794C8.26601 -0.00607743 7.73398 -0.00607683 7.61783 0.369794L6.20899 4.92888H9.791L8.38216 0.369794ZM10.3423 5.80186C10.3468 5.80201 10.3513 5.80209 10.3559 5.80209L15.4545 5.80209C15.8612 5.81464 16.0322 6.33482 15.7044 6.58522L3.68983 15.7635C3.35457 16.0197 2.88916 15.6986 3.00517 15.2966L4.58311 10.1904C4.6326 10.0302 4.57697 9.85616 4.44376 9.7544L4.43319 9.74632C4.43001 9.74374 4.42678 9.74121 4.42351 9.73871L0.295536 6.58522C-0.0322347 6.33482 0.138731 5.81464 0.545464 5.80209L5.6441 5.80209C5.64866 5.80209 5.65321 5.80201 5.65774 5.80186H10.3423ZM8.71886 13.0203L11.6091 10.8123L13.0259 15.3971C13.1408 15.7692 12.7103 16.0695 12.4009 15.8331L8.71886 13.0203Z" fill="#FA6C2B"/>
<path d="M7.61783 0.369794L8.19108 0.546939L8.19108 0.546939L7.61783 0.369794ZM8.38216 0.369794L8.95542 0.192649L8.95542 0.192648L8.38216 0.369794ZM6.20899 4.92888L5.63574 4.75173L5.39559 5.52888H6.20899V4.92888ZM9.791 4.92888V5.52888H10.6044L10.3643 4.75173L9.791 4.92888ZM10.3423 5.80186L10.3626 5.20221L10.3524 5.20186H10.3423V5.80186ZM10.3559 5.80209L10.3559 5.20209H10.3559V5.80209ZM15.4545 5.80209L15.473 5.20238L15.4637 5.20209L15.4545 5.20209L15.4545 5.80209ZM15.7044 6.58522L15.3402 6.10842L15.3402 6.10842L15.7044 6.58522ZM3.68983 15.7635L4.05407 16.2403L4.05407 16.2403L3.68983 15.7635ZM3.00517 15.2966L2.43182 15.1195L2.42871 15.1303L3.00517 15.2966ZM4.58311 10.1904L5.15636 10.3675L5.15636 10.3675L4.58311 10.1904ZM4.44376 9.7544L4.07952 10.2312L4.07952 10.2312L4.44376 9.7544ZM4.43319 9.74632L4.05575 10.2127L4.06228 10.218L4.06895 10.2231L4.43319 9.74632ZM4.42351 9.73871L4.78779 9.26194L4.78775 9.26192L4.42351 9.73871ZM0.295536 6.58522L0.659773 6.10842L0.659773 6.10842L0.295536 6.58522ZM0.545464 5.80209L0.545464 5.20209L0.53621 5.20209L0.52696 5.20238L0.545464 5.80209ZM5.6441 5.80209L5.6441 5.20209L5.6441 5.20209L5.6441 5.80209ZM5.65774 5.80186V5.20186H5.64758L5.63742 5.20221L5.65774 5.80186ZM11.6091 10.8123L12.1823 10.6352L11.9284 9.81337L11.2449 10.3355L11.6091 10.8123ZM8.71886 13.0203L8.35462 12.5435L7.73049 13.0203L8.35462 13.4971L8.71886 13.0203ZM13.0259 15.3971L13.5991 15.22L13.5991 15.22L13.0259 15.3971ZM12.4009 15.8331L12.7651 15.3563L12.7651 15.3563L12.4009 15.8331ZM8.19108 0.546939C8.133 0.734874 7.86699 0.734875 7.80891 0.546939L8.95542 0.192648C8.66504 -0.74703 7.33495 -0.747027 7.04457 0.192649L8.19108 0.546939ZM6.78225 5.10602L8.19108 0.546939L7.04457 0.192649L5.63574 4.75173L6.78225 5.10602ZM6.20899 5.52888H9.791V4.32888H6.20899V5.52888ZM7.80891 0.546939L9.21774 5.10602L10.3643 4.75173L8.95542 0.192649L7.80891 0.546939ZM10.3219 6.40152C10.3332 6.4019 10.3446 6.40209 10.3559 6.40209V5.20209C10.3581 5.20209 10.3603 5.20213 10.3626 5.20221L10.3219 6.40152ZM10.3559 6.40209L15.4545 6.40209L15.4545 5.20209L10.3559 5.20209L10.3559 6.40209ZM16.0687 7.06201C16.8482 6.46651 16.4402 5.23222 15.473 5.20238L15.436 6.40181C15.4061 6.40089 15.3685 6.38869 15.3366 6.36319C15.3079 6.34027 15.2918 6.31324 15.2839 6.28885C15.276 6.26438 15.2731 6.23243 15.2833 6.19631C15.2946 6.15613 15.3183 6.12511 15.3402 6.10842L16.0687 7.06201ZM4.05407 16.2403L16.0687 7.06201L15.3402 6.10842L3.32559 15.2868L4.05407 16.2403ZM2.42871 15.1303C2.15297 16.0856 3.25716 16.8491 4.05407 16.2403L3.32559 15.2868C3.3475 15.27 3.38461 15.255 3.42757 15.2552C3.46593 15.2553 3.49616 15.2673 3.51741 15.2819C3.53861 15.2964 3.56042 15.32 3.57429 15.3552C3.58982 15.3946 3.58973 15.435 3.58164 15.463L2.42871 15.1303ZM3.57843 15.4738L5.15636 10.3675L4.00985 10.0132L2.43192 15.1195L3.57843 15.4738ZM5.15636 10.3675C5.28009 9.96709 5.14103 9.53201 4.808 9.2776L4.07952 10.2312C4.01292 10.1803 3.98511 10.0933 4.00985 10.0132L5.15636 10.3675ZM4.808 9.2776L4.79743 9.26953L4.06895 10.2231L4.07952 10.2312L4.808 9.2776ZM4.05924 10.2155C4.0581 10.2146 4.05693 10.2137 4.05575 10.2127L4.81063 9.27991C4.80308 9.2738 4.79547 9.26782 4.78779 9.26194L4.05924 10.2155ZM-0.0687014 7.06201L4.05928 10.2155L4.78775 9.26192L0.659773 6.10842L-0.0687014 7.06201ZM0.52696 5.20238C-0.440277 5.23222 -0.848219 6.46651 -0.0687011 7.06201L0.659773 6.10842C0.681615 6.12511 0.705321 6.15613 0.716639 6.19631C0.726812 6.23243 0.723928 6.26438 0.716026 6.28885C0.708151 6.31324 0.692059 6.34027 0.663384 6.36319C0.631491 6.38869 0.593852 6.40089 0.563969 6.40181L0.52696 5.20238ZM0.545464 6.40209L5.6441 6.40209L5.6441 5.20209L0.545464 5.20209L0.545464 6.40209ZM5.6441 6.40209C5.65543 6.40209 5.66675 6.4019 5.67805 6.40152L5.63742 5.20221C5.63966 5.20213 5.64189 5.20209 5.6441 5.20209V6.40209ZM10.3423 5.20186H5.65774V6.40186H10.3423V5.20186ZM11.2449 10.3355L8.35462 12.5435L9.0831 13.4971L11.9733 11.2891L11.2449 10.3355ZM11.0358 10.9895L12.4526 15.5743L13.5991 15.22L12.1823 10.6352L11.0358 10.9895ZM12.4526 15.5743C12.3951 15.3882 12.6104 15.2381 12.7651 15.3563L12.0366 16.3099C12.8103 16.9009 13.8866 16.1502 13.5991 15.22L12.4526 15.5743ZM12.7651 15.3563L9.0831 12.5435L8.35462 13.4971L12.0366 16.3099L12.7651 15.3563Z" fill="#FA6C2B" mask="url(#path-2-inside-1_304_2)"/>
<path d="M10.0608 5.80176L15.5474 5.80176C15.93 5.80176 16.0942 6.28735 15.7902 6.51962L11.3345 9.92344L8.00001 12.4708L3.59913 15.8328C3.28966 16.0692 2.85916 15.7689 2.97414 15.3968L4.58312 10.19C4.63261 10.0299 4.57699 9.85583 4.44377 9.75406L0.209834 6.51962C-0.094211 6.28735 0.0700465 5.80176 0.45266 5.80176L5.93917 5.80176H10.0608Z" fill="#FA6C2B"/>
</g>
<defs>
<clipPath id="clip0_304_2">
<rect width="16" height="16" rx="2" fill="white"/>
</clipPath>
</defs>
</svg>
