<svg width="40" height="20" viewBox="0 0 40 20" fill="none" xmlns="http://www.w3.org/2000/svg">
<rect x="0.5" y="0.5" width="39" height="19" rx="2.5" fill="white" stroke="#F77C00"/>
<path d="M11.5164 16.25H3.11227V14.4302L6.98347 10.3605C7.93748 9.27412 8.41449 8.4111 8.41449 7.77142C8.41449 7.25305 8.30144 6.85876 8.07534 6.58855C7.84925 6.31834 7.52113 6.18323 7.091 6.18323C6.66638 6.18323 6.32172 6.36521 6.05703 6.72917C5.79233 7.08761 5.65998 7.53705 5.65998 8.07747H2.86411C2.86411 7.33853 3.04885 6.65748 3.41832 6.03434C3.7878 5.40568 4.30065 4.91489 4.95688 4.56196C5.61311 4.20903 6.34654 4.03257 7.15717 4.03257C8.4586 4.03257 9.45949 4.33311 10.1598 4.93419C10.8657 5.53528 11.2186 6.3983 11.2186 7.52326C11.2186 7.99751 11.1304 8.46073 10.9539 8.91292C10.7775 9.3596 10.5017 9.83109 10.1267 10.3274C9.75727 10.8182 9.15895 11.4772 8.33177 12.3044L6.77667 14.0993H11.5164V16.25Z" fill="#F77C00"/>
<path d="M17.6423 5.36929H15.1687V10H13.797V4.31028H17.6423V5.36929ZM22.8201 7.27237C22.8201 7.82728 22.7172 8.31835 22.5114 8.7456C22.3056 9.17285 22.0125 9.50241 21.6321 9.73427C21.2544 9.96353 20.8232 10.0782 20.3387 10.0782C19.8541 10.0782 19.4242 9.96744 19.0491 9.74599C18.6739 9.52195 18.3809 9.20281 18.1698 8.78859C17.9614 8.37437 17.852 7.89892 17.8416 7.36225V7.04181C17.8416 6.4843 17.9432 5.99323 18.1464 5.56858C18.3522 5.14133 18.6453 4.81178 19.0256 4.57991C19.4086 4.34805 19.8437 4.23212 20.3308 4.23212C20.8128 4.23212 21.2427 4.34675 21.6204 4.57601C21.9982 4.80526 22.2912 5.13221 22.4997 5.55686C22.7107 5.9789 22.8175 6.46346 22.8201 7.01055V7.27237ZM21.425 7.034C21.425 6.46867 21.3299 6.04012 21.1398 5.74834C20.9522 5.45395 20.6825 5.30676 20.3308 5.30676C19.6431 5.30676 19.2796 5.82259 19.2406 6.85424L19.2367 7.27237C19.2367 7.82988 19.3291 8.25843 19.5141 8.55803C19.6991 8.85763 19.9739 9.00742 20.3387 9.00742C20.6851 9.00742 20.9522 8.86023 21.1398 8.56585C21.3273 8.27146 21.4224 7.84812 21.425 7.29582V7.034ZM28.7169 11.399H27.486V10H24.3871V11.3951H23.1171L23.0194 8.9449H23.4219C23.6329 8.80422 23.8022 8.56324 23.9299 8.22196C24.0602 7.87808 24.1526 7.3857 24.2074 6.74482L24.3832 4.31028H28.2558V8.9449H28.8615L28.7169 11.399ZM24.9733 8.9449H26.8881V5.36929H25.6767L25.5712 6.79172C25.493 7.71395 25.2937 8.43168 24.9733 8.9449ZM32.6286 8.93708H30.749L30.4207 10H28.9553L31.0421 4.31028H32.3316L34.434 10H32.9608L32.6286 8.93708ZM31.0772 7.87808H32.3004L31.6868 5.90465L31.0772 7.87808ZM15.9094 13.2498H14.4403V16H13.6257V12.6208H15.9094V13.2498ZM17.722 15.3687H16.6056L16.4107 16H15.5404L16.7797 12.6208H17.5456L18.7942 16H17.9192L17.722 15.3687ZM16.8006 14.7398H17.527L17.1626 13.5677L16.8006 14.7398ZM19.8572 14.8535V16H19.0425V12.6208H20.391C20.6494 12.6208 20.8776 12.6688 21.0756 12.7647C21.2752 12.8591 21.4292 12.9945 21.5375 13.1709C21.6473 13.3457 21.7023 13.5445 21.7023 13.7673C21.7023 14.0969 21.5839 14.3607 21.3472 14.5587C21.112 14.7552 20.7886 14.8535 20.377 14.8535H19.8572ZM19.8572 14.2245H20.391C20.5488 14.2245 20.6687 14.1851 20.7507 14.1062C20.8343 14.0273 20.876 13.9159 20.876 13.772C20.876 13.6142 20.8335 13.4881 20.7484 13.3937C20.6633 13.2993 20.5472 13.2513 20.4002 13.2498H19.8572V14.2245ZM23.6448 15.3687H22.5285L22.3335 16H21.4632L22.7025 12.6208H23.4684L24.7171 16H23.8421L23.6448 15.3687ZM22.7234 14.7398H23.4499L23.0855 13.5677L22.7234 14.7398ZM27.7899 16H26.9799V14.5889H25.78V16H24.9654V12.6208H25.78V13.9623H26.9799V12.6208H27.7899V16ZM30.8905 13.2498H29.8763V16H29.0617V13.2498H28.0661V12.6208H30.8905V13.2498ZM33.2184 12.6208H34.033V16H33.2184V13.8694L32.0046 16H31.1899V12.6208H32.0046V14.7537L33.2184 12.6208ZM35.9872 16V14.814H35.5183L34.9474 16H34.0632L34.7571 14.5379C34.4554 14.3414 34.3045 14.0528 34.3045 13.6722C34.3045 13.338 34.4144 13.0796 34.6341 12.897C34.8538 12.7129 35.1702 12.6208 35.5833 12.6208H36.8041V16H35.9872ZM35.1168 13.7441C35.1168 13.9159 35.1516 14.0404 35.2213 14.1178C35.2909 14.1951 35.4077 14.2338 35.5717 14.2338H35.9872V13.2498H35.5764C35.4139 13.2498 35.2963 13.2923 35.2236 13.3774C35.1524 13.461 35.1168 13.5832 35.1168 13.7441Z" fill="#F77C00"/>
</svg>