<svg width="16" height="16" viewBox="0 0 16 16" fill="none" xmlns="http://www.w3.org/2000/svg">
<path d="M14.7499 3.05957H13.6013C13.7528 2.8198 13.8528 2.55067 13.8813 2.26603C13.9723 1.35637 13.4933 0.540922 12.6777 0.179394C11.928 -0.152918 11.0855 -0.0170715 10.4789 0.533156L9.02855 1.84755C8.7461 1.53863 8.34007 1.34448 7.88945 1.34448C7.43803 1.34448 7.03135 1.53925 6.74884 1.84912L5.29669 0.533002C4.68905 -0.0172255 3.84691 -0.152548 3.09757 0.179579C2.28218 0.541138 1.80302 1.35686 1.89436 2.26649C1.92293 2.55091 2.02284 2.81993 2.17431 3.05957H1.02905C0.460701 3.05957 0 3.5203 0 4.08862V5.63221C0 5.91635 0.230366 6.14675 0.51454 6.14675H15.2644C15.5485 6.14675 15.7789 5.91638 15.7789 5.63221V4.08862C15.7789 3.5203 15.3182 3.05957 14.7499 3.05957ZM6.34586 2.88806V3.05957H3.92531C3.28577 3.05957 2.78245 2.46336 2.94218 1.7975C3.01254 1.50427 3.2242 1.2543 3.49795 1.12776C3.87387 0.954009 4.29029 1.00979 4.60602 1.29557L6.34629 2.8729C6.3462 2.87799 6.34586 2.88298 6.34586 2.88806ZM12.8602 2.12941C12.8219 2.6642 12.3388 3.05963 11.8027 3.05963H9.43304V2.88813C9.43304 2.88206 9.43267 2.87605 9.43261 2.86997C9.82684 2.51261 10.6821 1.73747 11.1459 1.31702C11.4095 1.07808 11.7784 0.966552 12.1194 1.06825C12.6087 1.21421 12.896 1.63031 12.8602 2.12941Z" fill="white"/>
<path d="M1.02902 7.1758V14.7222C1.02902 15.2906 1.48972 15.7513 2.05807 15.7513H6.86034V7.1758H1.02902Z" fill="white"/>
<path d="M8.9183 7.1758V15.7513H13.7206C14.2889 15.7513 14.7496 15.2906 14.7496 14.7222V7.1758H8.9183Z" fill="white"/>
</svg>