<svg width="267" height="30" viewBox="0 0 267 30" fill="none" xmlns="http://www.w3.org/2000/svg">
<rect width="267" height="30" fill="#FFF503"/>
<path d="M12.6667 14.8182C12.6667 16.1664 12.4111 17.3134 11.9 18.2592C11.3929 19.205 10.7007 19.9274 9.82331 20.4265C8.94996 20.9215 7.96796 21.169 6.87728 21.169C5.77856 21.169 4.79253 20.9195 3.91919 20.4205C3.04584 19.9214 2.35562 19.199 1.84852 18.2532C1.34142 17.3074 1.08787 16.1624 1.08787 14.8182C1.08787 13.4699 1.34142 12.3229 1.84852 11.3771C2.35562 10.4313 3.04584 9.71094 3.91919 9.21591C4.79253 8.71686 5.77856 8.46733 6.87728 8.46733C7.96796 8.46733 8.94996 8.71686 9.82331 9.21591C10.7007 9.71094 11.3929 10.4313 11.9 11.3771C12.4111 12.3229 12.6667 13.4699 12.6667 14.8182ZM10.0165 14.8182C10.0165 13.9448 9.88569 13.2083 9.62409 12.6087C9.36651 12.009 9.00228 11.5542 8.5314 11.2443C8.06052 10.9344 7.50915 10.7795 6.87728 10.7795C6.24542 10.7795 5.69404 10.9344 5.22316 11.2443C4.75228 11.5542 4.38604 12.009 4.12444 12.6087C3.86687 13.2083 3.73808 13.9448 3.73808 14.8182C3.73808 15.6915 3.86687 16.428 4.12444 17.0277C4.38604 17.6274 4.75228 18.0821 5.22316 18.392C5.69404 18.7019 6.24542 18.8569 6.87728 18.8569C7.50915 18.8569 8.06052 18.7019 8.5314 18.392C9.00228 18.0821 9.36651 17.6274 9.62409 17.0277C9.88569 16.428 10.0165 15.6915 10.0165 14.8182ZM20.5656 11.7273V13.7496H16.714V21H14.2148V11.7273H20.5656ZM21.7937 24.4773V11.7273H24.3292V13.2848H24.4439C24.5566 13.0353 24.7196 12.7817 24.9329 12.5241C25.1502 12.2625 25.432 12.0452 25.7781 11.8722C26.1282 11.6951 26.5629 11.6065 27.082 11.6065C27.7582 11.6065 28.382 11.7836 28.9535 12.1378C29.525 12.4879 29.9818 13.0172 30.3239 13.7255C30.666 14.4298 30.837 15.3132 30.837 16.3757C30.837 17.41 30.67 18.2834 30.336 18.9957C30.0059 19.7041 29.5552 20.2414 28.9837 20.6076C28.4162 20.9698 27.7803 21.1509 27.076 21.1509C26.577 21.1509 26.1524 21.0684 25.8022 20.9034C25.4561 20.7384 25.1724 20.5311 24.951 20.2816C24.7297 20.0281 24.5606 19.7725 24.4439 19.5149H24.3654V24.4773H21.7937ZM24.3111 16.3636C24.3111 16.915 24.3876 17.396 24.5405 17.8065C24.6934 18.217 24.9148 18.5369 25.2046 18.7663C25.4943 18.9917 25.8465 19.1044 26.261 19.1044C26.6796 19.1044 27.0338 18.9897 27.3235 18.7603C27.6133 18.5269 27.8326 18.2049 27.9816 17.7944C28.1345 17.3799 28.211 16.9029 28.211 16.3636C28.211 15.8284 28.1365 15.3575 27.9876 14.951C27.8387 14.5445 27.6193 14.2266 27.3296 13.9972C27.0398 13.7678 26.6836 13.6531 26.261 13.6531C25.8425 13.6531 25.4883 13.7637 25.1985 13.9851C24.9128 14.2064 24.6934 14.5204 24.5405 14.9268C24.3876 15.3333 24.3111 15.8123 24.3111 16.3636ZM36.4011 21.1811C35.4634 21.1811 34.6524 20.9819 33.9683 20.5835C33.2881 20.181 32.7629 19.6216 32.3926 18.9052C32.0224 18.1848 31.8372 17.3497 31.8372 16.3999C31.8372 15.442 32.0224 14.6049 32.3926 13.8885C32.7629 13.1681 33.2881 12.6087 33.9683 12.2102C34.6524 11.8078 35.4634 11.6065 36.4011 11.6065C37.3389 11.6065 38.1478 11.8078 38.828 12.2102C39.5122 12.6087 40.0394 13.1681 40.4097 13.8885C40.7799 14.6049 40.9651 15.442 40.9651 16.3999C40.9651 17.3497 40.7799 18.1848 40.4097 18.9052C40.0394 19.6216 39.5122 20.181 38.828 20.5835C38.1478 20.9819 37.3389 21.1811 36.4011 21.1811ZM36.4132 19.1889C36.8398 19.1889 37.196 19.0682 37.4818 18.8267C37.7675 18.5812 37.9828 18.2472 38.1277 17.8246C38.2766 17.402 38.3511 16.921 38.3511 16.3817C38.3511 15.8424 38.2766 15.3615 38.1277 14.9389C37.9828 14.5163 37.7675 14.1823 37.4818 13.9368C37.196 13.6913 36.8398 13.5685 36.4132 13.5685C35.9826 13.5685 35.6204 13.6913 35.3266 13.9368C35.0368 14.1823 34.8175 14.5163 34.6685 14.9389C34.5237 15.3615 34.4512 15.8424 34.4512 16.3817C34.4512 16.921 34.5237 17.402 34.6685 17.8246C34.8175 18.2472 35.0368 18.5812 35.3266 18.8267C35.6204 19.0682 35.9826 19.1889 36.4132 19.1889ZM47.7788 18.1566L50.2902 11.7273H52.2462L48.63 21H46.9216L43.39 11.7273H45.3399L47.7788 18.1566ZM44.7543 11.7273V21H42.2973V11.7273H44.7543ZM50.9301 21V11.7273H53.3569V21H50.9301ZM61.4596 15.3374V17.3597H56.618V15.3374H61.4596ZM57.4631 11.7273V21H55.0061V11.7273H57.4631ZM63.0715 11.7273V21H60.6325V11.7273H63.0715ZM66.3385 14.5767H69.1095C70.337 14.5767 71.2948 14.8705 71.9831 15.4581C72.6713 16.0417 73.0154 16.8224 73.0154 17.8004C73.0154 18.4363 72.8604 18.9957 72.5505 19.4787C72.2406 19.9576 71.7939 20.3319 71.2103 20.6016C70.6268 20.8672 69.9265 21 69.1095 21H64.7267V11.7273H67.1837V18.9776H69.1095C69.5401 18.9776 69.8943 18.869 70.172 18.6516C70.4497 18.4343 70.5905 18.1566 70.5946 17.8185C70.5905 17.4603 70.4497 17.1686 70.172 16.9432C69.8943 16.7138 69.5401 16.5991 69.1095 16.5991H66.3385V14.5767ZM74.0115 21V11.7273H76.5832V21H74.0115ZM80.7558 17.6072L84.0942 11.7273H86.6297V21H84.1787V15.1019L80.8524 21H78.2988V11.7273H80.7558V17.6072ZM83.6535 8.49148H85.4465C85.4425 9.22396 85.1708 9.81356 84.6315 10.2603C84.0962 10.707 83.3718 10.9304 82.4582 10.9304C81.5406 10.9304 80.8142 10.707 80.2789 10.2603C79.7436 9.81356 79.476 9.22396 79.476 8.49148H81.2569C81.2528 8.76918 81.3414 9.0187 81.5225 9.24006C81.7076 9.46141 82.0195 9.57209 82.4582 9.57209C82.8848 9.57209 83.1907 9.46342 83.3758 9.24609C83.561 9.02876 83.6535 8.77722 83.6535 8.49148ZM91.9459 21V11.7273H95.9001C97.0431 11.7273 97.9466 11.9446 98.6107 12.3793C99.2748 12.8139 99.6068 13.4317 99.6068 14.2326C99.6068 14.7357 99.4196 15.1542 99.0454 15.4883C98.6711 15.8223 98.1519 16.0477 97.4878 16.1644C98.0432 16.2047 98.5161 16.3314 98.9065 16.5447C99.3009 16.754 99.6008 17.0257 99.806 17.3597C100.015 17.6938 100.12 18.064 100.12 18.4705C100.12 18.9978 99.9791 19.4505 99.6973 19.8288C99.4196 20.2071 99.0111 20.4969 98.4718 20.6982C97.9366 20.8994 97.2826 21 96.5098 21H91.9459ZM94.3426 19.0742H96.5098C96.868 19.0742 97.1477 18.9897 97.349 18.8207C97.5542 18.6476 97.6569 18.4122 97.6569 18.1143C97.6569 17.7843 97.5542 17.5247 97.349 17.3356C97.1477 17.1464 96.868 17.0518 96.5098 17.0518H94.3426V19.0742ZM94.3426 15.5426H95.9544C96.212 15.5426 96.4314 15.5064 96.6125 15.4339C96.7976 15.3575 96.9385 15.2488 97.0351 15.108C97.1357 14.9671 97.186 14.8001 97.186 14.6069C97.186 14.3211 97.0713 14.0978 96.8419 13.9368C96.6125 13.7758 96.2986 13.6953 95.9001 13.6953H94.3426V15.5426ZM103.013 14.5767H105.784C107.011 14.5767 107.969 14.8705 108.657 15.4581C109.345 16.0417 109.69 16.8224 109.69 17.8004C109.69 18.4363 109.535 18.9957 109.225 19.4787C108.915 19.9576 108.468 20.3319 107.885 20.6016C107.301 20.8672 106.601 21 105.784 21H101.401V11.7273H103.858V18.9776H105.784C106.214 18.9776 106.568 18.869 106.846 18.6516C107.124 18.4343 107.265 18.1566 107.269 17.8185C107.265 17.4603 107.124 17.1686 106.846 16.9432C106.568 16.7138 106.214 16.5991 105.784 16.5991H103.013V14.5767ZM110.686 21V11.7273H113.257V21H110.686ZM122.682 8.32244L123.467 10.0007C123.205 10.218 122.916 10.379 122.598 10.4837C122.28 10.5843 121.899 10.6507 121.457 10.6829C121.018 10.7151 120.483 10.7372 119.851 10.7493C119.134 10.7573 118.551 10.872 118.1 11.0934C117.649 11.3147 117.307 11.6629 117.074 12.1378C116.84 12.6087 116.687 13.2244 116.615 13.9851H116.706C116.983 13.4176 117.374 12.9789 117.877 12.669C118.384 12.3591 119.01 12.2042 119.754 12.2042C120.543 12.2042 121.233 12.3772 121.825 12.7234C122.421 13.0695 122.883 13.5665 123.213 14.2145C123.543 14.8625 123.708 15.6392 123.708 16.5447C123.708 17.4865 123.523 18.3055 123.153 19.0018C122.787 19.694 122.266 20.2313 121.589 20.6136C120.913 20.992 120.108 21.1811 119.175 21.1811C118.237 21.1811 117.428 20.9839 116.748 20.5895C116.072 20.1951 115.548 19.6135 115.178 18.8448C114.812 18.0761 114.629 17.1303 114.629 16.0075V15.2468C114.629 13.0131 115.064 11.357 115.933 10.2784C116.802 9.19981 118.08 8.65246 119.766 8.63636C120.225 8.62831 120.64 8.6263 121.01 8.63033C121.38 8.63435 121.704 8.61624 121.982 8.57599C122.264 8.53575 122.497 8.45123 122.682 8.32244ZM119.187 19.1889C119.581 19.1889 119.919 19.0863 120.201 18.881C120.487 18.6758 120.706 18.382 120.859 17.9996C121.016 17.6173 121.094 17.1605 121.094 16.6293C121.094 16.102 121.016 15.6553 120.859 15.2891C120.706 14.9188 120.487 14.6371 120.201 14.4439C119.915 14.2507 119.573 14.1541 119.175 14.1541C118.877 14.1541 118.609 14.2085 118.372 14.3171C118.134 14.4258 117.931 14.5868 117.762 14.8001C117.597 15.0094 117.468 15.2689 117.376 15.5788C117.287 15.8847 117.243 16.2348 117.243 16.6293C117.243 17.4221 117.414 18.0479 117.756 18.5067C118.102 18.9615 118.579 19.1889 119.187 19.1889ZM129.265 21.1811C128.327 21.1811 127.516 20.9819 126.832 20.5835C126.152 20.181 125.627 19.6216 125.256 18.9052C124.886 18.1848 124.701 17.3497 124.701 16.3999C124.701 15.442 124.886 14.6049 125.256 13.8885C125.627 13.1681 126.152 12.6087 126.832 12.2102C127.516 11.8078 128.327 11.6065 129.265 11.6065C130.203 11.6065 131.012 11.8078 131.692 12.2102C132.376 12.6087 132.903 13.1681 133.273 13.8885C133.644 14.6049 133.829 15.442 133.829 16.3999C133.829 17.3497 133.644 18.1848 133.273 18.9052C132.903 19.6216 132.376 20.181 131.692 20.5835C131.012 20.9819 130.203 21.1811 129.265 21.1811ZM129.277 19.1889C129.704 19.1889 130.06 19.0682 130.346 18.8267C130.631 18.5812 130.847 18.2472 130.992 17.8246C131.14 17.402 131.215 16.921 131.215 16.3817C131.215 15.8424 131.14 15.3615 130.992 14.9389C130.847 14.5163 130.631 14.1823 130.346 13.9368C130.06 13.6913 129.704 13.5685 129.277 13.5685C128.846 13.5685 128.484 13.6913 128.19 13.9368C127.901 14.1823 127.681 14.5163 127.532 14.9389C127.387 15.3615 127.315 15.8424 127.315 16.3817C127.315 16.921 127.387 17.402 127.532 17.8246C127.681 18.2472 127.901 18.5812 128.19 18.8267C128.484 19.0682 128.846 19.1889 129.277 19.1889ZM135.161 24.4773V11.7273H137.697V13.2848H137.811C137.924 13.0353 138.087 12.7817 138.3 12.5241C138.518 12.2625 138.799 12.0452 139.145 11.8722C139.496 11.6951 139.93 11.6065 140.449 11.6065C141.126 11.6065 141.749 11.7836 142.321 12.1378C142.892 12.4879 143.349 13.0172 143.691 13.7255C144.033 14.4298 144.204 15.3132 144.204 16.3757C144.204 17.41 144.037 18.2834 143.703 18.9957C143.373 19.7041 142.923 20.2414 142.351 20.6076C141.784 20.9698 141.148 21.1509 140.443 21.1509C139.944 21.1509 139.52 21.0684 139.17 20.9034C138.824 20.7384 138.54 20.5311 138.318 20.2816C138.097 20.0281 137.928 19.7725 137.811 19.5149H137.733V24.4773H135.161ZM137.679 16.3636C137.679 16.915 137.755 17.396 137.908 17.8065C138.061 18.217 138.282 18.5369 138.572 18.7663C138.862 18.9917 139.214 19.1044 139.628 19.1044C140.047 19.1044 140.401 18.9897 140.691 18.7603C140.981 18.5269 141.2 18.2049 141.349 17.7944C141.502 17.3799 141.578 16.9029 141.578 16.3636C141.578 15.8284 141.504 15.3575 141.355 14.951C141.206 14.5445 140.987 14.2266 140.697 13.9972C140.407 13.7678 140.051 13.6531 139.628 13.6531C139.21 13.6531 138.856 13.7637 138.566 13.9851C138.28 14.2064 138.061 14.5204 137.908 14.9268C137.755 15.3333 137.679 15.8123 137.679 16.3636ZM148.652 8.63636L148.416 17.2933H146.207L145.965 8.63636H148.652ZM147.312 21.157C146.913 21.157 146.571 21.0161 146.285 20.7344C146 20.4486 145.859 20.1065 145.863 19.7081C145.859 19.3137 146 18.9756 146.285 18.6939C146.571 18.4122 146.913 18.2713 147.312 18.2713C147.694 18.2713 148.03 18.4122 148.32 18.6939C148.609 18.9756 148.756 19.3137 148.76 19.7081C148.756 19.9737 148.686 20.2172 148.549 20.4386C148.416 20.6559 148.241 20.831 148.024 20.9638C147.807 21.0926 147.569 21.157 147.312 21.157ZM154.394 21V8.63636H157.008V13.7376H162.314V8.63636H164.922V21H162.314V15.8928H157.008V21H154.394ZM169.146 17.6072L172.484 11.7273H175.02V21H172.569V15.1019L169.242 21H166.689V11.7273H169.146V17.6072ZM176.264 18.3739H178.758C178.77 18.6798 178.907 18.9213 179.168 19.0984C179.43 19.2754 179.768 19.364 180.182 19.364C180.601 19.364 180.953 19.2674 181.239 19.0742C181.525 18.877 181.668 18.5953 181.668 18.229C181.668 18.0037 181.611 17.8085 181.498 17.6435C181.386 17.4744 181.229 17.3416 181.028 17.245C180.826 17.1484 180.593 17.1001 180.327 17.1001H178.993V15.4158H180.327C180.726 15.4158 181.032 15.3233 181.245 15.1381C181.462 14.953 181.571 14.7216 181.571 14.4439C181.571 14.13 181.458 13.8784 181.233 13.6893C181.012 13.4961 180.712 13.3995 180.333 13.3995C179.951 13.3995 179.633 13.486 179.38 13.6591C179.13 13.8281 179.001 14.0495 178.993 14.3232H176.512C176.52 13.7678 176.687 13.2868 177.013 12.8803C177.343 12.4738 177.786 12.1599 178.341 11.9386C178.901 11.7172 179.526 11.6065 180.219 11.6065C180.975 11.6065 181.627 11.7132 182.175 11.9265C182.726 12.1358 183.149 12.4356 183.442 12.826C183.74 13.2164 183.889 13.6812 183.889 14.2205C183.889 14.7115 183.728 15.122 183.406 15.4521C183.084 15.7821 182.633 16.0175 182.054 16.1584V16.255C182.436 16.2791 182.782 16.3817 183.092 16.5629C183.402 16.744 183.65 16.9935 183.835 17.3114C184.02 17.6254 184.112 17.9976 184.112 18.4283C184.112 19.0038 183.943 19.4968 183.605 19.9073C183.271 20.3178 182.809 20.6338 182.217 20.8551C181.629 21.0724 180.955 21.1811 180.195 21.1811C179.454 21.1811 178.79 21.0745 178.202 20.8612C177.619 20.6438 177.154 20.3259 176.808 19.9073C176.466 19.4888 176.285 18.9776 176.264 18.3739ZM185.35 21V11.7273H187.921V15.3253H188.646L191.169 11.7273H194.188L190.91 16.3274L194.224 21H191.169L188.881 17.7099H187.921V21H185.35ZM197.428 17.6072L200.766 11.7273H203.302V21H200.851V15.1019L197.524 21H194.971V11.7273H197.428V17.6072ZM209.249 21.1811C208.295 21.1811 207.474 20.9879 206.786 20.6016C206.102 20.2112 205.575 19.6598 205.204 18.9474C204.834 18.2311 204.649 17.3839 204.649 16.4059C204.649 15.4521 204.834 14.6149 205.204 13.8945C205.575 13.1741 206.096 12.6127 206.768 12.2102C207.444 11.8078 208.237 11.6065 209.146 11.6065C209.758 11.6065 210.328 11.7051 210.855 11.9023C211.386 12.0955 211.849 12.3873 212.243 12.7777C212.642 13.1681 212.952 13.6591 213.173 14.2507C213.394 14.8383 213.505 15.5265 213.505 16.3153V17.0217H205.675V15.4279H211.084C211.084 15.0576 211.004 14.7296 210.843 14.4439C210.682 14.1581 210.458 13.9348 210.173 13.7738C209.891 13.6088 209.563 13.5263 209.189 13.5263C208.798 13.5263 208.452 13.6168 208.15 13.7979C207.852 13.975 207.619 14.2145 207.45 14.5163C207.281 14.8142 207.194 15.1462 207.19 15.5124V17.0277C207.19 17.4865 207.275 17.8829 207.444 18.217C207.617 18.551 207.861 18.8086 208.174 18.9897C208.488 19.1708 208.861 19.2614 209.291 19.2614C209.577 19.2614 209.839 19.2211 210.076 19.1406C210.314 19.0601 210.517 18.9394 210.686 18.7784C210.855 18.6174 210.984 18.4202 211.072 18.1868L213.451 18.3438C213.33 18.9152 213.082 19.4143 212.708 19.8409C212.338 20.2635 211.859 20.5935 211.271 20.831C210.688 21.0644 210.014 21.1811 209.249 21.1811ZM226.545 11.7273V19.2251H228.025V23.9822H225.525V21H218.438V11.7273H220.895V18.9776H224.119V11.7273H226.545ZM233.397 21.1811C232.443 21.1811 231.622 20.9879 230.934 20.6016C230.25 20.2112 229.722 19.6598 229.352 18.9474C228.982 18.2311 228.797 17.3839 228.797 16.4059C228.797 15.4521 228.982 14.6149 229.352 13.8945C229.722 13.1741 230.244 12.6127 230.916 12.2102C231.592 11.8078 232.385 11.6065 233.294 11.6065C233.906 11.6065 234.476 11.7051 235.003 11.9023C235.534 12.0955 235.997 12.3873 236.391 12.7777C236.79 13.1681 237.1 13.6591 237.321 14.2507C237.542 14.8383 237.653 15.5265 237.653 16.3153V17.0217H229.823V15.4279H235.232C235.232 15.0576 235.152 14.7296 234.991 14.4439C234.83 14.1581 234.606 13.9348 234.321 13.7738C234.039 13.6088 233.711 13.5263 233.337 13.5263C232.946 13.5263 232.6 13.6168 232.298 13.7979C232 13.975 231.767 14.2145 231.598 14.5163C231.429 14.8142 231.342 15.1462 231.338 15.5124V17.0277C231.338 17.4865 231.423 17.8829 231.592 18.217C231.765 18.551 232.008 18.8086 232.322 18.9897C232.636 19.1708 233.009 19.2614 233.439 19.2614C233.725 19.2614 233.987 19.2211 234.224 19.1406C234.461 19.0601 234.665 18.9394 234.834 18.7784C235.003 18.6174 235.132 18.4202 235.22 18.1868L237.599 18.3438C237.478 18.9152 237.23 19.4143 236.856 19.8409C236.486 20.2635 236.007 20.5935 235.419 20.831C234.836 21.0644 234.162 21.1811 233.397 21.1811ZM245.445 15.3374V17.3597H240.603V15.3374H245.445ZM241.448 11.7273V21H238.991V11.7273H241.448ZM247.057 11.7273V21H244.618V11.7273H247.057ZM250.324 14.5767H253.095C254.322 14.5767 255.28 14.8705 255.968 15.4581C256.656 16.0417 257.001 16.8224 257.001 17.8004C257.001 18.4363 256.846 18.9957 256.536 19.4787C256.226 19.9576 255.779 20.3319 255.195 20.6016C254.612 20.8672 253.912 21 253.095 21H248.712V11.7273H251.169V18.9776H253.095C253.525 18.9776 253.879 18.869 254.157 18.6516C254.435 18.4343 254.576 18.1566 254.58 17.8185C254.576 17.4603 254.435 17.1686 254.157 16.9432C253.879 16.7138 253.525 16.5991 253.095 16.5991H250.324V14.5767ZM257.997 21V11.7273H260.568V21H257.997ZM265.357 8.63636L265.121 17.2933H262.912L262.67 8.63636H265.357ZM264.017 21.157C263.618 21.157 263.276 21.0161 262.99 20.7344C262.705 20.4486 262.564 20.1065 262.568 19.7081C262.564 19.3137 262.705 18.9756 262.99 18.6939C263.276 18.4122 263.618 18.2713 264.017 18.2713C264.399 18.2713 264.735 18.4122 265.025 18.6939C265.314 18.9756 265.461 19.3137 265.465 19.7081C265.461 19.9737 265.391 20.2172 265.254 20.4386C265.121 20.6559 264.946 20.831 264.729 20.9638C264.512 21.0926 264.274 21.157 264.017 21.157Z" fill="black"/>
</svg>