<svg width="12" height="15" viewBox="0 0 12 15" fill="none" xmlns="http://www.w3.org/2000/svg">
<path fill-rule="evenodd" clip-rule="evenodd" d="M10.235 15H1.765C1.29802 15.0003 0.849993 14.8154 0.519134 14.4858C0.188276 14.1563 0.00158828 13.709 0 13.242L0 7.265C0 6.296 0.792 5.507 1.765 5.507H2.822V3.099C2.822 1.39 4.247 0 5.999 0C7.75 0 9.175 1.39 9.175 3.099V5.507H10.235C11.208 5.507 12 6.296 12 7.265V13.242C12 14.211 11.208 15 10.235 15ZM7.999 3.099C7.999 2.036 7.102 1.172 5.999 1.172C4.896 1.172 3.999 2.036 3.999 3.099V5.507H7.999V3.099ZM10.823 7.265C10.8225 7.1094 10.7603 6.96035 10.6501 6.85051C10.5399 6.74067 10.3906 6.679 10.235 6.679H1.765C1.60931 6.679 1.45994 6.74064 1.34957 6.85045C1.2392 6.96026 1.17679 7.10931 1.176 7.265V13.242C1.176 13.565 1.44 13.828 1.765 13.828H10.235C10.3121 13.8281 10.3884 13.8131 10.4597 13.7837C10.531 13.7543 10.5958 13.7112 10.6504 13.6568C10.705 13.6024 10.7483 13.5377 10.7779 13.4666C10.8076 13.3954 10.8229 13.3191 10.823 13.242V7.265ZM6.587 10.375V11.66C6.587 11.8159 6.52505 11.9655 6.41478 12.0758C6.30451 12.1861 6.15495 12.248 5.999 12.248C5.84305 12.248 5.69349 12.1861 5.58322 12.0758C5.47295 11.9655 5.411 11.8159 5.411 11.66V10.374C5.21275 10.2479 5.06092 10.0608 4.97845 9.84077C4.89598 9.62078 4.88736 9.37992 4.95388 9.15459C5.02041 8.92927 5.15846 8.73172 5.34719 8.59179C5.53592 8.45187 5.76507 8.37718 6 8.379C6.1415 8.28936 6.30188 8.2338 6.46851 8.21669C6.63514 8.19958 6.80347 8.22139 6.96024 8.28041C7.117 8.33942 7.25792 8.43403 7.3719 8.55677C7.48589 8.67952 7.56981 8.82705 7.61707 8.98775C7.66433 9.14845 7.67364 9.31793 7.64425 9.48284C7.61486 9.64775 7.54759 9.80358 7.44773 9.93807C7.34787 10.0726 7.21815 10.182 7.06879 10.2578C6.91943 10.3337 6.7545 10.3738 6.587 10.375Z" fill="#333333"/>
</svg>
