<svg width="44" height="12" viewBox="0 0 44 12" fill="none" xmlns="http://www.w3.org/2000/svg">
<g id="mir-logo 2">
<g id="g5">
<path id="path7" fill-rule="evenodd" clip-rule="evenodd" d="M12.227 2.2831e-07V0.0052404C12.2218 0.0052404 10.5712 1.99897e-07 10.131 1.57729C9.72748 3.02358 8.59037 7.01659 8.55893 7.12664H8.24451C8.24451 7.12664 7.0812 3.04454 6.67246 1.57205C6.23229 -0.00523999 4.57639 2.2831e-07 4.57639 2.2831e-07H0.803467V12H4.57639V4.87336H4.7336H4.8908L7.09168 12H9.71176L11.9126 4.8786H12.227V12H16V2.2831e-07H12.227Z" fill="#4DB45E"/>
</g>
<g id="g9">
<path id="path11" fill-rule="evenodd" clip-rule="evenodd" d="M26.0087 0C26.0087 0 24.9031 0.0995633 24.3843 1.25764L21.7118 7.12664H21.3974V0H17.6245V12H21.1878C21.1878 12 22.3458 11.8952 22.8646 10.7424L25.4847 4.87336H25.7991V12H29.572V0H26.0087Z" fill="#4DB45E"/>
</g>
<g id="g13">
<path id="path15" fill-rule="evenodd" clip-rule="evenodd" d="M31.2489 5.44978V12H35.0218V8.17467H39.1092C40.8908 8.17467 42.4 7.03756 42.9607 5.44978H31.2489Z" fill="#4DB45E"/>
</g>
<g id="g17">
<path id="path24" fill-rule="evenodd" clip-rule="evenodd" d="M39.1091 0H30.7196C31.1388 2.28472 32.8524 4.11878 35.0689 4.71616C35.572 4.8524 36.1013 4.92576 36.6462 4.92576H43.1126C43.1703 4.65328 43.1965 4.37555 43.1965 4.08734C43.1965 1.82882 41.3676 0 39.1091 0Z" fill="url(#paint0_linear_339_3414)"/>
</g>
</g>
<defs>
<linearGradient id="paint0_linear_339_3414" x1="30.7206" y1="2.46288" x2="43.1965" y2="2.46288" gradientUnits="userSpaceOnUse">
<stop offset="0.3" stop-color="#00B4E6"/>
<stop offset="1" stop-color="#088CCB"/>
</linearGradient>
</defs>
</svg>
