<?xml version="1.0" encoding="UTF-8"?>
<!DOCTYPE svg PUBLIC "-//W3C//DTD SVG 1.1//EN" "http://www.w3.org/Graphics/SVG/1.1/DTD/svg11.dtd">
<!-- Creator: CorelDRAW 2017 -->
<svg xmlns="http://www.w3.org/2000/svg" xml:space="preserve" width="7985px" height="1159px" version="1.1" style="shape-rendering:geometricPrecision; text-rendering:geometricPrecision; image-rendering:optimizeQuality; fill-rule:evenodd; clip-rule:evenodd"
viewBox="0 0 7830 1136"
 xmlns:xlink="http://www.w3.org/1999/xlink">
 <defs>
  <style type="text/css">
   <![CDATA[
    .fil0 {fill:#FF831F}
    .fil2 {fill:#FF831F;fill-rule:nonzero}
    .fil1 {fill:white;fill-rule:nonzero}
   ]]>
  </style>
 </defs>
 <g id="Слой_x0020_1">
  <metadata id="CorelCorpID_0Corel-Layer"/>
  <polygon class="fil0" points="0,1136 7830,1136 7830,0 0,0 "/>
  <polygon class="fil1" points="4353,20 7810,20 7810,1116 4353,1116 4439,572 "/>
  <path class="fil0" d="M5182 1095l-163 0 0 -88 -343 0 0 88 -170 0 0 -260 40 0c12,0 20,-3 26,-8 9,-33 11,-40 22,-80 15,-56 28,-125 44,-275l18 -347 461 1 0 709 67 0 0 260zm-382 -616c-8,88 -24,162 -36,230 -12,65 -16,80 -29,127l218 -1 -1 -525 -139 -1 -12 171z"/>
  <path class="fil0" d="M5238 1017l0 -893 228 0c83,0 148,20 194,61 47,41 60,100 60,181 0,42 -17,75 -25,93 -10,18 -18,34 -48,56 45,11 74,53 94,92 21,37 24,98 24,149 0,86 -27,151 -71,195 -44,44 -107,66 -189,66l-267 0zm162 -397l1 224 105 1c31,0 50,-14 67,-29 15,-26 22,-28 22,-70 0,-43 4,-66 -11,-89 -16,-23 -40,-35 -74,-37l-6 0 -104 -1zm0 -152l74 1c33,-1 51,-9 65,-29 8,-11 14,-34 14,-59 -1,-23 -2,-37 -12,-60 -18,-20 -33,-27 -69,-27l-70 0 -1 174z"/>
  <polygon class="fil0" points="6267,623 5997,622 5997,836 6290,837 6290,1015 5830,1015 5830,128 6289,128 6289,310 5997,309 5997,447 6267,449 "/>
  <path class="fil0" d="M6531 722l-2 291 -169 0 0 -884 261 0c78,0 139,27 185,81 46,54 68,123 68,208 0,85 -23,154 -68,207 -46,53 -106,97 -183,97l-92 0zm-2 -168l82 0c37,0 56,-27 63,-42 10,-21 16,-50 16,-93 0,-21 -2,-39 -8,-70 -5,-20 -34,-52 -61,-52l-92 0 0 257z"/>
  <polygon class="fil0" points="7311,137 7484,138 7484,1024 7315,1024 7314,508 7310,507 7074,1024 6920,1024 6920,138 7090,138 7088,610 7092,612 "/>
  <g id="_2061348063312">
   <polygon class="fil2" points="843,302 501,302 501,991 311,991 311,131 843,131 "/>
   <polygon class="fil2" points="1357,131 1546,131 1546,991 1362,991 1361,476 1073,991 901,991 901,131 1087,131 1087,614 "/>
   <path class="fil2" d="M2583 808l-245 0 -50 180 -197 0 281 -863 190 2 283 863 -211 -2 -51 -180zm-194 -167l145 2 -72 -250 -73 248z"/>
   <polygon class="fil2" points="3527,989 3337,989 3337,615 3075,615 3075,989 2885,989 2885,129 3075,129 3075,436 3337,436 3337,129 3527,129 "/>
   <polygon class="fil2" points="4230,308 4001,308 4001,991 3810,991 3810,308 3585,308 3585,130 4230,130 "/>
   <polygon class="fil2" points="2207,302 1865,302 1865,991 1674,991 1674,131 2207,131 "/>
  </g>
  <g id="_2061348065328">
   <polygon class="fil1" points="835,295 493,295 493,984 303,984 303,124 835,124 "/>
   <polygon class="fil1" points="1349,124 1537,124 1537,984 1354,984 1353,469 1065,984 893,984 893,124 1079,124 1079,608 "/>
   <path class="fil1" d="M2575 802l-245 0 -50 180 -197 0 281 -863 190 2 283 863 -211 -2 -51 -180zm-194 -167l145 2 -72 -250 -73 248z"/>
   <polygon class="fil1" points="3515,982 3325,982 3325,609 3064,609 3064,982 2874,982 2874,123 3064,123 3064,430 3325,430 3325,123 3515,123 "/>
   <polygon class="fil1" points="4219,301 3991,301 3991,984 3800,984 3800,301 3574,301 3574,123 4219,123 "/>
   <polygon class="fil1" points="2199,295 1857,295 1857,984 1666,984 1666,124 2199,124 "/>
  </g>
 </g>
</svg>
