<svg width="240" height="40" viewBox="0 0 240 40" fill="none" xmlns="http://www.w3.org/2000/svg">
<!-- <rect width="237" height="39" transform="translate(3)" fill="white"/> -->
<path d="M51.4766 9.75781H48.5156V8.20312H51.4766C51.9922 8.20312 52.4089 8.11979 52.7266 7.95312C53.0443 7.78646 53.276 7.55729 53.4219 7.26562C53.5729 6.96875 53.6484 6.63021 53.6484 6.25C53.6484 5.89062 53.5729 5.55469 53.4219 5.24219C53.276 4.92448 53.0443 4.66927 52.7266 4.47656C52.4089 4.28385 51.9922 4.1875 51.4766 4.1875H49.1172V14H47.1562V2.625H51.4766C52.3568 2.625 53.1042 2.78125 53.7188 3.09375C54.3385 3.40104 54.8099 3.82812 55.1328 4.375C55.4557 4.91667 55.6172 5.53646 55.6172 6.23438C55.6172 6.96875 55.4557 7.59896 55.1328 8.125C54.8099 8.65104 54.3385 9.05469 53.7188 9.33594C53.1042 9.61719 52.3568 9.75781 51.4766 9.75781ZM61.8594 12.3047V8.27344C61.8594 7.97135 61.8047 7.71094 61.6953 7.49219C61.5859 7.27344 61.4193 7.10417 61.1953 6.98438C60.9766 6.86458 60.7005 6.80469 60.3672 6.80469C60.0599 6.80469 59.7943 6.85677 59.5703 6.96094C59.3464 7.0651 59.1719 7.20573 59.0469 7.38281C58.9219 7.5599 58.8594 7.76042 58.8594 7.98438H56.9844C56.9844 7.65104 57.0651 7.32812 57.2266 7.01562C57.388 6.70312 57.6224 6.42448 57.9297 6.17969C58.237 5.9349 58.6042 5.74219 59.0312 5.60156C59.4583 5.46094 59.9375 5.39062 60.4688 5.39062C61.1042 5.39062 61.6667 5.4974 62.1562 5.71094C62.651 5.92448 63.0391 6.2474 63.3203 6.67969C63.6068 7.10677 63.75 7.64323 63.75 8.28906V12.0469C63.75 12.4323 63.776 12.7786 63.8281 13.0859C63.8854 13.388 63.9661 13.651 64.0703 13.875V14H62.1406C62.0521 13.7969 61.9818 13.5391 61.9297 13.2266C61.8828 12.9089 61.8594 12.6016 61.8594 12.3047ZM62.1328 8.85938L62.1484 10.0234H60.7969C60.4479 10.0234 60.1406 10.0573 59.875 10.125C59.6094 10.1875 59.388 10.2812 59.2109 10.4062C59.0339 10.5312 58.901 10.6823 58.8125 10.8594C58.724 11.0365 58.6797 11.237 58.6797 11.4609C58.6797 11.6849 58.7318 11.8906 58.8359 12.0781C58.9401 12.2604 59.0911 12.4036 59.2891 12.5078C59.4922 12.612 59.737 12.6641 60.0234 12.6641C60.4089 12.6641 60.7448 12.5859 61.0312 12.4297C61.3229 12.2682 61.5521 12.0729 61.7188 11.8438C61.8854 11.6094 61.974 11.388 61.9844 11.1797L62.5938 12.0156C62.5312 12.2292 62.4245 12.4583 62.2734 12.7031C62.1224 12.9479 61.9245 13.1823 61.6797 13.4062C61.4401 13.625 61.151 13.8047 60.8125 13.9453C60.4792 14.0859 60.0938 14.1562 59.6562 14.1562C59.1042 14.1562 58.612 14.0469 58.1797 13.8281C57.7474 13.6042 57.4089 13.3047 57.1641 12.9297C56.9193 12.5495 56.7969 12.1198 56.7969 11.6406C56.7969 11.1927 56.8802 10.7969 57.0469 10.4531C57.2188 10.1042 57.4688 9.8125 57.7969 9.57812C58.1302 9.34375 58.5365 9.16667 59.0156 9.04688C59.4948 8.92188 60.0417 8.85938 60.6562 8.85938H62.1328ZM71.0234 1.84375H72.5469C72.5469 2.30729 72.4818 2.6901 72.3516 2.99219C72.2266 3.28906 72.0391 3.53385 71.7891 3.72656C71.5443 3.91406 71.2396 4.0651 70.875 4.17969C70.5156 4.29427 70.099 4.39844 69.625 4.49219C69.1875 4.58594 68.7917 4.73438 68.4375 4.9375C68.0885 5.13542 67.7943 5.41406 67.5547 5.77344C67.3203 6.1276 67.151 6.58333 67.0469 7.14062C66.9427 7.69792 66.9115 8.3776 66.9531 9.17969V9.71094L65.4609 9.84375V9.3125C65.4609 8.31771 65.5521 7.45052 65.7344 6.71094C65.9167 5.97135 66.1745 5.34896 66.5078 4.84375C66.8464 4.33333 67.2474 3.92708 67.7109 3.625C68.1797 3.32292 68.7005 3.11458 69.2734 3C69.6641 2.91667 69.9896 2.83333 70.25 2.75C70.5104 2.66146 70.7031 2.54948 70.8281 2.41406C70.9583 2.27344 71.0234 2.08333 71.0234 1.84375ZM69.7031 6.02344C70.2656 6.02344 70.7656 6.1224 71.2031 6.32031C71.6406 6.51302 72.0104 6.78385 72.3125 7.13281C72.6146 7.48177 72.8438 7.89323 73 8.36719C73.1615 8.84115 73.2422 9.35677 73.2422 9.91406V10.0859C73.2422 10.6693 73.1562 11.2083 72.9844 11.7031C72.8125 12.1979 72.5599 12.6302 72.2266 13C71.8932 13.3646 71.4844 13.651 71 13.8594C70.5208 14.0625 69.9714 14.1641 69.3516 14.1641C68.737 14.1641 68.1875 14.0573 67.7031 13.8438C67.2188 13.6302 66.8099 13.3333 66.4766 12.9531C66.1432 12.5677 65.8906 12.1172 65.7188 11.6016C65.5469 11.0859 65.4609 10.5234 65.4609 9.91406V9.74219C65.4557 9.63281 65.4844 9.52604 65.5469 9.42188C65.6146 9.31771 65.6953 9.20573 65.7891 9.08594C65.8828 8.96615 65.9661 8.82812 66.0391 8.67188C66.2995 8.14583 66.6068 7.6849 66.9609 7.28906C67.3151 6.89323 67.7188 6.58333 68.1719 6.35938C68.6302 6.13542 69.1406 6.02344 69.7031 6.02344ZM69.3359 7.51562C68.8672 7.51562 68.4844 7.6276 68.1875 7.85156C67.8958 8.07031 67.6797 8.36198 67.5391 8.72656C67.4036 9.09115 67.3359 9.48698 67.3359 9.91406V10.0859C67.3359 10.4349 67.375 10.7656 67.4531 11.0781C67.5312 11.3906 67.6484 11.6667 67.8047 11.9062C67.9661 12.1406 68.1745 12.3255 68.4297 12.4609C68.6901 12.5964 68.9974 12.6641 69.3516 12.6641C69.7109 12.6641 70.0156 12.5964 70.2656 12.4609C70.5208 12.3255 70.7266 12.1406 70.8828 11.9062C71.0443 11.6667 71.1615 11.3906 71.2344 11.0781C71.3125 10.7656 71.3516 10.4349 71.3516 10.0859V9.91406C71.3516 9.59115 71.3125 9.28646 71.2344 9C71.1615 8.71354 71.0443 8.46094 70.8828 8.24219C70.7214 8.01823 70.513 7.84115 70.2578 7.71094C70.0026 7.58073 69.6953 7.51562 69.3359 7.51562ZM74.3594 9.86719V9.6875C74.3594 9.07812 74.4479 8.51302 74.625 7.99219C74.8021 7.46615 75.0573 7.01042 75.3906 6.625C75.7292 6.23438 76.1406 5.93229 76.625 5.71875C77.1146 5.5 77.6667 5.39062 78.2812 5.39062C78.901 5.39062 79.4531 5.5 79.9375 5.71875C80.4271 5.93229 80.8411 6.23438 81.1797 6.625C81.5182 7.01042 81.776 7.46615 81.9531 7.99219C82.1302 8.51302 82.2188 9.07812 82.2188 9.6875V9.86719C82.2188 10.4766 82.1302 11.0417 81.9531 11.5625C81.776 12.0833 81.5182 12.5391 81.1797 12.9297C80.8411 13.3151 80.4297 13.6172 79.9453 13.8359C79.4609 14.0495 78.9115 14.1562 78.2969 14.1562C77.6771 14.1562 77.1224 14.0495 76.6328 13.8359C76.1484 13.6172 75.737 13.3151 75.3984 12.9297C75.0599 12.5391 74.8021 12.0833 74.625 11.5625C74.4479 11.0417 74.3594 10.4766 74.3594 9.86719ZM76.2422 9.6875V9.86719C76.2422 10.2474 76.2812 10.6068 76.3594 10.9453C76.4375 11.2839 76.5599 11.5807 76.7266 11.8359C76.8932 12.0911 77.1068 12.2917 77.3672 12.4375C77.6276 12.5833 77.9375 12.6562 78.2969 12.6562C78.6458 12.6562 78.9479 12.5833 79.2031 12.4375C79.4635 12.2917 79.6771 12.0911 79.8438 11.8359C80.0104 11.5807 80.1328 11.2839 80.2109 10.9453C80.2943 10.6068 80.3359 10.2474 80.3359 9.86719V9.6875C80.3359 9.3125 80.2943 8.95833 80.2109 8.625C80.1328 8.28646 80.0078 7.98698 79.8359 7.72656C79.6693 7.46615 79.4557 7.26302 79.1953 7.11719C78.9401 6.96615 78.6354 6.89062 78.2812 6.89062C77.9271 6.89062 77.6198 6.96615 77.3594 7.11719C77.1042 7.26302 76.8932 7.46615 76.7266 7.72656C76.5599 7.98698 76.4375 8.28646 76.3594 8.625C76.2812 8.95833 76.2422 9.3125 76.2422 9.6875ZM87.5312 5.54688V14H85.6406V5.54688H87.5312ZM90.3047 5.54688V7.03125H82.9141V5.54688H90.3047ZM96.2031 12.3047V8.27344C96.2031 7.97135 96.1484 7.71094 96.0391 7.49219C95.9297 7.27344 95.763 7.10417 95.5391 6.98438C95.3203 6.86458 95.0443 6.80469 94.7109 6.80469C94.4036 6.80469 94.138 6.85677 93.9141 6.96094C93.6901 7.0651 93.5156 7.20573 93.3906 7.38281C93.2656 7.5599 93.2031 7.76042 93.2031 7.98438H91.3281C91.3281 7.65104 91.4089 7.32812 91.5703 7.01562C91.7318 6.70312 91.9661 6.42448 92.2734 6.17969C92.5807 5.9349 92.9479 5.74219 93.375 5.60156C93.8021 5.46094 94.2812 5.39062 94.8125 5.39062C95.4479 5.39062 96.0104 5.4974 96.5 5.71094C96.9948 5.92448 97.3828 6.2474 97.6641 6.67969C97.9505 7.10677 98.0938 7.64323 98.0938 8.28906V12.0469C98.0938 12.4323 98.1198 12.7786 98.1719 13.0859C98.2292 13.388 98.3099 13.651 98.4141 13.875V14H96.4844C96.3958 13.7969 96.3255 13.5391 96.2734 13.2266C96.2266 12.9089 96.2031 12.6016 96.2031 12.3047ZM96.4766 8.85938L96.4922 10.0234H95.1406C94.7917 10.0234 94.4844 10.0573 94.2188 10.125C93.9531 10.1875 93.7318 10.2812 93.5547 10.4062C93.3776 10.5312 93.2448 10.6823 93.1562 10.8594C93.0677 11.0365 93.0234 11.237 93.0234 11.4609C93.0234 11.6849 93.0755 11.8906 93.1797 12.0781C93.2839 12.2604 93.4349 12.4036 93.6328 12.5078C93.8359 12.612 94.0807 12.6641 94.3672 12.6641C94.7526 12.6641 95.0885 12.5859 95.375 12.4297C95.6667 12.2682 95.8958 12.0729 96.0625 11.8438C96.2292 11.6094 96.3177 11.388 96.3281 11.1797L96.9375 12.0156C96.875 12.2292 96.7682 12.4583 96.6172 12.7031C96.4661 12.9479 96.2682 13.1823 96.0234 13.4062C95.7839 13.625 95.4948 13.8047 95.1562 13.9453C94.8229 14.0859 94.4375 14.1562 94 14.1562C93.4479 14.1562 92.9557 14.0469 92.5234 13.8281C92.0911 13.6042 91.7526 13.3047 91.5078 12.9297C91.263 12.5495 91.1406 12.1198 91.1406 11.6406C91.1406 11.1927 91.224 10.7969 91.3906 10.4531C91.5625 10.1042 91.8125 9.8125 92.1406 9.57812C92.474 9.34375 92.8802 9.16667 93.3594 9.04688C93.8385 8.92188 94.3854 8.85938 95 8.85938H96.4766ZM103.789 14.1562C103.164 14.1562 102.599 14.0547 102.094 13.8516C101.594 13.6432 101.167 13.3542 100.812 12.9844C100.464 12.6146 100.195 12.1797 100.008 11.6797C99.8203 11.1797 99.7266 10.6406 99.7266 10.0625V9.75C99.7266 9.08854 99.8229 8.48958 100.016 7.95312C100.208 7.41667 100.477 6.95833 100.82 6.57812C101.164 6.19271 101.57 5.89844 102.039 5.69531C102.508 5.49219 103.016 5.39062 103.562 5.39062C104.167 5.39062 104.695 5.49219 105.148 5.69531C105.602 5.89844 105.977 6.1849 106.273 6.55469C106.576 6.91927 106.799 7.35417 106.945 7.85938C107.096 8.36458 107.172 8.92188 107.172 9.53125V10.3359H100.641V8.98438H105.312V8.83594C105.302 8.4974 105.234 8.17969 105.109 7.88281C104.99 7.58594 104.805 7.34635 104.555 7.16406C104.305 6.98177 103.971 6.89062 103.555 6.89062C103.242 6.89062 102.964 6.95833 102.719 7.09375C102.479 7.22396 102.279 7.41406 102.117 7.66406C101.956 7.91406 101.831 8.21615 101.742 8.57031C101.659 8.91927 101.617 9.3125 101.617 9.75V10.0625C101.617 10.4323 101.667 10.776 101.766 11.0938C101.87 11.4062 102.021 11.6797 102.219 11.9141C102.417 12.1484 102.656 12.3333 102.938 12.4688C103.219 12.599 103.539 12.6641 103.898 12.6641C104.352 12.6641 104.755 12.5729 105.109 12.3906C105.464 12.2083 105.771 11.9505 106.031 11.6172L107.023 12.5781C106.841 12.8438 106.604 13.099 106.312 13.3438C106.021 13.5833 105.664 13.7786 105.242 13.9297C104.826 14.0807 104.341 14.1562 103.789 14.1562ZM113.664 11.7188L116.18 5.54688H117.812L114.305 14H113.023L109.523 5.54688H111.156L113.664 11.7188ZM110.672 5.54688V14H108.789V5.54688H110.672ZM116.656 14V5.54688H118.547V14H116.656ZM130.312 5.54688V7.04688H126.141V5.54688H130.312ZM126.586 5.54688V14H124.703V5.54688H126.586ZM131.789 5.54688V14H129.898V5.54688H131.789ZM133.422 9.86719V9.6875C133.422 9.07812 133.51 8.51302 133.688 7.99219C133.865 7.46615 134.12 7.01042 134.453 6.625C134.792 6.23438 135.203 5.93229 135.688 5.71875C136.177 5.5 136.729 5.39062 137.344 5.39062C137.964 5.39062 138.516 5.5 139 5.71875C139.49 5.93229 139.904 6.23438 140.242 6.625C140.581 7.01042 140.839 7.46615 141.016 7.99219C141.193 8.51302 141.281 9.07812 141.281 9.6875V9.86719C141.281 10.4766 141.193 11.0417 141.016 11.5625C140.839 12.0833 140.581 12.5391 140.242 12.9297C139.904 13.3151 139.492 13.6172 139.008 13.8359C138.523 14.0495 137.974 14.1562 137.359 14.1562C136.74 14.1562 136.185 14.0495 135.695 13.8359C135.211 13.6172 134.799 13.3151 134.461 12.9297C134.122 12.5391 133.865 12.0833 133.688 11.5625C133.51 11.0417 133.422 10.4766 133.422 9.86719ZM135.305 9.6875V9.86719C135.305 10.2474 135.344 10.6068 135.422 10.9453C135.5 11.2839 135.622 11.5807 135.789 11.8359C135.956 12.0911 136.169 12.2917 136.43 12.4375C136.69 12.5833 137 12.6562 137.359 12.6562C137.708 12.6562 138.01 12.5833 138.266 12.4375C138.526 12.2917 138.74 12.0911 138.906 11.8359C139.073 11.5807 139.195 11.2839 139.273 10.9453C139.357 10.6068 139.398 10.2474 139.398 9.86719V9.6875C139.398 9.3125 139.357 8.95833 139.273 8.625C139.195 8.28646 139.07 7.98698 138.898 7.72656C138.732 7.46615 138.518 7.26302 138.258 7.11719C138.003 6.96615 137.698 6.89062 137.344 6.89062C136.99 6.89062 136.682 6.96615 136.422 7.11719C136.167 7.26302 135.956 7.46615 135.789 7.72656C135.622 7.98698 135.5 8.28646 135.422 8.625C135.344 8.95833 135.305 9.3125 135.305 9.6875ZM148.375 5.54688H150.258L150.164 8.52344C150.138 9.38802 150.039 10.1302 149.867 10.75C149.695 11.3698 149.471 11.8932 149.195 12.3203C148.919 12.7422 148.607 13.0885 148.258 13.3594C147.914 13.6302 147.552 13.8438 147.172 14H146.617V12.5156L146.883 12.5C147.107 12.2604 147.299 12.0208 147.461 11.7812C147.628 11.5365 147.768 11.2682 147.883 10.9766C147.997 10.6797 148.086 10.3333 148.148 9.9375C148.216 9.54167 148.26 9.07031 148.281 8.52344L148.375 5.54688ZM148.875 5.54688H154.234V14H152.359V7.14062H148.875V5.54688ZM146.188 12.5H155.391V16.5156H153.508V14H148.094V16.5156H146.18L146.188 12.5ZM156.375 9.86719V9.6875C156.375 9.07812 156.464 8.51302 156.641 7.99219C156.818 7.46615 157.073 7.01042 157.406 6.625C157.745 6.23438 158.156 5.93229 158.641 5.71875C159.13 5.5 159.682 5.39062 160.297 5.39062C160.917 5.39062 161.469 5.5 161.953 5.71875C162.443 5.93229 162.857 6.23438 163.195 6.625C163.534 7.01042 163.792 7.46615 163.969 7.99219C164.146 8.51302 164.234 9.07812 164.234 9.6875V9.86719C164.234 10.4766 164.146 11.0417 163.969 11.5625C163.792 12.0833 163.534 12.5391 163.195 12.9297C162.857 13.3151 162.445 13.6172 161.961 13.8359C161.477 14.0495 160.927 14.1562 160.312 14.1562C159.693 14.1562 159.138 14.0495 158.648 13.8359C158.164 13.6172 157.753 13.3151 157.414 12.9297C157.076 12.5391 156.818 12.0833 156.641 11.5625C156.464 11.0417 156.375 10.4766 156.375 9.86719ZM158.258 9.6875V9.86719C158.258 10.2474 158.297 10.6068 158.375 10.9453C158.453 11.2839 158.576 11.5807 158.742 11.8359C158.909 12.0911 159.122 12.2917 159.383 12.4375C159.643 12.5833 159.953 12.6562 160.312 12.6562C160.661 12.6562 160.964 12.5833 161.219 12.4375C161.479 12.2917 161.693 12.0911 161.859 11.8359C162.026 11.5807 162.148 11.2839 162.227 10.9453C162.31 10.6068 162.352 10.2474 162.352 9.86719V9.6875C162.352 9.3125 162.31 8.95833 162.227 8.625C162.148 8.28646 162.023 7.98698 161.852 7.72656C161.685 7.46615 161.471 7.26302 161.211 7.11719C160.956 6.96615 160.651 6.89062 160.297 6.89062C159.943 6.89062 159.635 6.96615 159.375 7.11719C159.12 7.26302 158.909 7.46615 158.742 7.72656C158.576 7.98698 158.453 8.28646 158.375 8.625C158.297 8.95833 158.258 9.3125 158.258 9.6875ZM171.438 5.54688V7.04688H167.75V14H165.867V5.54688H171.438ZM172.016 9.86719V9.6875C172.016 9.07812 172.104 8.51302 172.281 7.99219C172.458 7.46615 172.714 7.01042 173.047 6.625C173.385 6.23438 173.797 5.93229 174.281 5.71875C174.771 5.5 175.323 5.39062 175.938 5.39062C176.557 5.39062 177.109 5.5 177.594 5.71875C178.083 5.93229 178.497 6.23438 178.836 6.625C179.174 7.01042 179.432 7.46615 179.609 7.99219C179.786 8.51302 179.875 9.07812 179.875 9.6875V9.86719C179.875 10.4766 179.786 11.0417 179.609 11.5625C179.432 12.0833 179.174 12.5391 178.836 12.9297C178.497 13.3151 178.086 13.6172 177.602 13.8359C177.117 14.0495 176.568 14.1562 175.953 14.1562C175.333 14.1562 174.779 14.0495 174.289 13.8359C173.805 13.6172 173.393 13.3151 173.055 12.9297C172.716 12.5391 172.458 12.0833 172.281 11.5625C172.104 11.0417 172.016 10.4766 172.016 9.86719ZM173.898 9.6875V9.86719C173.898 10.2474 173.938 10.6068 174.016 10.9453C174.094 11.2839 174.216 11.5807 174.383 11.8359C174.549 12.0911 174.763 12.2917 175.023 12.4375C175.284 12.5833 175.594 12.6562 175.953 12.6562C176.302 12.6562 176.604 12.5833 176.859 12.4375C177.12 12.2917 177.333 12.0911 177.5 11.8359C177.667 11.5807 177.789 11.2839 177.867 10.9453C177.951 10.6068 177.992 10.2474 177.992 9.86719V9.6875C177.992 9.3125 177.951 8.95833 177.867 8.625C177.789 8.28646 177.664 7.98698 177.492 7.72656C177.326 7.46615 177.112 7.26302 176.852 7.11719C176.596 6.96615 176.292 6.89062 175.938 6.89062C175.583 6.89062 175.276 6.96615 175.016 7.11719C174.76 7.26302 174.549 7.46615 174.383 7.72656C174.216 7.98698 174.094 8.28646 174.016 8.625C173.938 8.95833 173.898 9.3125 173.898 9.6875ZM185.562 10.3828H182.859L182.844 9.05469H185.062C185.427 9.05469 185.727 9.01823 185.961 8.94531C186.201 8.8724 186.378 8.76302 186.492 8.61719C186.607 8.46615 186.664 8.28385 186.664 8.07031C186.664 7.89323 186.63 7.73958 186.562 7.60938C186.495 7.47396 186.391 7.36458 186.25 7.28125C186.115 7.19271 185.943 7.13021 185.734 7.09375C185.531 7.05208 185.294 7.03125 185.023 7.03125H183.484V14H181.602V5.54688H185.023C185.565 5.54688 186.052 5.59375 186.484 5.6875C186.922 5.78125 187.294 5.92448 187.602 6.11719C187.909 6.3099 188.143 6.55469 188.305 6.85156C188.471 7.14323 188.555 7.48698 188.555 7.88281C188.555 8.14323 188.497 8.38802 188.383 8.61719C188.273 8.84635 188.109 9.04948 187.891 9.22656C187.672 9.40365 187.404 9.54948 187.086 9.66406C186.768 9.77344 186.404 9.84115 185.992 9.86719L185.562 10.3828ZM185.562 14H182.312L183.062 12.5156H185.562C185.896 12.5156 186.172 12.474 186.391 12.3906C186.609 12.3073 186.771 12.1875 186.875 12.0312C186.984 11.8698 187.039 11.6797 187.039 11.4609C187.039 11.237 186.987 11.0443 186.883 10.8828C186.779 10.7214 186.617 10.599 186.398 10.5156C186.185 10.4271 185.906 10.3828 185.562 10.3828H183.414L183.43 9.05469H185.984L186.523 9.57031C187.06 9.60677 187.505 9.72135 187.859 9.91406C188.214 10.1068 188.479 10.349 188.656 10.6406C188.833 10.9323 188.922 11.25 188.922 11.5938C188.922 11.9896 188.846 12.3385 188.695 12.6406C188.549 12.9427 188.331 13.1953 188.039 13.3984C187.753 13.5964 187.401 13.7474 186.984 13.8516C186.568 13.9505 186.094 14 185.562 14ZM190.188 9.86719V9.6875C190.188 9.07812 190.276 8.51302 190.453 7.99219C190.63 7.46615 190.885 7.01042 191.219 6.625C191.557 6.23438 191.969 5.93229 192.453 5.71875C192.943 5.5 193.495 5.39062 194.109 5.39062C194.729 5.39062 195.281 5.5 195.766 5.71875C196.255 5.93229 196.669 6.23438 197.008 6.625C197.346 7.01042 197.604 7.46615 197.781 7.99219C197.958 8.51302 198.047 9.07812 198.047 9.6875V9.86719C198.047 10.4766 197.958 11.0417 197.781 11.5625C197.604 12.0833 197.346 12.5391 197.008 12.9297C196.669 13.3151 196.258 13.6172 195.773 13.8359C195.289 14.0495 194.74 14.1562 194.125 14.1562C193.505 14.1562 192.951 14.0495 192.461 13.8359C191.977 13.6172 191.565 13.3151 191.227 12.9297C190.888 12.5391 190.63 12.0833 190.453 11.5625C190.276 11.0417 190.188 10.4766 190.188 9.86719ZM192.07 9.6875V9.86719C192.07 10.2474 192.109 10.6068 192.188 10.9453C192.266 11.2839 192.388 11.5807 192.555 11.8359C192.721 12.0911 192.935 12.2917 193.195 12.4375C193.456 12.5833 193.766 12.6562 194.125 12.6562C194.474 12.6562 194.776 12.5833 195.031 12.4375C195.292 12.2917 195.505 12.0911 195.672 11.8359C195.839 11.5807 195.961 11.2839 196.039 10.9453C196.122 10.6068 196.164 10.2474 196.164 9.86719V9.6875C196.164 9.3125 196.122 8.95833 196.039 8.625C195.961 8.28646 195.836 7.98698 195.664 7.72656C195.497 7.46615 195.284 7.26302 195.023 7.11719C194.768 6.96615 194.464 6.89062 194.109 6.89062C193.755 6.89062 193.448 6.96615 193.188 7.11719C192.932 7.26302 192.721 7.46615 192.555 7.72656C192.388 7.98698 192.266 8.28646 192.188 8.625C192.109 8.95833 192.07 9.3125 192.07 9.6875ZM201.516 7.17188V17.25H199.633V5.54688H201.367L201.516 7.17188ZM207.023 9.69531V9.85938C207.023 10.474 206.951 11.0443 206.805 11.5703C206.664 12.0911 206.453 12.5469 206.172 12.9375C205.896 13.3229 205.555 13.6224 205.148 13.8359C204.742 14.0495 204.273 14.1562 203.742 14.1562C203.216 14.1562 202.755 14.0599 202.359 13.8672C201.969 13.6693 201.638 13.3906 201.367 13.0312C201.096 12.6719 200.878 12.25 200.711 11.7656C200.549 11.276 200.435 10.7396 200.367 10.1562V9.52344C200.435 8.90365 200.549 8.34115 200.711 7.83594C200.878 7.33073 201.096 6.89583 201.367 6.53125C201.638 6.16667 201.969 5.88542 202.359 5.6875C202.75 5.48958 203.206 5.39062 203.727 5.39062C204.258 5.39062 204.729 5.49479 205.141 5.70312C205.552 5.90625 205.898 6.19792 206.18 6.57812C206.461 6.95312 206.672 7.40625 206.812 7.9375C206.953 8.46354 207.023 9.04948 207.023 9.69531ZM205.141 9.85938V9.69531C205.141 9.30469 205.104 8.94271 205.031 8.60938C204.958 8.27083 204.844 7.97396 204.688 7.71875C204.531 7.46354 204.331 7.26562 204.086 7.125C203.846 6.97917 203.557 6.90625 203.219 6.90625C202.885 6.90625 202.599 6.96354 202.359 7.07812C202.12 7.1875 201.919 7.34115 201.758 7.53906C201.596 7.73698 201.471 7.96875 201.383 8.23438C201.294 8.49479 201.232 8.77865 201.195 9.08594V10.6016C201.258 10.9766 201.365 11.3203 201.516 11.6328C201.667 11.9453 201.88 12.1953 202.156 12.3828C202.438 12.5651 202.797 12.6562 203.234 12.6562C203.573 12.6562 203.862 12.5833 204.102 12.4375C204.341 12.2917 204.536 12.0911 204.688 11.8359C204.844 11.5755 204.958 11.276 205.031 10.9375C205.104 10.599 205.141 10.2396 205.141 9.85938ZM210.984 13.0781L213.281 5.54688H215.297L211.906 15.2891C211.828 15.4974 211.727 15.724 211.602 15.9688C211.477 16.2135 211.312 16.4453 211.109 16.6641C210.911 16.888 210.664 17.0677 210.367 17.2031C210.07 17.3438 209.711 17.4141 209.289 17.4141C209.122 17.4141 208.961 17.3984 208.805 17.3672C208.654 17.3411 208.51 17.3125 208.375 17.2812L208.367 15.8438C208.419 15.849 208.482 15.8542 208.555 15.8594C208.633 15.8646 208.695 15.8672 208.742 15.8672C209.055 15.8672 209.315 15.8281 209.523 15.75C209.732 15.6771 209.901 15.5573 210.031 15.3906C210.167 15.224 210.281 15 210.375 14.7188L210.984 13.0781ZM209.688 5.54688L211.695 11.875L212.031 13.8594L210.727 14.1953L207.656 5.54688H209.688Z" fill="black"/>
<path d="M53.3281 27.0469V28.127H48.5293V37H47.2168V27.0469H53.3281ZM57.6689 35.7354V31.9277C57.6689 31.6361 57.6097 31.3831 57.4912 31.1689C57.3773 30.9502 57.2041 30.7816 56.9717 30.6631C56.7393 30.5446 56.4521 30.4854 56.1104 30.4854C55.7913 30.4854 55.5111 30.54 55.2695 30.6494C55.0326 30.7588 54.8457 30.9023 54.709 31.0801C54.5768 31.2578 54.5107 31.4492 54.5107 31.6543H53.2461C53.2461 31.39 53.3145 31.1279 53.4512 30.8682C53.5879 30.6084 53.7839 30.3737 54.0391 30.1641C54.2988 29.9499 54.6087 29.7812 54.9688 29.6582C55.3333 29.5306 55.7389 29.4668 56.1855 29.4668C56.7233 29.4668 57.1973 29.5579 57.6074 29.7402C58.0221 29.9225 58.3457 30.1982 58.5781 30.5674C58.8151 30.932 58.9336 31.39 58.9336 31.9414V35.3867C58.9336 35.6328 58.9541 35.8949 58.9951 36.1729C59.0407 36.4508 59.1068 36.6901 59.1934 36.8906V37H57.874C57.8102 36.8542 57.7601 36.6605 57.7236 36.4189C57.6872 36.1729 57.6689 35.945 57.6689 35.7354ZM57.8877 32.5156L57.9014 33.4043H56.623C56.263 33.4043 55.9417 33.4339 55.6592 33.4932C55.3766 33.5479 55.1396 33.6322 54.9482 33.7461C54.7568 33.86 54.611 34.0036 54.5107 34.1768C54.4105 34.3454 54.3604 34.5436 54.3604 34.7715C54.3604 35.0039 54.4128 35.2158 54.5176 35.4072C54.6224 35.5986 54.7796 35.7513 54.9893 35.8652C55.2035 35.9746 55.4655 36.0293 55.7754 36.0293C56.1628 36.0293 56.5046 35.9473 56.8008 35.7832C57.097 35.6191 57.3317 35.4186 57.5049 35.1816C57.6826 34.9447 57.7783 34.7145 57.792 34.4912L58.332 35.0996C58.3001 35.291 58.2135 35.5029 58.0723 35.7354C57.931 35.9678 57.7419 36.1911 57.5049 36.4053C57.2725 36.6149 56.9945 36.7904 56.6709 36.9316C56.3519 37.0684 55.9919 37.1367 55.5908 37.1367C55.0895 37.1367 54.6497 37.0387 54.2715 36.8428C53.8978 36.6468 53.6061 36.3848 53.3965 36.0566C53.1914 35.724 53.0889 35.3525 53.0889 34.9424C53.0889 34.5459 53.1663 34.1973 53.3213 33.8965C53.4762 33.5911 53.6995 33.3382 53.9912 33.1377C54.2829 32.9326 54.6338 32.7777 55.0439 32.6729C55.4541 32.568 55.9121 32.5156 56.418 32.5156H57.8877ZM62.1875 31.0254V39.8438H60.916V29.6035H62.0781L62.1875 31.0254ZM67.1709 33.2402V33.3838C67.1709 33.9215 67.1071 34.4206 66.9795 34.8809C66.8519 35.3366 66.665 35.7331 66.4189 36.0703C66.1774 36.4076 65.8789 36.6696 65.5234 36.8564C65.168 37.0433 64.7601 37.1367 64.2998 37.1367C63.8304 37.1367 63.4157 37.0592 63.0557 36.9043C62.6956 36.7493 62.3903 36.5238 62.1396 36.2275C61.889 35.9313 61.6885 35.5758 61.5381 35.1611C61.3923 34.7464 61.292 34.2793 61.2373 33.7598V32.9941C61.292 32.4473 61.3945 31.9574 61.5449 31.5244C61.6953 31.0915 61.8936 30.7223 62.1396 30.417C62.3903 30.1071 62.6934 29.8724 63.0488 29.7129C63.4043 29.5488 63.8145 29.4668 64.2793 29.4668C64.7441 29.4668 65.1566 29.5579 65.5166 29.7402C65.8766 29.918 66.1797 30.1732 66.4258 30.5059C66.6719 30.8385 66.8564 31.2373 66.9795 31.7021C67.1071 32.1624 67.1709 32.6751 67.1709 33.2402ZM65.8994 33.3838V33.2402C65.8994 32.8711 65.8607 32.5247 65.7832 32.2012C65.7057 31.873 65.585 31.5859 65.4209 31.3398C65.2614 31.0892 65.0563 30.8932 64.8057 30.752C64.555 30.6061 64.2565 30.5332 63.9102 30.5332C63.5911 30.5332 63.3132 30.5879 63.0762 30.6973C62.8438 30.8066 62.6455 30.9548 62.4814 31.1416C62.3174 31.3239 62.1829 31.5335 62.0781 31.7705C61.9779 32.0029 61.9027 32.2445 61.8525 32.4951V34.2656C61.9437 34.5846 62.0713 34.8854 62.2354 35.168C62.3994 35.446 62.6182 35.6715 62.8916 35.8447C63.165 36.0133 63.5091 36.0977 63.9238 36.0977C64.2656 36.0977 64.5596 36.027 64.8057 35.8857C65.0563 35.7399 65.2614 35.5417 65.4209 35.291C65.585 35.0404 65.7057 34.7533 65.7832 34.4297C65.8607 34.1016 65.8994 33.7529 65.8994 33.3838ZM73.1455 35.7354V31.9277C73.1455 31.6361 73.0863 31.3831 72.9678 31.1689C72.8538 30.9502 72.6807 30.7816 72.4482 30.6631C72.2158 30.5446 71.9287 30.4854 71.5869 30.4854C71.2679 30.4854 70.9876 30.54 70.7461 30.6494C70.5091 30.7588 70.3223 30.9023 70.1855 31.0801C70.0534 31.2578 69.9873 31.4492 69.9873 31.6543H68.7227C68.7227 31.39 68.791 31.1279 68.9277 30.8682C69.0645 30.6084 69.2604 30.3737 69.5156 30.1641C69.7754 29.9499 70.0853 29.7812 70.4453 29.6582C70.8099 29.5306 71.2155 29.4668 71.6621 29.4668C72.1999 29.4668 72.6738 29.5579 73.084 29.7402C73.4987 29.9225 73.8223 30.1982 74.0547 30.5674C74.2917 30.932 74.4102 31.39 74.4102 31.9414V35.3867C74.4102 35.6328 74.4307 35.8949 74.4717 36.1729C74.5173 36.4508 74.5833 36.6901 74.6699 36.8906V37H73.3506C73.2868 36.8542 73.2367 36.6605 73.2002 36.4189C73.1637 36.1729 73.1455 35.945 73.1455 35.7354ZM73.3643 32.5156L73.3779 33.4043H72.0996C71.7396 33.4043 71.4183 33.4339 71.1357 33.4932C70.8532 33.5479 70.6162 33.6322 70.4248 33.7461C70.2334 33.86 70.0876 34.0036 69.9873 34.1768C69.887 34.3454 69.8369 34.5436 69.8369 34.7715C69.8369 35.0039 69.8893 35.2158 69.9941 35.4072C70.099 35.5986 70.2562 35.7513 70.4658 35.8652C70.68 35.9746 70.9421 36.0293 71.252 36.0293C71.6393 36.0293 71.9811 35.9473 72.2773 35.7832C72.5736 35.6191 72.8083 35.4186 72.9814 35.1816C73.1592 34.9447 73.2549 34.7145 73.2686 34.4912L73.8086 35.0996C73.7767 35.291 73.6901 35.5029 73.5488 35.7354C73.4076 35.9678 73.2184 36.1911 72.9814 36.4053C72.749 36.6149 72.471 36.7904 72.1475 36.9316C71.8285 37.0684 71.4684 37.1367 71.0674 37.1367C70.5661 37.1367 70.1263 37.0387 69.748 36.8428C69.3743 36.6468 69.0827 36.3848 68.873 36.0566C68.668 35.724 68.5654 35.3525 68.5654 34.9424C68.5654 34.5459 68.6429 34.1973 68.7979 33.8965C68.9528 33.5911 69.1761 33.3382 69.4678 33.1377C69.7594 32.9326 70.1104 32.7777 70.5205 32.6729C70.9307 32.568 71.3887 32.5156 71.8945 32.5156H73.3643ZM81.417 32.8096V33.835H77.5068V32.8096H81.417ZM77.7734 29.6035V37H76.5088V29.6035H77.7734ZM82.4424 29.6035V37H81.1709V29.6035H82.4424ZM87.4941 29.6035V37H86.2227V29.6035H87.4941ZM89.9756 29.6035V30.6289H83.7891V29.6035H89.9756ZM92.5869 34.9971L95.998 29.6035H97.2695V37H95.998V31.6064L92.5869 37H91.3291V29.6035H92.5869V34.9971ZM100.797 33.4727H102.164L100.024 37H98.6572L100.797 33.4727ZM101.856 29.6035H104.946V37H103.682V30.6289H101.856C101.496 30.6289 101.202 30.6904 100.975 30.8135C100.747 30.932 100.58 31.0869 100.476 31.2783C100.371 31.4697 100.318 31.668 100.318 31.873C100.318 32.0736 100.366 32.2673 100.462 32.4541C100.558 32.6364 100.708 32.7868 100.913 32.9053C101.118 33.0238 101.382 33.083 101.706 33.083H104.023V34.1221H101.706C101.282 34.1221 100.906 34.0651 100.578 33.9512C100.25 33.8372 99.972 33.68 99.7441 33.4795C99.5163 33.2744 99.3431 33.0352 99.2246 32.7617C99.1061 32.4837 99.0469 32.1829 99.0469 31.8594C99.0469 31.5358 99.1084 31.2373 99.2314 30.9639C99.359 30.6904 99.5413 30.4512 99.7783 30.2461C100.02 30.041 100.314 29.8838 100.66 29.7744C101.011 29.6605 101.41 29.6035 101.856 29.6035ZM110.121 33.3838V33.2266C110.121 32.6934 110.199 32.1989 110.354 31.7432C110.508 31.2829 110.732 30.8841 111.023 30.5469C111.315 30.2051 111.668 29.9408 112.083 29.7539C112.498 29.5625 112.963 29.4668 113.478 29.4668C113.997 29.4668 114.464 29.5625 114.879 29.7539C115.298 29.9408 115.654 30.2051 115.945 30.5469C116.242 30.8841 116.467 31.2829 116.622 31.7432C116.777 32.1989 116.854 32.6934 116.854 33.2266V33.3838C116.854 33.917 116.777 34.4115 116.622 34.8672C116.467 35.3229 116.242 35.7217 115.945 36.0635C115.654 36.4007 115.3 36.665 114.886 36.8564C114.476 37.0433 114.011 37.1367 113.491 37.1367C112.972 37.1367 112.505 37.0433 112.09 36.8564C111.675 36.665 111.32 36.4007 111.023 36.0635C110.732 35.7217 110.508 35.3229 110.354 34.8672C110.199 34.4115 110.121 33.917 110.121 33.3838ZM111.386 33.2266V33.3838C111.386 33.7529 111.429 34.1016 111.516 34.4297C111.602 34.7533 111.732 35.0404 111.905 35.291C112.083 35.5417 112.304 35.7399 112.568 35.8857C112.833 36.027 113.14 36.0977 113.491 36.0977C113.838 36.0977 114.141 36.027 114.4 35.8857C114.665 35.7399 114.883 35.5417 115.057 35.291C115.23 35.0404 115.36 34.7533 115.446 34.4297C115.537 34.1016 115.583 33.7529 115.583 33.3838V33.2266C115.583 32.862 115.537 32.5179 115.446 32.1943C115.36 31.8662 115.228 31.5768 115.05 31.3262C114.877 31.071 114.658 30.8704 114.394 30.7246C114.134 30.5788 113.828 30.5059 113.478 30.5059C113.131 30.5059 112.826 30.5788 112.562 30.7246C112.302 30.8704 112.083 31.071 111.905 31.3262C111.732 31.5768 111.602 31.8662 111.516 32.1943C111.429 32.5179 111.386 32.862 111.386 33.2266ZM121.305 29.6035V37H120.033V29.6035H121.305ZM123.786 29.6035V30.6289H117.6V29.6035H123.786ZM129.412 29.6035V30.6494H125.837V29.6035H129.412ZM130.526 29.6035V37H129.262V29.6035H130.526ZM125.529 29.6035H126.801L126.609 33.1719C126.577 33.7233 126.525 34.2109 126.452 34.6348C126.384 35.054 126.288 35.4141 126.165 35.7148C126.047 36.0156 125.896 36.2617 125.714 36.4531C125.536 36.64 125.322 36.779 125.071 36.8701C124.821 36.9567 124.531 37 124.203 37H123.807V35.8857L124.08 35.8652C124.276 35.8516 124.442 35.806 124.579 35.7285C124.72 35.651 124.839 35.5371 124.935 35.3867C125.03 35.2318 125.108 35.0335 125.167 34.792C125.231 34.5505 125.279 34.2633 125.311 33.9307C125.347 33.598 125.374 33.2106 125.393 32.7686L125.529 29.6035ZM133.931 34.9971L137.342 29.6035H138.613V37H137.342V31.6064L133.931 37H132.673V29.6035H133.931V34.9971ZM146.222 29.6035V37H144.957V29.6035H146.222ZM145.791 33.001V34.04C145.536 34.1357 145.276 34.2223 145.012 34.2998C144.752 34.3727 144.476 34.432 144.185 34.4775C143.897 34.5186 143.585 34.5391 143.248 34.5391C142.665 34.5391 142.159 34.4388 141.73 34.2383C141.302 34.0332 140.972 33.7256 140.739 33.3154C140.507 32.9007 140.391 32.3789 140.391 31.75V29.5898H141.655V31.75C141.655 32.1602 141.717 32.4928 141.84 32.748C141.963 33.0033 142.143 33.1924 142.38 33.3154C142.617 33.4339 142.906 33.4932 143.248 33.4932C143.576 33.4932 143.884 33.4727 144.171 33.4316C144.463 33.3861 144.741 33.3268 145.005 33.2539C145.274 33.181 145.536 33.0967 145.791 33.001ZM153.276 32.8096V33.835H149.366V32.8096H153.276ZM149.633 29.6035V37H148.368V29.6035H149.633ZM154.302 29.6035V37H153.03V29.6035H154.302ZM156.004 33.3838V33.2266C156.004 32.6934 156.081 32.1989 156.236 31.7432C156.391 31.2829 156.615 30.8841 156.906 30.5469C157.198 30.2051 157.551 29.9408 157.966 29.7539C158.381 29.5625 158.845 29.4668 159.36 29.4668C159.88 29.4668 160.347 29.5625 160.762 29.7539C161.181 29.9408 161.536 30.2051 161.828 30.5469C162.124 30.8841 162.35 31.2829 162.505 31.7432C162.66 32.1989 162.737 32.6934 162.737 33.2266V33.3838C162.737 33.917 162.66 34.4115 162.505 34.8672C162.35 35.3229 162.124 35.7217 161.828 36.0635C161.536 36.4007 161.183 36.665 160.769 36.8564C160.358 37.0433 159.894 37.1367 159.374 37.1367C158.854 37.1367 158.387 37.0433 157.973 36.8564C157.558 36.665 157.202 36.4007 156.906 36.0635C156.615 35.7217 156.391 35.3229 156.236 34.8672C156.081 34.4115 156.004 33.917 156.004 33.3838ZM157.269 33.2266V33.3838C157.269 33.7529 157.312 34.1016 157.398 34.4297C157.485 34.7533 157.615 35.0404 157.788 35.291C157.966 35.5417 158.187 35.7399 158.451 35.8857C158.715 36.027 159.023 36.0977 159.374 36.0977C159.72 36.0977 160.023 36.027 160.283 35.8857C160.548 35.7399 160.766 35.5417 160.939 35.291C161.113 35.0404 161.243 34.7533 161.329 34.4297C161.42 34.1016 161.466 33.7529 161.466 33.3838V33.2266C161.466 32.862 161.42 32.5179 161.329 32.1943C161.243 31.8662 161.11 31.5768 160.933 31.3262C160.759 31.071 160.541 30.8704 160.276 30.7246C160.017 30.5788 159.711 30.5059 159.36 30.5059C159.014 30.5059 158.709 30.5788 158.444 30.7246C158.185 30.8704 157.966 31.071 157.788 31.3262C157.615 31.5768 157.485 31.8662 157.398 32.1943C157.312 32.5179 157.269 32.862 157.269 33.2266ZM169.102 29.6035V30.6494H165.684V37H164.419V29.6035H169.102ZM169.73 33.3838V33.2266C169.73 32.6934 169.808 32.1989 169.963 31.7432C170.118 31.2829 170.341 30.8841 170.633 30.5469C170.924 30.2051 171.278 29.9408 171.692 29.7539C172.107 29.5625 172.572 29.4668 173.087 29.4668C173.606 29.4668 174.074 29.5625 174.488 29.7539C174.908 29.9408 175.263 30.2051 175.555 30.5469C175.851 30.8841 176.076 31.2829 176.231 31.7432C176.386 32.1989 176.464 32.6934 176.464 33.2266V33.3838C176.464 33.917 176.386 34.4115 176.231 34.8672C176.076 35.3229 175.851 35.7217 175.555 36.0635C175.263 36.4007 174.91 36.665 174.495 36.8564C174.085 37.0433 173.62 37.1367 173.101 37.1367C172.581 37.1367 172.114 37.0433 171.699 36.8564C171.285 36.665 170.929 36.4007 170.633 36.0635C170.341 35.7217 170.118 35.3229 169.963 34.8672C169.808 34.4115 169.73 33.917 169.73 33.3838ZM170.995 33.2266V33.3838C170.995 33.7529 171.038 34.1016 171.125 34.4297C171.212 34.7533 171.341 35.0404 171.515 35.291C171.692 35.5417 171.913 35.7399 172.178 35.8857C172.442 36.027 172.75 36.0977 173.101 36.0977C173.447 36.0977 173.75 36.027 174.01 35.8857C174.274 35.7399 174.493 35.5417 174.666 35.291C174.839 35.0404 174.969 34.7533 175.056 34.4297C175.147 34.1016 175.192 33.7529 175.192 33.3838V33.2266C175.192 32.862 175.147 32.5179 175.056 32.1943C174.969 31.8662 174.837 31.5768 174.659 31.3262C174.486 31.071 174.267 30.8704 174.003 30.7246C173.743 30.5788 173.438 30.5059 173.087 30.5059C172.741 30.5059 172.435 30.5788 172.171 30.7246C171.911 30.8704 171.692 31.071 171.515 31.3262C171.341 31.5768 171.212 31.8662 171.125 32.1943C171.038 32.5179 170.995 32.862 170.995 33.2266ZM184.482 36.0977C184.783 36.0977 185.061 36.0361 185.316 35.9131C185.572 35.79 185.781 35.6214 185.945 35.4072C186.109 35.1885 186.203 34.9401 186.226 34.6621H187.429C187.406 35.0996 187.258 35.5075 186.984 35.8857C186.715 36.2594 186.362 36.5625 185.925 36.7949C185.487 37.0228 185.007 37.1367 184.482 37.1367C183.926 37.1367 183.441 37.0387 183.026 36.8428C182.616 36.6468 182.274 36.3779 182.001 36.0361C181.732 35.6943 181.529 35.3024 181.393 34.8604C181.26 34.4137 181.194 33.9421 181.194 33.4453V33.1582C181.194 32.6615 181.26 32.1921 181.393 31.75C181.529 31.3034 181.732 30.9092 182.001 30.5674C182.274 30.2256 182.616 29.9567 183.026 29.7607C183.441 29.5648 183.926 29.4668 184.482 29.4668C185.061 29.4668 185.567 29.5853 186 29.8223C186.433 30.0547 186.772 30.3737 187.019 30.7793C187.269 31.1803 187.406 31.6361 187.429 32.1465H186.226C186.203 31.8411 186.116 31.5654 185.966 31.3193C185.82 31.0732 185.619 30.8773 185.364 30.7314C185.114 30.5811 184.82 30.5059 184.482 30.5059C184.095 30.5059 183.769 30.5833 183.505 30.7383C183.245 30.8887 183.038 31.0938 182.883 31.3535C182.732 31.6087 182.623 31.8936 182.555 32.208C182.491 32.5179 182.459 32.8346 182.459 33.1582V33.4453C182.459 33.7689 182.491 34.0879 182.555 34.4023C182.618 34.7168 182.726 35.0016 182.876 35.2568C183.031 35.512 183.238 35.7171 183.498 35.8721C183.762 36.0225 184.09 36.0977 184.482 36.0977ZM191.92 37.1367C191.405 37.1367 190.938 37.0501 190.519 36.877C190.104 36.6992 189.746 36.4508 189.445 36.1318C189.149 35.8128 188.921 35.4346 188.762 34.9971C188.602 34.5596 188.522 34.0811 188.522 33.5615V33.2744C188.522 32.6729 188.611 32.1374 188.789 31.668C188.967 31.194 189.208 30.793 189.514 30.4648C189.819 30.1367 190.165 29.8883 190.553 29.7197C190.94 29.5511 191.341 29.4668 191.756 29.4668C192.285 29.4668 192.74 29.5579 193.123 29.7402C193.51 29.9225 193.827 30.1777 194.073 30.5059C194.319 30.8294 194.502 31.2122 194.62 31.6543C194.739 32.0918 194.798 32.5703 194.798 33.0898V33.6572H189.274V32.625H193.533V32.5293C193.515 32.2012 193.447 31.8822 193.328 31.5723C193.214 31.2624 193.032 31.0072 192.781 30.8066C192.531 30.6061 192.189 30.5059 191.756 30.5059C191.469 30.5059 191.204 30.5674 190.963 30.6904C190.721 30.8089 190.514 30.9867 190.341 31.2236C190.168 31.4606 190.033 31.75 189.938 32.0918C189.842 32.4336 189.794 32.8278 189.794 33.2744V33.5615C189.794 33.9124 189.842 34.2428 189.938 34.5527C190.038 34.8581 190.181 35.127 190.368 35.3594C190.56 35.5918 190.79 35.7741 191.059 35.9062C191.332 36.0384 191.642 36.1045 191.988 36.1045C192.435 36.1045 192.813 36.0133 193.123 35.8311C193.433 35.6488 193.704 35.4049 193.937 35.0996L194.702 35.708C194.543 35.9495 194.34 36.1797 194.094 36.3984C193.848 36.6172 193.545 36.7949 193.185 36.9316C192.829 37.0684 192.408 37.1367 191.92 37.1367ZM197.539 31.0254V39.8438H196.268V29.6035H197.43L197.539 31.0254ZM202.522 33.2402V33.3838C202.522 33.9215 202.459 34.4206 202.331 34.8809C202.203 35.3366 202.017 35.7331 201.771 36.0703C201.529 36.4076 201.23 36.6696 200.875 36.8564C200.52 37.0433 200.112 37.1367 199.651 37.1367C199.182 37.1367 198.767 37.0592 198.407 36.9043C198.047 36.7493 197.742 36.5238 197.491 36.2275C197.241 35.9313 197.04 35.5758 196.89 35.1611C196.744 34.7464 196.644 34.2793 196.589 33.7598V32.9941C196.644 32.4473 196.746 31.9574 196.896 31.5244C197.047 31.0915 197.245 30.7223 197.491 30.417C197.742 30.1071 198.045 29.8724 198.4 29.7129C198.756 29.5488 199.166 29.4668 199.631 29.4668C200.096 29.4668 200.508 29.5579 200.868 29.7402C201.228 29.918 201.531 30.1732 201.777 30.5059C202.023 30.8385 202.208 31.2373 202.331 31.7021C202.459 32.1624 202.522 32.6751 202.522 33.2402ZM201.251 33.3838V33.2402C201.251 32.8711 201.212 32.5247 201.135 32.2012C201.057 31.873 200.937 31.5859 200.772 31.3398C200.613 31.0892 200.408 30.8932 200.157 30.752C199.907 30.6061 199.608 30.5332 199.262 30.5332C198.943 30.5332 198.665 30.5879 198.428 30.6973C198.195 30.8066 197.997 30.9548 197.833 31.1416C197.669 31.3239 197.535 31.5335 197.43 31.7705C197.329 32.0029 197.254 32.2445 197.204 32.4951V34.2656C197.295 34.5846 197.423 34.8854 197.587 35.168C197.751 35.446 197.97 35.6715 198.243 35.8447C198.517 36.0133 198.861 36.0977 199.275 36.0977C199.617 36.0977 199.911 36.027 200.157 35.8857C200.408 35.7399 200.613 35.5417 200.772 35.291C200.937 35.0404 201.057 34.7533 201.135 34.4297C201.212 34.1016 201.251 33.7529 201.251 33.3838ZM207.608 33.7461H205.182L205.168 32.7344H207.15C207.542 32.7344 207.868 32.6956 208.128 32.6182C208.392 32.5407 208.59 32.4245 208.723 32.2695C208.855 32.1146 208.921 31.9232 208.921 31.6953C208.921 31.5176 208.882 31.3626 208.805 31.2305C208.732 31.0938 208.62 30.9821 208.47 30.8955C208.319 30.8044 208.132 30.7383 207.909 30.6973C207.69 30.6517 207.433 30.6289 207.137 30.6289H205.517V37H204.252V29.6035H207.137C207.606 29.6035 208.028 29.6445 208.401 29.7266C208.78 29.8086 209.101 29.9339 209.365 30.1025C209.634 30.2666 209.839 30.4762 209.98 30.7314C210.122 30.9867 210.192 31.2874 210.192 31.6338C210.192 31.8571 210.147 32.069 210.056 32.2695C209.965 32.4701 209.83 32.6478 209.652 32.8027C209.475 32.9577 209.256 33.0853 208.996 33.1855C208.736 33.2812 208.438 33.3428 208.101 33.3701L207.608 33.7461ZM207.608 37H204.724L205.353 35.9746H207.608C207.959 35.9746 208.251 35.9313 208.483 35.8447C208.716 35.7536 208.889 35.626 209.003 35.4619C209.121 35.2933 209.181 35.0928 209.181 34.8604C209.181 34.6279 209.121 34.4297 209.003 34.2656C208.889 34.097 208.716 33.9694 208.483 33.8828C208.251 33.7917 207.959 33.7461 207.608 33.7461H205.688L205.701 32.7344H208.101L208.559 33.1172C208.964 33.1491 209.308 33.2493 209.591 33.418C209.873 33.5866 210.088 33.8008 210.233 34.0605C210.379 34.3158 210.452 34.5938 210.452 34.8945C210.452 35.2409 210.386 35.5462 210.254 35.8105C210.126 36.0749 209.939 36.2959 209.693 36.4736C209.447 36.6468 209.149 36.779 208.798 36.8701C208.447 36.9567 208.05 37 207.608 37ZM213.515 34.9971L216.926 29.6035H218.197V37H216.926V31.6064L213.515 37H212.257V29.6035H213.515V34.9971ZM223.188 36.0977C223.488 36.0977 223.766 36.0361 224.021 35.9131C224.277 35.79 224.486 35.6214 224.65 35.4072C224.814 35.1885 224.908 34.9401 224.931 34.6621H226.134C226.111 35.0996 225.963 35.5075 225.689 35.8857C225.421 36.2594 225.067 36.5625 224.63 36.7949C224.192 37.0228 223.712 37.1367 223.188 37.1367C222.632 37.1367 222.146 37.0387 221.731 36.8428C221.321 36.6468 220.979 36.3779 220.706 36.0361C220.437 35.6943 220.234 35.3024 220.098 34.8604C219.965 34.4137 219.899 33.9421 219.899 33.4453V33.1582C219.899 32.6615 219.965 32.1921 220.098 31.75C220.234 31.3034 220.437 30.9092 220.706 30.5674C220.979 30.2256 221.321 29.9567 221.731 29.7607C222.146 29.5648 222.632 29.4668 223.188 29.4668C223.766 29.4668 224.272 29.5853 224.705 29.8223C225.138 30.0547 225.478 30.3737 225.724 30.7793C225.974 31.1803 226.111 31.6361 226.134 32.1465H224.931C224.908 31.8411 224.821 31.5654 224.671 31.3193C224.525 31.0732 224.325 30.8773 224.069 30.7314C223.819 30.5811 223.525 30.5059 223.188 30.5059C222.8 30.5059 222.474 30.5833 222.21 30.7383C221.95 30.8887 221.743 31.0938 221.588 31.3535C221.438 31.6087 221.328 31.8936 221.26 32.208C221.196 32.5179 221.164 32.8346 221.164 33.1582V33.4453C221.164 33.7689 221.196 34.0879 221.26 34.4023C221.324 34.7168 221.431 35.0016 221.581 35.2568C221.736 35.512 221.943 35.7171 222.203 35.8721C222.467 36.0225 222.796 36.0977 223.188 36.0977ZM231.917 35.7354V31.9277C231.917 31.6361 231.858 31.3831 231.739 31.1689C231.625 30.9502 231.452 30.7816 231.22 30.6631C230.987 30.5446 230.7 30.4854 230.358 30.4854C230.039 30.4854 229.759 30.54 229.518 30.6494C229.281 30.7588 229.094 30.9023 228.957 31.0801C228.825 31.2578 228.759 31.4492 228.759 31.6543H227.494C227.494 31.39 227.562 31.1279 227.699 30.8682C227.836 30.6084 228.032 30.3737 228.287 30.1641C228.547 29.9499 228.857 29.7812 229.217 29.6582C229.581 29.5306 229.987 29.4668 230.434 29.4668C230.971 29.4668 231.445 29.5579 231.855 29.7402C232.27 29.9225 232.594 30.1982 232.826 30.5674C233.063 30.932 233.182 31.39 233.182 31.9414V35.3867C233.182 35.6328 233.202 35.8949 233.243 36.1729C233.289 36.4508 233.355 36.6901 233.441 36.8906V37H232.122C232.058 36.8542 232.008 36.6605 231.972 36.4189C231.935 36.1729 231.917 35.945 231.917 35.7354ZM232.136 32.5156L232.149 33.4043H230.871C230.511 33.4043 230.19 33.4339 229.907 33.4932C229.625 33.5479 229.388 33.6322 229.196 33.7461C229.005 33.86 228.859 34.0036 228.759 34.1768C228.659 34.3454 228.608 34.5436 228.608 34.7715C228.608 35.0039 228.661 35.2158 228.766 35.4072C228.87 35.5986 229.028 35.7513 229.237 35.8652C229.451 35.9746 229.714 36.0293 230.023 36.0293C230.411 36.0293 230.753 35.9473 231.049 35.7832C231.345 35.6191 231.58 35.4186 231.753 35.1816C231.931 34.9447 232.026 34.7145 232.04 34.4912L232.58 35.0996C232.548 35.291 232.462 35.5029 232.32 35.7354C232.179 35.9678 231.99 36.1911 231.753 36.4053C231.521 36.6149 231.243 36.7904 230.919 36.9316C230.6 37.0684 230.24 37.1367 229.839 37.1367C229.338 37.1367 228.898 37.0387 228.52 36.8428C228.146 36.6468 227.854 36.3848 227.645 36.0566C227.439 35.724 227.337 35.3525 227.337 34.9424C227.337 34.5459 227.414 34.1973 227.569 33.8965C227.724 33.5911 227.948 33.3382 228.239 33.1377C228.531 32.9326 228.882 32.7777 229.292 32.6729C229.702 32.568 230.16 32.5156 230.666 32.5156H232.136Z" fill="black"/>
<g clip-path="url(#clip0_13_61)">
<path d="M35.5039 33.8022H31.2707V1.53732C31.2706 0.689142 30.5805 -0.000976562 29.7323 -0.000976562H4.45461C3.60636 -0.000976562 2.91632 0.689142 2.91632 1.53732V34.3819C2.91632 36.8446 4.85452 38.863 7.28562 38.9922C7.31328 38.9963 7.34131 38.999 7.3701 38.999C7.3877 38.999 7.40514 38.9989 7.42266 38.9987C7.42883 38.9989 7.435 38.999 7.44132 38.999H7.53356H7.80984H31.4664C34.0124 38.999 36.0837 36.9277 36.0837 34.3819C36.0837 34.0617 35.8241 33.8022 35.5039 33.8022ZM7.45183 37.8376C5.58295 37.7939 4.07589 36.2611 4.07589 34.3819V1.53732C4.07589 1.32845 4.24583 1.15844 4.45469 1.15844H29.7324C29.9412 1.15844 30.1113 1.32845 30.1113 1.53732V33.8021H11.4076C11.0874 33.8021 10.8279 34.0616 10.8279 34.3819C10.8279 36.2611 9.32071 37.7938 7.45183 37.8376ZM31.4664 37.8396H10.4269C11.2468 37.1138 11.8077 36.1019 11.9512 34.9617H34.8756C34.5991 36.5932 33.1755 37.8396 31.4664 37.8396Z" fill="black"/>
<path d="M22.7055 15.6442C19.4271 15.6442 16.7601 18.3114 16.7601 21.5896C16.7601 23.574 17.7382 25.3331 19.2366 26.4137V31.8863C19.2366 32.0895 19.3429 32.2778 19.517 32.3828C19.6908 32.4876 19.9071 32.4938 20.0868 32.3991L22.7055 31.0178L25.3242 32.3991C25.409 32.4438 25.5019 32.4661 25.5947 32.4661C25.6985 32.4661 25.8023 32.4383 25.8941 32.3828C26.0681 32.2778 26.1745 32.0895 26.1745 31.8863V26.4137C27.6728 25.3331 28.6509 23.574 28.6509 21.5896C28.6509 18.3114 25.9837 15.6442 22.7055 15.6442ZM25.015 30.925L22.976 29.8495C22.8068 29.7603 22.6043 29.7603 22.435 29.8495L20.3961 30.925V27.0682C21.1064 27.3689 21.8869 27.5351 22.7055 27.5351C23.5241 27.5351 24.3046 27.3688 25.015 27.0682V30.925V30.925ZM22.7055 26.3757C20.0665 26.3757 17.9195 24.2287 17.9195 21.5897C17.9195 18.9507 20.0665 16.8038 22.7055 16.8038C25.3445 16.8038 27.4914 18.9507 27.4914 21.5897C27.4914 24.2287 25.3445 26.3757 22.7055 26.3757Z" fill="black"/>
<path d="M22.7055 17.8301C20.6325 17.8301 18.9459 19.5166 18.9459 21.5897C18.9459 23.6628 20.6324 25.3493 22.7055 25.3493C24.7785 25.3493 26.4651 23.6628 26.4651 21.5897C26.465 19.5166 24.7785 17.8301 22.7055 17.8301ZM22.7055 24.1898C21.2719 24.1898 20.1054 23.0233 20.1054 21.5896C20.1054 20.156 21.2718 18.9895 22.7055 18.9895C24.1392 18.9895 25.3056 20.1559 25.3056 21.5896C25.3055 23.0233 24.1392 24.1898 22.7055 24.1898Z" fill="black"/>
<path d="M26.2557 3.79956H8.37786C7.41718 3.79956 6.63565 4.58109 6.63565 5.54161V5.59196C6.63565 6.55249 7.41718 7.33402 8.37786 7.33402H26.2557C27.2164 7.33402 27.9979 6.55249 27.9979 5.59196V5.54161C27.9979 4.58101 27.2164 3.79956 26.2557 3.79956ZM26.8385 5.59189C26.8385 5.91318 26.577 6.17453 26.2557 6.17453H8.37786C8.05664 6.17453 7.79514 5.91318 7.79514 5.59189V5.54154C7.79514 5.22024 8.05656 4.9589 8.37786 4.9589H26.2557C26.577 4.9589 26.8385 5.22024 26.8385 5.54154V5.59189Z" fill="black"/>
<path d="M26.2557 8.35211H8.37786C7.41718 8.35211 6.63565 9.13364 6.63565 10.0942V10.1445C6.63565 11.1052 7.41718 11.8866 8.37786 11.8866H26.2557C27.2164 11.8866 27.9979 11.1051 27.9979 10.1445V10.0942C27.9979 9.13364 27.2164 8.35211 26.2557 8.35211ZM26.8385 10.1444C26.8385 10.4657 26.577 10.7272 26.2557 10.7272H8.37786C8.05664 10.7272 7.79514 10.4657 7.79514 10.1444V10.0942C7.79514 9.77295 8.05656 9.5116 8.37786 9.5116H26.2557C26.577 9.5116 26.8385 9.77295 26.8385 10.0942V10.1444Z" fill="black"/>
<path d="M15.5782 12.9048H8.55823C7.59755 12.9048 6.8161 13.6864 6.8161 14.6469V14.6972C6.8161 15.6579 7.59763 16.4394 8.55823 16.4394H15.5782C16.5389 16.4394 17.3205 15.6578 17.3205 14.6972V14.6469C17.3205 13.6863 16.5389 12.9048 15.5782 12.9048ZM16.161 14.6972C16.161 15.0185 15.8995 15.2799 15.5782 15.2799H8.55823C8.23701 15.2799 7.97552 15.0185 7.97552 14.6972V14.6469C7.97552 14.3257 8.23694 14.0643 8.55823 14.0643H15.5782C15.8995 14.0643 16.161 14.3257 16.161 14.6469V14.6972Z" fill="black"/>
</g>
<defs>
<clipPath id="clip0_13_61">
<rect width="39" height="39" fill="white" transform="translate(0 -0.000976562)"/>
</clipPath>
</defs>
</svg>
