<svg width="237" height="40" viewBox="0 0 237 40" fill="none" xmlns="http://www.w3.org/2000/svg">
<!-- <rect width="237" height="39" fill="white"/> -->
<path d="M49.4297 2.625V4.1875H44.1484V14H42.1953V2.625H49.4297ZM54.125 12.3047V8.27344C54.125 7.97135 54.0703 7.71094 53.9609 7.49219C53.8516 7.27344 53.6849 7.10417 53.4609 6.98438C53.2422 6.86458 52.9661 6.80469 52.6328 6.80469C52.3255 6.80469 52.0599 6.85677 51.8359 6.96094C51.612 7.0651 51.4375 7.20573 51.3125 7.38281C51.1875 7.5599 51.125 7.76042 51.125 7.98438H49.25C49.25 7.65104 49.3307 7.32812 49.4922 7.01562C49.6536 6.70312 49.888 6.42448 50.1953 6.17969C50.5026 5.9349 50.8698 5.74219 51.2969 5.60156C51.724 5.46094 52.2031 5.39062 52.7344 5.39062C53.3698 5.39062 53.9323 5.4974 54.4219 5.71094C54.9167 5.92448 55.3047 6.2474 55.5859 6.67969C55.8724 7.10677 56.0156 7.64323 56.0156 8.28906V12.0469C56.0156 12.4323 56.0417 12.7786 56.0938 13.0859C56.151 13.388 56.2318 13.651 56.3359 13.875V14H54.4062C54.3177 13.7969 54.2474 13.5391 54.1953 13.2266C54.1484 12.9089 54.125 12.6016 54.125 12.3047ZM54.3984 8.85938L54.4141 10.0234H53.0625C52.7135 10.0234 52.4062 10.0573 52.1406 10.125C51.875 10.1875 51.6536 10.2812 51.4766 10.4062C51.2995 10.5312 51.1667 10.6823 51.0781 10.8594C50.9896 11.0365 50.9453 11.237 50.9453 11.4609C50.9453 11.6849 50.9974 11.8906 51.1016 12.0781C51.2057 12.2604 51.3568 12.4036 51.5547 12.5078C51.7578 12.612 52.0026 12.6641 52.2891 12.6641C52.6745 12.6641 53.0104 12.5859 53.2969 12.4297C53.5885 12.2682 53.8177 12.0729 53.9844 11.8438C54.151 11.6094 54.2396 11.388 54.25 11.1797L54.8594 12.0156C54.7969 12.2292 54.6901 12.4583 54.5391 12.7031C54.388 12.9479 54.1901 13.1823 53.9453 13.4062C53.7057 13.625 53.4167 13.8047 53.0781 13.9453C52.7448 14.0859 52.3594 14.1562 51.9219 14.1562C51.3698 14.1562 50.8776 14.0469 50.4453 13.8281C50.013 13.6042 49.6745 13.3047 49.4297 12.9297C49.1849 12.5495 49.0625 12.1198 49.0625 11.6406C49.0625 11.1927 49.1458 10.7969 49.3125 10.4531C49.4844 10.1042 49.7344 9.8125 50.0625 9.57812C50.3958 9.34375 50.8021 9.16667 51.2812 9.04688C51.7604 8.92188 52.3073 8.85938 52.9219 8.85938H54.3984ZM59.875 7.17188V17.25H57.9922V5.54688H59.7266L59.875 7.17188ZM65.3828 9.69531V9.85938C65.3828 10.474 65.3099 11.0443 65.1641 11.5703C65.0234 12.0911 64.8125 12.5469 64.5312 12.9375C64.2552 13.3229 63.9141 13.6224 63.5078 13.8359C63.1016 14.0495 62.6328 14.1562 62.1016 14.1562C61.5755 14.1562 61.1146 14.0599 60.7188 13.8672C60.3281 13.6693 59.9974 13.3906 59.7266 13.0312C59.4557 12.6719 59.237 12.25 59.0703 11.7656C58.9089 11.276 58.7943 10.7396 58.7266 10.1562V9.52344C58.7943 8.90365 58.9089 8.34115 59.0703 7.83594C59.237 7.33073 59.4557 6.89583 59.7266 6.53125C59.9974 6.16667 60.3281 5.88542 60.7188 5.6875C61.1094 5.48958 61.5651 5.39062 62.0859 5.39062C62.6172 5.39062 63.0885 5.49479 63.5 5.70312C63.9115 5.90625 64.2578 6.19792 64.5391 6.57812C64.8203 6.95312 65.0312 7.40625 65.1719 7.9375C65.3125 8.46354 65.3828 9.04948 65.3828 9.69531ZM63.5 9.85938V9.69531C63.5 9.30469 63.4635 8.94271 63.3906 8.60938C63.3177 8.27083 63.2031 7.97396 63.0469 7.71875C62.8906 7.46354 62.6901 7.26562 62.4453 7.125C62.2057 6.97917 61.9167 6.90625 61.5781 6.90625C61.2448 6.90625 60.9583 6.96354 60.7188 7.07812C60.4792 7.1875 60.2786 7.34115 60.1172 7.53906C59.9557 7.73698 59.8307 7.96875 59.7422 8.23438C59.6536 8.49479 59.5911 8.77865 59.5547 9.08594V10.6016C59.6172 10.9766 59.724 11.3203 59.875 11.6328C60.026 11.9453 60.2396 12.1953 60.5156 12.3828C60.7969 12.5651 61.1562 12.6562 61.5938 12.6562C61.9323 12.6562 62.2214 12.5833 62.4609 12.4375C62.7005 12.2917 62.8958 12.0911 63.0469 11.8359C63.2031 11.5755 63.3177 11.276 63.3906 10.9375C63.4635 10.599 63.5 10.2396 63.5 9.85938ZM71.75 12.3047V8.27344C71.75 7.97135 71.6953 7.71094 71.5859 7.49219C71.4766 7.27344 71.3099 7.10417 71.0859 6.98438C70.8672 6.86458 70.5911 6.80469 70.2578 6.80469C69.9505 6.80469 69.6849 6.85677 69.4609 6.96094C69.237 7.0651 69.0625 7.20573 68.9375 7.38281C68.8125 7.5599 68.75 7.76042 68.75 7.98438H66.875C66.875 7.65104 66.9557 7.32812 67.1172 7.01562C67.2786 6.70312 67.513 6.42448 67.8203 6.17969C68.1276 5.9349 68.4948 5.74219 68.9219 5.60156C69.349 5.46094 69.8281 5.39062 70.3594 5.39062C70.9948 5.39062 71.5573 5.4974 72.0469 5.71094C72.5417 5.92448 72.9297 6.2474 73.2109 6.67969C73.4974 7.10677 73.6406 7.64323 73.6406 8.28906V12.0469C73.6406 12.4323 73.6667 12.7786 73.7188 13.0859C73.776 13.388 73.8568 13.651 73.9609 13.875V14H72.0312C71.9427 13.7969 71.8724 13.5391 71.8203 13.2266C71.7734 12.9089 71.75 12.6016 71.75 12.3047ZM72.0234 8.85938L72.0391 10.0234H70.6875C70.3385 10.0234 70.0312 10.0573 69.7656 10.125C69.5 10.1875 69.2786 10.2812 69.1016 10.4062C68.9245 10.5312 68.7917 10.6823 68.7031 10.8594C68.6146 11.0365 68.5703 11.237 68.5703 11.4609C68.5703 11.6849 68.6224 11.8906 68.7266 12.0781C68.8307 12.2604 68.9818 12.4036 69.1797 12.5078C69.3828 12.612 69.6276 12.6641 69.9141 12.6641C70.2995 12.6641 70.6354 12.5859 70.9219 12.4297C71.2135 12.2682 71.4427 12.0729 71.6094 11.8438C71.776 11.6094 71.8646 11.388 71.875 11.1797L72.4844 12.0156C72.4219 12.2292 72.3151 12.4583 72.1641 12.7031C72.013 12.9479 71.8151 13.1823 71.5703 13.4062C71.3307 13.625 71.0417 13.8047 70.7031 13.9453C70.3698 14.0859 69.9844 14.1562 69.5469 14.1562C68.9948 14.1562 68.5026 14.0469 68.0703 13.8281C67.638 13.6042 67.2995 13.3047 67.0547 12.9297C66.8099 12.5495 66.6875 12.1198 66.6875 11.6406C66.6875 11.1927 66.7708 10.7969 66.9375 10.4531C67.1094 10.1042 67.3594 9.8125 67.6875 9.57812C68.0208 9.34375 68.4271 9.16667 68.9062 9.04688C69.3854 8.92188 69.9323 8.85938 70.5469 8.85938H72.0234ZM81.3828 9.07812V10.5625H77.0078V9.07812H81.3828ZM77.5547 5.54688V14H75.6719V5.54688H77.5547ZM82.7422 5.54688V14H80.8594V5.54688H82.7422ZM88.6719 5.54688V14H86.7812V5.54688H88.6719ZM91.4453 5.54688V7.03125H84.0547V5.54688H91.4453ZM94.6484 11.25L97.9688 5.54688H99.8516V14H97.9688V8.28906L94.6484 14H92.7656V5.54688H94.6484V11.25ZM103.625 9.86719H105.578L103.18 14H101.234L103.625 9.86719ZM105 5.54688H108.625V14H106.75V7.03125H105C104.646 7.03125 104.354 7.09375 104.125 7.21875C103.896 7.33854 103.727 7.4974 103.617 7.69531C103.508 7.88802 103.453 8.08594 103.453 8.28906C103.453 8.49219 103.503 8.6875 103.602 8.875C103.706 9.0625 103.865 9.21615 104.078 9.33594C104.297 9.45573 104.57 9.51562 104.898 9.51562H107.383V10.8906H104.898C104.378 10.8906 103.911 10.8255 103.5 10.6953C103.089 10.5599 102.74 10.375 102.453 10.1406C102.167 9.90104 101.948 9.6224 101.797 9.30469C101.646 8.98177 101.57 8.63021 101.57 8.25C101.57 7.85938 101.648 7.5 101.805 7.17188C101.961 6.84375 102.185 6.55729 102.477 6.3125C102.773 6.06771 103.133 5.88021 103.555 5.75C103.982 5.61458 104.464 5.54688 105 5.54688ZM116.234 5.54688H118.117L118.023 8.52344C117.997 9.38802 117.898 10.1302 117.727 10.75C117.555 11.3698 117.331 11.8932 117.055 12.3203C116.779 12.7422 116.466 13.0885 116.117 13.3594C115.773 13.6302 115.411 13.8438 115.031 14H114.477V12.5156L114.742 12.5C114.966 12.2604 115.159 12.0208 115.32 11.7812C115.487 11.5365 115.628 11.2682 115.742 10.9766C115.857 10.6797 115.945 10.3333 116.008 9.9375C116.076 9.54167 116.12 9.07031 116.141 8.52344L116.234 5.54688ZM116.734 5.54688H122.094V14H120.219V7.14062H116.734V5.54688ZM114.047 12.5H123.25V16.5156H121.367V14H115.953V16.5156H114.039L114.047 12.5ZM124.234 9.86719V9.6875C124.234 9.07812 124.323 8.51302 124.5 7.99219C124.677 7.46615 124.932 7.01042 125.266 6.625C125.604 6.23438 126.016 5.93229 126.5 5.71875C126.99 5.5 127.542 5.39062 128.156 5.39062C128.776 5.39062 129.328 5.5 129.812 5.71875C130.302 5.93229 130.716 6.23438 131.055 6.625C131.393 7.01042 131.651 7.46615 131.828 7.99219C132.005 8.51302 132.094 9.07812 132.094 9.6875V9.86719C132.094 10.4766 132.005 11.0417 131.828 11.5625C131.651 12.0833 131.393 12.5391 131.055 12.9297C130.716 13.3151 130.305 13.6172 129.82 13.8359C129.336 14.0495 128.786 14.1562 128.172 14.1562C127.552 14.1562 126.997 14.0495 126.508 13.8359C126.023 13.6172 125.612 13.3151 125.273 12.9297C124.935 12.5391 124.677 12.0833 124.5 11.5625C124.323 11.0417 124.234 10.4766 124.234 9.86719ZM126.117 9.6875V9.86719C126.117 10.2474 126.156 10.6068 126.234 10.9453C126.312 11.2839 126.435 11.5807 126.602 11.8359C126.768 12.0911 126.982 12.2917 127.242 12.4375C127.503 12.5833 127.812 12.6562 128.172 12.6562C128.521 12.6562 128.823 12.5833 129.078 12.4375C129.339 12.2917 129.552 12.0911 129.719 11.8359C129.885 11.5807 130.008 11.2839 130.086 10.9453C130.169 10.6068 130.211 10.2474 130.211 9.86719V9.6875C130.211 9.3125 130.169 8.95833 130.086 8.625C130.008 8.28646 129.883 7.98698 129.711 7.72656C129.544 7.46615 129.331 7.26302 129.07 7.11719C128.815 6.96615 128.51 6.89062 128.156 6.89062C127.802 6.89062 127.495 6.96615 127.234 7.11719C126.979 7.26302 126.768 7.46615 126.602 7.72656C126.435 7.98698 126.312 8.28646 126.234 8.625C126.156 8.95833 126.117 9.3125 126.117 9.6875ZM139.523 8.71094L138.023 8.34375L138.641 2.625H144.773V4.21875H140.203L139.891 7.00781C140.068 6.90365 140.312 6.80208 140.625 6.70312C140.938 6.59896 141.294 6.54688 141.695 6.54688C142.232 6.54688 142.711 6.63542 143.133 6.8125C143.56 6.98438 143.922 7.23698 144.219 7.57031C144.516 7.89844 144.742 8.29948 144.898 8.77344C145.055 9.24219 145.133 9.77083 145.133 10.3594C145.133 10.8854 145.055 11.3776 144.898 11.8359C144.747 12.2943 144.518 12.6979 144.211 13.0469C143.904 13.3958 143.516 13.6693 143.047 13.8672C142.583 14.0599 142.034 14.1562 141.398 14.1562C140.924 14.1562 140.469 14.0885 140.031 13.9531C139.599 13.8125 139.211 13.6068 138.867 13.3359C138.523 13.0599 138.247 12.7214 138.039 12.3203C137.831 11.9141 137.711 11.4479 137.68 10.9219H139.523C139.57 11.2917 139.672 11.6068 139.828 11.8672C139.99 12.1224 140.203 12.3177 140.469 12.4531C140.734 12.5885 141.042 12.6562 141.391 12.6562C141.708 12.6562 141.982 12.6016 142.211 12.4922C142.44 12.3776 142.63 12.2161 142.781 12.0078C142.938 11.7943 143.052 11.5443 143.125 11.2578C143.203 10.9714 143.242 10.6536 143.242 10.3047C143.242 9.97135 143.198 9.66667 143.109 9.39062C143.026 9.11458 142.898 8.875 142.727 8.67188C142.56 8.46875 142.349 8.3125 142.094 8.20312C141.839 8.08854 141.544 8.03125 141.211 8.03125C140.763 8.03125 140.419 8.09635 140.18 8.22656C139.945 8.35677 139.727 8.51823 139.523 8.71094ZM156.414 5.54688V7.04688H152.289V5.54688H156.414ZM157.891 5.54688V14H156.008V5.54688H157.891ZM151.828 5.54688H153.688L153.461 9.72656C153.43 10.3464 153.367 10.8932 153.273 11.3672C153.185 11.8359 153.065 12.2396 152.914 12.5781C152.763 12.9115 152.578 13.1823 152.359 13.3906C152.141 13.599 151.885 13.7526 151.594 13.8516C151.302 13.9505 150.974 14 150.609 14H150.023L150.016 12.4531L150.312 12.4297C150.505 12.4141 150.672 12.3646 150.812 12.2812C150.953 12.1927 151.073 12.0677 151.172 11.9062C151.276 11.7448 151.359 11.5365 151.422 11.2812C151.49 11.026 151.542 10.724 151.578 10.375C151.62 10.026 151.651 9.61979 151.672 9.15625L151.828 5.54688ZM163.617 14.1562C162.992 14.1562 162.427 14.0547 161.922 13.8516C161.422 13.6432 160.995 13.3542 160.641 12.9844C160.292 12.6146 160.023 12.1797 159.836 11.6797C159.648 11.1797 159.555 10.6406 159.555 10.0625V9.75C159.555 9.08854 159.651 8.48958 159.844 7.95312C160.036 7.41667 160.305 6.95833 160.648 6.57812C160.992 6.19271 161.398 5.89844 161.867 5.69531C162.336 5.49219 162.844 5.39062 163.391 5.39062C163.995 5.39062 164.523 5.49219 164.977 5.69531C165.43 5.89844 165.805 6.1849 166.102 6.55469C166.404 6.91927 166.628 7.35417 166.773 7.85938C166.924 8.36458 167 8.92188 167 9.53125V10.3359H160.469V8.98438H165.141V8.83594C165.13 8.4974 165.062 8.17969 164.938 7.88281C164.818 7.58594 164.633 7.34635 164.383 7.16406C164.133 6.98177 163.799 6.89062 163.383 6.89062C163.07 6.89062 162.792 6.95833 162.547 7.09375C162.307 7.22396 162.107 7.41406 161.945 7.66406C161.784 7.91406 161.659 8.21615 161.57 8.57031C161.487 8.91927 161.445 9.3125 161.445 9.75V10.0625C161.445 10.4323 161.495 10.776 161.594 11.0938C161.698 11.4062 161.849 11.6797 162.047 11.9141C162.245 12.1484 162.484 12.3333 162.766 12.4688C163.047 12.599 163.367 12.6641 163.727 12.6641C164.18 12.6641 164.583 12.5729 164.938 12.3906C165.292 12.2083 165.599 11.9505 165.859 11.6172L166.852 12.5781C166.669 12.8438 166.432 13.099 166.141 13.3438C165.849 13.5833 165.492 13.7786 165.07 13.9297C164.654 14.0807 164.169 14.1562 163.617 14.1562ZM172.297 5.54688V14H170.406V5.54688H172.297ZM175.07 5.54688V7.03125H167.68V5.54688H175.07Z" fill="black"/>
<path d="M48.6562 31.3262V32.3994H43.2695V31.3262H48.6562ZM43.4746 27.0469V37H42.1553V27.0469H43.4746ZM49.8047 27.0469V37H48.4922V27.0469H49.8047ZM56.3193 35.7354V31.9277C56.3193 31.6361 56.2601 31.3831 56.1416 31.1689C56.0277 30.9502 55.8545 30.7816 55.6221 30.6631C55.3896 30.5446 55.1025 30.4854 54.7607 30.4854C54.4417 30.4854 54.1615 30.54 53.9199 30.6494C53.6829 30.7588 53.4961 30.9023 53.3594 31.0801C53.2272 31.2578 53.1611 31.4492 53.1611 31.6543H51.8965C51.8965 31.39 51.9648 31.1279 52.1016 30.8682C52.2383 30.6084 52.4342 30.3737 52.6895 30.1641C52.9492 29.9499 53.2591 29.7812 53.6191 29.6582C53.9837 29.5306 54.3893 29.4668 54.8359 29.4668C55.3737 29.4668 55.8477 29.5579 56.2578 29.7402C56.6725 29.9225 56.9961 30.1982 57.2285 30.5674C57.4655 30.932 57.584 31.39 57.584 31.9414V35.3867C57.584 35.6328 57.6045 35.8949 57.6455 36.1729C57.6911 36.4508 57.7572 36.6901 57.8438 36.8906V37H56.5244C56.4606 36.8542 56.4105 36.6605 56.374 36.4189C56.3376 36.1729 56.3193 35.945 56.3193 35.7354ZM56.5381 32.5156L56.5518 33.4043H55.2734C54.9134 33.4043 54.5921 33.4339 54.3096 33.4932C54.027 33.5479 53.79 33.6322 53.5986 33.7461C53.4072 33.86 53.2614 34.0036 53.1611 34.1768C53.0609 34.3454 53.0107 34.5436 53.0107 34.7715C53.0107 35.0039 53.0632 35.2158 53.168 35.4072C53.2728 35.5986 53.43 35.7513 53.6396 35.8652C53.8538 35.9746 54.1159 36.0293 54.4258 36.0293C54.8132 36.0293 55.1549 35.9473 55.4512 35.7832C55.7474 35.6191 55.9821 35.4186 56.1553 35.1816C56.333 34.9447 56.4287 34.7145 56.4424 34.4912L56.9824 35.0996C56.9505 35.291 56.8639 35.5029 56.7227 35.7354C56.5814 35.9678 56.3923 36.1911 56.1553 36.4053C55.9229 36.6149 55.6449 36.7904 55.3213 36.9316C55.0023 37.0684 54.6423 37.1367 54.2412 37.1367C53.7399 37.1367 53.3001 37.0387 52.9219 36.8428C52.5482 36.6468 52.2565 36.3848 52.0469 36.0566C51.8418 35.724 51.7393 35.3525 51.7393 34.9424C51.7393 34.5459 51.8167 34.1973 51.9717 33.8965C52.1266 33.5911 52.3499 33.3382 52.6416 33.1377C52.9333 32.9326 53.2842 32.7777 53.6943 32.6729C54.1045 32.568 54.5625 32.5156 55.0684 32.5156H56.5381ZM66.0605 29.6035V37H64.7891V29.6035H66.0605ZM68.542 29.6035V30.6289H62.3555V29.6035H68.542ZM69.1641 33.3838V33.2266C69.1641 32.6934 69.2415 32.1989 69.3965 31.7432C69.5514 31.2829 69.7747 30.8841 70.0664 30.5469C70.3581 30.2051 70.7113 29.9408 71.126 29.7539C71.5407 29.5625 72.0055 29.4668 72.5205 29.4668C73.04 29.4668 73.5072 29.5625 73.9219 29.7539C74.3411 29.9408 74.6966 30.2051 74.9883 30.5469C75.2845 30.8841 75.5101 31.2829 75.665 31.7432C75.82 32.1989 75.8975 32.6934 75.8975 33.2266V33.3838C75.8975 33.917 75.82 34.4115 75.665 34.8672C75.5101 35.3229 75.2845 35.7217 74.9883 36.0635C74.6966 36.4007 74.3434 36.665 73.9287 36.8564C73.5186 37.0433 73.0537 37.1367 72.5342 37.1367C72.0146 37.1367 71.5475 37.0433 71.1328 36.8564C70.7181 36.665 70.3626 36.4007 70.0664 36.0635C69.7747 35.7217 69.5514 35.3229 69.3965 34.8672C69.2415 34.4115 69.1641 33.917 69.1641 33.3838ZM70.4287 33.2266V33.3838C70.4287 33.7529 70.472 34.1016 70.5586 34.4297C70.6452 34.7533 70.7751 35.0404 70.9482 35.291C71.126 35.5417 71.347 35.7399 71.6113 35.8857C71.8757 36.027 72.1833 36.0977 72.5342 36.0977C72.8805 36.0977 73.1836 36.027 73.4434 35.8857C73.7077 35.7399 73.9264 35.5417 74.0996 35.291C74.2728 35.0404 74.4027 34.7533 74.4893 34.4297C74.5804 34.1016 74.626 33.7529 74.626 33.3838V33.2266C74.626 32.862 74.5804 32.5179 74.4893 32.1943C74.4027 31.8662 74.2705 31.5768 74.0928 31.3262C73.9196 31.071 73.7008 30.8704 73.4365 30.7246C73.1768 30.5788 72.8714 30.5059 72.5205 30.5059C72.1742 30.5059 71.8688 30.5788 71.6045 30.7246C71.3447 30.8704 71.126 31.071 70.9482 31.3262C70.7751 31.5768 70.6452 31.8662 70.5586 32.1943C70.472 32.5179 70.4287 32.862 70.4287 33.2266ZM80.9561 33.7461H78.5293L78.5156 32.7344H80.498C80.89 32.7344 81.2158 32.6956 81.4756 32.6182C81.7399 32.5407 81.9382 32.4245 82.0703 32.2695C82.2025 32.1146 82.2686 31.9232 82.2686 31.6953C82.2686 31.5176 82.2298 31.3626 82.1523 31.2305C82.0794 31.0938 81.9678 30.9821 81.8174 30.8955C81.667 30.8044 81.4801 30.7383 81.2568 30.6973C81.0381 30.6517 80.7806 30.6289 80.4844 30.6289H78.8643V37H77.5996V29.6035H80.4844C80.9538 29.6035 81.3753 29.6445 81.749 29.7266C82.1273 29.8086 82.4486 29.9339 82.7129 30.1025C82.9818 30.2666 83.1868 30.4762 83.3281 30.7314C83.4694 30.9867 83.54 31.2874 83.54 31.6338C83.54 31.8571 83.4945 32.069 83.4033 32.2695C83.3122 32.4701 83.1777 32.6478 83 32.8027C82.8223 32.9577 82.6035 33.0853 82.3438 33.1855C82.084 33.2812 81.7855 33.3428 81.4482 33.3701L80.9561 33.7461ZM80.9561 37H78.0713L78.7002 35.9746H80.9561C81.307 35.9746 81.5986 35.9313 81.8311 35.8447C82.0635 35.7536 82.2367 35.626 82.3506 35.4619C82.4691 35.2933 82.5283 35.0928 82.5283 34.8604C82.5283 34.6279 82.4691 34.4297 82.3506 34.2656C82.2367 34.097 82.0635 33.9694 81.8311 33.8828C81.5986 33.7917 81.307 33.7461 80.9561 33.7461H79.0352L79.0488 32.7344H81.4482L81.9062 33.1172C82.3118 33.1491 82.6559 33.2493 82.9385 33.418C83.221 33.5866 83.4352 33.8008 83.5811 34.0605C83.7269 34.3158 83.7998 34.5938 83.7998 34.8945C83.7998 35.2409 83.7337 35.5462 83.6016 35.8105C83.474 36.0749 83.2871 36.2959 83.041 36.4736C82.7949 36.6468 82.4964 36.779 82.1455 36.8701C81.7946 36.9567 81.3981 37 80.9561 37ZM89.8564 35.7354V31.9277C89.8564 31.6361 89.7972 31.3831 89.6787 31.1689C89.5648 30.9502 89.3916 30.7816 89.1592 30.6631C88.9268 30.5446 88.6396 30.4854 88.2979 30.4854C87.9788 30.4854 87.6986 30.54 87.457 30.6494C87.2201 30.7588 87.0332 30.9023 86.8965 31.0801C86.7643 31.2578 86.6982 31.4492 86.6982 31.6543H85.4336C85.4336 31.39 85.502 31.1279 85.6387 30.8682C85.7754 30.6084 85.9714 30.3737 86.2266 30.1641C86.4863 29.9499 86.7962 29.7812 87.1562 29.6582C87.5208 29.5306 87.9264 29.4668 88.373 29.4668C88.9108 29.4668 89.3848 29.5579 89.7949 29.7402C90.2096 29.9225 90.5332 30.1982 90.7656 30.5674C91.0026 30.932 91.1211 31.39 91.1211 31.9414V35.3867C91.1211 35.6328 91.1416 35.8949 91.1826 36.1729C91.2282 36.4508 91.2943 36.6901 91.3809 36.8906V37H90.0615C89.9977 36.8542 89.9476 36.6605 89.9111 36.4189C89.8747 36.1729 89.8564 35.945 89.8564 35.7354ZM90.0752 32.5156L90.0889 33.4043H88.8105C88.4505 33.4043 88.1292 33.4339 87.8467 33.4932C87.5641 33.5479 87.3271 33.6322 87.1357 33.7461C86.9443 33.86 86.7985 34.0036 86.6982 34.1768C86.598 34.3454 86.5479 34.5436 86.5479 34.7715C86.5479 35.0039 86.6003 35.2158 86.7051 35.4072C86.8099 35.5986 86.9671 35.7513 87.1768 35.8652C87.391 35.9746 87.653 36.0293 87.9629 36.0293C88.3503 36.0293 88.6921 35.9473 88.9883 35.7832C89.2845 35.6191 89.5192 35.4186 89.6924 35.1816C89.8701 34.9447 89.9658 34.7145 89.9795 34.4912L90.5195 35.0996C90.4876 35.291 90.401 35.5029 90.2598 35.7354C90.1185 35.9678 89.9294 36.1911 89.6924 36.4053C89.46 36.6149 89.182 36.7904 88.8584 36.9316C88.5394 37.0684 88.1794 37.1367 87.7783 37.1367C87.277 37.1367 86.8372 37.0387 86.459 36.8428C86.0853 36.6468 85.7936 36.3848 85.584 36.0566C85.3789 35.724 85.2764 35.3525 85.2764 34.9424C85.2764 34.5459 85.3538 34.1973 85.5088 33.8965C85.6637 33.5911 85.887 33.3382 86.1787 33.1377C86.4704 32.9326 86.8213 32.7777 87.2314 32.6729C87.6416 32.568 88.0996 32.5156 88.6055 32.5156H90.0752ZM94.375 31.0254V39.8438H93.1035V29.6035H94.2656L94.375 31.0254ZM99.3584 33.2402V33.3838C99.3584 33.9215 99.2946 34.4206 99.167 34.8809C99.0394 35.3366 98.8525 35.7331 98.6064 36.0703C98.3649 36.4076 98.0664 36.6696 97.7109 36.8564C97.3555 37.0433 96.9476 37.1367 96.4873 37.1367C96.0179 37.1367 95.6032 37.0592 95.2432 36.9043C94.8831 36.7493 94.5778 36.5238 94.3271 36.2275C94.0765 35.9313 93.876 35.5758 93.7256 35.1611C93.5798 34.7464 93.4795 34.2793 93.4248 33.7598V32.9941C93.4795 32.4473 93.582 31.9574 93.7324 31.5244C93.8828 31.0915 94.0811 30.7223 94.3271 30.417C94.5778 30.1071 94.8809 29.8724 95.2363 29.7129C95.5918 29.5488 96.002 29.4668 96.4668 29.4668C96.9316 29.4668 97.3441 29.5579 97.7041 29.7402C98.0641 29.918 98.3672 30.1732 98.6133 30.5059C98.8594 30.8385 99.0439 31.2373 99.167 31.7021C99.2946 32.1624 99.3584 32.6751 99.3584 33.2402ZM98.0869 33.3838V33.2402C98.0869 32.8711 98.0482 32.5247 97.9707 32.2012C97.8932 31.873 97.7725 31.5859 97.6084 31.3398C97.4489 31.0892 97.2438 30.8932 96.9932 30.752C96.7425 30.6061 96.444 30.5332 96.0977 30.5332C95.7786 30.5332 95.5007 30.5879 95.2637 30.6973C95.0312 30.8066 94.833 30.9548 94.6689 31.1416C94.5049 31.3239 94.3704 31.5335 94.2656 31.7705C94.1654 32.0029 94.0902 32.2445 94.04 32.4951V34.2656C94.1312 34.5846 94.2588 34.8854 94.4229 35.168C94.5869 35.446 94.8057 35.6715 95.0791 35.8447C95.3525 36.0133 95.6966 36.0977 96.1113 36.0977C96.4531 36.0977 96.7471 36.027 96.9932 35.8857C97.2438 35.7399 97.4489 35.5417 97.6084 35.291C97.7725 35.0404 97.8932 34.7533 97.9707 34.4297C98.0482 34.1016 98.0869 33.7529 98.0869 33.3838ZM102.011 32.1465H104.232C104.829 32.1465 105.333 32.2513 105.743 32.4609C106.153 32.666 106.463 32.9508 106.673 33.3154C106.887 33.6755 106.994 34.0856 106.994 34.5459C106.994 34.8877 106.935 35.209 106.816 35.5098C106.698 35.806 106.52 36.0658 106.283 36.2891C106.051 36.5124 105.761 36.6878 105.415 36.8154C105.073 36.9385 104.679 37 104.232 37H101.088V29.6035H102.353V35.9609H104.232C104.597 35.9609 104.889 35.8949 105.107 35.7627C105.326 35.6305 105.483 35.4596 105.579 35.25C105.675 35.0404 105.723 34.8216 105.723 34.5938C105.723 34.3704 105.675 34.1517 105.579 33.9375C105.483 33.7233 105.326 33.5456 105.107 33.4043C104.889 33.2585 104.597 33.1855 104.232 33.1855H102.011V32.1465ZM109.626 29.6035V37H108.361V29.6035H109.626ZM116.681 34.9971L120.092 29.6035H121.363V37H120.092V31.6064L116.681 37H115.423V29.6035H116.681V34.9971ZM128.24 29.6035V37H126.976V29.6035H128.24ZM133.094 29.6035L129.587 33.8418H127.816L127.625 32.7344H129.074L131.556 29.6035H133.094ZM131.733 37L129.013 33.6504L129.826 32.7344L133.34 37H131.733ZM133.955 33.3838V33.2266C133.955 32.6934 134.033 32.1989 134.188 31.7432C134.342 31.2829 134.566 30.8841 134.857 30.5469C135.149 30.2051 135.502 29.9408 135.917 29.7539C136.332 29.5625 136.797 29.4668 137.312 29.4668C137.831 29.4668 138.298 29.5625 138.713 29.7539C139.132 29.9408 139.488 30.2051 139.779 30.5469C140.076 30.8841 140.301 31.2829 140.456 31.7432C140.611 32.1989 140.688 32.6934 140.688 33.2266V33.3838C140.688 33.917 140.611 34.4115 140.456 34.8672C140.301 35.3229 140.076 35.7217 139.779 36.0635C139.488 36.4007 139.134 36.665 138.72 36.8564C138.31 37.0433 137.845 37.1367 137.325 37.1367C136.806 37.1367 136.339 37.0433 135.924 36.8564C135.509 36.665 135.154 36.4007 134.857 36.0635C134.566 35.7217 134.342 35.3229 134.188 34.8672C134.033 34.4115 133.955 33.917 133.955 33.3838ZM135.22 33.2266V33.3838C135.22 33.7529 135.263 34.1016 135.35 34.4297C135.436 34.7533 135.566 35.0404 135.739 35.291C135.917 35.5417 136.138 35.7399 136.402 35.8857C136.667 36.027 136.974 36.0977 137.325 36.0977C137.672 36.0977 137.975 36.027 138.234 35.8857C138.499 35.7399 138.717 35.5417 138.891 35.291C139.064 35.0404 139.194 34.7533 139.28 34.4297C139.371 34.1016 139.417 33.7529 139.417 33.3838V33.2266C139.417 32.862 139.371 32.5179 139.28 32.1943C139.194 31.8662 139.062 31.5768 138.884 31.3262C138.711 31.071 138.492 30.8704 138.228 30.7246C137.968 30.5788 137.662 30.5059 137.312 30.5059C136.965 30.5059 136.66 30.5788 136.396 30.7246C136.136 30.8704 135.917 31.071 135.739 31.3262C135.566 31.5768 135.436 31.8662 135.35 32.1943C135.263 32.5179 135.22 32.862 135.22 33.2266ZM146.526 35.3184L149.042 29.6035H150.259L146.964 37H146.089L142.808 29.6035H144.024L146.526 35.3184ZM143.655 29.6035V37H142.391V29.6035H143.655ZM149.356 37V29.6035H150.628V37H149.356ZM157.594 29.6035V30.6494H153.854V29.6035H157.594ZM154.039 29.6035V37H152.774V29.6035H154.039ZM158.715 29.6035V37H157.443V29.6035H158.715ZM165.688 29.6035V30.6494H162.112V29.6035H165.688ZM166.802 29.6035V37H165.537V29.6035H166.802ZM161.805 29.6035H163.076L162.885 33.1719C162.853 33.7233 162.8 34.2109 162.728 34.6348C162.659 35.054 162.563 35.4141 162.44 35.7148C162.322 36.0156 162.172 36.2617 161.989 36.4531C161.812 36.64 161.597 36.779 161.347 36.8701C161.096 36.9567 160.807 37 160.479 37H160.082V35.8857L160.355 35.8652C160.551 35.8516 160.718 35.806 160.854 35.7285C160.996 35.651 161.114 35.5371 161.21 35.3867C161.306 35.2318 161.383 35.0335 161.442 34.792C161.506 34.5505 161.554 34.2633 161.586 33.9307C161.622 33.598 161.65 33.2106 161.668 32.7686L161.805 29.6035ZM171.908 37.1367C171.393 37.1367 170.926 37.0501 170.507 36.877C170.092 36.6992 169.734 36.4508 169.434 36.1318C169.137 35.8128 168.91 35.4346 168.75 34.9971C168.59 34.5596 168.511 34.0811 168.511 33.5615V33.2744C168.511 32.6729 168.6 32.1374 168.777 31.668C168.955 31.194 169.197 30.793 169.502 30.4648C169.807 30.1367 170.154 29.8883 170.541 29.7197C170.928 29.5511 171.329 29.4668 171.744 29.4668C172.273 29.4668 172.729 29.5579 173.111 29.7402C173.499 29.9225 173.815 30.1777 174.062 30.5059C174.308 30.8294 174.49 31.2122 174.608 31.6543C174.727 32.0918 174.786 32.5703 174.786 33.0898V33.6572H169.263V32.625H173.521V32.5293C173.503 32.2012 173.435 31.8822 173.316 31.5723C173.202 31.2624 173.02 31.0072 172.77 30.8066C172.519 30.6061 172.177 30.5059 171.744 30.5059C171.457 30.5059 171.193 30.5674 170.951 30.6904C170.71 30.8089 170.502 30.9867 170.329 31.2236C170.156 31.4606 170.021 31.75 169.926 32.0918C169.83 32.4336 169.782 32.8278 169.782 33.2744V33.5615C169.782 33.9124 169.83 34.2428 169.926 34.5527C170.026 34.8581 170.17 35.127 170.356 35.3594C170.548 35.5918 170.778 35.7741 171.047 35.9062C171.32 36.0384 171.63 36.1045 171.977 36.1045C172.423 36.1045 172.801 36.0133 173.111 35.8311C173.421 35.6488 173.692 35.4049 173.925 35.0996L174.69 35.708C174.531 35.9495 174.328 36.1797 174.082 36.3984C173.836 36.6172 173.533 36.7949 173.173 36.9316C172.817 37.0684 172.396 37.1367 171.908 37.1367ZM177.637 29.6035V37H176.372V29.6035H177.637ZM182.49 29.6035L178.983 33.8418H177.213L177.021 32.7344H178.471L180.952 29.6035H182.49ZM181.13 37L178.409 33.6504L179.223 32.7344L182.736 37H181.13ZM186.852 29.6035V37H185.58V29.6035H186.852ZM189.333 29.6035V30.6289H183.146V29.6035H189.333ZM192.737 36.2344L194.795 29.6035H196.148L193.182 38.1416C193.113 38.3239 193.022 38.5199 192.908 38.7295C192.799 38.9437 192.658 39.1465 192.484 39.3379C192.311 39.5293 192.102 39.6842 191.855 39.8027C191.614 39.9258 191.325 39.9873 190.987 39.9873C190.887 39.9873 190.759 39.9736 190.604 39.9463C190.45 39.9189 190.34 39.8962 190.276 39.8779L190.27 38.8525C190.306 38.8571 190.363 38.8617 190.44 38.8662C190.522 38.8753 190.579 38.8799 190.611 38.8799C190.898 38.8799 191.142 38.8411 191.343 38.7637C191.543 38.6908 191.712 38.5654 191.849 38.3877C191.99 38.2145 192.111 37.9753 192.211 37.6699L192.737 36.2344ZM191.227 29.6035L193.147 35.3457L193.476 36.6787L192.566 37.1436L189.846 29.6035H191.227ZM201.501 32.7412V33.7734H197.57V32.7412H201.501ZM198.671 29.6035V37H197.406V29.6035H198.671ZM200.421 33.3838V33.2266C200.421 32.6934 200.498 32.1989 200.653 31.7432C200.808 31.2829 201.032 30.8841 201.323 30.5469C201.619 30.2051 201.973 29.9408 202.383 29.7539C202.798 29.5625 203.262 29.4668 203.777 29.4668C204.301 29.4668 204.771 29.5625 205.186 29.7539C205.6 29.9408 205.953 30.2051 206.245 30.5469C206.541 30.8841 206.767 31.2829 206.922 31.7432C207.077 32.1989 207.154 32.6934 207.154 33.2266V33.3838C207.154 33.917 207.077 34.4115 206.922 34.8672C206.767 35.3229 206.544 35.7217 206.252 36.0635C205.96 36.4007 205.607 36.665 205.192 36.8564C204.778 37.0433 204.311 37.1367 203.791 37.1367C203.271 37.1367 202.804 37.0433 202.39 36.8564C201.975 36.665 201.619 36.4007 201.323 36.0635C201.032 35.7217 200.808 35.3229 200.653 34.8672C200.498 34.4115 200.421 33.917 200.421 33.3838ZM201.692 33.2266V33.3838C201.692 33.7529 201.736 34.1016 201.822 34.4297C201.909 34.7533 202.039 35.0404 202.212 35.291C202.39 35.5417 202.608 35.7399 202.868 35.8857C203.132 36.027 203.44 36.0977 203.791 36.0977C204.142 36.0977 204.447 36.027 204.707 35.8857C204.971 35.7399 205.19 35.5417 205.363 35.291C205.536 35.0404 205.666 34.7533 205.753 34.4297C205.844 34.1016 205.89 33.7529 205.89 33.3838V33.2266C205.89 32.862 205.844 32.5179 205.753 32.1943C205.666 31.8662 205.534 31.5768 205.356 31.3262C205.183 31.071 204.965 30.8704 204.7 30.7246C204.436 30.5788 204.128 30.5059 203.777 30.5059C203.431 30.5059 203.128 30.5788 202.868 30.7246C202.608 30.8704 202.39 31.071 202.212 31.3262C202.039 31.5768 201.909 31.8662 201.822 32.1943C201.736 32.5179 201.692 32.862 201.692 33.2266ZM219.001 35.9609L218.878 39.1943H217.75V37H216.786V35.9609H219.001ZM208.754 29.6035H210.019V35.9609H212.726V29.6035H213.997V35.9609H216.697V29.6035H217.962V37H208.754V29.6035ZM221.681 34.9971L225.092 29.6035H226.363V37H225.092V31.6064L221.681 37H220.423V29.6035H221.681V34.9971ZM231.463 37.1367C230.948 37.1367 230.481 37.0501 230.062 36.877C229.647 36.6992 229.289 36.4508 228.988 36.1318C228.692 35.8128 228.464 35.4346 228.305 34.9971C228.145 34.5596 228.065 34.0811 228.065 33.5615V33.2744C228.065 32.6729 228.154 32.1374 228.332 31.668C228.51 31.194 228.751 30.793 229.057 30.4648C229.362 30.1367 229.708 29.8883 230.096 29.7197C230.483 29.5511 230.884 29.4668 231.299 29.4668C231.827 29.4668 232.283 29.5579 232.666 29.7402C233.053 29.9225 233.37 30.1777 233.616 30.5059C233.862 30.8294 234.045 31.2122 234.163 31.6543C234.282 32.0918 234.341 32.5703 234.341 33.0898V33.6572H228.817V32.625H233.076V32.5293C233.058 32.2012 232.99 31.8822 232.871 31.5723C232.757 31.2624 232.575 31.0072 232.324 30.8066C232.074 30.6061 231.732 30.5059 231.299 30.5059C231.012 30.5059 230.747 30.5674 230.506 30.6904C230.264 30.8089 230.057 30.9867 229.884 31.2236C229.711 31.4606 229.576 31.75 229.48 32.0918C229.385 32.4336 229.337 32.8278 229.337 33.2744V33.5615C229.337 33.9124 229.385 34.2428 229.48 34.5527C229.581 34.8581 229.724 35.127 229.911 35.3594C230.103 35.5918 230.333 35.7741 230.602 35.9062C230.875 36.0384 231.185 36.1045 231.531 36.1045C231.978 36.1045 232.356 36.0133 232.666 35.8311C232.976 35.6488 233.247 35.4049 233.479 35.0996L234.245 35.708C234.086 35.9495 233.883 36.1797 233.637 36.3984C233.391 36.6172 233.088 36.7949 232.728 36.9316C232.372 37.0684 231.951 37.1367 231.463 37.1367Z" fill="black"/>
<path d="M15.5 39C15.4063 39 15.3141 38.9757 15.2322 38.9292C5.69398 33.5058 1.70205e-07 24.7879 1.70205e-07 15.6025V6.85509C-5.93783e-05 6.7783 0.0155071 6.70232 0.0457228 6.63192C0.0759385 6.56152 0.120151 6.49823 0.175588 6.44601C0.230883 6.39343 0.296422 6.35322 0.36797 6.32797C0.439518 6.30272 0.515484 6.293 0.590963 6.29943C6.95601 6.80103 11.687 4.80744 15.0599 0.210532C15.1133 0.1447 15.1803 0.0916803 15.2562 0.0552794C15.3321 0.0188784 15.415 0 15.4989 0C15.5828 0 15.6657 0.0188784 15.7416 0.0552794C15.8175 0.0916803 15.8845 0.1447 15.9379 0.210532C19.3135 4.80744 24.0511 6.79992 30.409 6.29943C30.4846 6.2935 30.5605 6.30353 30.632 6.32887C30.7035 6.35421 30.7691 6.39433 30.8246 6.44668C30.8802 6.49904 30.9244 6.5625 30.9546 6.63308C30.9848 6.70366 31.0002 6.77982 31 6.85676V15.6025C30.9564 20.2787 29.5512 24.8372 26.9615 28.7038C24.0743 32.9592 20.2391 36.4625 15.7678 38.9287C15.686 38.9753 15.5938 38.9999 15.5 39V39ZM1.09742 7.45088V15.6025C1.09742 24.2908 6.47479 32.57 15.5 37.8023C19.7078 35.4354 23.3181 32.1098 26.0473 28.0868C28.5173 24.403 29.8587 20.0592 29.9026 15.6025V7.45088C23.7021 7.80201 18.9739 5.83461 15.5 1.45395C12.0272 5.83349 7.3039 7.80201 1.09742 7.45088V7.45088Z" fill="black"/>
<path d="M15.0008 35C14.8984 35 14.7981 34.97 14.7117 34.9135C7.26782 30.0491 3 23.0087 3 15.5979V10.265C2.99979 10.1231 3.05253 9.98654 3.14736 9.8834C3.24219 9.78026 3.37189 9.71842 3.50974 9.71062C7.626 9.57658 11.5655 7.95976 14.6394 5.14284C14.7385 5.05089 14.8673 5 15.0008 5C15.1343 5 15.2631 5.05089 15.3622 5.14284C18.4357 7.9594 22.3746 9.57619 26.4903 9.71062C26.6281 9.71842 26.7578 9.78026 26.8526 9.8834C26.9475 9.98654 27.0002 10.1231 27 10.265V15.5968C26.9563 19.5932 25.7632 23.4871 23.571 26.7881C21.3865 30.0556 18.5669 32.8222 15.2899 34.9135C15.2035 34.97 15.1032 35 15.0008 35ZM4.07882 10.7856V15.5979C4.07882 22.528 8.05428 29.1382 15.0008 33.7864C18.0306 31.8063 20.6404 29.218 22.6739 26.1766C24.7484 23.0573 25.8788 19.3771 25.9228 15.599V10.7867C21.9041 10.5468 18.0704 8.96939 15.0008 6.29268C11.9311 8.96899 8.09743 10.546 4.07882 10.7856V10.7856Z" fill="black"/>
<path d="M12.6911 23C12.5464 23 12.4076 22.9415 12.3053 22.8375L9.15319 19.6331C9.05378 19.5285 8.99878 19.3884 9.00002 19.2429C9.00126 19.0975 9.05866 18.9583 9.15984 18.8555C9.26102 18.7526 9.39789 18.6943 9.54098 18.693C9.68406 18.6917 9.82191 18.7476 9.92484 18.8487L12.6911 21.6619L20.0676 14.1621C20.1703 14.058 20.3094 13.9997 20.4544 14C20.5993 14.0003 20.7383 14.0591 20.8406 14.1634C20.9429 14.2678 21.0003 14.4093 21 14.5566C20.9997 14.704 20.9419 14.8452 20.8392 14.9493L13.0769 22.8375C12.9746 22.9415 12.8358 23 12.6911 23Z" fill="black"/>
</svg>
