<svg width="237" height="39" viewBox="0 0 237 39" fill="none" xmlns="http://www.w3.org/2000/svg">
<!-- <rect width="237" height="39" fill="white"/> -->
<path d="M56.1484 2.625V14H54.1953V2.625H56.1484ZM62.9922 2.625L58.3672 9.10938H55.5938L55.3281 7.40625H57.2812L60.5938 2.625H62.9922ZM60.9922 14L57.3125 8.8125L58.5781 7.30469L63.3438 14H60.9922ZM63.7031 9.86719V9.6875C63.7031 9.07812 63.7917 8.51302 63.9688 7.99219C64.1458 7.46615 64.401 7.01042 64.7344 6.625C65.0729 6.23438 65.4844 5.93229 65.9688 5.71875C66.4583 5.5 67.0104 5.39062 67.625 5.39062C68.2448 5.39062 68.7969 5.5 69.2812 5.71875C69.7708 5.93229 70.1849 6.23438 70.5234 6.625C70.862 7.01042 71.1198 7.46615 71.2969 7.99219C71.474 8.51302 71.5625 9.07812 71.5625 9.6875V9.86719C71.5625 10.4766 71.474 11.0417 71.2969 11.5625C71.1198 12.0833 70.862 12.5391 70.5234 12.9297C70.1849 13.3151 69.7734 13.6172 69.2891 13.8359C68.8047 14.0495 68.2552 14.1562 67.6406 14.1562C67.0208 14.1562 66.4661 14.0495 65.9766 13.8359C65.4922 13.6172 65.0807 13.3151 64.7422 12.9297C64.4036 12.5391 64.1458 12.0833 63.9688 11.5625C63.7917 11.0417 63.7031 10.4766 63.7031 9.86719ZM65.5859 9.6875V9.86719C65.5859 10.2474 65.625 10.6068 65.7031 10.9453C65.7812 11.2839 65.9036 11.5807 66.0703 11.8359C66.237 12.0911 66.4505 12.2917 66.7109 12.4375C66.9714 12.5833 67.2812 12.6562 67.6406 12.6562C67.9896 12.6562 68.2917 12.5833 68.5469 12.4375C68.8073 12.2917 69.0208 12.0911 69.1875 11.8359C69.3542 11.5807 69.4766 11.2839 69.5547 10.9453C69.638 10.6068 69.6797 10.2474 69.6797 9.86719V9.6875C69.6797 9.3125 69.638 8.95833 69.5547 8.625C69.4766 8.28646 69.3516 7.98698 69.1797 7.72656C69.013 7.46615 68.7995 7.26302 68.5391 7.11719C68.2839 6.96615 67.9792 6.89062 67.625 6.89062C67.2708 6.89062 66.9635 6.96615 66.7031 7.11719C66.4479 7.26302 66.237 7.46615 66.0703 7.72656C65.9036 7.98698 65.7812 8.28646 65.7031 8.625C65.625 8.95833 65.5859 9.3125 65.5859 9.6875ZM78.9141 9.07812V10.5625H74.5391V9.07812H78.9141ZM75.0859 5.54688V14H73.2031V5.54688H75.0859ZM80.2734 5.54688V14H78.3906V5.54688H80.2734ZM86.2031 5.54688V14H84.3125V5.54688H86.2031ZM88.9766 5.54688V7.03125H81.5859V5.54688H88.9766ZM92.125 7.17188V17.25H90.2422V5.54688H91.9766L92.125 7.17188ZM97.6328 9.69531V9.85938C97.6328 10.474 97.5599 11.0443 97.4141 11.5703C97.2734 12.0911 97.0625 12.5469 96.7812 12.9375C96.5052 13.3229 96.1641 13.6224 95.7578 13.8359C95.3516 14.0495 94.8828 14.1562 94.3516 14.1562C93.8255 14.1562 93.3646 14.0599 92.9688 13.8672C92.5781 13.6693 92.2474 13.3906 91.9766 13.0312C91.7057 12.6719 91.487 12.25 91.3203 11.7656C91.1589 11.276 91.0443 10.7396 90.9766 10.1562V9.52344C91.0443 8.90365 91.1589 8.34115 91.3203 7.83594C91.487 7.33073 91.7057 6.89583 91.9766 6.53125C92.2474 6.16667 92.5781 5.88542 92.9688 5.6875C93.3594 5.48958 93.8151 5.39062 94.3359 5.39062C94.8672 5.39062 95.3385 5.49479 95.75 5.70312C96.1615 5.90625 96.5078 6.19792 96.7891 6.57812C97.0703 6.95312 97.2812 7.40625 97.4219 7.9375C97.5625 8.46354 97.6328 9.04948 97.6328 9.69531ZM95.75 9.85938V9.69531C95.75 9.30469 95.7135 8.94271 95.6406 8.60938C95.5677 8.27083 95.4531 7.97396 95.2969 7.71875C95.1406 7.46354 94.9401 7.26562 94.6953 7.125C94.4557 6.97917 94.1667 6.90625 93.8281 6.90625C93.4948 6.90625 93.2083 6.96354 92.9688 7.07812C92.7292 7.1875 92.5286 7.34115 92.3672 7.53906C92.2057 7.73698 92.0807 7.96875 91.9922 8.23438C91.9036 8.49479 91.8411 8.77865 91.8047 9.08594V10.6016C91.8672 10.9766 91.974 11.3203 92.125 11.6328C92.276 11.9453 92.4896 12.1953 92.7656 12.3828C93.0469 12.5651 93.4062 12.6562 93.8438 12.6562C94.1823 12.6562 94.4714 12.5833 94.7109 12.4375C94.9505 12.2917 95.1458 12.0911 95.2969 11.8359C95.4531 11.5755 95.5677 11.276 95.6406 10.9375C95.7135 10.599 95.75 10.2396 95.75 9.85938ZM98.875 9.86719V9.6875C98.875 9.07812 98.9635 8.51302 99.1406 7.99219C99.3177 7.46615 99.5729 7.01042 99.9062 6.625C100.245 6.23438 100.656 5.93229 101.141 5.71875C101.63 5.5 102.182 5.39062 102.797 5.39062C103.417 5.39062 103.969 5.5 104.453 5.71875C104.943 5.93229 105.357 6.23438 105.695 6.625C106.034 7.01042 106.292 7.46615 106.469 7.99219C106.646 8.51302 106.734 9.07812 106.734 9.6875V9.86719C106.734 10.4766 106.646 11.0417 106.469 11.5625C106.292 12.0833 106.034 12.5391 105.695 12.9297C105.357 13.3151 104.945 13.6172 104.461 13.8359C103.977 14.0495 103.427 14.1562 102.812 14.1562C102.193 14.1562 101.638 14.0495 101.148 13.8359C100.664 13.6172 100.253 13.3151 99.9141 12.9297C99.5755 12.5391 99.3177 12.0833 99.1406 11.5625C98.9635 11.0417 98.875 10.4766 98.875 9.86719ZM100.758 9.6875V9.86719C100.758 10.2474 100.797 10.6068 100.875 10.9453C100.953 11.2839 101.076 11.5807 101.242 11.8359C101.409 12.0911 101.622 12.2917 101.883 12.4375C102.143 12.5833 102.453 12.6562 102.812 12.6562C103.161 12.6562 103.464 12.5833 103.719 12.4375C103.979 12.2917 104.193 12.0911 104.359 11.8359C104.526 11.5807 104.648 11.2839 104.727 10.9453C104.81 10.6068 104.852 10.2474 104.852 9.86719V9.6875C104.852 9.3125 104.81 8.95833 104.727 8.625C104.648 8.28646 104.523 7.98698 104.352 7.72656C104.185 7.46615 103.971 7.26302 103.711 7.11719C103.456 6.96615 103.151 6.89062 102.797 6.89062C102.443 6.89062 102.135 6.96615 101.875 7.11719C101.62 7.26302 101.409 7.46615 101.242 7.72656C101.076 7.98698 100.953 8.28646 100.875 8.625C100.797 8.95833 100.758 9.3125 100.758 9.6875ZM113.867 5.54688V7.04688H109.742V5.54688H113.867ZM115.344 5.54688V14H113.461V5.54688H115.344ZM109.281 5.54688H111.141L110.914 9.72656C110.883 10.3464 110.82 10.8932 110.727 11.3672C110.638 11.8359 110.518 12.2396 110.367 12.5781C110.216 12.9115 110.031 13.1823 109.812 13.3906C109.594 13.599 109.339 13.7526 109.047 13.8516C108.755 13.9505 108.427 14 108.062 14H107.477L107.469 12.4531L107.766 12.4297C107.958 12.4141 108.125 12.3646 108.266 12.2812C108.406 12.1927 108.526 12.0677 108.625 11.9062C108.729 11.7448 108.812 11.5365 108.875 11.2812C108.943 11.026 108.995 10.724 109.031 10.375C109.073 10.026 109.104 9.61979 109.125 9.15625L109.281 5.54688ZM118.742 8.23438H121.234C121.964 8.23438 122.583 8.35677 123.094 8.60156C123.604 8.84635 123.992 9.1875 124.258 9.625C124.529 10.0573 124.664 10.5521 124.664 11.1094C124.664 11.5208 124.589 11.9036 124.438 12.2578C124.286 12.6068 124.062 12.9115 123.766 13.1719C123.474 13.4323 123.115 13.6354 122.688 13.7812C122.266 13.9271 121.781 14 121.234 14H117.492V5.54688H119.383V12.5078H121.234C121.609 12.5078 121.909 12.4427 122.133 12.3125C122.357 12.1823 122.518 12.013 122.617 11.8047C122.721 11.5964 122.773 11.375 122.773 11.1406C122.773 10.901 122.721 10.6745 122.617 10.4609C122.518 10.2474 122.357 10.0729 122.133 9.9375C121.909 9.80208 121.609 9.73438 121.234 9.73438H118.742V8.23438ZM132.188 5.54688V14H130.305V5.54688H132.188ZM137.703 5.54688L133.898 10.6328H131.75L131.5 8.92969H133.07L135.352 5.54688H137.703ZM135.5 14L132.953 10.3125L134.438 9.24219L137.977 14H135.5ZM143.766 12.3047V8.27344C143.766 7.97135 143.711 7.71094 143.602 7.49219C143.492 7.27344 143.326 7.10417 143.102 6.98438C142.883 6.86458 142.607 6.80469 142.273 6.80469C141.966 6.80469 141.701 6.85677 141.477 6.96094C141.253 7.0651 141.078 7.20573 140.953 7.38281C140.828 7.5599 140.766 7.76042 140.766 7.98438H138.891C138.891 7.65104 138.971 7.32812 139.133 7.01562C139.294 6.70312 139.529 6.42448 139.836 6.17969C140.143 5.9349 140.51 5.74219 140.938 5.60156C141.365 5.46094 141.844 5.39062 142.375 5.39062C143.01 5.39062 143.573 5.4974 144.062 5.71094C144.557 5.92448 144.945 6.2474 145.227 6.67969C145.513 7.10677 145.656 7.64323 145.656 8.28906V12.0469C145.656 12.4323 145.682 12.7786 145.734 13.0859C145.792 13.388 145.872 13.651 145.977 13.875V14H144.047C143.958 13.7969 143.888 13.5391 143.836 13.2266C143.789 12.9089 143.766 12.6016 143.766 12.3047ZM144.039 8.85938L144.055 10.0234H142.703C142.354 10.0234 142.047 10.0573 141.781 10.125C141.516 10.1875 141.294 10.2812 141.117 10.4062C140.94 10.5312 140.807 10.6823 140.719 10.8594C140.63 11.0365 140.586 11.237 140.586 11.4609C140.586 11.6849 140.638 11.8906 140.742 12.0781C140.846 12.2604 140.997 12.4036 141.195 12.5078C141.398 12.612 141.643 12.6641 141.93 12.6641C142.315 12.6641 142.651 12.5859 142.938 12.4297C143.229 12.2682 143.458 12.0729 143.625 11.8438C143.792 11.6094 143.88 11.388 143.891 11.1797L144.5 12.0156C144.438 12.2292 144.331 12.4583 144.18 12.7031C144.029 12.9479 143.831 13.1823 143.586 13.4062C143.346 13.625 143.057 13.8047 142.719 13.9453C142.385 14.0859 142 14.1562 141.562 14.1562C141.01 14.1562 140.518 14.0469 140.086 13.8281C139.654 13.6042 139.315 13.3047 139.07 12.9297C138.826 12.5495 138.703 12.1198 138.703 11.6406C138.703 11.1927 138.786 10.7969 138.953 10.4531C139.125 10.1042 139.375 9.8125 139.703 9.57812C140.036 9.34375 140.443 9.16667 140.922 9.04688C141.401 8.92188 141.948 8.85938 142.562 8.85938H144.039ZM154.414 5.54688V14H152.531V5.54688H154.414ZM153.617 9.28906V10.7812C153.388 10.8802 153.13 10.9714 152.844 11.0547C152.562 11.1328 152.266 11.1979 151.953 11.25C151.641 11.2969 151.326 11.3203 151.008 11.3203C150.263 11.3203 149.62 11.2057 149.078 10.9766C148.542 10.7474 148.128 10.3958 147.836 9.92188C147.549 9.44271 147.406 8.83594 147.406 8.10156V5.53906H149.281V8.10156C149.281 8.52344 149.344 8.85938 149.469 9.10938C149.599 9.35938 149.792 9.53906 150.047 9.64844C150.302 9.75781 150.622 9.8125 151.008 9.8125C151.331 9.8125 151.635 9.79167 151.922 9.75C152.208 9.70312 152.492 9.64062 152.773 9.5625C153.055 9.48438 153.336 9.39323 153.617 9.28906ZM160.148 14.1562C159.523 14.1562 158.958 14.0547 158.453 13.8516C157.953 13.6432 157.526 13.3542 157.172 12.9844C156.823 12.6146 156.555 12.1797 156.367 11.6797C156.18 11.1797 156.086 10.6406 156.086 10.0625V9.75C156.086 9.08854 156.182 8.48958 156.375 7.95312C156.568 7.41667 156.836 6.95833 157.18 6.57812C157.523 6.19271 157.93 5.89844 158.398 5.69531C158.867 5.49219 159.375 5.39062 159.922 5.39062C160.526 5.39062 161.055 5.49219 161.508 5.69531C161.961 5.89844 162.336 6.1849 162.633 6.55469C162.935 6.91927 163.159 7.35417 163.305 7.85938C163.456 8.36458 163.531 8.92188 163.531 9.53125V10.3359H157V8.98438H161.672V8.83594C161.661 8.4974 161.594 8.17969 161.469 7.88281C161.349 7.58594 161.164 7.34635 160.914 7.16406C160.664 6.98177 160.331 6.89062 159.914 6.89062C159.602 6.89062 159.323 6.95833 159.078 7.09375C158.839 7.22396 158.638 7.41406 158.477 7.66406C158.315 7.91406 158.19 8.21615 158.102 8.57031C158.018 8.91927 157.977 9.3125 157.977 9.75V10.0625C157.977 10.4323 158.026 10.776 158.125 11.0938C158.229 11.4062 158.38 11.6797 158.578 11.9141C158.776 12.1484 159.016 12.3333 159.297 12.4688C159.578 12.599 159.898 12.6641 160.258 12.6641C160.711 12.6641 161.115 12.5729 161.469 12.3906C161.823 12.2083 162.13 11.9505 162.391 11.6172L163.383 12.5781C163.201 12.8438 162.964 13.099 162.672 13.3438C162.38 13.5833 162.023 13.7786 161.602 13.9297C161.185 14.0807 160.701 14.1562 160.148 14.1562ZM168.453 12.6562C168.76 12.6562 169.036 12.5964 169.281 12.4766C169.531 12.3516 169.732 12.1797 169.883 11.9609C170.039 11.7422 170.125 11.4896 170.141 11.2031H171.914C171.904 11.75 171.742 12.2474 171.43 12.6953C171.117 13.1432 170.703 13.5 170.188 13.7656C169.672 14.026 169.102 14.1562 168.477 14.1562C167.831 14.1562 167.268 14.0469 166.789 13.8281C166.31 13.6042 165.911 13.2969 165.594 12.9062C165.276 12.5156 165.036 12.0651 164.875 11.5547C164.719 11.0443 164.641 10.4974 164.641 9.91406V9.64062C164.641 9.05729 164.719 8.51042 164.875 8C165.036 7.48438 165.276 7.03125 165.594 6.64062C165.911 6.25 166.31 5.94531 166.789 5.72656C167.268 5.5026 167.828 5.39062 168.469 5.39062C169.146 5.39062 169.74 5.52604 170.25 5.79688C170.76 6.0625 171.161 6.4349 171.453 6.91406C171.75 7.38802 171.904 7.9401 171.914 8.57031H170.141C170.125 8.25781 170.047 7.97656 169.906 7.72656C169.771 7.47135 169.578 7.26823 169.328 7.11719C169.083 6.96615 168.789 6.89062 168.445 6.89062C168.065 6.89062 167.75 6.96875 167.5 7.125C167.25 7.27604 167.055 7.48438 166.914 7.75C166.773 8.01042 166.672 8.30469 166.609 8.63281C166.552 8.95573 166.523 9.29167 166.523 9.64062V9.91406C166.523 10.263 166.552 10.6016 166.609 10.9297C166.667 11.2578 166.766 11.5521 166.906 11.8125C167.052 12.0677 167.25 12.2734 167.5 12.4297C167.75 12.5807 168.068 12.6562 168.453 12.6562ZM177.281 5.54688V14H175.391V5.54688H177.281ZM180.055 5.54688V7.03125H172.664V5.54688H180.055ZM185.422 10.3828H182.719L182.703 9.05469H184.922C185.286 9.05469 185.586 9.01823 185.82 8.94531C186.06 8.8724 186.237 8.76302 186.352 8.61719C186.466 8.46615 186.523 8.28385 186.523 8.07031C186.523 7.89323 186.49 7.73958 186.422 7.60938C186.354 7.47396 186.25 7.36458 186.109 7.28125C185.974 7.19271 185.802 7.13021 185.594 7.09375C185.391 7.05208 185.154 7.03125 184.883 7.03125H183.344V14H181.461V5.54688H184.883C185.424 5.54688 185.911 5.59375 186.344 5.6875C186.781 5.78125 187.154 5.92448 187.461 6.11719C187.768 6.3099 188.003 6.55469 188.164 6.85156C188.331 7.14323 188.414 7.48698 188.414 7.88281C188.414 8.14323 188.357 8.38802 188.242 8.61719C188.133 8.84635 187.969 9.04948 187.75 9.22656C187.531 9.40365 187.263 9.54948 186.945 9.66406C186.628 9.77344 186.263 9.84115 185.852 9.86719L185.422 10.3828ZM185.422 14H182.172L182.922 12.5156H185.422C185.755 12.5156 186.031 12.474 186.25 12.3906C186.469 12.3073 186.63 12.1875 186.734 12.0312C186.844 11.8698 186.898 11.6797 186.898 11.4609C186.898 11.237 186.846 11.0443 186.742 10.8828C186.638 10.7214 186.477 10.599 186.258 10.5156C186.044 10.4271 185.766 10.3828 185.422 10.3828H183.273L183.289 9.05469H185.844L186.383 9.57031C186.919 9.60677 187.365 9.72135 187.719 9.91406C188.073 10.1068 188.339 10.349 188.516 10.6406C188.693 10.9323 188.781 11.25 188.781 11.5938C188.781 11.9896 188.706 12.3385 188.555 12.6406C188.409 12.9427 188.19 13.1953 187.898 13.3984C187.612 13.5964 187.26 13.7474 186.844 13.8516C186.427 13.9505 185.953 14 185.422 14ZM195.172 12.3047V8.27344C195.172 7.97135 195.117 7.71094 195.008 7.49219C194.898 7.27344 194.732 7.10417 194.508 6.98438C194.289 6.86458 194.013 6.80469 193.68 6.80469C193.372 6.80469 193.107 6.85677 192.883 6.96094C192.659 7.0651 192.484 7.20573 192.359 7.38281C192.234 7.5599 192.172 7.76042 192.172 7.98438H190.297C190.297 7.65104 190.378 7.32812 190.539 7.01562C190.701 6.70312 190.935 6.42448 191.242 6.17969C191.549 5.9349 191.917 5.74219 192.344 5.60156C192.771 5.46094 193.25 5.39062 193.781 5.39062C194.417 5.39062 194.979 5.4974 195.469 5.71094C195.964 5.92448 196.352 6.2474 196.633 6.67969C196.919 7.10677 197.062 7.64323 197.062 8.28906V12.0469C197.062 12.4323 197.089 12.7786 197.141 13.0859C197.198 13.388 197.279 13.651 197.383 13.875V14H195.453C195.365 13.7969 195.294 13.5391 195.242 13.2266C195.195 12.9089 195.172 12.6016 195.172 12.3047ZM195.445 8.85938L195.461 10.0234H194.109C193.76 10.0234 193.453 10.0573 193.188 10.125C192.922 10.1875 192.701 10.2812 192.523 10.4062C192.346 10.5312 192.214 10.6823 192.125 10.8594C192.036 11.0365 191.992 11.237 191.992 11.4609C191.992 11.6849 192.044 11.8906 192.148 12.0781C192.253 12.2604 192.404 12.4036 192.602 12.5078C192.805 12.612 193.049 12.6641 193.336 12.6641C193.721 12.6641 194.057 12.5859 194.344 12.4297C194.635 12.2682 194.865 12.0729 195.031 11.8438C195.198 11.6094 195.286 11.388 195.297 11.1797L195.906 12.0156C195.844 12.2292 195.737 12.4583 195.586 12.7031C195.435 12.9479 195.237 13.1823 194.992 13.4062C194.753 13.625 194.464 13.8047 194.125 13.9453C193.792 14.0859 193.406 14.1562 192.969 14.1562C192.417 14.1562 191.924 14.0469 191.492 13.8281C191.06 13.6042 190.721 13.3047 190.477 12.9297C190.232 12.5495 190.109 12.1198 190.109 11.6406C190.109 11.1927 190.193 10.7969 190.359 10.4531C190.531 10.1042 190.781 9.8125 191.109 9.57812C191.443 9.34375 191.849 9.16667 192.328 9.04688C192.807 8.92188 193.354 8.85938 193.969 8.85938H195.445Z" fill="black"/>
<path d="M60.6562 31.3262V32.3994H55.2695V31.3262H60.6562ZM55.4746 27.0469V37H54.1553V27.0469H55.4746ZM61.8047 27.0469V37H60.4922V27.0469H61.8047ZM68.3193 35.7354V31.9277C68.3193 31.6361 68.2601 31.3831 68.1416 31.1689C68.0277 30.9502 67.8545 30.7816 67.6221 30.6631C67.3896 30.5446 67.1025 30.4854 66.7607 30.4854C66.4417 30.4854 66.1615 30.54 65.9199 30.6494C65.6829 30.7588 65.4961 30.9023 65.3594 31.0801C65.2272 31.2578 65.1611 31.4492 65.1611 31.6543H63.8965C63.8965 31.39 63.9648 31.1279 64.1016 30.8682C64.2383 30.6084 64.4342 30.3737 64.6895 30.1641C64.9492 29.9499 65.2591 29.7812 65.6191 29.6582C65.9837 29.5306 66.3893 29.4668 66.8359 29.4668C67.3737 29.4668 67.8477 29.5579 68.2578 29.7402C68.6725 29.9225 68.9961 30.1982 69.2285 30.5674C69.4655 30.932 69.584 31.39 69.584 31.9414V35.3867C69.584 35.6328 69.6045 35.8949 69.6455 36.1729C69.6911 36.4508 69.7572 36.6901 69.8438 36.8906V37H68.5244C68.4606 36.8542 68.4105 36.6605 68.374 36.4189C68.3376 36.1729 68.3193 35.945 68.3193 35.7354ZM68.5381 32.5156L68.5518 33.4043H67.2734C66.9134 33.4043 66.5921 33.4339 66.3096 33.4932C66.027 33.5479 65.79 33.6322 65.5986 33.7461C65.4072 33.86 65.2614 34.0036 65.1611 34.1768C65.0609 34.3454 65.0107 34.5436 65.0107 34.7715C65.0107 35.0039 65.0632 35.2158 65.168 35.4072C65.2728 35.5986 65.43 35.7513 65.6396 35.8652C65.8538 35.9746 66.1159 36.0293 66.4258 36.0293C66.8132 36.0293 67.1549 35.9473 67.4512 35.7832C67.7474 35.6191 67.9821 35.4186 68.1553 35.1816C68.333 34.9447 68.4287 34.7145 68.4424 34.4912L68.9824 35.0996C68.9505 35.291 68.8639 35.5029 68.7227 35.7354C68.5814 35.9678 68.3923 36.1911 68.1553 36.4053C67.9229 36.6149 67.6449 36.7904 67.3213 36.9316C67.0023 37.0684 66.6423 37.1367 66.2412 37.1367C65.7399 37.1367 65.3001 37.0387 64.9219 36.8428C64.5482 36.6468 64.2565 36.3848 64.0469 36.0566C63.8418 35.724 63.7393 35.3525 63.7393 34.9424C63.7393 34.5459 63.8167 34.1973 63.9717 33.8965C64.1266 33.5911 64.3499 33.3382 64.6416 33.1377C64.9333 32.9326 65.2842 32.7777 65.6943 32.6729C66.1045 32.568 66.5625 32.5156 67.0684 32.5156H68.5381ZM78.5186 33.7461H76.0918L76.0781 32.7344H78.0605C78.4525 32.7344 78.7783 32.6956 79.0381 32.6182C79.3024 32.5407 79.5007 32.4245 79.6328 32.2695C79.765 32.1146 79.8311 31.9232 79.8311 31.6953C79.8311 31.5176 79.7923 31.3626 79.7148 31.2305C79.6419 31.0938 79.5303 30.9821 79.3799 30.8955C79.2295 30.8044 79.0426 30.7383 78.8193 30.6973C78.6006 30.6517 78.3431 30.6289 78.0469 30.6289H76.4268V37H75.1621V29.6035H78.0469C78.5163 29.6035 78.9378 29.6445 79.3115 29.7266C79.6898 29.8086 80.0111 29.9339 80.2754 30.1025C80.5443 30.2666 80.7493 30.4762 80.8906 30.7314C81.0319 30.9867 81.1025 31.2874 81.1025 31.6338C81.1025 31.8571 81.057 32.069 80.9658 32.2695C80.8747 32.4701 80.7402 32.6478 80.5625 32.8027C80.3848 32.9577 80.166 33.0853 79.9062 33.1855C79.6465 33.2812 79.348 33.3428 79.0107 33.3701L78.5186 33.7461ZM78.5186 37H75.6338L76.2627 35.9746H78.5186C78.8695 35.9746 79.1611 35.9313 79.3936 35.8447C79.626 35.7536 79.7992 35.626 79.9131 35.4619C80.0316 35.2933 80.0908 35.0928 80.0908 34.8604C80.0908 34.6279 80.0316 34.4297 79.9131 34.2656C79.7992 34.097 79.626 33.9694 79.3936 33.8828C79.1611 33.7917 78.8695 33.7461 78.5186 33.7461H76.5977L76.6113 32.7344H79.0107L79.4688 33.1172C79.8743 33.1491 80.2184 33.2493 80.501 33.418C80.7835 33.5866 80.9977 33.8008 81.1436 34.0605C81.2894 34.3158 81.3623 34.5938 81.3623 34.8945C81.3623 35.2409 81.2962 35.5462 81.1641 35.8105C81.0365 36.0749 80.8496 36.2959 80.6035 36.4736C80.3574 36.6468 80.0589 36.779 79.708 36.8701C79.3571 36.9567 78.9606 37 78.5186 37ZM86.0176 36.0977C86.3184 36.0977 86.5964 36.0361 86.8516 35.9131C87.1068 35.79 87.3164 35.6214 87.4805 35.4072C87.6445 35.1885 87.738 34.9401 87.7607 34.6621H88.9639C88.9411 35.0996 88.793 35.5075 88.5195 35.8857C88.2507 36.2594 87.8975 36.5625 87.46 36.7949C87.0225 37.0228 86.5417 37.1367 86.0176 37.1367C85.4616 37.1367 84.9762 37.0387 84.5615 36.8428C84.1514 36.6468 83.8096 36.3779 83.5361 36.0361C83.2673 35.6943 83.0645 35.3024 82.9277 34.8604C82.7956 34.4137 82.7295 33.9421 82.7295 33.4453V33.1582C82.7295 32.6615 82.7956 32.1921 82.9277 31.75C83.0645 31.3034 83.2673 30.9092 83.5361 30.5674C83.8096 30.2256 84.1514 29.9567 84.5615 29.7607C84.9762 29.5648 85.4616 29.4668 86.0176 29.4668C86.5964 29.4668 87.1022 29.5853 87.5352 29.8223C87.9681 30.0547 88.3076 30.3737 88.5537 30.7793C88.8044 31.1803 88.9411 31.6361 88.9639 32.1465H87.7607C87.738 31.8411 87.6514 31.5654 87.501 31.3193C87.3551 31.0732 87.1546 30.8773 86.8994 30.7314C86.6488 30.5811 86.3548 30.5059 86.0176 30.5059C85.6302 30.5059 85.3044 30.5833 85.04 30.7383C84.7803 30.8887 84.5729 31.0938 84.418 31.3535C84.2676 31.6087 84.1582 31.8936 84.0898 32.208C84.026 32.5179 83.9941 32.8346 83.9941 33.1582V33.4453C83.9941 33.7689 84.026 34.0879 84.0898 34.4023C84.1536 34.7168 84.2607 35.0016 84.4111 35.2568C84.5661 35.512 84.7734 35.7171 85.0332 35.8721C85.2975 36.0225 85.6257 36.0977 86.0176 36.0977ZM93.4551 37.1367C92.9401 37.1367 92.473 37.0501 92.0537 36.877C91.639 36.6992 91.2812 36.4508 90.9805 36.1318C90.6842 35.8128 90.4564 35.4346 90.2969 34.9971C90.1374 34.5596 90.0576 34.0811 90.0576 33.5615V33.2744C90.0576 32.6729 90.1465 32.1374 90.3242 31.668C90.502 31.194 90.7435 30.793 91.0488 30.4648C91.3542 30.1367 91.7005 29.8883 92.0879 29.7197C92.4753 29.5511 92.8763 29.4668 93.291 29.4668C93.8197 29.4668 94.2754 29.5579 94.6582 29.7402C95.0456 29.9225 95.3623 30.1777 95.6084 30.5059C95.8545 30.8294 96.0368 31.2122 96.1553 31.6543C96.2738 32.0918 96.333 32.5703 96.333 33.0898V33.6572H90.8096V32.625H95.0684V32.5293C95.0501 32.2012 94.9818 31.8822 94.8633 31.5723C94.7493 31.2624 94.5671 31.0072 94.3164 30.8066C94.0658 30.6061 93.724 30.5059 93.291 30.5059C93.0039 30.5059 92.7396 30.5674 92.498 30.6904C92.2565 30.8089 92.0492 30.9867 91.876 31.2236C91.7028 31.4606 91.5684 31.75 91.4727 32.0918C91.377 32.4336 91.3291 32.8278 91.3291 33.2744V33.5615C91.3291 33.9124 91.377 34.2428 91.4727 34.5527C91.5729 34.8581 91.7165 35.127 91.9033 35.3594C92.0947 35.5918 92.3249 35.7741 92.5938 35.9062C92.8672 36.0384 93.1771 36.1045 93.5234 36.1045C93.9701 36.1045 94.3483 36.0133 94.6582 35.8311C94.9681 35.6488 95.2393 35.4049 95.4717 35.0996L96.2373 35.708C96.0778 35.9495 95.875 36.1797 95.6289 36.3984C95.3828 36.6172 95.0798 36.7949 94.7197 36.9316C94.3643 37.0684 93.9427 37.1367 93.4551 37.1367ZM98.6641 29.6035L100.284 32.2969L101.925 29.6035H103.408L100.988 33.2539L103.483 37H102.021L100.312 34.2246L98.6025 37H97.1328L99.6211 33.2539L97.208 29.6035H98.6641ZM110.818 30.5059C110.54 30.5059 110.274 30.5674 110.019 30.6904C109.768 30.8135 109.561 30.9844 109.396 31.2031C109.237 31.4173 109.157 31.6657 109.157 31.9482H107.947C107.947 31.5062 108.084 31.0983 108.357 30.7246C108.631 30.3464 108.986 30.0433 109.424 29.8154C109.861 29.583 110.326 29.4668 110.818 29.4668C111.338 29.4668 111.798 29.5648 112.199 29.7607C112.6 29.9567 112.938 30.2256 113.211 30.5674C113.489 30.9092 113.699 31.3034 113.84 31.75C113.981 32.1921 114.052 32.6615 114.052 33.1582V33.4453C114.052 33.9421 113.979 34.4137 113.833 34.8604C113.692 35.3024 113.482 35.6966 113.204 36.043C112.931 36.3848 112.593 36.6536 112.192 36.8496C111.796 37.0456 111.34 37.1436 110.825 37.1436C110.274 37.1436 109.779 37.0251 109.342 36.7881C108.909 36.5511 108.567 36.2321 108.316 35.8311C108.07 35.4255 107.947 34.9697 107.947 34.4639H109.157C109.157 34.7692 109.23 35.0472 109.376 35.2979C109.526 35.5439 109.727 35.7399 109.978 35.8857C110.228 36.0316 110.511 36.1045 110.825 36.1045C111.167 36.1045 111.461 36.027 111.707 35.8721C111.958 35.7171 112.163 35.512 112.322 35.2568C112.482 35.0016 112.598 34.7168 112.671 34.4023C112.748 34.0833 112.787 33.7643 112.787 33.4453V33.1582C112.787 32.8346 112.748 32.5156 112.671 32.2012C112.598 31.8867 112.482 31.6019 112.322 31.3467C112.167 31.0915 111.965 30.8887 111.714 30.7383C111.468 30.5833 111.169 30.5059 110.818 30.5059ZM113.402 32.7139V33.7461H109.991V32.7139H113.402ZM118.229 29.6035V37H116.957V29.6035H118.229ZM120.71 29.6035V30.6289H114.523V29.6035H120.71ZM126.206 35.7354V31.9277C126.206 31.6361 126.147 31.3831 126.028 31.1689C125.914 30.9502 125.741 30.7816 125.509 30.6631C125.276 30.5446 124.989 30.4854 124.647 30.4854C124.328 30.4854 124.048 30.54 123.807 30.6494C123.57 30.7588 123.383 30.9023 123.246 31.0801C123.114 31.2578 123.048 31.4492 123.048 31.6543H121.783C121.783 31.39 121.852 31.1279 121.988 30.8682C122.125 30.6084 122.321 30.3737 122.576 30.1641C122.836 29.9499 123.146 29.7812 123.506 29.6582C123.87 29.5306 124.276 29.4668 124.723 29.4668C125.26 29.4668 125.734 29.5579 126.145 29.7402C126.559 29.9225 126.883 30.1982 127.115 30.5674C127.352 30.932 127.471 31.39 127.471 31.9414V35.3867C127.471 35.6328 127.491 35.8949 127.532 36.1729C127.578 36.4508 127.644 36.6901 127.73 36.8906V37H126.411C126.347 36.8542 126.297 36.6605 126.261 36.4189C126.224 36.1729 126.206 35.945 126.206 35.7354ZM126.425 32.5156L126.438 33.4043H125.16C124.8 33.4043 124.479 33.4339 124.196 33.4932C123.914 33.5479 123.677 33.6322 123.485 33.7461C123.294 33.86 123.148 34.0036 123.048 34.1768C122.948 34.3454 122.897 34.5436 122.897 34.7715C122.897 35.0039 122.95 35.2158 123.055 35.4072C123.16 35.5986 123.317 35.7513 123.526 35.8652C123.741 35.9746 124.003 36.0293 124.312 36.0293C124.7 36.0293 125.042 35.9473 125.338 35.7832C125.634 35.6191 125.869 35.4186 126.042 35.1816C126.22 34.9447 126.315 34.7145 126.329 34.4912L126.869 35.0996C126.837 35.291 126.751 35.5029 126.609 35.7354C126.468 35.9678 126.279 36.1911 126.042 36.4053C125.81 36.6149 125.532 36.7904 125.208 36.9316C124.889 37.0684 124.529 37.1367 124.128 37.1367C123.627 37.1367 123.187 37.0387 122.809 36.8428C122.435 36.6468 122.143 36.3848 121.934 36.0566C121.729 35.724 121.626 35.3525 121.626 34.9424C121.626 34.5459 121.703 34.1973 121.858 33.8965C122.013 33.5911 122.237 33.3382 122.528 33.1377C122.82 32.9326 123.171 32.7777 123.581 32.6729C123.991 32.568 124.449 32.5156 124.955 32.5156H126.425ZM134.389 29.6035V30.6494H130.649V29.6035H134.389ZM130.834 29.6035V37H129.569V29.6035H130.834ZM135.51 29.6035V37H134.238V29.6035H135.51ZM141.901 35.7354V31.9277C141.901 31.6361 141.842 31.3831 141.724 31.1689C141.61 30.9502 141.437 30.7816 141.204 30.6631C140.972 30.5446 140.685 30.4854 140.343 30.4854C140.024 30.4854 139.743 30.54 139.502 30.6494C139.265 30.7588 139.078 30.9023 138.941 31.0801C138.809 31.2578 138.743 31.4492 138.743 31.6543H137.479C137.479 31.39 137.547 31.1279 137.684 30.8682C137.82 30.6084 138.016 30.3737 138.271 30.1641C138.531 29.9499 138.841 29.7812 139.201 29.6582C139.566 29.5306 139.971 29.4668 140.418 29.4668C140.956 29.4668 141.43 29.5579 141.84 29.7402C142.255 29.9225 142.578 30.1982 142.811 30.5674C143.048 30.932 143.166 31.39 143.166 31.9414V35.3867C143.166 35.6328 143.187 35.8949 143.228 36.1729C143.273 36.4508 143.339 36.6901 143.426 36.8906V37H142.106C142.043 36.8542 141.993 36.6605 141.956 36.4189C141.92 36.1729 141.901 35.945 141.901 35.7354ZM142.12 32.5156L142.134 33.4043H140.855C140.495 33.4043 140.174 33.4339 139.892 33.4932C139.609 33.5479 139.372 33.6322 139.181 33.7461C138.989 33.86 138.843 34.0036 138.743 34.1768C138.643 34.3454 138.593 34.5436 138.593 34.7715C138.593 35.0039 138.645 35.2158 138.75 35.4072C138.855 35.5986 139.012 35.7513 139.222 35.8652C139.436 35.9746 139.698 36.0293 140.008 36.0293C140.395 36.0293 140.737 35.9473 141.033 35.7832C141.329 35.6191 141.564 35.4186 141.737 35.1816C141.915 34.9447 142.011 34.7145 142.024 34.4912L142.564 35.0996C142.533 35.291 142.446 35.5029 142.305 35.7354C142.163 35.9678 141.974 36.1911 141.737 36.4053C141.505 36.6149 141.227 36.7904 140.903 36.9316C140.584 37.0684 140.224 37.1367 139.823 37.1367C139.322 37.1367 138.882 37.0387 138.504 36.8428C138.13 36.6468 137.839 36.3848 137.629 36.0566C137.424 35.724 137.321 35.3525 137.321 34.9424C137.321 34.5459 137.399 34.1973 137.554 33.8965C137.709 33.5911 137.932 33.3382 138.224 33.1377C138.515 32.9326 138.866 32.7777 139.276 32.6729C139.687 32.568 140.145 32.5156 140.65 32.5156H142.12ZM146.01 29.6035L147.63 32.2969L149.271 29.6035H150.754L148.334 33.2539L150.829 37H149.366L147.657 34.2246L145.948 37H144.479L146.967 33.2539L144.554 29.6035H146.01ZM158.335 33.4658H156.975V32.6865H158.232C158.583 32.6865 158.861 32.6432 159.066 32.5566C159.271 32.4655 159.417 32.3402 159.504 32.1807C159.59 32.0212 159.634 31.8343 159.634 31.6201C159.634 31.4287 159.584 31.2487 159.483 31.0801C159.388 30.9069 159.233 30.7679 159.019 30.6631C158.804 30.5537 158.517 30.499 158.157 30.499C157.866 30.499 157.601 30.5514 157.364 30.6562C157.127 30.7565 156.938 30.8955 156.797 31.0732C156.66 31.2464 156.592 31.4424 156.592 31.6611H155.327C155.327 31.21 155.455 30.8226 155.71 30.499C155.97 30.1709 156.314 29.918 156.742 29.7402C157.175 29.5625 157.647 29.4736 158.157 29.4736C158.586 29.4736 158.968 29.5215 159.306 29.6172C159.647 29.7083 159.937 29.8451 160.174 30.0273C160.411 30.2051 160.591 30.4284 160.714 30.6973C160.841 30.9616 160.905 31.2692 160.905 31.6201C160.905 31.8708 160.846 32.1077 160.728 32.3311C160.609 32.5544 160.438 32.7526 160.215 32.9258C159.992 33.0944 159.72 33.2266 159.401 33.3223C159.087 33.418 158.731 33.4658 158.335 33.4658ZM156.975 32.9873H158.335C158.777 32.9873 159.167 33.0306 159.504 33.1172C159.841 33.1992 160.124 33.3223 160.352 33.4863C160.579 33.6504 160.75 33.8532 160.864 34.0947C160.983 34.3317 161.042 34.6051 161.042 34.915C161.042 35.2614 160.971 35.5736 160.83 35.8516C160.693 36.125 160.497 36.3574 160.242 36.5488C159.987 36.7402 159.682 36.8861 159.326 36.9863C158.975 37.0866 158.586 37.1367 158.157 37.1367C157.679 37.1367 157.214 37.0547 156.763 36.8906C156.312 36.7266 155.94 36.4736 155.648 36.1318C155.357 35.7855 155.211 35.3457 155.211 34.8125H156.476C156.476 35.0358 156.546 35.2477 156.688 35.4482C156.829 35.6488 157.025 35.8105 157.275 35.9336C157.531 36.0566 157.825 36.1182 158.157 36.1182C158.513 36.1182 158.809 36.0635 159.046 35.9541C159.283 35.8447 159.461 35.6989 159.579 35.5166C159.702 35.3343 159.764 35.1361 159.764 34.9219C159.764 34.6439 159.709 34.4206 159.6 34.252C159.49 34.0833 159.322 33.9603 159.094 33.8828C158.87 33.8008 158.583 33.7598 158.232 33.7598H156.975V32.9873ZM167.044 35.7354V31.9277C167.044 31.6361 166.985 31.3831 166.866 31.1689C166.752 30.9502 166.579 30.7816 166.347 30.6631C166.114 30.5446 165.827 30.4854 165.485 30.4854C165.166 30.4854 164.886 30.54 164.645 30.6494C164.408 30.7588 164.221 30.9023 164.084 31.0801C163.952 31.2578 163.886 31.4492 163.886 31.6543H162.621C162.621 31.39 162.689 31.1279 162.826 30.8682C162.963 30.6084 163.159 30.3737 163.414 30.1641C163.674 29.9499 163.984 29.7812 164.344 29.6582C164.708 29.5306 165.114 29.4668 165.561 29.4668C166.098 29.4668 166.572 29.5579 166.982 29.7402C167.397 29.9225 167.721 30.1982 167.953 30.5674C168.19 30.932 168.309 31.39 168.309 31.9414V35.3867C168.309 35.6328 168.329 35.8949 168.37 36.1729C168.416 36.4508 168.482 36.6901 168.568 36.8906V37H167.249C167.185 36.8542 167.135 36.6605 167.099 36.4189C167.062 36.1729 167.044 35.945 167.044 35.7354ZM167.263 32.5156L167.276 33.4043H165.998C165.638 33.4043 165.317 33.4339 165.034 33.4932C164.752 33.5479 164.515 33.6322 164.323 33.7461C164.132 33.86 163.986 34.0036 163.886 34.1768C163.785 34.3454 163.735 34.5436 163.735 34.7715C163.735 35.0039 163.788 35.2158 163.893 35.4072C163.997 35.5986 164.155 35.7513 164.364 35.8652C164.578 35.9746 164.84 36.0293 165.15 36.0293C165.538 36.0293 165.88 35.9473 166.176 35.7832C166.472 35.6191 166.707 35.4186 166.88 35.1816C167.058 34.9447 167.153 34.7145 167.167 34.4912L167.707 35.0996C167.675 35.291 167.589 35.5029 167.447 35.7354C167.306 35.9678 167.117 36.1911 166.88 36.4053C166.647 36.6149 166.369 36.7904 166.046 36.9316C165.727 37.0684 165.367 37.1367 164.966 37.1367C164.465 37.1367 164.025 37.0387 163.646 36.8428C163.273 36.6468 162.981 36.3848 162.771 36.0566C162.566 35.724 162.464 35.3525 162.464 34.9424C162.464 34.5459 162.541 34.1973 162.696 33.8965C162.851 33.5911 163.075 33.3382 163.366 33.1377C163.658 32.9326 164.009 32.7777 164.419 32.6729C164.829 32.568 165.287 32.5156 165.793 32.5156H167.263ZM171.672 29.6035V37H170.407V29.6035H171.672ZM176.525 29.6035L173.019 33.8418H171.248L171.057 32.7344H172.506L174.987 29.6035H176.525ZM175.165 37L172.444 33.6504L173.258 32.7344L176.771 37H175.165ZM182.233 35.7354V31.9277C182.233 31.6361 182.174 31.3831 182.056 31.1689C181.942 30.9502 181.769 30.7816 181.536 30.6631C181.304 30.5446 181.017 30.4854 180.675 30.4854C180.356 30.4854 180.076 30.54 179.834 30.6494C179.597 30.7588 179.41 30.9023 179.273 31.0801C179.141 31.2578 179.075 31.4492 179.075 31.6543H177.811C177.811 31.39 177.879 31.1279 178.016 30.8682C178.152 30.6084 178.348 30.3737 178.604 30.1641C178.863 29.9499 179.173 29.7812 179.533 29.6582C179.898 29.5306 180.303 29.4668 180.75 29.4668C181.288 29.4668 181.762 29.5579 182.172 29.7402C182.587 29.9225 182.91 30.1982 183.143 30.5674C183.38 30.932 183.498 31.39 183.498 31.9414V35.3867C183.498 35.6328 183.519 35.8949 183.56 36.1729C183.605 36.4508 183.671 36.6901 183.758 36.8906V37H182.438C182.375 36.8542 182.325 36.6605 182.288 36.4189C182.252 36.1729 182.233 35.945 182.233 35.7354ZM182.452 32.5156L182.466 33.4043H181.188C180.827 33.4043 180.506 33.4339 180.224 33.4932C179.941 33.5479 179.704 33.6322 179.513 33.7461C179.321 33.86 179.175 34.0036 179.075 34.1768C178.975 34.3454 178.925 34.5436 178.925 34.7715C178.925 35.0039 178.977 35.2158 179.082 35.4072C179.187 35.5986 179.344 35.7513 179.554 35.8652C179.768 35.9746 180.03 36.0293 180.34 36.0293C180.727 36.0293 181.069 35.9473 181.365 35.7832C181.661 35.6191 181.896 35.4186 182.069 35.1816C182.247 34.9447 182.343 34.7145 182.356 34.4912L182.896 35.0996C182.865 35.291 182.778 35.5029 182.637 35.7354C182.495 35.9678 182.306 36.1911 182.069 36.4053C181.837 36.6149 181.559 36.7904 181.235 36.9316C180.916 37.0684 180.556 37.1367 180.155 37.1367C179.654 37.1367 179.214 37.0387 178.836 36.8428C178.462 36.6468 178.171 36.3848 177.961 36.0566C177.756 35.724 177.653 35.3525 177.653 34.9424C177.653 34.5459 177.731 34.1973 177.886 33.8965C178.041 33.5911 178.264 33.3382 178.556 33.1377C178.847 32.9326 179.198 32.7777 179.608 32.6729C180.019 32.568 180.477 32.5156 180.982 32.5156H182.452ZM188.249 33.4658H186.889V32.6865H188.146C188.497 32.6865 188.775 32.6432 188.98 32.5566C189.186 32.4655 189.331 32.3402 189.418 32.1807C189.505 32.0212 189.548 31.8343 189.548 31.6201C189.548 31.4287 189.498 31.2487 189.397 31.0801C189.302 30.9069 189.147 30.7679 188.933 30.6631C188.718 30.5537 188.431 30.499 188.071 30.499C187.78 30.499 187.515 30.5514 187.278 30.6562C187.041 30.7565 186.852 30.8955 186.711 31.0732C186.574 31.2464 186.506 31.4424 186.506 31.6611H185.241C185.241 31.21 185.369 30.8226 185.624 30.499C185.884 30.1709 186.228 29.918 186.656 29.7402C187.089 29.5625 187.561 29.4736 188.071 29.4736C188.5 29.4736 188.882 29.5215 189.22 29.6172C189.562 29.7083 189.851 29.8451 190.088 30.0273C190.325 30.2051 190.505 30.4284 190.628 30.6973C190.756 30.9616 190.819 31.2692 190.819 31.6201C190.819 31.8708 190.76 32.1077 190.642 32.3311C190.523 32.5544 190.352 32.7526 190.129 32.9258C189.906 33.0944 189.634 33.2266 189.315 33.3223C189.001 33.418 188.646 33.4658 188.249 33.4658ZM186.889 32.9873H188.249C188.691 32.9873 189.081 33.0306 189.418 33.1172C189.755 33.1992 190.038 33.3223 190.266 33.4863C190.493 33.6504 190.664 33.8532 190.778 34.0947C190.897 34.3317 190.956 34.6051 190.956 34.915C190.956 35.2614 190.885 35.5736 190.744 35.8516C190.607 36.125 190.411 36.3574 190.156 36.5488C189.901 36.7402 189.596 36.8861 189.24 36.9863C188.889 37.0866 188.5 37.1367 188.071 37.1367C187.593 37.1367 187.128 37.0547 186.677 36.8906C186.226 36.7266 185.854 36.4736 185.562 36.1318C185.271 35.7855 185.125 35.3457 185.125 34.8125H186.39C186.39 35.0358 186.46 35.2477 186.602 35.4482C186.743 35.6488 186.939 35.8105 187.189 35.9336C187.445 36.0566 187.739 36.1182 188.071 36.1182C188.427 36.1182 188.723 36.0635 188.96 35.9541C189.197 35.8447 189.375 35.6989 189.493 35.5166C189.616 35.3343 189.678 35.1361 189.678 34.9219C189.678 34.6439 189.623 34.4206 189.514 34.252C189.404 34.0833 189.236 33.9603 189.008 33.8828C188.785 33.8008 188.497 33.7598 188.146 33.7598H186.889V32.9873ZM196.958 35.7354V31.9277C196.958 31.6361 196.899 31.3831 196.78 31.1689C196.666 30.9502 196.493 30.7816 196.261 30.6631C196.028 30.5446 195.741 30.4854 195.399 30.4854C195.08 30.4854 194.8 30.54 194.559 30.6494C194.322 30.7588 194.135 30.9023 193.998 31.0801C193.866 31.2578 193.8 31.4492 193.8 31.6543H192.535C192.535 31.39 192.604 31.1279 192.74 30.8682C192.877 30.6084 193.073 30.3737 193.328 30.1641C193.588 29.9499 193.898 29.7812 194.258 29.6582C194.622 29.5306 195.028 29.4668 195.475 29.4668C196.012 29.4668 196.486 29.5579 196.896 29.7402C197.311 29.9225 197.635 30.1982 197.867 30.5674C198.104 30.932 198.223 31.39 198.223 31.9414V35.3867C198.223 35.6328 198.243 35.8949 198.284 36.1729C198.33 36.4508 198.396 36.6901 198.482 36.8906V37H197.163C197.099 36.8542 197.049 36.6605 197.013 36.4189C196.976 36.1729 196.958 35.945 196.958 35.7354ZM197.177 32.5156L197.19 33.4043H195.912C195.552 33.4043 195.231 33.4339 194.948 33.4932C194.666 33.5479 194.429 33.6322 194.237 33.7461C194.046 33.86 193.9 34.0036 193.8 34.1768C193.7 34.3454 193.649 34.5436 193.649 34.7715C193.649 35.0039 193.702 35.2158 193.807 35.4072C193.911 35.5986 194.069 35.7513 194.278 35.8652C194.493 35.9746 194.755 36.0293 195.064 36.0293C195.452 36.0293 195.794 35.9473 196.09 35.7832C196.386 35.6191 196.621 35.4186 196.794 35.1816C196.972 34.9447 197.067 34.7145 197.081 34.4912L197.621 35.0996C197.589 35.291 197.503 35.5029 197.361 35.7354C197.22 35.9678 197.031 36.1911 196.794 36.4053C196.562 36.6149 196.284 36.7904 195.96 36.9316C195.641 37.0684 195.281 37.1367 194.88 37.1367C194.379 37.1367 193.939 37.0387 193.561 36.8428C193.187 36.6468 192.895 36.3848 192.686 36.0566C192.48 35.724 192.378 35.3525 192.378 34.9424C192.378 34.5459 192.455 34.1973 192.61 33.8965C192.765 33.5911 192.989 33.3382 193.28 33.1377C193.572 32.9326 193.923 32.7777 194.333 32.6729C194.743 32.568 195.201 32.5156 195.707 32.5156H197.177Z" fill="black"/>
<path d="M21.5756 4C21.042 4 20.5048 4.03182 19.9789 4.09455C19.637 4.13523 19.3926 4.44686 19.4333 4.7904C19.4739 5.13394 19.7846 5.38025 20.1259 5.33857C20.6033 5.28169 21.091 5.25288 21.5757 5.25288C28.2902 5.25288 33.7528 10.7469 33.7528 17.5C33.7528 24.2532 28.2902 29.7472 21.5757 29.7472C19.0653 29.7472 16.6551 28.9853 14.6056 27.5439C12.6015 26.1342 11.08 24.1808 10.2058 21.895C10.0824 21.5721 9.72184 21.4106 9.40015 21.5348C9.07863 21.6589 8.91816 22.0213 9.04163 22.3442C10.0052 24.8639 11.6818 27.0168 13.8903 28.5701C16.1504 30.1597 18.808 31 21.5757 31C28.9778 31 35 24.9438 35 17.4999C35 10.056 28.9777 4 21.5756 4V4Z" fill="black"/>
<path d="M9.45814 19.2897C9.36814 18.709 9.32239 18.1146 9.32239 17.5229C9.32239 15.0248 10.1233 12.6258 11.6384 10.5854C13.1199 8.59026 15.1736 7.07364 17.5774 6.19979C17.9179 6.07597 18.087 5.71643 17.9552 5.39679C17.8234 5.07714 17.4405 4.91823 17.1 5.04205C14.4498 6.00554 12.1863 7.67685 10.5537 9.8753C8.88312 12.1252 8 14.7697 8 17.5229C8 18.1742 8.05025 18.8289 8.14951 19.4686C8.19746 19.7775 8.47999 20 8.8029 20C8.83464 20 8.86681 19.9979 8.89908 19.9935C9.2605 19.9441 9.51077 19.629 9.45814 19.2897V19.2897Z" fill="black"/>
<path d="M31.27 21.6931C31.5902 21.8314 31.9617 21.6842 32.1 21.3644C32.6972 19.9842 33 18.5158 33 17C33 10.9346 28.0654 6 22 6C15.9345 6 11 10.9346 11 17C11 23.0654 15.9346 28 22 28C25.2951 28 28.3889 26.541 30.4882 23.997C30.71 23.7282 30.6717 23.3307 30.4025 23.1091C30.1335 22.8874 29.7355 22.9258 29.5138 23.1946C27.6552 25.4468 24.9165 26.7386 22 26.7386C16.6308 26.7386 12.2627 22.3699 12.2627 17C12.2627 11.6301 16.6308 7.26141 22 7.26141C27.3691 7.26141 31.7373 11.6301 31.7373 17C31.7373 18.3426 31.4693 19.6427 30.9408 20.864C30.8025 21.1837 30.9498 21.555 31.27 21.6931V21.6931Z" fill="black"/>
<path d="M42.8157 31.3883L36.8223 25.3581C38.0706 22.9599 38.777 20.2337 38.777 17.3448C38.777 7.78084 31.0349 0 21.5187 0C12.0026 0 4.26048 7.78084 4.26048 17.3448C4.26048 20.2237 4.962 22.9411 6.20228 25.3333L0.184227 31.3883C0.0270925 31.5465 -0.0354758 31.7763 0.0197018 31.9929C0.0749634 32.2094 0.23974 32.3807 0.453312 32.4434L5.14719 33.8211L6.51672 38.5441C6.57895 38.7589 6.74944 38.9248 6.9652 38.9802C7.01693 38.9935 7.06934 39 7.12141 39C7.28643 39 7.44743 38.9348 7.56711 38.8144L13.5941 32.7505C15.9686 33.9893 18.6639 34.6897 21.5188 34.6897C24.364 34.6897 27.0504 33.9942 29.4189 32.7634L35.433 38.8144C35.5527 38.9348 35.7137 39 35.8787 39C35.9308 39 35.9832 38.9935 36.0349 38.9802C36.2506 38.9248 36.4211 38.7589 36.4834 38.5441L37.8529 33.8211L42.5468 32.4434C42.7604 32.3807 42.9251 32.2095 42.9804 31.9929C43.0354 31.7762 42.9728 31.5465 42.8157 31.3883V31.3883ZM1.82645 31.5275L6.84938 26.4739C7.44315 27.434 8.12754 28.3319 8.89045 29.1554L5.47322 32.5978L1.82645 31.5275ZM7.4282 37.1626L6.36412 33.493L9.78177 30.05C10.6036 30.8174 11.4998 31.5054 12.458 32.1019L7.4282 37.1626ZM5.52025 17.3448C5.52025 8.47896 12.6971 1.26608 21.5187 1.26608C30.3404 1.26608 37.5172 8.47896 37.5172 17.3448C37.5172 26.2107 30.3404 33.4236 21.5187 33.4236C12.6971 33.4236 5.52025 26.2107 5.52025 17.3448V17.3448ZM35.5717 37.1626L30.5564 32.1163C31.5157 31.5212 32.4131 30.8344 33.2362 30.0682L36.6358 33.493L35.5717 37.1626ZM37.5267 32.5978L34.1289 29.1748C34.893 28.3527 35.5786 27.456 36.1736 26.497L41.1734 31.5274L37.5267 32.5978Z" fill="black"/>
<path d="M27.9681 15.5711C27.8914 15.3439 27.6872 15.1784 27.4413 15.1441L23.7433 14.6276L22.0867 11.353C21.9776 11.1371 21.7497 11 21.5 11C21.2503 11 21.0225 11.1371 20.9133 11.353L19.2567 14.6276L15.5587 15.1441C15.313 15.1784 15.1087 15.344 15.032 15.571C14.9552 15.7982 15.0193 16.0476 15.1972 16.2142L17.876 18.7236L17.244 22.2666C17.202 22.5019 17.3027 22.7398 17.5036 22.8802C17.7044 23.0205 17.9707 23.0391 18.1907 22.9279L21.4999 21.2551L24.8091 22.9279C24.9046 22.9762 25.0088 22.9999 25.1126 22.9999C25.2479 22.9999 25.3825 22.9595 25.4962 22.8801C25.6971 22.7397 25.7978 22.5019 25.7557 22.2665L25.1237 18.7235L27.8025 16.2141C27.9807 16.0476 28.0448 15.7982 27.9681 15.5711V15.5711ZM23.9676 18.055C23.8137 18.1991 23.7435 18.4068 23.7799 18.6105L24.2463 21.2258L21.8036 19.9909C21.7086 19.9429 21.6043 19.9189 21.5 19.9189C21.3957 19.9189 21.2915 19.9429 21.1964 19.9909L18.7538 21.2258L19.2202 18.6105C19.2566 18.4069 19.1863 18.1992 19.0324 18.0551L17.0552 16.2029L19.7862 15.8215C20 15.7917 20.1846 15.6619 20.2791 15.475L21.5 13.0615L22.7209 15.475C22.8154 15.6619 23 15.7916 23.2139 15.8215L25.9448 16.2029L23.9676 18.055Z" fill="black"/>
</svg>
