<svg width="237" height="40" viewBox="0 0 237 40" fill="none" xmlns="http://www.w3.org/2000/svg">
<!-- <rect width="237" height="39" fill="white"/> -->
<path d="M19 7C17.9828 7 17.0037 7.33411 16.1687 7.96622C15.9218 8.15308 15.8595 8.52466 16.0293 8.7962C16.1992 9.06773 16.537 9.13633 16.7838 8.94955C17.4371 8.45503 18.2034 8.19364 19 8.19364C21.1588 8.19364 22.915 10.1254 22.915 12.5C22.915 14.8745 21.1588 16.8064 19 16.8064C16.8413 16.8064 15.0851 14.8745 15.0851 12.5C15.0851 11.7995 15.233 11.1317 15.5245 10.5153C15.6628 10.2229 15.5595 9.86254 15.2937 9.71045C15.0278 9.55845 14.7004 9.67196 14.562 9.9644C14.1944 10.7416 14 11.6184 14 12.5C14.0001 15.5327 16.243 18 19 18C21.757 18 24 15.5327 24 12.5C24 9.46728 21.757 7 19 7Z" fill="black"/>
<path d="M38.9562 38.2056L33.3344 24.5964C33.2461 24.3824 33.0387 24.243 32.8086 24.243H27.2064C28.2961 22.7578 29.203 21.2785 29.9114 19.8259C31.1667 17.2518 31.8031 14.7519 31.8031 12.3956C31.803 5.56062 26.2839 0 19.5 0C12.716 0 7.19691 5.56062 7.19691 12.3955C7.19691 14.7518 7.83332 17.2518 9.08864 19.8259C9.79688 21.2784 10.7039 22.7578 11.7936 24.2429H6.19136C5.96132 24.2429 5.75383 24.3824 5.66555 24.5963L1.83471 33.8699C1.71383 34.1626 1.85124 34.4985 2.14169 34.6202C2.21329 34.6502 2.28733 34.6644 2.3603 34.6644C2.58348 34.6644 2.79532 34.5315 2.88634 34.3109L3.43295 32.9877H7.31056L5.30114 37.8522H1.42361L2.0061 36.442C2.12698 36.1493 1.98957 35.8134 1.69913 35.6917C1.40853 35.5698 1.0752 35.7084 0.954394 36.001L0.0437593 38.2056C-0.0294419 38.3827 -0.00994191 38.585 0.0957847 38.7445C0.201359 38.9041 0.379144 39 0.569574 39H38.4303C38.6207 39 38.7986 38.9041 38.9042 38.7445C39.0099 38.585 39.0294 38.3827 38.9562 38.2056ZM8.33613 12.3955C8.33613 6.19346 13.3442 1.14776 19.5 1.14776C25.6557 1.14776 30.6638 6.19354 30.6638 12.3955C30.6638 14.9963 29.7669 19.1522 25.6178 24.4483C25.6136 24.4532 25.6099 24.4585 25.6059 24.4636C25.394 24.7338 25.1739 25.0068 24.9447 25.283C22.6647 28.0299 20.3574 30.0357 19.4999 30.7484C18.6449 30.0381 16.3485 28.0424 14.0701 25.3007C13.8352 25.018 13.6099 24.7386 13.393 24.4621C13.3895 24.4576 13.3863 24.4531 13.3826 24.4487C9.23367 19.153 8.33613 14.9973 8.33613 12.3955ZM6.57123 25.3908H10.4489L9.03455 28.8145H5.15695L6.57123 25.3908ZM9.90208 37.8522L13.4624 29.2335L23.5944 37.8522H9.90208ZM25.3602 37.8522L13.603 27.8509C13.4642 27.7327 13.2777 27.6885 13.1014 27.7316C12.925 27.7746 12.7794 27.8999 12.7097 28.0688L8.66824 37.8522H6.53513L8.69049 32.6342C8.76369 32.4571 8.74419 32.2549 8.63846 32.0953C8.53289 31.9357 8.35502 31.8398 8.16459 31.8398H3.90727L4.68286 29.9622H9.4145C9.64454 29.9622 9.85203 29.8227 9.94031 29.6088L11.6828 25.3907H12.6714C12.843 25.6062 13.0174 25.8219 13.1965 26.0375C16.1356 29.5741 19.0296 31.8447 19.1514 31.9397C19.2541 32.0198 19.377 32.0597 19.5 32.0597C19.6229 32.0597 19.7459 32.0197 19.8485 31.9397C19.9155 31.8875 20.8202 31.1773 22.1088 29.9623H28.5591C28.8737 29.9623 29.1287 29.7054 29.1287 29.3884C29.1287 29.0715 28.8737 28.8145 28.5591 28.8145H23.2827C24.0725 28.0145 24.9357 27.0817 25.8035 26.0375C25.9826 25.822 26.1571 25.6064 26.3286 25.3908H32.4287L33.843 28.8145H30.8375C30.5229 28.8145 30.2678 29.0715 30.2678 29.3884C30.2678 29.7054 30.5228 29.9623 30.8375 29.9623H34.3171L35.0926 31.8399H23.3568C23.1191 31.8399 22.9064 31.9886 22.8232 32.213C22.7401 32.4374 22.8039 32.6902 22.9835 32.8472L28.7065 37.8522H25.3602V37.8522ZM30.4444 37.8522L24.882 32.9878H35.5669L37.5764 37.8522H30.4444Z" fill="black"/>
<path d="M59.2266 8V8.625C59.2266 9.48438 59.1146 10.2552 58.8906 10.9375C58.6667 11.6198 58.3464 12.2005 57.9297 12.6797C57.5182 13.1589 57.0234 13.526 56.4453 13.7812C55.8672 14.0312 55.2266 14.1562 54.5234 14.1562C53.8255 14.1562 53.1875 14.0312 52.6094 13.7812C52.0365 13.526 51.5391 13.1589 51.1172 12.6797C50.6953 12.2005 50.3672 11.6198 50.1328 10.9375C49.9036 10.2552 49.7891 9.48438 49.7891 8.625V8C49.7891 7.14062 49.9036 6.3724 50.1328 5.69531C50.362 5.01302 50.6849 4.43229 51.1016 3.95312C51.5234 3.46875 52.0208 3.10156 52.5938 2.85156C53.1719 2.59635 53.8099 2.46875 54.5078 2.46875C55.2109 2.46875 55.8516 2.59635 56.4297 2.85156C57.0078 3.10156 57.5052 3.46875 57.9219 3.95312C58.3385 4.43229 58.6589 5.01302 58.8828 5.69531C59.112 6.3724 59.2266 7.14062 59.2266 8ZM57.2656 8.625V7.98438C57.2656 7.34896 57.2031 6.78906 57.0781 6.30469C56.9583 5.8151 56.7786 5.40625 56.5391 5.07812C56.3047 4.74479 56.0156 4.49479 55.6719 4.32812C55.3281 4.15625 54.9401 4.07031 54.5078 4.07031C54.0755 4.07031 53.6901 4.15625 53.3516 4.32812C53.013 4.49479 52.724 4.74479 52.4844 5.07812C52.25 5.40625 52.0703 5.8151 51.9453 6.30469C51.8203 6.78906 51.7578 7.34896 51.7578 7.98438V8.625C51.7578 9.26042 51.8203 9.82292 51.9453 10.3125C52.0703 10.8021 52.2526 11.2161 52.4922 11.5547C52.737 11.888 53.0286 12.1406 53.3672 12.3125C53.7057 12.4792 54.0911 12.5625 54.5234 12.5625C54.9609 12.5625 55.349 12.4792 55.6875 12.3125C56.026 12.1406 56.3125 11.888 56.5469 11.5547C56.7812 11.2161 56.9583 10.8021 57.0781 10.3125C57.2031 9.82292 57.2656 9.26042 57.2656 8.625ZM71.0391 9.875V10.0391C71.0391 10.638 70.9714 11.1901 70.8359 11.6953C70.7057 12.1953 70.5104 12.6302 70.25 13C69.9896 13.3698 69.6667 13.6562 69.2812 13.8594C68.901 14.0625 68.4583 14.1641 67.9531 14.1641C67.5104 14.1641 67.125 14.0885 66.7969 13.9375C66.4688 13.7865 66.1927 13.5755 65.9688 13.3047C65.7448 13.0286 65.5651 12.7057 65.4297 12.3359C65.2943 11.9609 65.1953 11.5495 65.1328 11.1016V8.65625C65.1953 8.17708 65.2917 7.73958 65.4219 7.34375C65.5573 6.94271 65.737 6.59635 65.9609 6.30469C66.1901 6.01302 66.4661 5.78906 66.7891 5.63281C67.112 5.47135 67.4948 5.39062 67.9375 5.39062C68.3438 5.39062 68.7109 5.46354 69.0391 5.60938C69.3672 5.75 69.6562 5.95312 69.9062 6.21875C70.1562 6.47917 70.3646 6.79427 70.5312 7.16406C70.6979 7.52865 70.8229 7.9401 70.9062 8.39844C70.9948 8.85677 71.0391 9.34896 71.0391 9.875ZM69.1562 10.0391V9.875C69.1562 9.54688 69.1354 9.23438 69.0938 8.9375C69.0521 8.64062 68.987 8.36979 68.8984 8.125C68.8151 7.875 68.7057 7.65885 68.5703 7.47656C68.4349 7.28906 68.2708 7.14583 68.0781 7.04688C67.8906 6.94271 67.6719 6.89062 67.4219 6.89062C67.0833 6.89062 66.8021 6.94792 66.5781 7.0625C66.3594 7.17188 66.1927 7.32812 66.0781 7.53125C65.9688 7.72917 65.8984 7.95833 65.8672 8.21875V11.5469C65.9036 11.7656 65.9792 11.9583 66.0938 12.125C66.2135 12.2917 66.3828 12.4245 66.6016 12.5234C66.8203 12.6172 67.099 12.6641 67.4375 12.6641C67.75 12.6641 68.013 12.599 68.2266 12.4688C68.4453 12.3333 68.6224 12.1458 68.7578 11.9062C68.8984 11.6667 69 11.388 69.0625 11.0703C69.125 10.7526 69.1562 10.4089 69.1562 10.0391ZM60.6797 10.0391V9.875C60.6797 9.34896 60.7214 8.85677 60.8047 8.39844C60.888 7.9401 61.013 7.52865 61.1797 7.16406C61.3516 6.79427 61.5625 6.47917 61.8125 6.21875C62.0625 5.95312 62.3516 5.75 62.6797 5.60938C63.0078 5.46354 63.375 5.39062 63.7812 5.39062C64.2188 5.39062 64.5964 5.47135 64.9141 5.63281C65.2318 5.78906 65.5 6.01302 65.7188 6.30469C65.9427 6.59635 66.1198 6.94271 66.25 7.34375C66.3854 7.73958 66.4844 8.17708 66.5469 8.65625V11.0078C66.4896 11.4661 66.3932 11.888 66.2578 12.2734C66.1224 12.6589 65.9453 12.9922 65.7266 13.2734C65.5078 13.5547 65.237 13.7734 64.9141 13.9297C64.5911 14.0859 64.2083 14.1641 63.7656 14.1641C63.2656 14.1641 62.8229 14.0625 62.4375 13.8594C62.0521 13.6562 61.7292 13.3698 61.4688 13C61.2083 12.6302 61.0104 12.1953 60.875 11.6953C60.7448 11.1901 60.6797 10.638 60.6797 10.0391ZM62.5625 9.875V10.0391C62.5625 10.4089 62.5911 10.7526 62.6484 11.0703C62.7109 11.388 62.8073 11.6667 62.9375 11.9062C63.0677 12.1406 63.2396 12.3255 63.4531 12.4609C63.6667 12.5964 63.9297 12.6641 64.2422 12.6641C64.5859 12.6641 64.8672 12.612 65.0859 12.5078C65.3047 12.4036 65.4714 12.2604 65.5859 12.0781C65.7057 11.8958 65.7839 11.6875 65.8203 11.4531V8.21875C65.7891 7.95833 65.7161 7.72917 65.6016 7.53125C65.487 7.32812 65.3203 7.17188 65.1016 7.0625C64.8828 6.94792 64.6016 6.89062 64.2578 6.89062C63.9453 6.89062 63.6797 6.96875 63.4609 7.125C63.2474 7.28125 63.0729 7.4974 62.9375 7.77344C62.8073 8.04427 62.7109 8.36198 62.6484 8.72656C62.5911 9.08594 62.5625 9.46875 62.5625 9.875ZM64.875 17.25V2H66.7656V17.25H64.875ZM74.6016 11.25L77.9219 5.54688H79.8047V14H77.9219V8.28906L74.6016 14H72.7188V5.54688H74.6016V11.25ZM81.8594 14V5.54688H83.7422V12.5H87.0547V5.54688H88.9453V14H81.8594ZM90.0938 12.5078L89.9453 16.5078H88.2188V14H87.2031V12.5078H90.0938ZM93.3672 11.25L96.6875 5.54688H98.5703V14H96.6875V8.28906L93.3672 14H91.4844V5.54688H93.3672V11.25ZM105.328 12.3047V8.27344C105.328 7.97135 105.273 7.71094 105.164 7.49219C105.055 7.27344 104.888 7.10417 104.664 6.98438C104.445 6.86458 104.169 6.80469 103.836 6.80469C103.529 6.80469 103.263 6.85677 103.039 6.96094C102.815 7.0651 102.641 7.20573 102.516 7.38281C102.391 7.5599 102.328 7.76042 102.328 7.98438H100.453C100.453 7.65104 100.534 7.32812 100.695 7.01562C100.857 6.70312 101.091 6.42448 101.398 6.17969C101.706 5.9349 102.073 5.74219 102.5 5.60156C102.927 5.46094 103.406 5.39062 103.938 5.39062C104.573 5.39062 105.135 5.4974 105.625 5.71094C106.12 5.92448 106.508 6.2474 106.789 6.67969C107.076 7.10677 107.219 7.64323 107.219 8.28906V12.0469C107.219 12.4323 107.245 12.7786 107.297 13.0859C107.354 13.388 107.435 13.651 107.539 13.875V14H105.609C105.521 13.7969 105.451 13.5391 105.398 13.2266C105.352 12.9089 105.328 12.6016 105.328 12.3047ZM105.602 8.85938L105.617 10.0234H104.266C103.917 10.0234 103.609 10.0573 103.344 10.125C103.078 10.1875 102.857 10.2812 102.68 10.4062C102.503 10.5312 102.37 10.6823 102.281 10.8594C102.193 11.0365 102.148 11.237 102.148 11.4609C102.148 11.6849 102.201 11.8906 102.305 12.0781C102.409 12.2604 102.56 12.4036 102.758 12.5078C102.961 12.612 103.206 12.6641 103.492 12.6641C103.878 12.6641 104.214 12.5859 104.5 12.4297C104.792 12.2682 105.021 12.0729 105.188 11.8438C105.354 11.6094 105.443 11.388 105.453 11.1797L106.062 12.0156C106 12.2292 105.893 12.4583 105.742 12.7031C105.591 12.9479 105.393 13.1823 105.148 13.4062C104.909 13.625 104.62 13.8047 104.281 13.9453C103.948 14.0859 103.562 14.1562 103.125 14.1562C102.573 14.1562 102.081 14.0469 101.648 13.8281C101.216 13.6042 100.878 13.3047 100.633 12.9297C100.388 12.5495 100.266 12.1198 100.266 11.6406C100.266 11.1927 100.349 10.7969 100.516 10.4531C100.688 10.1042 100.938 9.8125 101.266 9.57812C101.599 9.34375 102.005 9.16667 102.484 9.04688C102.964 8.92188 103.51 8.85938 104.125 8.85938H105.602ZM114.867 5.54688V7.04688H110.742V5.54688H114.867ZM116.344 5.54688V14H114.461V5.54688H116.344ZM110.281 5.54688H112.141L111.914 9.72656C111.883 10.3464 111.82 10.8932 111.727 11.3672C111.638 11.8359 111.518 12.2396 111.367 12.5781C111.216 12.9115 111.031 13.1823 110.812 13.3906C110.594 13.599 110.339 13.7526 110.047 13.8516C109.755 13.9505 109.427 14 109.062 14H108.477L108.469 12.4531L108.766 12.4297C108.958 12.4141 109.125 12.3646 109.266 12.2812C109.406 12.1927 109.526 12.0677 109.625 11.9062C109.729 11.7448 109.812 11.5365 109.875 11.2812C109.943 11.026 109.995 10.724 110.031 10.375C110.073 10.026 110.104 9.61979 110.125 9.15625L110.281 5.54688ZM119.742 8.23438H122.234C122.964 8.23438 123.583 8.35677 124.094 8.60156C124.604 8.84635 124.992 9.1875 125.258 9.625C125.529 10.0573 125.664 10.5521 125.664 11.1094C125.664 11.5208 125.589 11.9036 125.438 12.2578C125.286 12.6068 125.062 12.9115 124.766 13.1719C124.474 13.4323 124.115 13.6354 123.688 13.7812C123.266 13.9271 122.781 14 122.234 14H118.492V5.54688H120.383V12.5078H122.234C122.609 12.5078 122.909 12.4427 123.133 12.3125C123.357 12.1823 123.518 12.013 123.617 11.8047C123.721 11.5964 123.773 11.375 123.773 11.1406C123.773 10.901 123.721 10.6745 123.617 10.4609C123.518 10.2474 123.357 10.0729 123.133 9.9375C122.909 9.80208 122.609 9.73438 122.234 9.73438H119.742V8.23438ZM132.945 9.07812V10.5625H128.57V9.07812H132.945ZM129.117 5.54688V14H127.234V5.54688H129.117ZM134.305 5.54688V14H132.422V5.54688H134.305ZM137.711 8.23438H140.203C140.932 8.23438 141.552 8.35677 142.062 8.60156C142.573 8.84635 142.961 9.1875 143.227 9.625C143.497 10.0573 143.633 10.5521 143.633 11.1094C143.633 11.5208 143.557 11.9036 143.406 12.2578C143.255 12.6068 143.031 12.9115 142.734 13.1719C142.443 13.4323 142.083 13.6354 141.656 13.7812C141.234 13.9271 140.75 14 140.203 14H136.461V5.54688H138.352V12.5078H140.203C140.578 12.5078 140.878 12.4427 141.102 12.3125C141.326 12.1823 141.487 12.013 141.586 11.8047C141.69 11.5964 141.742 11.375 141.742 11.1406C141.742 10.901 141.69 10.6745 141.586 10.4609C141.487 10.2474 141.326 10.0729 141.102 9.9375C140.878 9.80208 140.578 9.73438 140.203 9.73438H137.711V8.23438ZM146.961 5.54688V14H145.078V5.54688H146.961ZM152.914 14.1562C152.289 14.1562 151.724 14.0547 151.219 13.8516C150.719 13.6432 150.292 13.3542 149.938 12.9844C149.589 12.6146 149.32 12.1797 149.133 11.6797C148.945 11.1797 148.852 10.6406 148.852 10.0625V9.75C148.852 9.08854 148.948 8.48958 149.141 7.95312C149.333 7.41667 149.602 6.95833 149.945 6.57812C150.289 6.19271 150.695 5.89844 151.164 5.69531C151.633 5.49219 152.141 5.39062 152.688 5.39062C153.292 5.39062 153.82 5.49219 154.273 5.69531C154.727 5.89844 155.102 6.1849 155.398 6.55469C155.701 6.91927 155.924 7.35417 156.07 7.85938C156.221 8.36458 156.297 8.92188 156.297 9.53125V10.3359H149.766V8.98438H154.438V8.83594C154.427 8.4974 154.359 8.17969 154.234 7.88281C154.115 7.58594 153.93 7.34635 153.68 7.16406C153.43 6.98177 153.096 6.89062 152.68 6.89062C152.367 6.89062 152.089 6.95833 151.844 7.09375C151.604 7.22396 151.404 7.41406 151.242 7.66406C151.081 7.91406 150.956 8.21615 150.867 8.57031C150.784 8.91927 150.742 9.3125 150.742 9.75V10.0625C150.742 10.4323 150.792 10.776 150.891 11.0938C150.995 11.4062 151.146 11.6797 151.344 11.9141C151.542 12.1484 151.781 12.3333 152.062 12.4688C152.344 12.599 152.664 12.6641 153.023 12.6641C153.477 12.6641 153.88 12.5729 154.234 12.3906C154.589 12.2083 154.896 11.9505 155.156 11.6172L156.148 12.5781C155.966 12.8438 155.729 13.099 155.438 13.3438C155.146 13.5833 154.789 13.7786 154.367 13.9297C153.951 14.0807 153.466 14.1562 152.914 14.1562ZM163.281 5.54688H165.164L165.07 8.52344C165.044 9.38802 164.945 10.1302 164.773 10.75C164.602 11.3698 164.378 11.8932 164.102 12.3203C163.826 12.7422 163.513 13.0885 163.164 13.3594C162.82 13.6302 162.458 13.8438 162.078 14H161.523V12.5156L161.789 12.5C162.013 12.2604 162.206 12.0208 162.367 11.7812C162.534 11.5365 162.674 11.2682 162.789 10.9766C162.904 10.6797 162.992 10.3333 163.055 9.9375C163.122 9.54167 163.167 9.07031 163.188 8.52344L163.281 5.54688ZM163.781 5.54688H169.141V14H167.266V7.14062H163.781V5.54688ZM161.094 12.5H170.297V16.5156H168.414V14H163V16.5156H161.086L161.094 12.5ZM173.539 11.25L176.859 5.54688H178.742V14H176.859V8.28906L173.539 14H171.656V5.54688H173.539V11.25ZM186.414 5.54688V7.04688H182.289V5.54688H186.414ZM187.891 5.54688V14H186.008V5.54688H187.891ZM181.828 5.54688H183.688L183.461 9.72656C183.43 10.3464 183.367 10.8932 183.273 11.3672C183.185 11.8359 183.065 12.2396 182.914 12.5781C182.763 12.9115 182.578 13.1823 182.359 13.3906C182.141 13.599 181.885 13.7526 181.594 13.8516C181.302 13.9505 180.974 14 180.609 14H180.023L180.016 12.4531L180.312 12.4297C180.505 12.4141 180.672 12.3646 180.812 12.2812C180.953 12.1927 181.073 12.0677 181.172 11.9062C181.276 11.7448 181.359 11.5365 181.422 11.2812C181.49 11.026 181.542 10.724 181.578 10.375C181.62 10.026 181.651 9.61979 181.672 9.15625L181.828 5.54688ZM193.617 14.1562C192.992 14.1562 192.427 14.0547 191.922 13.8516C191.422 13.6432 190.995 13.3542 190.641 12.9844C190.292 12.6146 190.023 12.1797 189.836 11.6797C189.648 11.1797 189.555 10.6406 189.555 10.0625V9.75C189.555 9.08854 189.651 8.48958 189.844 7.95312C190.036 7.41667 190.305 6.95833 190.648 6.57812C190.992 6.19271 191.398 5.89844 191.867 5.69531C192.336 5.49219 192.844 5.39062 193.391 5.39062C193.995 5.39062 194.523 5.49219 194.977 5.69531C195.43 5.89844 195.805 6.1849 196.102 6.55469C196.404 6.91927 196.628 7.35417 196.773 7.85938C196.924 8.36458 197 8.92188 197 9.53125V10.3359H190.469V8.98438H195.141V8.83594C195.13 8.4974 195.062 8.17969 194.938 7.88281C194.818 7.58594 194.633 7.34635 194.383 7.16406C194.133 6.98177 193.799 6.89062 193.383 6.89062C193.07 6.89062 192.792 6.95833 192.547 7.09375C192.307 7.22396 192.107 7.41406 191.945 7.66406C191.784 7.91406 191.659 8.21615 191.57 8.57031C191.487 8.91927 191.445 9.3125 191.445 9.75V10.0625C191.445 10.4323 191.495 10.776 191.594 11.0938C191.698 11.4062 191.849 11.6797 192.047 11.9141C192.245 12.1484 192.484 12.3333 192.766 12.4688C193.047 12.599 193.367 12.6641 193.727 12.6641C194.18 12.6641 194.583 12.5729 194.938 12.3906C195.292 12.2083 195.599 11.9505 195.859 11.6172L196.852 12.5781C196.669 12.8438 196.432 13.099 196.141 13.3438C195.849 13.5833 195.492 13.7786 195.07 13.9297C194.654 14.0807 194.169 14.1562 193.617 14.1562ZM200.359 7.17188V17.25H198.477V5.54688H200.211L200.359 7.17188ZM205.867 9.69531V9.85938C205.867 10.474 205.794 11.0443 205.648 11.5703C205.508 12.0911 205.297 12.5469 205.016 12.9375C204.74 13.3229 204.398 13.6224 203.992 13.8359C203.586 14.0495 203.117 14.1562 202.586 14.1562C202.06 14.1562 201.599 14.0599 201.203 13.8672C200.812 13.6693 200.482 13.3906 200.211 13.0312C199.94 12.6719 199.721 12.25 199.555 11.7656C199.393 11.276 199.279 10.7396 199.211 10.1562V9.52344C199.279 8.90365 199.393 8.34115 199.555 7.83594C199.721 7.33073 199.94 6.89583 200.211 6.53125C200.482 6.16667 200.812 5.88542 201.203 5.6875C201.594 5.48958 202.049 5.39062 202.57 5.39062C203.102 5.39062 203.573 5.49479 203.984 5.70312C204.396 5.90625 204.742 6.19792 205.023 6.57812C205.305 6.95312 205.516 7.40625 205.656 7.9375C205.797 8.46354 205.867 9.04948 205.867 9.69531ZM203.984 9.85938V9.69531C203.984 9.30469 203.948 8.94271 203.875 8.60938C203.802 8.27083 203.688 7.97396 203.531 7.71875C203.375 7.46354 203.174 7.26562 202.93 7.125C202.69 6.97917 202.401 6.90625 202.062 6.90625C201.729 6.90625 201.443 6.96354 201.203 7.07812C200.964 7.1875 200.763 7.34115 200.602 7.53906C200.44 7.73698 200.315 7.96875 200.227 8.23438C200.138 8.49479 200.076 8.77865 200.039 9.08594V10.6016C200.102 10.9766 200.208 11.3203 200.359 11.6328C200.51 11.9453 200.724 12.1953 201 12.3828C201.281 12.5651 201.641 12.6562 202.078 12.6562C202.417 12.6562 202.706 12.5833 202.945 12.4375C203.185 12.2917 203.38 12.0911 203.531 11.8359C203.688 11.5755 203.802 11.276 203.875 10.9375C203.948 10.599 203.984 10.2396 203.984 9.85938ZM208.867 8.23438H211.359C212.089 8.23438 212.708 8.35677 213.219 8.60156C213.729 8.84635 214.117 9.1875 214.383 9.625C214.654 10.0573 214.789 10.5521 214.789 11.1094C214.789 11.5208 214.714 11.9036 214.562 12.2578C214.411 12.6068 214.188 12.9115 213.891 13.1719C213.599 13.4323 213.24 13.6354 212.812 13.7812C212.391 13.9271 211.906 14 211.359 14H207.617V5.54688H209.508V12.5078H211.359C211.734 12.5078 212.034 12.4427 212.258 12.3125C212.482 12.1823 212.643 12.013 212.742 11.8047C212.846 11.5964 212.898 11.375 212.898 11.1406C212.898 10.901 212.846 10.6745 212.742 10.4609C212.643 10.2474 212.482 10.0729 212.258 9.9375C212.034 9.80208 211.734 9.73438 211.359 9.73438H208.867V8.23438ZM218.117 5.54688V14H216.234V5.54688H218.117Z" fill="black"/>
<path d="M51.6729 31.4014H52.5752C53.0173 31.4014 53.3818 31.3285 53.6689 31.1826C53.9606 31.0322 54.1771 30.8294 54.3184 30.5742C54.4642 30.3145 54.5371 30.0228 54.5371 29.6992C54.5371 29.3164 54.4733 28.9951 54.3457 28.7354C54.2181 28.4756 54.0267 28.2796 53.7715 28.1475C53.5163 28.0153 53.1927 27.9492 52.8008 27.9492C52.4453 27.9492 52.1309 28.0199 51.8574 28.1611C51.5885 28.2979 51.3766 28.4938 51.2217 28.749C51.0713 29.0042 50.9961 29.305 50.9961 29.6514H49.7314C49.7314 29.1455 49.859 28.6852 50.1143 28.2705C50.3695 27.8558 50.7272 27.5254 51.1875 27.2793C51.6523 27.0332 52.1901 26.9102 52.8008 26.9102C53.4023 26.9102 53.9287 27.0173 54.3799 27.2314C54.8311 27.4411 55.182 27.7555 55.4326 28.1748C55.6833 28.5895 55.8086 29.1068 55.8086 29.7266C55.8086 29.9772 55.7493 30.2461 55.6309 30.5332C55.5169 30.8158 55.3369 31.0801 55.0908 31.3262C54.8493 31.5723 54.5348 31.7751 54.1475 31.9346C53.7601 32.0895 53.2952 32.167 52.7529 32.167H51.6729V31.4014ZM51.6729 32.4404V31.6816H52.7529C53.3864 31.6816 53.9105 31.7568 54.3252 31.9072C54.7399 32.0576 55.0658 32.2581 55.3027 32.5088C55.5443 32.7594 55.7129 33.0352 55.8086 33.3359C55.9089 33.6322 55.959 33.9284 55.959 34.2246C55.959 34.6895 55.8792 35.1019 55.7197 35.4619C55.5648 35.8219 55.3438 36.1273 55.0566 36.3779C54.7741 36.6286 54.4414 36.8177 54.0586 36.9453C53.6758 37.0729 53.2588 37.1367 52.8076 37.1367C52.3747 37.1367 51.9668 37.0752 51.584 36.9521C51.2057 36.8291 50.8708 36.6514 50.5791 36.4189C50.2874 36.182 50.0596 35.8926 49.8955 35.5508C49.7314 35.2044 49.6494 34.8102 49.6494 34.3682H50.9141C50.9141 34.7145 50.9893 35.0176 51.1396 35.2773C51.2946 35.5371 51.5133 35.7399 51.7959 35.8857C52.083 36.027 52.4202 36.0977 52.8076 36.0977C53.195 36.0977 53.5277 36.0316 53.8057 35.8994C54.0882 35.7627 54.3047 35.5576 54.4551 35.2842C54.61 35.0107 54.6875 34.6667 54.6875 34.252C54.6875 33.8372 54.6009 33.4977 54.4277 33.2334C54.2546 32.9645 54.0085 32.7663 53.6895 32.6387C53.375 32.5065 53.0036 32.4404 52.5752 32.4404H51.6729ZM63.9502 31.2305V32.748C63.9502 33.5638 63.8773 34.252 63.7314 34.8125C63.5856 35.373 63.376 35.8242 63.1025 36.166C62.8291 36.5078 62.4987 36.7562 62.1113 36.9111C61.7285 37.0615 61.2956 37.1367 60.8125 37.1367C60.4297 37.1367 60.0765 37.0889 59.7529 36.9932C59.4294 36.8975 59.1377 36.7448 58.8779 36.5352C58.6227 36.321 58.404 36.043 58.2217 35.7012C58.0394 35.3594 57.9004 34.9447 57.8047 34.457C57.709 33.9694 57.6611 33.3997 57.6611 32.748V31.2305C57.6611 30.4147 57.734 29.7311 57.8799 29.1797C58.0303 28.6283 58.2422 28.1862 58.5156 27.8535C58.7891 27.5163 59.1172 27.2747 59.5 27.1289C59.8874 26.9831 60.3203 26.9102 60.7988 26.9102C61.1862 26.9102 61.5417 26.958 61.8652 27.0537C62.1934 27.1449 62.485 27.293 62.7402 27.498C62.9954 27.6986 63.2119 27.9674 63.3896 28.3047C63.5719 28.6374 63.7109 29.0452 63.8066 29.5283C63.9023 30.0114 63.9502 30.5788 63.9502 31.2305ZM62.6787 32.9531V31.0186C62.6787 30.5719 62.6514 30.18 62.5967 29.8428C62.5465 29.501 62.4714 29.2093 62.3711 28.9678C62.2708 28.7262 62.1432 28.5303 61.9883 28.3799C61.8379 28.2295 61.6624 28.1201 61.4619 28.0518C61.266 27.9788 61.0449 27.9424 60.7988 27.9424C60.498 27.9424 60.2314 27.9993 59.999 28.1133C59.7666 28.2227 59.5706 28.3981 59.4111 28.6396C59.2562 28.8812 59.1377 29.1979 59.0557 29.5898C58.9736 29.9818 58.9326 30.458 58.9326 31.0186V32.9531C58.9326 33.3997 58.9577 33.7939 59.0078 34.1357C59.0625 34.4775 59.1423 34.7738 59.2471 35.0244C59.3519 35.2705 59.4795 35.4733 59.6299 35.6328C59.7803 35.7923 59.9535 35.9108 60.1494 35.9883C60.3499 36.0612 60.571 36.0977 60.8125 36.0977C61.1224 36.0977 61.3936 36.0384 61.626 35.9199C61.8584 35.8014 62.0521 35.6169 62.207 35.3662C62.3665 35.111 62.485 34.7852 62.5625 34.3887C62.64 33.9876 62.6787 33.5091 62.6787 32.9531ZM77.6904 33.4316V33.5752C77.6904 34.0947 77.6335 34.5732 77.5195 35.0107C77.4056 35.4437 77.2347 35.8197 77.0068 36.1387C76.7835 36.4577 76.5055 36.7061 76.1729 36.8838C75.8402 37.057 75.4551 37.1436 75.0176 37.1436C74.6576 37.1436 74.3408 37.0957 74.0674 37C73.7939 36.8997 73.5615 36.7562 73.3701 36.5693C73.1833 36.3825 73.0329 36.1592 72.9189 35.8994C72.8096 35.6351 72.7344 35.3389 72.6934 35.0107V31.7295C72.7344 31.3786 72.8096 31.0641 72.9189 30.7861C73.0329 30.5081 73.1833 30.2712 73.3701 30.0752C73.5615 29.8792 73.7917 29.7288 74.0605 29.624C74.3294 29.5192 74.6439 29.4668 75.0039 29.4668C75.3594 29.4668 75.6784 29.5306 75.9609 29.6582C76.248 29.7812 76.4987 29.959 76.7129 30.1914C76.9316 30.4238 77.1117 30.7041 77.2529 31.0322C77.3988 31.3558 77.5081 31.7204 77.5811 32.126C77.654 32.5316 77.6904 32.9668 77.6904 33.4316ZM76.4258 33.5752V33.4316C76.4258 33.1126 76.403 32.8096 76.3574 32.5225C76.3164 32.2308 76.2503 31.9642 76.1592 31.7227C76.0726 31.4766 75.9587 31.2624 75.8174 31.0801C75.6761 30.8978 75.5052 30.7565 75.3047 30.6562C75.1087 30.556 74.8831 30.5059 74.6279 30.5059C74.3545 30.5059 74.1266 30.54 73.9443 30.6084C73.7666 30.6768 73.6276 30.7679 73.5273 30.8818C73.4271 30.9912 73.3542 31.1074 73.3086 31.2305V35.5166C73.3633 35.6169 73.443 35.7126 73.5479 35.8037C73.6527 35.8903 73.7939 35.9632 73.9717 36.0225C74.1494 36.0771 74.3727 36.1045 74.6416 36.1045C74.9606 36.1045 75.2318 36.0407 75.4551 35.9131C75.6829 35.7809 75.8675 35.5986 76.0088 35.3662C76.1546 35.1338 76.2594 34.8649 76.3232 34.5596C76.3916 34.2542 76.4258 33.9261 76.4258 33.5752ZM68.9062 33.5752V33.4316C68.9062 32.9668 68.9427 32.5316 69.0156 32.126C69.0885 31.7204 69.1979 31.3558 69.3438 31.0322C69.4896 30.7041 69.6696 30.4238 69.8838 30.1914C70.1025 29.959 70.3532 29.7812 70.6357 29.6582C70.9229 29.5306 71.2441 29.4668 71.5996 29.4668C71.9505 29.4668 72.2559 29.5192 72.5156 29.624C72.7799 29.7288 73.0033 29.8792 73.1855 30.0752C73.3678 30.2712 73.5137 30.5081 73.623 30.7861C73.7324 31.0641 73.8099 31.3786 73.8555 31.7295V34.8809C73.8145 35.2272 73.7393 35.5394 73.6299 35.8174C73.5205 36.0954 73.3747 36.3346 73.1924 36.5352C73.0101 36.7311 72.7845 36.8815 72.5156 36.9863C72.2513 37.0911 71.9414 37.1436 71.5859 37.1436C71.1484 37.1436 70.7633 37.057 70.4307 36.8838C70.098 36.7061 69.8177 36.4577 69.5898 36.1387C69.3665 35.8197 69.1956 35.4437 69.0771 35.0107C68.9632 34.5732 68.9062 34.0947 68.9062 33.5752ZM70.1777 33.4316V33.5752C70.1777 33.9261 70.2074 34.2542 70.2666 34.5596C70.3304 34.8649 70.4284 35.1338 70.5605 35.3662C70.6973 35.5986 70.875 35.7809 71.0938 35.9131C71.3125 36.0407 71.5814 36.1045 71.9004 36.1045C72.1738 36.1045 72.3994 36.0703 72.5771 36.002C72.7549 35.9336 72.8962 35.8447 73.001 35.7354C73.1058 35.626 73.1855 35.512 73.2402 35.3936V31.2305C73.1947 31.1074 73.1195 30.9912 73.0146 30.8818C72.9144 30.7679 72.7754 30.6768 72.5977 30.6084C72.4199 30.54 72.1921 30.5059 71.9141 30.5059C71.5951 30.5059 71.3239 30.5833 71.1006 30.7383C70.8773 30.8932 70.6973 31.1051 70.5605 31.374C70.4284 31.6429 70.3304 31.9551 70.2666 32.3105C70.2074 32.6615 70.1777 33.0352 70.1777 33.4316ZM72.6113 39.8438V26.5H73.8828V39.8438H72.6113ZM83.7061 35.7354V31.9277C83.7061 31.6361 83.6468 31.3831 83.5283 31.1689C83.4144 30.9502 83.2412 30.7816 83.0088 30.6631C82.7764 30.5446 82.4893 30.4854 82.1475 30.4854C81.8285 30.4854 81.5482 30.54 81.3066 30.6494C81.0697 30.7588 80.8828 30.9023 80.7461 31.0801C80.6139 31.2578 80.5479 31.4492 80.5479 31.6543H79.2832C79.2832 31.39 79.3516 31.1279 79.4883 30.8682C79.625 30.6084 79.821 30.3737 80.0762 30.1641C80.3359 29.9499 80.6458 29.7812 81.0059 29.6582C81.3704 29.5306 81.776 29.4668 82.2227 29.4668C82.7604 29.4668 83.2344 29.5579 83.6445 29.7402C84.0592 29.9225 84.3828 30.1982 84.6152 30.5674C84.8522 30.932 84.9707 31.39 84.9707 31.9414V35.3867C84.9707 35.6328 84.9912 35.8949 85.0322 36.1729C85.0778 36.4508 85.1439 36.6901 85.2305 36.8906V37H83.9111C83.8473 36.8542 83.7972 36.6605 83.7607 36.4189C83.7243 36.1729 83.7061 35.945 83.7061 35.7354ZM83.9248 32.5156L83.9385 33.4043H82.6602C82.3001 33.4043 81.9788 33.4339 81.6963 33.4932C81.4137 33.5479 81.1768 33.6322 80.9854 33.7461C80.7939 33.86 80.6481 34.0036 80.5479 34.1768C80.4476 34.3454 80.3975 34.5436 80.3975 34.7715C80.3975 35.0039 80.4499 35.2158 80.5547 35.4072C80.6595 35.5986 80.8167 35.7513 81.0264 35.8652C81.2406 35.9746 81.5026 36.0293 81.8125 36.0293C82.1999 36.0293 82.5417 35.9473 82.8379 35.7832C83.1341 35.6191 83.3688 35.4186 83.542 35.1816C83.7197 34.9447 83.8154 34.7145 83.8291 34.4912L84.3691 35.0996C84.3372 35.291 84.2507 35.5029 84.1094 35.7354C83.9681 35.9678 83.779 36.1911 83.542 36.4053C83.3096 36.6149 83.0316 36.7904 82.708 36.9316C82.389 37.0684 82.029 37.1367 81.6279 37.1367C81.1266 37.1367 80.6868 37.0387 80.3086 36.8428C79.9349 36.6468 79.6432 36.3848 79.4336 36.0566C79.2285 35.724 79.126 35.3525 79.126 34.9424C79.126 34.5459 79.2035 34.1973 79.3584 33.8965C79.5133 33.5911 79.7367 33.3382 80.0283 33.1377C80.32 32.9326 80.6709 32.7777 81.0811 32.6729C81.4912 32.568 81.9492 32.5156 82.4551 32.5156H83.9248ZM91.7041 26.3838H92.7432C92.7432 26.8304 92.6748 27.1859 92.5381 27.4502C92.4014 27.71 92.2145 27.9105 91.9775 28.0518C91.7451 28.193 91.4808 28.3001 91.1846 28.373C90.8929 28.446 90.5898 28.5166 90.2754 28.585C89.8835 28.667 89.5189 28.7969 89.1816 28.9746C88.849 29.1478 88.5618 29.3939 88.3203 29.7129C88.0833 30.0319 87.9079 30.4466 87.7939 30.957C87.6846 31.4674 87.6549 32.0986 87.7051 32.8506V33.4795H86.666V32.8506C86.666 32.0075 86.7458 31.2715 86.9053 30.6426C87.0693 30.0137 87.2995 29.4827 87.5957 29.0498C87.8919 28.6169 88.2428 28.2728 88.6484 28.0176C89.0586 27.7624 89.5098 27.5869 90.002 27.4912C90.3574 27.4229 90.6628 27.3499 90.918 27.2725C91.1732 27.1904 91.3669 27.0811 91.499 26.9443C91.6357 26.8076 91.7041 26.6208 91.7041 26.3838ZM90.207 30.0273C90.6901 30.0273 91.1208 30.1117 91.499 30.2803C91.8773 30.4489 92.1986 30.6836 92.4629 30.9844C92.7272 31.2852 92.9277 31.6406 93.0645 32.0508C93.2057 32.4564 93.2764 32.8984 93.2764 33.377V33.5273C93.2764 34.0423 93.2012 34.5208 93.0508 34.9629C92.9049 35.4004 92.6885 35.7832 92.4014 36.1113C92.1188 36.4349 91.7725 36.6878 91.3623 36.8701C90.9567 37.0524 90.4941 37.1436 89.9746 37.1436C89.4551 37.1436 88.9902 37.0524 88.5801 36.8701C88.1745 36.6878 87.8281 36.4349 87.541 36.1113C87.2539 35.7832 87.0352 35.4004 86.8848 34.9629C86.7389 34.5208 86.666 34.0423 86.666 33.5273V33.377C86.666 33.263 86.6865 33.1514 86.7275 33.042C86.7686 32.9326 86.8187 32.821 86.8779 32.707C86.9417 32.5931 86.9987 32.4723 87.0488 32.3447C87.2174 31.9346 87.4476 31.554 87.7393 31.2031C88.0355 30.8522 88.3887 30.5697 88.7988 30.3555C89.2135 30.1367 89.6829 30.0273 90.207 30.0273ZM89.9609 31.0596C89.4961 31.0596 89.1133 31.1667 88.8125 31.3809C88.5163 31.5951 88.2952 31.8799 88.1494 32.2354C88.0036 32.5863 87.9307 32.9668 87.9307 33.377V33.5273C87.9307 33.8737 87.9717 34.2018 88.0537 34.5117C88.1357 34.8216 88.2588 35.0973 88.4229 35.3389C88.5915 35.5758 88.8034 35.7627 89.0586 35.8994C89.3184 36.0361 89.6237 36.1045 89.9746 36.1045C90.3255 36.1045 90.6286 36.0361 90.8838 35.8994C91.139 35.7627 91.3486 35.5758 91.5127 35.3389C91.6768 35.0973 91.7998 34.8216 91.8818 34.5117C91.9639 34.2018 92.0049 33.8737 92.0049 33.5273V33.377C92.0049 33.0671 91.9639 32.7731 91.8818 32.4951C91.7998 32.2171 91.6745 31.971 91.5059 31.7568C91.3418 31.5426 91.1299 31.374 90.8701 31.251C90.6149 31.1234 90.3118 31.0596 89.9609 31.0596ZM95.8535 31.0254V39.8438H94.582V29.6035H95.7441L95.8535 31.0254ZM100.837 33.2402V33.3838C100.837 33.9215 100.773 34.4206 100.646 34.8809C100.518 35.3366 100.331 35.7331 100.085 36.0703C99.8434 36.4076 99.5449 36.6696 99.1895 36.8564C98.834 37.0433 98.4261 37.1367 97.9658 37.1367C97.4964 37.1367 97.0817 37.0592 96.7217 36.9043C96.3617 36.7493 96.0563 36.5238 95.8057 36.2275C95.555 35.9313 95.3545 35.5758 95.2041 35.1611C95.0583 34.7464 94.958 34.2793 94.9033 33.7598V32.9941C94.958 32.4473 95.0605 31.9574 95.2109 31.5244C95.3613 31.0915 95.5596 30.7223 95.8057 30.417C96.0563 30.1071 96.3594 29.8724 96.7148 29.7129C97.0703 29.5488 97.4805 29.4668 97.9453 29.4668C98.4102 29.4668 98.8226 29.5579 99.1826 29.7402C99.5426 29.918 99.8457 30.1732 100.092 30.5059C100.338 30.8385 100.522 31.2373 100.646 31.7021C100.773 32.1624 100.837 32.6751 100.837 33.2402ZM99.5654 33.3838V33.2402C99.5654 32.8711 99.5267 32.5247 99.4492 32.2012C99.3717 31.873 99.251 31.5859 99.0869 31.3398C98.9274 31.0892 98.7223 30.8932 98.4717 30.752C98.221 30.6061 97.9225 30.5332 97.5762 30.5332C97.2572 30.5332 96.9792 30.5879 96.7422 30.6973C96.5098 30.8066 96.3115 30.9548 96.1475 31.1416C95.9834 31.3239 95.849 31.5335 95.7441 31.7705C95.6439 32.0029 95.5687 32.2445 95.5186 32.4951V34.2656C95.6097 34.5846 95.7373 34.8854 95.9014 35.168C96.0654 35.446 96.2842 35.6715 96.5576 35.8447C96.8311 36.0133 97.1751 36.0977 97.5898 36.0977C97.9316 36.0977 98.2256 36.027 98.4717 35.8857C98.7223 35.7399 98.9274 35.5417 99.0869 35.291C99.251 35.0404 99.3717 34.7533 99.4492 34.4297C99.5267 34.1016 99.5654 33.7529 99.5654 33.3838ZM103.817 34.9971L107.229 29.6035H108.5V37H107.229V31.6064L103.817 37H102.56V29.6035H103.817V34.9971ZM111.904 29.6035V37H110.64V29.6035H111.904ZM116.758 29.6035L113.251 33.8418H111.48L111.289 32.7344H112.738L115.22 29.6035H116.758ZM115.397 37L112.677 33.6504L113.49 32.7344L117.004 37H115.397ZM122.944 34.9971L126.355 29.6035H127.627V37H126.355V31.6064L122.944 37H121.687V29.6035H122.944V34.9971ZM135.892 33.4658H134.531V32.6865H135.789C136.14 32.6865 136.418 32.6432 136.623 32.5566C136.828 32.4655 136.974 32.3402 137.061 32.1807C137.147 32.0212 137.19 31.8343 137.19 31.6201C137.19 31.4287 137.14 31.2487 137.04 31.0801C136.944 30.9069 136.789 30.7679 136.575 30.6631C136.361 30.5537 136.074 30.499 135.714 30.499C135.422 30.499 135.158 30.5514 134.921 30.6562C134.684 30.7565 134.495 30.8955 134.354 31.0732C134.217 31.2464 134.148 31.4424 134.148 31.6611H132.884C132.884 31.21 133.011 30.8226 133.267 30.499C133.526 30.1709 133.87 29.918 134.299 29.7402C134.732 29.5625 135.203 29.4736 135.714 29.4736C136.142 29.4736 136.525 29.5215 136.862 29.6172C137.204 29.7083 137.493 29.8451 137.73 30.0273C137.967 30.2051 138.147 30.4284 138.271 30.6973C138.398 30.9616 138.462 31.2692 138.462 31.6201C138.462 31.8708 138.403 32.1077 138.284 32.3311C138.166 32.5544 137.995 32.7526 137.771 32.9258C137.548 33.0944 137.277 33.2266 136.958 33.3223C136.644 33.418 136.288 33.4658 135.892 33.4658ZM134.531 32.9873H135.892C136.334 32.9873 136.723 33.0306 137.061 33.1172C137.398 33.1992 137.68 33.3223 137.908 33.4863C138.136 33.6504 138.307 33.8532 138.421 34.0947C138.539 34.3317 138.599 34.6051 138.599 34.915C138.599 35.2614 138.528 35.5736 138.387 35.8516C138.25 36.125 138.054 36.3574 137.799 36.5488C137.544 36.7402 137.238 36.8861 136.883 36.9863C136.532 37.0866 136.142 37.1367 135.714 37.1367C135.235 37.1367 134.771 37.0547 134.319 36.8906C133.868 36.7266 133.497 36.4736 133.205 36.1318C132.913 35.7855 132.768 35.3457 132.768 34.8125H134.032C134.032 35.0358 134.103 35.2477 134.244 35.4482C134.385 35.6488 134.581 35.8105 134.832 35.9336C135.087 36.0566 135.381 36.1182 135.714 36.1182C136.069 36.1182 136.366 36.0635 136.603 35.9541C136.84 35.8447 137.017 35.6989 137.136 35.5166C137.259 35.3343 137.32 35.1361 137.32 34.9219C137.32 34.6439 137.266 34.4206 137.156 34.252C137.047 34.0833 136.878 33.9603 136.65 33.8828C136.427 33.8008 136.14 33.7598 135.789 33.7598H134.531V32.9873ZM144.601 35.7354V31.9277C144.601 31.6361 144.541 31.3831 144.423 31.1689C144.309 30.9502 144.136 30.7816 143.903 30.6631C143.671 30.5446 143.384 30.4854 143.042 30.4854C142.723 30.4854 142.443 30.54 142.201 30.6494C141.964 30.7588 141.777 30.9023 141.641 31.0801C141.508 31.2578 141.442 31.4492 141.442 31.6543H140.178C140.178 31.39 140.246 31.1279 140.383 30.8682C140.52 30.6084 140.715 30.3737 140.971 30.1641C141.23 29.9499 141.54 29.7812 141.9 29.6582C142.265 29.5306 142.671 29.4668 143.117 29.4668C143.655 29.4668 144.129 29.5579 144.539 29.7402C144.954 29.9225 145.277 30.1982 145.51 30.5674C145.747 30.932 145.865 31.39 145.865 31.9414V35.3867C145.865 35.6328 145.886 35.8949 145.927 36.1729C145.972 36.4508 146.038 36.6901 146.125 36.8906V37H144.806C144.742 36.8542 144.692 36.6605 144.655 36.4189C144.619 36.1729 144.601 35.945 144.601 35.7354ZM144.819 32.5156L144.833 33.4043H143.555C143.195 33.4043 142.873 33.4339 142.591 33.4932C142.308 33.5479 142.071 33.6322 141.88 33.7461C141.688 33.86 141.543 34.0036 141.442 34.1768C141.342 34.3454 141.292 34.5436 141.292 34.7715C141.292 35.0039 141.344 35.2158 141.449 35.4072C141.554 35.5986 141.711 35.7513 141.921 35.8652C142.135 35.9746 142.397 36.0293 142.707 36.0293C143.094 36.0293 143.436 35.9473 143.732 35.7832C144.029 35.6191 144.263 35.4186 144.437 35.1816C144.614 34.9447 144.71 34.7145 144.724 34.4912L145.264 35.0996C145.232 35.291 145.145 35.5029 145.004 35.7354C144.863 35.9678 144.674 36.1911 144.437 36.4053C144.204 36.6149 143.926 36.7904 143.603 36.9316C143.284 37.0684 142.924 37.1367 142.522 37.1367C142.021 37.1367 141.581 37.0387 141.203 36.8428C140.829 36.6468 140.538 36.3848 140.328 36.0566C140.123 35.724 140.021 35.3525 140.021 34.9424C140.021 34.5459 140.098 34.1973 140.253 33.8965C140.408 33.5911 140.631 33.3382 140.923 33.1377C141.215 32.9326 141.565 32.7777 141.976 32.6729C142.386 32.568 142.844 32.5156 143.35 32.5156H144.819ZM151.327 33.7461H148.9L148.887 32.7344H150.869C151.261 32.7344 151.587 32.6956 151.847 32.6182C152.111 32.5407 152.309 32.4245 152.441 32.2695C152.574 32.1146 152.64 31.9232 152.64 31.6953C152.64 31.5176 152.601 31.3626 152.523 31.2305C152.451 31.0938 152.339 30.9821 152.188 30.8955C152.038 30.8044 151.851 30.7383 151.628 30.6973C151.409 30.6517 151.152 30.6289 150.855 30.6289H149.235V37H147.971V29.6035H150.855C151.325 29.6035 151.746 29.6445 152.12 29.7266C152.498 29.8086 152.82 29.9339 153.084 30.1025C153.353 30.2666 153.558 30.4762 153.699 30.7314C153.84 30.9867 153.911 31.2874 153.911 31.6338C153.911 31.8571 153.866 32.069 153.774 32.2695C153.683 32.4701 153.549 32.6478 153.371 32.8027C153.193 32.9577 152.975 33.0853 152.715 33.1855C152.455 33.2812 152.157 33.3428 151.819 33.3701L151.327 33.7461ZM151.327 37H148.442L149.071 35.9746H151.327C151.678 35.9746 151.97 35.9313 152.202 35.8447C152.435 35.7536 152.608 35.626 152.722 35.4619C152.84 35.2933 152.899 35.0928 152.899 34.8604C152.899 34.6279 152.84 34.4297 152.722 34.2656C152.608 34.097 152.435 33.9694 152.202 33.8828C151.97 33.7917 151.678 33.7461 151.327 33.7461H149.406L149.42 32.7344H151.819L152.277 33.1172C152.683 33.1491 153.027 33.2493 153.31 33.418C153.592 33.5866 153.806 33.8008 153.952 34.0605C154.098 34.3158 154.171 34.5938 154.171 34.8945C154.171 35.2409 154.105 35.5462 153.973 35.8105C153.845 36.0749 153.658 36.2959 153.412 36.4736C153.166 36.6468 152.868 36.779 152.517 36.8701C152.166 36.9567 151.769 37 151.327 37ZM155.531 33.3838V33.2266C155.531 32.6934 155.609 32.1989 155.764 31.7432C155.919 31.2829 156.142 30.8841 156.434 30.5469C156.725 30.2051 157.078 29.9408 157.493 29.7539C157.908 29.5625 158.373 29.4668 158.888 29.4668C159.407 29.4668 159.874 29.5625 160.289 29.7539C160.708 29.9408 161.064 30.2051 161.355 30.5469C161.652 30.8841 161.877 31.2829 162.032 31.7432C162.187 32.1989 162.265 32.6934 162.265 33.2266V33.3838C162.265 33.917 162.187 34.4115 162.032 34.8672C161.877 35.3229 161.652 35.7217 161.355 36.0635C161.064 36.4007 160.711 36.665 160.296 36.8564C159.886 37.0433 159.421 37.1367 158.901 37.1367C158.382 37.1367 157.915 37.0433 157.5 36.8564C157.085 36.665 156.73 36.4007 156.434 36.0635C156.142 35.7217 155.919 35.3229 155.764 34.8672C155.609 34.4115 155.531 33.917 155.531 33.3838ZM156.796 33.2266V33.3838C156.796 33.7529 156.839 34.1016 156.926 34.4297C157.012 34.7533 157.142 35.0404 157.315 35.291C157.493 35.5417 157.714 35.7399 157.979 35.8857C158.243 36.027 158.55 36.0977 158.901 36.0977C159.248 36.0977 159.551 36.027 159.811 35.8857C160.075 35.7399 160.294 35.5417 160.467 35.291C160.64 35.0404 160.77 34.7533 160.856 34.4297C160.948 34.1016 160.993 33.7529 160.993 33.3838V33.2266C160.993 32.862 160.948 32.5179 160.856 32.1943C160.77 31.8662 160.638 31.5768 160.46 31.3262C160.287 31.071 160.068 30.8704 159.804 30.7246C159.544 30.5788 159.239 30.5059 158.888 30.5059C158.541 30.5059 158.236 30.5788 157.972 30.7246C157.712 30.8704 157.493 31.071 157.315 31.3262C157.142 31.5768 157.012 31.8662 156.926 32.1943C156.839 32.5179 156.796 32.862 156.796 33.2266ZM164.691 29.6035H165.956L165.847 32.3721C165.819 33.0739 165.74 33.68 165.607 34.1904C165.475 34.7008 165.307 35.1361 165.102 35.4961C164.896 35.8516 164.666 36.1501 164.411 36.3916C164.16 36.6331 163.901 36.8359 163.632 37H163.003L163.037 35.9678L163.297 35.9609C163.447 35.7832 163.593 35.6009 163.734 35.4141C163.876 35.2227 164.006 34.9971 164.124 34.7373C164.243 34.473 164.34 34.1517 164.418 33.7734C164.5 33.3906 164.552 32.9235 164.575 32.3721L164.691 29.6035ZM165.006 29.6035H169.456V37H168.191V30.7725H165.006V29.6035ZM162.716 35.9609H170.406V39.1807H169.142V37H163.98V39.1807H162.709L162.716 35.9609ZM171.473 33.3838V33.2266C171.473 32.6934 171.55 32.1989 171.705 31.7432C171.86 31.2829 172.083 30.8841 172.375 30.5469C172.667 30.2051 173.02 29.9408 173.435 29.7539C173.849 29.5625 174.314 29.4668 174.829 29.4668C175.349 29.4668 175.816 29.5625 176.23 29.7539C176.65 29.9408 177.005 30.2051 177.297 30.5469C177.593 30.8841 177.819 31.2829 177.974 31.7432C178.129 32.1989 178.206 32.6934 178.206 33.2266V33.3838C178.206 33.917 178.129 34.4115 177.974 34.8672C177.819 35.3229 177.593 35.7217 177.297 36.0635C177.005 36.4007 176.652 36.665 176.237 36.8564C175.827 37.0433 175.362 37.1367 174.843 37.1367C174.323 37.1367 173.856 37.0433 173.441 36.8564C173.027 36.665 172.671 36.4007 172.375 36.0635C172.083 35.7217 171.86 35.3229 171.705 34.8672C171.55 34.4115 171.473 33.917 171.473 33.3838ZM172.737 33.2266V33.3838C172.737 33.7529 172.781 34.1016 172.867 34.4297C172.954 34.7533 173.084 35.0404 173.257 35.291C173.435 35.5417 173.656 35.7399 173.92 35.8857C174.184 36.027 174.492 36.0977 174.843 36.0977C175.189 36.0977 175.492 36.027 175.752 35.8857C176.016 35.7399 176.235 35.5417 176.408 35.291C176.581 35.0404 176.711 34.7533 176.798 34.4297C176.889 34.1016 176.935 33.7529 176.935 33.3838V33.2266C176.935 32.862 176.889 32.5179 176.798 32.1943C176.711 31.8662 176.579 31.5768 176.401 31.3262C176.228 31.071 176.009 30.8704 175.745 30.7246C175.485 30.5788 175.18 30.5059 174.829 30.5059C174.483 30.5059 174.177 30.5788 173.913 30.7246C173.653 30.8704 173.435 31.071 173.257 31.3262C173.084 31.5768 172.954 31.8662 172.867 32.1943C172.781 32.5179 172.737 32.862 172.737 33.2266ZM183.265 33.7461H180.838L180.824 32.7344H182.807C183.199 32.7344 183.524 32.6956 183.784 32.6182C184.049 32.5407 184.247 32.4245 184.379 32.2695C184.511 32.1146 184.577 31.9232 184.577 31.6953C184.577 31.5176 184.538 31.3626 184.461 31.2305C184.388 31.0938 184.276 30.9821 184.126 30.8955C183.976 30.8044 183.789 30.7383 183.565 30.6973C183.347 30.6517 183.089 30.6289 182.793 30.6289H181.173V37H179.908V29.6035H182.793C183.262 29.6035 183.684 29.6445 184.058 29.7266C184.436 29.8086 184.757 29.9339 185.021 30.1025C185.29 30.2666 185.495 30.4762 185.637 30.7314C185.778 30.9867 185.849 31.2874 185.849 31.6338C185.849 31.8571 185.803 32.069 185.712 32.2695C185.621 32.4701 185.486 32.6478 185.309 32.8027C185.131 32.9577 184.912 33.0853 184.652 33.1855C184.393 33.2812 184.094 33.3428 183.757 33.3701L183.265 33.7461ZM183.265 37H180.38L181.009 35.9746H183.265C183.616 35.9746 183.907 35.9313 184.14 35.8447C184.372 35.7536 184.545 35.626 184.659 35.4619C184.778 35.2933 184.837 35.0928 184.837 34.8604C184.837 34.6279 184.778 34.4297 184.659 34.2656C184.545 34.097 184.372 33.9694 184.14 33.8828C183.907 33.7917 183.616 33.7461 183.265 33.7461H181.344L181.357 32.7344H183.757L184.215 33.1172C184.62 33.1491 184.965 33.2493 185.247 33.418C185.53 33.5866 185.744 33.8008 185.89 34.0605C186.035 34.3158 186.108 34.5938 186.108 34.8945C186.108 35.2409 186.042 35.5462 185.91 35.8105C185.783 36.0749 185.596 36.2959 185.35 36.4736C185.104 36.6468 184.805 36.779 184.454 36.8701C184.103 36.9567 183.707 37 183.265 37ZM195.139 33.0967H192.479V32.0234H195.139C195.654 32.0234 196.071 31.9414 196.39 31.7773C196.709 31.6133 196.941 31.3854 197.087 31.0938C197.237 30.8021 197.312 30.4694 197.312 30.0957C197.312 29.7539 197.237 29.4326 197.087 29.1318C196.941 28.8311 196.709 28.5895 196.39 28.4072C196.071 28.2204 195.654 28.127 195.139 28.127H192.787V37H191.468V27.0469H195.139C195.891 27.0469 196.526 27.1768 197.046 27.4365C197.565 27.6963 197.96 28.0563 198.229 28.5166C198.497 28.9723 198.632 29.4941 198.632 30.082C198.632 30.7201 198.497 31.2646 198.229 31.7158C197.96 32.167 197.565 32.5111 197.046 32.748C196.526 32.9805 195.891 33.0967 195.139 33.0967ZM199.678 33.3838V33.2266C199.678 32.6934 199.755 32.1989 199.91 31.7432C200.065 31.2829 200.288 30.8841 200.58 30.5469C200.872 30.2051 201.225 29.9408 201.64 29.7539C202.054 29.5625 202.519 29.4668 203.034 29.4668C203.554 29.4668 204.021 29.5625 204.436 29.7539C204.855 29.9408 205.21 30.2051 205.502 30.5469C205.798 30.8841 206.024 31.2829 206.179 31.7432C206.334 32.1989 206.411 32.6934 206.411 33.2266V33.3838C206.411 33.917 206.334 34.4115 206.179 34.8672C206.024 35.3229 205.798 35.7217 205.502 36.0635C205.21 36.4007 204.857 36.665 204.442 36.8564C204.032 37.0433 203.567 37.1367 203.048 37.1367C202.528 37.1367 202.061 37.0433 201.646 36.8564C201.232 36.665 200.876 36.4007 200.58 36.0635C200.288 35.7217 200.065 35.3229 199.91 34.8672C199.755 34.4115 199.678 33.917 199.678 33.3838ZM200.942 33.2266V33.3838C200.942 33.7529 200.986 34.1016 201.072 34.4297C201.159 34.7533 201.289 35.0404 201.462 35.291C201.64 35.5417 201.861 35.7399 202.125 35.8857C202.389 36.027 202.697 36.0977 203.048 36.0977C203.394 36.0977 203.697 36.027 203.957 35.8857C204.221 35.7399 204.44 35.5417 204.613 35.291C204.786 35.0404 204.916 34.7533 205.003 34.4297C205.094 34.1016 205.14 33.7529 205.14 33.3838V33.2266C205.14 32.862 205.094 32.5179 205.003 32.1943C204.916 31.8662 204.784 31.5768 204.606 31.3262C204.433 31.071 204.215 30.8704 203.95 30.7246C203.69 30.5788 203.385 30.5059 203.034 30.5059C202.688 30.5059 202.382 30.5788 202.118 30.7246C201.858 30.8704 201.64 31.071 201.462 31.3262C201.289 31.5768 201.159 31.8662 201.072 32.1943C200.986 32.5179 200.942 32.862 200.942 33.2266ZM210.957 36.0977C211.258 36.0977 211.536 36.0361 211.791 35.9131C212.046 35.79 212.256 35.6214 212.42 35.4072C212.584 35.1885 212.677 34.9401 212.7 34.6621H213.903C213.881 35.0996 213.732 35.5075 213.459 35.8857C213.19 36.2594 212.837 36.5625 212.399 36.7949C211.962 37.0228 211.481 37.1367 210.957 37.1367C210.401 37.1367 209.916 37.0387 209.501 36.8428C209.091 36.6468 208.749 36.3779 208.476 36.0361C208.207 35.6943 208.004 35.3024 207.867 34.8604C207.735 34.4137 207.669 33.9421 207.669 33.4453V33.1582C207.669 32.6615 207.735 32.1921 207.867 31.75C208.004 31.3034 208.207 30.9092 208.476 30.5674C208.749 30.2256 209.091 29.9567 209.501 29.7607C209.916 29.5648 210.401 29.4668 210.957 29.4668C211.536 29.4668 212.042 29.5853 212.475 29.8223C212.908 30.0547 213.247 30.3737 213.493 30.7793C213.744 31.1803 213.881 31.6361 213.903 32.1465H212.7C212.677 31.8411 212.591 31.5654 212.44 31.3193C212.295 31.0732 212.094 30.8773 211.839 30.7314C211.588 30.5811 211.294 30.5059 210.957 30.5059C210.57 30.5059 210.244 30.5833 209.979 30.7383C209.72 30.8887 209.512 31.0938 209.357 31.3535C209.207 31.6087 209.098 31.8936 209.029 32.208C208.965 32.5179 208.934 32.8346 208.934 33.1582V33.4453C208.934 33.7689 208.965 34.0879 209.029 34.4023C209.093 34.7168 209.2 35.0016 209.351 35.2568C209.506 35.512 209.713 35.7171 209.973 35.8721C210.237 36.0225 210.565 36.0977 210.957 36.0977ZM218.285 36.0977C218.586 36.0977 218.864 36.0361 219.119 35.9131C219.374 35.79 219.584 35.6214 219.748 35.4072C219.912 35.1885 220.006 34.9401 220.028 34.6621H221.231C221.209 35.0996 221.061 35.5075 220.787 35.8857C220.518 36.2594 220.165 36.5625 219.728 36.7949C219.29 37.0228 218.809 37.1367 218.285 37.1367C217.729 37.1367 217.244 37.0387 216.829 36.8428C216.419 36.6468 216.077 36.3779 215.804 36.0361C215.535 35.6943 215.332 35.3024 215.195 34.8604C215.063 34.4137 214.997 33.9421 214.997 33.4453V33.1582C214.997 32.6615 215.063 32.1921 215.195 31.75C215.332 31.3034 215.535 30.9092 215.804 30.5674C216.077 30.2256 216.419 29.9567 216.829 29.7607C217.244 29.5648 217.729 29.4668 218.285 29.4668C218.864 29.4668 219.37 29.5853 219.803 29.8223C220.236 30.0547 220.575 30.3737 220.821 30.7793C221.072 31.1803 221.209 31.6361 221.231 32.1465H220.028C220.006 31.8411 219.919 31.5654 219.769 31.3193C219.623 31.0732 219.422 30.8773 219.167 30.7314C218.916 30.5811 218.622 30.5059 218.285 30.5059C217.898 30.5059 217.572 30.5833 217.308 30.7383C217.048 30.8887 216.84 31.0938 216.686 31.3535C216.535 31.6087 216.426 31.8936 216.357 32.208C216.294 32.5179 216.262 32.8346 216.262 33.1582V33.4453C216.262 33.7689 216.294 34.0879 216.357 34.4023C216.421 34.7168 216.528 35.0016 216.679 35.2568C216.834 35.512 217.041 35.7171 217.301 35.8721C217.565 36.0225 217.893 36.0977 218.285 36.0977ZM224.021 34.9971L227.432 29.6035H228.703V37H227.432V31.6064L224.021 37H222.763V29.6035H224.021V34.9971ZM232.101 34.9971L235.512 29.6035H236.783V37H235.512V31.6064L232.101 37H230.843V29.6035H232.101V34.9971Z" fill="black"/>
</svg>
