<svg width="2021" height="2406" xmlns="http://www.w3.org/2000/svg" xmlns:svg="http://www.w3.org/2000/svg" clip-rule="evenodd">
   <path fill="black" d="m169.191,883.398l4.685,-366.521c256.969,0 548.941,-96.553 754.516,-251.032l81.907,-63.797l79.203,61.784c186.279,139.931 388.226,213.23 622.27,242.324c40.706,5.081 94.147,10.721 134.952,10.721c0,443.117 41.826,883.364 -204.884,1251.832c-17.747,26.522 -36.782,56.441 -57.168,79.105l-98.664,103.414c-14.448,14.151 -19.859,20.749 -36.649,33.811c-49.448,38.365 -102.788,83.556 -158.701,113.807c-44.104,23.849 -242.655,130.893 -280.359,130.893c-18.044,0 -162.891,-67.425 -189.511,-80.719c-104.405,-52.055 -160.45,-92.3 -246.843,-162.001l-70.099,-66.173c-64.523,-70.494 -60.662,-55.879 -125.088,-152.137c-147.815,-220.783 -209.567,-519.515 -209.567,-885.311zm-169.191,-300.712l4.552,493.522c2.672,93.85 36.781,308.563 63.236,401.984c42.257,149.397 106.285,302.821 196.67,423.621l68.482,86.558c33.35,41.795 117.303,119.611 158.438,151.708c69.899,54.661 153.951,111.86 233.846,151.477c63.666,31.603 228.337,114.335 289.76,114.335c36.714,0 184.365,-66.305 224.015,-86.163l101.8,-53.241c76.695,-40.906 160.582,-102.129 227.281,-158.01c16.659,-13.953 22.86,-23.651 41.697,-38.198c24.938,-19.231 68.415,-74.353 92.462,-100.215c164.409,-176.746 276.334,-503.122 299.129,-748.745c24.41,-263.337 19.231,-375.131 19.231,-638.633c0,-36.054 -2.045,-164.44 -12.172,-185.222c-28.831,-59.081 -68.679,-47.206 -147.75,-49.58c-22.795,-0.692 -70.032,-5.575 -90.485,-8.214c-128.484,-16.592 -203.068,-26.851 -325.616,-73.793c-56.87,-21.772 -112.882,-48.787 -164.506,-79.862c-12.602,-7.553 -18.507,-12.337 -31.636,-20.057l-112.651,-84.677c-54.627,-46.182 -76.86,-81.281 -130.168,-81.281c-49.843,0 -103.119,70.396 -142.9,101.468c-99.655,77.851 -239.389,156.855 -359.858,189.909c-108.825,29.886 -222.632,50.141 -338.351,56.374c-79.169,4.255 -120.567,-11.248 -150.718,46.644c-16.691,31.999 -5.179,47.963 -9.764,88.9c-3.496,31.206 -4.024,61.589 -4.024,99.391z"  />
   <path fill="black" d="m892.832,1315.728c-17.186,-25.63 -78.51,-80.85 -104.57,-106.911c-34.373,-34.372 -73.66,-90.451 -130.398,-90.451c-54.265,0 -93.387,54.495 -78.971,106.845c12.007,43.71 153.192,171.765 192.942,211.516c102.557,102.557 123.239,118.752 216.132,25.828l239.653,-239.653c54.428,-54.396 105.361,-105.36 159.79,-159.756c26.091,-26.127 60.134,-50.965 57.596,-98.698c-2.409,-45.654 -67.79,-131.752 -156.294,-42.289l-169.16,169.191c-33.613,33.58 -205.608,210.227 -226.72,224.378z" />
</svg>