<svg width="92" height="16" viewBox="0 0 92 16" fill="none" xmlns="http://www.w3.org/2000/svg">
<path d="M10.1074 8.81836H7.88672V7.65234H10.1074C10.4941 7.65234 10.8066 7.58984 11.0449 7.46484C11.2832 7.33984 11.457 7.16797 11.5664 6.94922C11.6797 6.72656 11.7363 6.47266 11.7363 6.1875C11.7363 5.91797 11.6797 5.66602 11.5664 5.43164C11.457 5.19336 11.2832 5.00195 11.0449 4.85742C10.8066 4.71289 10.4941 4.64062 10.1074 4.64062H8.33789V12H6.86719V3.46875H10.1074C10.7676 3.46875 11.3281 3.58594 11.7891 3.82031C12.2539 4.05078 12.6074 4.37109 12.8496 4.78125C13.0918 5.1875 13.2129 5.65234 13.2129 6.17578C13.2129 6.72656 13.0918 7.19922 12.8496 7.59375C12.6074 7.98828 12.2539 8.29102 11.7891 8.50195C11.3281 8.71289 10.7676 8.81836 10.1074 8.81836ZM17.9425 10.7285V7.70508C17.9425 7.47852 17.9015 7.2832 17.8195 7.11914C17.7375 6.95508 17.6125 6.82812 17.4445 6.73828C17.2804 6.64844 17.0734 6.60352 16.8234 6.60352C16.5929 6.60352 16.3937 6.64258 16.2257 6.7207C16.0578 6.79883 15.9269 6.9043 15.8332 7.03711C15.7394 7.16992 15.6925 7.32031 15.6925 7.48828H14.2863C14.2863 7.23828 14.3468 6.99609 14.4679 6.76172C14.589 6.52734 14.7648 6.31836 14.9953 6.13477C15.2257 5.95117 15.5011 5.80664 15.8214 5.70117C16.1417 5.5957 16.5011 5.54297 16.8996 5.54297C17.3761 5.54297 17.798 5.62305 18.1652 5.7832C18.5363 5.94336 18.8273 6.18555 19.0382 6.50977C19.2531 6.83008 19.3605 7.23242 19.3605 7.7168V10.5352C19.3605 10.8242 19.38 11.084 19.4191 11.3145C19.4621 11.541 19.5226 11.7383 19.6007 11.9062V12H18.1535C18.0871 11.8477 18.0343 11.6543 17.9953 11.4199C17.9601 11.1816 17.9425 10.9512 17.9425 10.7285ZM18.1476 8.14453L18.1593 9.01758H17.1457C16.8839 9.01758 16.6535 9.04297 16.4542 9.09375C16.255 9.14062 16.089 9.21094 15.9562 9.30469C15.8234 9.39844 15.7238 9.51172 15.6574 9.64453C15.591 9.77734 15.5578 9.92773 15.5578 10.0957C15.5578 10.2637 15.5968 10.418 15.675 10.5586C15.7531 10.6953 15.8664 10.8027 16.0148 10.8809C16.1671 10.959 16.3507 10.998 16.5656 10.998C16.8546 10.998 17.1066 10.9395 17.3214 10.8223C17.5402 10.7012 17.7121 10.5547 17.8371 10.3828C17.9621 10.207 18.0285 10.041 18.0363 9.88477L18.4933 10.5117C18.4464 10.6719 18.3664 10.8438 18.2531 11.0273C18.1398 11.2109 17.9914 11.3867 17.8078 11.5547C17.6281 11.7188 17.4113 11.8535 17.1574 11.959C16.9074 12.0645 16.6183 12.1172 16.2902 12.1172C15.8761 12.1172 15.507 12.0352 15.1828 11.8711C14.8585 11.7031 14.6046 11.4785 14.421 11.1973C14.2375 10.9121 14.1457 10.5898 14.1457 10.2305C14.1457 9.89453 14.2082 9.59766 14.3332 9.33984C14.4621 9.07812 14.6496 8.85938 14.8957 8.68359C15.1457 8.50781 15.4503 8.375 15.8097 8.28516C16.1691 8.19141 16.5792 8.14453 17.0402 8.14453H18.1476ZM23.4749 10.9922C23.7054 10.9922 23.9124 10.9473 24.096 10.8574C24.2835 10.7637 24.4339 10.6348 24.5472 10.4707C24.6644 10.3066 24.7288 10.1172 24.7405 9.90234H26.0706C26.0628 10.3125 25.9417 10.6855 25.7073 11.0215C25.473 11.3574 25.1624 11.625 24.7757 11.8242C24.389 12.0195 23.9612 12.1172 23.4925 12.1172C23.0081 12.1172 22.5862 12.0352 22.2269 11.8711C21.8675 11.7031 21.5687 11.4727 21.3304 11.1797C21.0921 10.8867 20.9124 10.5488 20.7913 10.166C20.6741 9.7832 20.6155 9.37305 20.6155 8.93555V8.73047C20.6155 8.29297 20.6741 7.88281 20.7913 7.5C20.9124 7.11328 21.0921 6.77344 21.3304 6.48047C21.5687 6.1875 21.8675 5.95898 22.2269 5.79492C22.5862 5.62695 23.0062 5.54297 23.4866 5.54297C23.9944 5.54297 24.4397 5.64453 24.8226 5.84766C25.2054 6.04688 25.5062 6.32617 25.7249 6.68555C25.9476 7.04102 26.0628 7.45508 26.0706 7.92773H24.7405C24.7288 7.69336 24.6702 7.48242 24.5647 7.29492C24.4632 7.10352 24.3187 6.95117 24.1312 6.83789C23.9476 6.72461 23.7269 6.66797 23.469 6.66797C23.1839 6.66797 22.9476 6.72656 22.7601 6.84375C22.5726 6.95703 22.4261 7.11328 22.3206 7.3125C22.2151 7.50781 22.139 7.72852 22.0921 7.97461C22.0491 8.2168 22.0276 8.46875 22.0276 8.73047V8.93555C22.0276 9.19727 22.0491 9.45117 22.0921 9.69727C22.1351 9.94336 22.2093 10.1641 22.3147 10.3594C22.4241 10.5508 22.5726 10.7051 22.7601 10.8223C22.9476 10.9355 23.1858 10.9922 23.4749 10.9922ZM29.7924 10.9922C30.0229 10.9922 30.2299 10.9473 30.4135 10.8574C30.601 10.7637 30.7514 10.6348 30.8647 10.4707C30.9819 10.3066 31.0463 10.1172 31.0581 9.90234H32.3881C32.3803 10.3125 32.2592 10.6855 32.0249 11.0215C31.7905 11.3574 31.4799 11.625 31.0932 11.8242C30.7065 12.0195 30.2788 12.1172 29.81 12.1172C29.3256 12.1172 28.9038 12.0352 28.5444 11.8711C28.185 11.7031 27.8862 11.4727 27.6479 11.1797C27.4096 10.8867 27.2299 10.5488 27.1088 10.166C26.9917 9.7832 26.9331 9.37305 26.9331 8.93555V8.73047C26.9331 8.29297 26.9917 7.88281 27.1088 7.5C27.2299 7.11328 27.4096 6.77344 27.6479 6.48047C27.8862 6.1875 28.185 5.95898 28.5444 5.79492C28.9038 5.62695 29.3237 5.54297 29.8042 5.54297C30.312 5.54297 30.7573 5.64453 31.1401 5.84766C31.5229 6.04688 31.8237 6.32617 32.0424 6.68555C32.2651 7.04102 32.3803 7.45508 32.3881 7.92773H31.0581C31.0463 7.69336 30.9877 7.48242 30.8823 7.29492C30.7807 7.10352 30.6362 6.95117 30.4487 6.83789C30.2651 6.72461 30.0444 6.66797 29.7866 6.66797C29.5014 6.66797 29.2651 6.72656 29.0776 6.84375C28.8901 6.95703 28.7436 7.11328 28.6381 7.3125C28.5327 7.50781 28.4565 7.72852 28.4096 7.97461C28.3667 8.2168 28.3452 8.46875 28.3452 8.73047V8.93555C28.3452 9.19727 28.3667 9.45117 28.4096 9.69727C28.4526 9.94336 28.5268 10.1641 28.6323 10.3594C28.7417 10.5508 28.8901 10.7051 29.0776 10.8223C29.2651 10.9355 29.5034 10.9922 29.7924 10.9922ZM34.9381 6.87891V14.4375H33.526V5.66016H34.8268L34.9381 6.87891ZM39.069 8.77148V8.89453C39.069 9.35547 39.0143 9.7832 38.9049 10.1777C38.7994 10.5684 38.6412 10.9102 38.4303 11.2031C38.2232 11.4922 37.9674 11.7168 37.6627 11.877C37.358 12.0371 37.0065 12.1172 36.608 12.1172C36.2135 12.1172 35.8678 12.0449 35.5709 11.9004C35.2779 11.752 35.0299 11.543 34.8268 11.2734C34.6236 11.0039 34.4596 10.6875 34.3346 10.3242C34.2135 9.95703 34.1275 9.55469 34.0768 9.11719V8.64258C34.1275 8.17773 34.2135 7.75586 34.3346 7.37695C34.4596 6.99805 34.6236 6.67188 34.8268 6.39844C35.0299 6.125 35.2779 5.91406 35.5709 5.76562C35.8639 5.61719 36.2057 5.54297 36.5963 5.54297C36.9947 5.54297 37.3482 5.62109 37.6568 5.77734C37.9654 5.92969 38.2252 6.14844 38.4361 6.43359C38.6471 6.71484 38.8053 7.05469 38.9107 7.45312C39.0162 7.84766 39.069 8.28711 39.069 8.77148ZM37.6568 8.89453V8.77148C37.6568 8.47852 37.6295 8.20703 37.5748 7.95703C37.5201 7.70312 37.4342 7.48047 37.317 7.28906C37.1998 7.09766 37.0494 6.94922 36.8658 6.84375C36.6861 6.73438 36.4693 6.67969 36.2154 6.67969C35.9654 6.67969 35.7506 6.72266 35.5709 6.80859C35.3912 6.89062 35.2408 7.00586 35.1197 7.1543C34.9986 7.30273 34.9049 7.47656 34.8385 7.67578C34.7721 7.87109 34.7252 8.08398 34.6979 8.31445V9.45117C34.7447 9.73242 34.8248 9.99023 34.9381 10.2246C35.0514 10.459 35.2115 10.6465 35.4186 10.7871C35.6295 10.9238 35.899 10.9922 36.2272 10.9922C36.4811 10.9922 36.6979 10.9375 36.8775 10.8281C37.0572 10.7188 37.2037 10.5684 37.317 10.377C37.4342 10.1816 37.5201 9.95703 37.5748 9.70312C37.6295 9.44922 37.6568 9.17969 37.6568 8.89453ZM40.0486 8.90039V8.76562C40.0486 8.30859 40.115 7.88477 40.2478 7.49414C40.3806 7.09961 40.572 6.75781 40.822 6.46875C41.0759 6.17578 41.3845 5.94922 41.7478 5.78906C42.115 5.625 42.5291 5.54297 42.99 5.54297C43.4548 5.54297 43.8689 5.625 44.2322 5.78906C44.5994 5.94922 44.9099 6.17578 45.1638 6.46875C45.4177 6.75781 45.6111 7.09961 45.7439 7.49414C45.8767 7.88477 45.9431 8.30859 45.9431 8.76562V8.90039C45.9431 9.35742 45.8767 9.78125 45.7439 10.1719C45.6111 10.5625 45.4177 10.9043 45.1638 11.1973C44.9099 11.4863 44.6013 11.7129 44.238 11.877C43.8748 12.0371 43.4627 12.1172 43.0017 12.1172C42.5369 12.1172 42.1209 12.0371 41.7537 11.877C41.3904 11.7129 41.0818 11.4863 40.8279 11.1973C40.574 10.9043 40.3806 10.5625 40.2478 10.1719C40.115 9.78125 40.0486 9.35742 40.0486 8.90039ZM41.4607 8.76562V8.90039C41.4607 9.18555 41.49 9.45508 41.5486 9.70898C41.6072 9.96289 41.699 10.1855 41.824 10.377C41.949 10.5684 42.1091 10.7188 42.3045 10.8281C42.4998 10.9375 42.7322 10.9922 43.0017 10.9922C43.2634 10.9922 43.49 10.9375 43.6814 10.8281C43.8767 10.7188 44.0369 10.5684 44.1619 10.377C44.2869 10.1855 44.3787 9.96289 44.4373 9.70898C44.4998 9.45508 44.531 9.18555 44.531 8.90039V8.76562C44.531 8.48438 44.4998 8.21875 44.4373 7.96875C44.3787 7.71484 44.2849 7.49023 44.156 7.29492C44.031 7.09961 43.8709 6.94727 43.6755 6.83789C43.4841 6.72461 43.2556 6.66797 42.99 6.66797C42.7244 6.66797 42.4939 6.72461 42.2986 6.83789C42.1072 6.94727 41.949 7.09961 41.824 7.29492C41.699 7.49023 41.6072 7.71484 41.5486 7.96875C41.49 8.21875 41.4607 8.48438 41.4607 8.76562ZM52.2665 5.66016V12H50.8544V5.66016H52.2665ZM51.6689 8.4668V9.58594C51.497 9.66016 51.3036 9.72852 51.0888 9.79102C50.8778 9.84961 50.6552 9.89844 50.4208 9.9375C50.1864 9.97266 49.9501 9.99023 49.7118 9.99023C49.1532 9.99023 48.6708 9.9043 48.2646 9.73242C47.8622 9.56055 47.5517 9.29688 47.3329 8.94141C47.1181 8.58203 47.0107 8.12695 47.0107 7.57617V5.6543H48.4169V7.57617C48.4169 7.89258 48.4638 8.14453 48.5575 8.33203C48.6552 8.51953 48.7997 8.6543 48.9911 8.73633C49.1825 8.81836 49.4228 8.85938 49.7118 8.85938C49.954 8.85938 50.1825 8.84375 50.3974 8.8125C50.6122 8.77734 50.8251 8.73047 51.036 8.67188C51.247 8.61328 51.4579 8.54492 51.6689 8.4668ZM55.3438 5.66016V12H53.9317V5.66016H55.3438ZM59.4805 5.66016L56.627 9.47461H55.0157L54.8282 8.19727H56.0059L57.7169 5.66016H59.4805ZM57.8282 12L55.918 9.23438L57.0313 8.43164L59.6856 12H57.8282ZM64.0754 10.7285V7.70508C64.0754 7.47852 64.0344 7.2832 63.9524 7.11914C63.8703 6.95508 63.7453 6.82812 63.5774 6.73828C63.4133 6.64844 63.2063 6.60352 62.9563 6.60352C62.7258 6.60352 62.5266 6.64258 62.3586 6.7207C62.1906 6.79883 62.0598 6.9043 61.966 7.03711C61.8723 7.16992 61.8254 7.32031 61.8254 7.48828H60.4192C60.4192 7.23828 60.4797 6.99609 60.6008 6.76172C60.7219 6.52734 60.8977 6.31836 61.1281 6.13477C61.3586 5.95117 61.634 5.80664 61.9543 5.70117C62.2746 5.5957 62.634 5.54297 63.0324 5.54297C63.509 5.54297 63.9309 5.62305 64.2981 5.7832C64.6692 5.94336 64.9602 6.18555 65.1711 6.50977C65.386 6.83008 65.4934 7.23242 65.4934 7.7168V10.5352C65.4934 10.8242 65.5129 11.084 65.552 11.3145C65.5949 11.541 65.6555 11.7383 65.7336 11.9062V12H64.2863C64.2199 11.8477 64.1672 11.6543 64.1281 11.4199C64.093 11.1816 64.0754 10.9512 64.0754 10.7285ZM64.2805 8.14453L64.2922 9.01758H63.2785C63.0168 9.01758 62.7863 9.04297 62.5871 9.09375C62.3879 9.14062 62.2219 9.21094 62.0891 9.30469C61.9563 9.39844 61.8567 9.51172 61.7902 9.64453C61.7238 9.77734 61.6906 9.92773 61.6906 10.0957C61.6906 10.2637 61.7297 10.418 61.8078 10.5586C61.886 10.6953 61.9992 10.8027 62.1477 10.8809C62.3 10.959 62.4836 10.998 62.6985 10.998C62.9875 10.998 63.2395 10.9395 63.4543 10.8223C63.6731 10.7012 63.8449 10.5547 63.9699 10.3828C64.0949 10.207 64.1613 10.041 64.1692 9.88477L64.6262 10.5117C64.5793 10.6719 64.4992 10.8438 64.386 11.0273C64.2727 11.2109 64.1242 11.3867 63.9406 11.5547C63.761 11.7188 63.5442 11.8535 63.2902 11.959C63.0402 12.0645 62.7512 12.1172 62.4231 12.1172C62.009 12.1172 61.6399 12.0352 61.3156 11.8711C60.9914 11.7031 60.7375 11.4785 60.5539 11.1973C60.3703 10.9121 60.2785 10.5898 60.2785 10.2305C60.2785 9.89453 60.341 9.59766 60.466 9.33984C60.5949 9.07812 60.7824 8.85938 61.0285 8.68359C61.2785 8.50781 61.5832 8.375 61.9426 8.28516C62.302 8.19141 62.7121 8.14453 63.1731 8.14453H64.2805ZM75.5327 7.01953V8.41406C75.5327 9.08203 75.4663 9.65234 75.3335 10.125C75.2046 10.5938 75.0171 10.9746 74.771 11.2676C74.5249 11.5605 74.23 11.7754 73.8862 11.9121C73.5464 12.0488 73.1655 12.1172 72.7437 12.1172C72.4077 12.1172 72.0952 12.0742 71.8062 11.9883C71.521 11.9023 71.2632 11.7676 71.0327 11.584C70.8023 11.4004 70.605 11.1641 70.4409 10.875C70.2808 10.582 70.1558 10.2324 70.0659 9.82617C69.98 9.41992 69.937 8.94922 69.937 8.41406V7.01953C69.937 6.34766 70.0034 5.78125 70.1362 5.32031C70.2691 4.85547 70.4585 4.47852 70.7046 4.18945C70.9507 3.89648 71.2437 3.68359 71.5835 3.55078C71.9273 3.41797 72.3101 3.35156 72.732 3.35156C73.0718 3.35156 73.3843 3.39453 73.6695 3.48047C73.9585 3.5625 74.2163 3.69336 74.4429 3.87305C74.6734 4.05273 74.8687 4.28711 75.0288 4.57617C75.1929 4.86133 75.3179 5.20703 75.4038 5.61328C75.4898 6.01562 75.5327 6.48438 75.5327 7.01953ZM74.1206 8.61328V6.80859C74.1206 6.46875 74.1011 6.16992 74.062 5.91211C74.023 5.65039 73.9644 5.42969 73.8862 5.25C73.812 5.06641 73.7183 4.91797 73.605 4.80469C73.4917 4.6875 73.3628 4.60352 73.2183 4.55273C73.0737 4.49805 72.9116 4.4707 72.732 4.4707C72.5132 4.4707 72.3179 4.51367 72.146 4.59961C71.9741 4.68164 71.8296 4.81445 71.7124 4.99805C71.5952 5.18164 71.5054 5.42383 71.4429 5.72461C71.3843 6.02148 71.355 6.38281 71.355 6.80859V8.61328C71.355 8.95703 71.3745 9.25977 71.4136 9.52148C71.4527 9.7832 71.5112 10.0078 71.5894 10.1953C71.6675 10.3789 71.7612 10.5312 71.8706 10.6523C71.9839 10.7695 72.1128 10.8555 72.2573 10.9102C72.4058 10.9648 72.5679 10.9922 72.7437 10.9922C72.9663 10.9922 73.1636 10.9492 73.3355 10.8633C73.5073 10.7773 73.6519 10.6406 73.7691 10.4531C73.8862 10.2617 73.9741 10.0137 74.0327 9.70898C74.0913 9.4043 74.1206 9.03906 74.1206 8.61328ZM76.7819 5.56055V5.10938C76.7819 4.78516 76.8522 4.49023 76.9928 4.22461C77.1335 3.95898 77.3385 3.74609 77.6081 3.58594C77.8776 3.42578 78.2018 3.3457 78.5807 3.3457C78.9714 3.3457 79.2995 3.42578 79.5651 3.58594C79.8346 3.74609 80.0397 3.95898 80.1803 4.22461C80.321 4.49023 80.3913 4.78516 80.3913 5.10938V5.56055C80.3913 5.87695 80.321 6.16797 80.1803 6.43359C80.0436 6.69922 79.8405 6.91211 79.571 7.07227C79.3053 7.23242 78.9792 7.3125 78.5925 7.3125C78.2096 7.3125 77.8815 7.23242 77.6081 7.07227C77.3385 6.91211 77.1335 6.69922 76.9928 6.43359C76.8522 6.16797 76.7819 5.87695 76.7819 5.56055ZM77.7604 5.10938V5.56055C77.7604 5.7168 77.7897 5.86523 77.8483 6.00586C77.9108 6.14648 78.0046 6.25977 78.1296 6.3457C78.2546 6.43164 78.4089 6.47461 78.5925 6.47461C78.78 6.47461 78.9323 6.43164 79.0495 6.3457C79.1706 6.25977 79.2604 6.14648 79.319 6.00586C79.3776 5.86523 79.4069 5.7168 79.4069 5.56055V5.10938C79.4069 4.94922 79.3757 4.79883 79.3132 4.6582C79.2546 4.51367 79.1647 4.39844 79.0436 4.3125C78.9225 4.22656 78.7682 4.18359 78.5807 4.18359C78.401 4.18359 78.2487 4.22656 78.1237 4.3125C78.0026 4.39844 77.9108 4.51367 77.8483 4.6582C77.7897 4.79883 77.7604 4.94922 77.7604 5.10938ZM80.8952 10.3652V9.9082C80.8952 9.58789 80.9655 9.29492 81.1061 9.0293C81.2507 8.76367 81.4577 8.55078 81.7272 8.39062C81.9967 8.23047 82.321 8.15039 82.6999 8.15039C83.0905 8.15039 83.4186 8.23047 83.6842 8.39062C83.9538 8.55078 84.1569 8.76367 84.2936 9.0293C84.4342 9.29492 84.5046 9.58789 84.5046 9.9082V10.3652C84.5046 10.6855 84.4342 10.9785 84.2936 11.2441C84.1569 11.5098 83.9557 11.7227 83.6901 11.8828C83.4245 12.043 83.1003 12.123 82.7175 12.123C82.3307 12.123 82.0007 12.043 81.7272 11.8828C81.4577 11.7227 81.2507 11.5098 81.1061 11.2441C80.9655 10.9785 80.8952 10.6855 80.8952 10.3652ZM81.8796 9.9082V10.3652C81.8796 10.5215 81.9108 10.6699 81.9733 10.8105C82.0397 10.9512 82.1354 11.0664 82.2604 11.1562C82.3854 11.2422 82.5358 11.2852 82.7116 11.2852C82.9108 11.2852 83.071 11.2422 83.1921 11.1562C83.3132 11.0664 83.3991 10.9531 83.4499 10.8164C83.5046 10.6758 83.5319 10.5254 83.5319 10.3652V9.9082C83.5319 9.74805 83.5007 9.59766 83.4382 9.45703C83.3796 9.31641 83.2878 9.20312 83.1628 9.11719C83.0417 9.03125 82.8874 8.98828 82.6999 8.98828C82.5163 8.98828 82.3639 9.03125 82.2428 9.11719C82.1217 9.20312 82.03 9.31641 81.9675 9.45703C81.9089 9.59766 81.8796 9.74805 81.8796 9.9082ZM83.0514 4.6875L78.8854 11.3555L78.1647 10.9395L82.3307 4.27148L83.0514 4.6875Z" fill="#3193E0"/>
<rect x="0.25" y="0.25" width="91.5" height="15.5" rx="3.75" stroke="#3193E0" stroke-width="0.5"/>
</svg>