<svg width="64" height="64" viewBox="0 0 64 64" fill="none" xmlns="http://www.w3.org/2000/svg">
<path d="M30.6311 0.974471C31.1233 -0.324823 32.8764 -0.324824 33.3686 0.97447L40.9244 20.9217C41.1345 21.4766 41.6308 21.8547 42.1988 21.893L62.6189 23.2668C63.949 23.3563 64.4908 25.1053 63.4649 25.9978L47.7145 39.6996C47.2763 40.0808 47.0868 40.6927 47.2277 41.2712L52.2922 62.0675C52.6221 63.4221 51.2038 64.503 50.0776 63.7553L32.7875 52.2763C32.3065 51.957 31.6932 51.957 31.2122 52.2763L13.9222 63.7553C12.7959 64.503 11.3776 63.4221 11.7075 62.0675L16.7721 41.2712C16.913 40.6927 16.7234 40.0808 16.2853 39.6996L0.53485 25.9978C-0.49108 25.1053 0.0506787 23.3563 1.38078 23.2668L21.8009 21.893C22.369 21.8547 22.8652 21.4766 23.0754 20.9217L30.6311 0.974471Z" fill="#FFC850"/>
<path d="M62.619 23.2667L42.1989 21.8929L42.1872 21.8921C41.6248 21.8547 41.1795 21.8251 37.5228 12.0381C15.9995 26.667 18.6677 58.667 19.1121 60.3179C21.9182 58.3714 31.2122 52.2763 31.2122 52.2763C31.6932 51.9569 32.3066 51.9569 32.7876 52.2763L50.0776 63.7552C51.2038 64.5029 52.6222 63.422 52.2923 62.0674L47.2277 41.2711C47.0868 40.6926 47.2763 40.0807 47.7145 39.6995L63.4649 25.9977C64.4908 25.1052 63.9491 23.3562 62.619 23.2667Z" fill="#FFDC64"/>
</svg>
