<svg width="64" height="64" viewBox="0 0 64 64" fill="none" xmlns="http://www.w3.org/2000/svg">
<path fill-rule="evenodd" clip-rule="evenodd" d="M33.3686 0.97447C32.8764 -0.324824 31.1233 -0.324823 30.6311 0.974471L23.0754 20.9217C22.8652 21.4766 22.369 21.8547 21.8009 21.893L1.38078 23.2668C0.0506787 23.3563 -0.49108 25.1053 0.53485 25.9978L16.2853 39.6996C16.7234 40.0808 16.913 40.6927 16.7721 41.2712L11.7075 62.0675C11.3776 63.4221 12.7959 64.503 13.9222 63.7553L19.1107 60.3106C19.1113 60.3131 19.112 60.3155 19.1126 60.3179C19.2156 60.2465 19.3272 60.1695 19.4469 60.0874L31.1795 52.2981C31.2014 52.2837 31.2127 52.2763 31.2127 52.2763C31.3855 52.1615 31.5754 52.088 31.77 52.0557C32.1171 51.9983 32.4795 52.0718 32.7875 52.2763L50.0776 63.7553C50.3943 63.9656 50.7342 64.0312 51.0517 63.9868C51.0852 63.9821 51.1185 63.9762 51.1514 63.9692C51.917 63.8047 52.5201 63.001 52.2928 62.0674L47.2282 41.2711C47.0873 40.6926 47.2768 40.0807 47.715 39.6995L63.4654 25.9977C64.4913 25.1052 63.9496 23.3562 62.6195 23.2667L42.1993 21.8929L42.1876 21.8921C42.1857 21.892 42.1837 21.8918 42.1818 21.8917C42.1139 21.8863 42.0471 21.8761 41.9816 21.8612C41.6017 21.744 41.0995 21.1257 39.5543 17.3046L33.3686 0.97447Z" fill="#DADADA"/>
</svg>
