<svg width="779" height="1365" xmlns="http://www.w3.org/2000/svg" xmlns:svg="http://www.w3.org/2000/svg" clip-rule="evenodd">
  <path d="m296.85087,1306.284c-37.673,0 -69.666,-8.853 -96.742,-20.547c-166.275,-71.793 -197.255,-313.582 -24.385,-417.816c11.146,-6.727 20.514,-10.813 30.498,-17.507l0,-658.475c0,-43.238 -4.585,-67.589 15.15,-94.133c37.025,-49.784 104.615,-53.023 145.494,-2.542c20.698,25.563 17.974,50.314 17.974,94.017l0,663.807c33.636,7.84 90.861,59.732 111.874,96.061c26.794,46.311 41.095,99.217 29.102,167.554c-9.385,53.504 -42.175,101.211 -76.343,131.593c-33.139,29.434 -91.128,57.988 -152.622,57.988zm-6.894,-1306.284l10.715,0c58.57,2.027 116.21,36.81 137.854,106.26c14.135,45.381 7.624,169.647 7.624,232.304c0,159.963 0,319.91 0,479.874c9.784,5.165 21.562,12.69 30.93,19.717l39.185,38.122c89.766,106.144 99.45,254.363 19.418,364.925c-5.498,7.608 -9.302,12.542 -15.564,19.103c-21.296,22.325 -23.987,29.135 -55.315,51.311c-45.448,32.159 -99.582,50.315 -154.482,53.321l-32.64,0c-38.437,-2.109 -76.493,-11.76 -111.46,-29.318c-64.317,-32.291 -105.446,-75.397 -137.737,-139.515c-45.697,-90.73 -34.501,-200.495 19.916,-287.553c16.645,-26.627 70.464,-83.17 96.493,-90.113c0,-159.964 0,-319.911 0,-479.874c0,-51.56 -4.717,-193.269 7.01,-232.935c20.017,-67.773 78.404,-103.636 138.053,-105.629z" stroke="black" stroke-width="0.249" stroke-miterlimit="22.9256" fill="black"/>
  <path d="m256.86887,885.081c-5.166,2.475 -7.94,2.458 -14.037,4.617c-5.033,1.778 -8.039,3.024 -13.637,5.017c-11.396,4.036 -17.392,7.208 -27.442,12.558c-18.422,9.784 -30.115,21.844 -44.201,35.78c-12.79,12.624 -24.933,29.318 -32.474,47.491c-22.392,53.985 -26.744,106.957 0.199,162.089c4.369,8.936 10.498,18.837 16.146,26.511c13.836,18.804 15.481,21.429 31.959,34.684c176.508,142.007 409.526,-79.816 266.339,-263.682c-37.025,-47.558 -78.104,-51.893 -105.545,-65.065l0,-133.303c0.083,-44.966 13.156,-37.325 -69.318,-37.325c-12.325,0 -8.04,21.278 -7.989,34.667l0,135.961z" fill="black"/>
  <path d="m552.77487,733.123c0,6.146 1.861,7.99 8.007,7.99l218.601,0l0,-61.311l-226.608,0l0,53.321z" fill="black"/>
  <polygon  points="552.7748489379883,485.1889953613281 779.3828811645508,485.1889953613281 779.3828811645508,426.5360107421875 552.7748489379883,426.5360107421875 " fill="black"/>
  <polygon  points="552.7748489379883,231.93899536132812 779.3828811645508,231.93899536132812 779.3828811645508,173.28599548339844 552.7748489379883,173.28599548339844" fill="black"/>
  <path d="m552.77487,306.571l0,53.322l133.304,0l0,-61.311l-125.297,0c-6.146,0 -8.007,1.86 -8.007,7.989z" fill="black"/>
  <polygon points="552.7748489379883,613.1589965820312 686.0788650512695,613.1589965820312 686.0788650512695,554.5059814453125 552.7748489379883,554.5059814453125 " fill="black"/>
  <rect height="749.03704" width="126.41975" y="123.59259" x="234.6358" fill="#ffffff"/>
</svg>