<?xml version="1.0" encoding="utf-8"?>
<svg xmlns="http://www.w3.org/2000/svg" xml:space="preserve" width="15.2644mm" height="27.9638mm" version="1.1" style="shape-rendering:geometricPrecision; text-rendering:geometricPrecision; image-rendering:optimizeQuality; fill-rule:evenodd; clip-rule:evenodd" viewBox="0 0 772.14 1414.53">
  <polygon stroke="#5B5B5B" stroke-width="15.2" stroke-miterlimit="22.9" fill="#FEFEFE" points="7.59,7.59 764.55,7.59 764.55,1406.94 7.59,1406.94 "/>
  <polygon stroke="#5B5B5B" stroke-width="15.2" stroke-miterlimit="22.9" fill="#FEFEFE" points="73.15,1406.94 698.99,1406.94 698.99,70.67 73.15,70.67 "/>
  <polygon stroke="#5B5B5B" stroke-width="15.2" stroke-miterlimit="22.9" fill="#FEFEFE" points="229.82,214.36 547.36,214.36 547.36,1242.46 229.82,1242.46 "/>
  <path stroke="#5B5B5B" stroke-width="15.2" stroke-miterlimit="22.9" fill="#FEFEFE" d="M338.35 214.58c38.27,-0.02 76.69,-0.44 114.94,-0.08 4.05,0.04 2.88,3.87 2.71,7.55 -1.23,26.27 0.95,53.26 4.86,79.23 4.68,31.03 9.77,73.1 0.52,103.24 -7.01,22.83 -21.48,48.89 -31.62,71.02 -6,13.1 -12.32,27.74 -15.48,41.85 -5.43,25.05 -10.85,38.65 -4.59,70.92 6.26,32.28 22.11,83.66 27.95,99.8 15.61,44.12 26.41,89.25 28.33,136.28 0.86,21.08 -4.98,35.71 -12.42,55.01 -7.82,20.29 -16.38,34.62 -26.27,53.51 -8.04,15.38 -13.31,28.36 -16.55,45.58 -4.74,28.76 -5.28,49.83 1.05,78.68 7.93,35.25 15.85,60.73 22.95,83.24 7.09,22.5 15.85,56.48 16.68,73.04 0.83,16.57 2.09,28.88 2.09,28.88 -36.02,-0.01 -72.16,-0.46 -108.17,0.02 -19.23,0.25 -12.41,1.49 -11.28,-17.41 1.42,-23.77 -6.39,-52.84 -11.22,-76.38 -4.12,-20.08 -8.56,-29.43 -6.63,-51.12 0.68,-7.65 2.1,-14.65 4.22,-22.01 10.43,-33.55 27.95,-68.37 27.95,-68.37l19.61 -43.74c0,0 10.85,-22.51 10.85,-36.53 0,-14.01 -2.08,-33.13 -9.18,-51.81 -7.09,-18.69 -19.61,-59.88 -19.61,-59.88l-15.85 -49.69 -10.01 -36.95c0,0 -8.4,-31 -8.4,-50.11 0,-19.12 1.3,-39.07 4.64,-49.69 3.34,-10.62 15.44,-36.1 15.44,-36.1l19.61 -37.37 16.69 -36.95c0,0 8.34,-14.44 8.34,-32.28 0,-17.84 0.01,-32.27 -1.67,-41.2 -1.67,-8.92 -12.51,-50.54 -12.51,-50.54l-15.43 -56.91c0,0 -4.17,-18.69 -7.51,-40.35 -3.33,-21.66 -4.59,-44.59 -4.59,-44.59l-0.42 -37.8z"/>
  <ellipse fill="#FEFEFE" cx="386.07" cy="1154.38" rx="3.61" ry="4.95"/>
  <ellipse fill="#FEFEFE" cx="394.77" cy="748.97" rx="3.61" ry="4.95"/>
  <ellipse fill="#FEFEFE" cx="401.99" cy="307.56" rx="3.61" ry="4.95"/>
</svg>
