<?xml version="1.0" encoding="UTF-8"?>
<svg xmlns="http://www.w3.org/2000/svg" xml:space="preserve" width="613px" height="782px" version="1.1" style="shape-rendering:geometricPrecision; text-rendering:geometricPrecision; image-rendering:optimizeQuality; fill-rule:evenodd; clip-rule:evenodd" viewBox="0 0 2588.63 3303.61">
  <path fill="black" d="M1287.88 2381.88l12.87 0c0,57.11 51.51,205.8 51.51,263.96l-115.89 0c0,-57.1 51.51,-205.79 51.51,-263.96zm-90.14 -257.52c0,-126.2 193.15,-126.2 193.15,0 0,13.3 -5.62,30 -10.7,40.8 -12.23,26 -67.73,69.37 -85.87,81.52 -13.81,-9.24 -14.72,-12.79 -27.73,-23.78 -22.17,-18.74 -40.79,-24.74 -56,-53.45 -5.31,-10.01 -12.85,-29.63 -12.85,-45.09zm-206.02 -38.63c0,82.24 -1.91,142.11 56.89,219.95 47.73,63.18 42.44,9.41 -2.64,214.14 -9.97,45.25 -34.93,143.41 -34.93,183.97 0,82.43 95.87,148.08 180.27,148.08l206.02 0c84.39,0 180.26,-65.65 180.26,-148.08 0,-66.44 -70.82,-310.38 -70.82,-354.1 0,-15.87 90.14,-92.06 90.14,-186.71 0,-100.94 -2.57,-168.77 -87.51,-253.71 -88.05,-88.05 -238.78,-118.91 -352.46,-57.5 -83.7,45.22 -165.22,146.74 -165.22,233.96z"/>
   <path fill="black" fill-rule="nonzero" d="M2275.64 1519.39l-1962.65 0 0 -192.67 1962.65 0 0 0 0 192.67zm312.99 120.32l-192.67 0 0 0 -0.16 -6.2 -0.47 -6.08 -0.76 -5.96 -1.06 -5.86 -1.34 -5.75 -1.61 -5.65 -1.88 -5.54 -2.15 -5.42 -2.41 -5.31 -2.67 -5.18 -2.91 -5.06 -3.15 -4.9 -3.39 -4.75 -3.61 -4.59 -3.83 -4.41 -4.03 -4.23 -4.23 -4.03 -4.41 -3.83 -4.59 -3.61 -4.75 -3.39 -4.91 -3.15 -5.05 -2.91 -5.18 -2.67 -5.31 -2.41 -5.42 -2.15 -5.54 -1.88 -5.65 -1.62 -5.76 -1.33 -5.85 -1.06 -5.97 -0.76 -6.07 -0.47 -6.2 -0.16 0 -192.67 16 0.41 15.86 1.21 15.65 2.01 15.43 2.77 15.17 3.52 14.87 4.25 14.57 4.95 14.23 5.64 13.87 6.3 13.49 6.93 13.1 7.55 12.68 8.15 12.25 8.73 11.79 9.28 11.33 9.82 10.84 10.34 10.34 10.84 9.82 11.33 9.28 11.79 8.72 12.25 8.15 12.68 7.55 13.09 6.94 13.5 6.3 13.87 5.63 14.23 4.96 14.56 4.25 14.88 3.52 15.17 2.77 15.42 2 15.66 1.22 15.85 0.41 16.01 0 0zm-192.67 1350.91l0 -1350.91 192.67 0 0 1350.91 0 0 -192.67 0zm-120.32 312.99l0 -192.67 0 0 6.2 -0.16 6.07 -0.46 5.97 -0.77 5.85 -1.05 5.76 -1.34 5.65 -1.61 5.54 -1.89 5.42 -2.15 5.31 -2.41 5.18 -2.66 5.05 -2.92 4.91 -3.15 4.75 -3.39 4.59 -3.61 4.41 -3.82 4.23 -4.04 4.03 -4.22 3.83 -4.42 3.61 -4.59 3.39 -4.75 3.15 -4.9 2.91 -5.05 2.67 -5.18 2.41 -5.31 2.15 -5.43 1.88 -5.54 1.61 -5.65 1.34 -5.75 1.06 -5.86 0.76 -5.96 0.47 -6.07 0.16 -6.21 192.67 0 -0.41 16.01 -1.22 15.85 -2 15.66 -2.77 15.43 -3.52 15.16 -4.25 14.88 -4.96 14.56 -5.63 14.23 -6.3 13.87 -6.94 13.5 -7.55 13.09 -8.15 12.68 -8.72 12.25 -9.28 11.79 -9.82 11.33 -10.34 10.84 -10.84 10.34 -11.33 9.82 -11.79 9.28 -12.25 8.73 -12.68 8.15 -13.1 7.55 -13.49 6.94 -13.87 6.29 -14.23 5.64 -14.57 4.95 -14.87 4.25 -15.17 3.52 -15.43 2.78 -15.65 2 -15.86 1.21 -16 0.41 0 0zm-1962.65 -192.67l1962.65 0 0 192.67 -1962.65 0 0 0 0 -192.67zm-312.99 -120.32l192.67 0 0 0 0.16 6.21 0.47 6.07 0.76 5.96 1.05 5.86 1.34 5.75 1.62 5.65 1.88 5.54 2.15 5.43 2.41 5.31 2.67 5.18 2.91 5.05 3.15 4.9 3.39 4.75 3.61 4.59 3.83 4.42 4.03 4.22 4.22 4.04 4.42 3.82 4.59 3.61 4.75 3.39 4.91 3.15 5.04 2.92 5.19 2.66 5.3 2.41 5.43 2.15 5.54 1.89 5.65 1.61 5.75 1.34 5.86 1.05 5.96 0.77 6.08 0.46 6.2 0.16 0 192.67 -16.01 -0.41 -15.85 -1.21 -15.66 -2 -15.42 -2.78 -15.17 -3.52 -14.88 -4.25 -14.56 -4.95 -14.23 -5.64 -13.87 -6.29 -13.5 -6.94 -13.09 -7.55 -12.68 -8.15 -12.25 -8.73 -11.79 -9.28 -11.33 -9.82 -10.84 -10.34 -10.34 -10.84 -9.82 -11.33 -9.28 -11.79 -8.73 -12.25 -8.15 -12.68 -7.55 -13.09 -6.93 -13.5 -6.3 -13.87 -5.64 -14.23 -4.95 -14.56 -4.25 -14.88 -3.52 -15.16 -2.77 -15.43 -2.01 -15.66 -1.21 -15.85 -0.41 -16.01 0 0zm192.67 -1350.91l0 1350.91 -192.67 0 0 -1350.91 0 0 192.67 0zm120.32 -312.99l0 192.67 0 0 -6.2 0.16 -6.08 0.47 -5.96 0.76 -5.86 1.06 -5.75 1.33 -5.65 1.62 -5.54 1.88 -5.43 2.15 -5.3 2.41 -5.19 2.67 -5.04 2.91 -4.91 3.15 -4.75 3.39 -4.59 3.61 -4.42 3.83 -4.22 4.03 -4.03 4.23 -3.83 4.41 -3.61 4.59 -3.39 4.75 -3.15 4.9 -2.91 5.06 -2.67 5.18 -2.41 5.31 -2.15 5.42 -1.88 5.54 -1.62 5.65 -1.34 5.75 -1.05 5.86 -0.76 5.96 -0.47 6.08 -0.16 6.2 -192.67 0 0.41 -16.01 1.21 -15.85 2.01 -15.66 2.77 -15.42 3.52 -15.17 4.25 -14.88 4.95 -14.56 5.64 -14.23 6.3 -13.87 6.93 -13.5 7.55 -13.09 8.15 -12.68 8.73 -12.25 9.28 -11.79 9.82 -11.33 10.34 -10.84 10.84 -10.34 11.33 -9.82 11.79 -9.28 12.25 -8.73 12.68 -8.15 13.09 -7.55 13.5 -6.93 13.87 -6.3 14.23 -5.64 14.56 -4.95 14.88 -4.25 15.17 -3.52 15.42 -2.77 15.66 -2.01 15.85 -1.21 16.01 -0.41 0 0z"/>
   <path fill="black" fill-rule="nonzero" d="M446.79 871.02l191.34 22.62 0 0 -1.46 12.88 -1.4 13.35 -1.33 13.78 -1.26 14.18 -1.2 14.53 -1.14 14.84 -1.07 15.11 -1.01 15.34 -0.94 15.54 -0.89 15.7 -0.83 15.82 -0.77 15.9 -0.72 15.96 -0.66 15.98 -0.61 15.95 -0.56 15.9 -0.51 15.81 -0.47 15.68 -0.43 15.53 -0.38 15.33 -0.34 15.11 -0.31 14.84 -0.27 14.55 -0.24 14.22 -0.2 13.86 -0.18 13.46 -0.14 13.03 -0.13 12.56 -0.1 12.06 -0.08 11.53 -0.06 10.97 -0.04 10.36 -192.67 -0.67 0.04 -10.62 0.07 -11.22 0.08 -11.8 0.1 -12.36 0.12 -12.85 0.16 -13.35 0.18 -13.78 0.21 -14.2 0.24 -14.59 0.28 -14.93 0.31 -15.24 0.35 -15.53 0.4 -15.78 0.43 -16 0.49 -16.18 0.53 -16.33 0.58 -16.46 0.63 -16.55 0.69 -16.6 0.75 -16.63 0.8 -16.62 0.87 -16.59 0.94 -16.52 1 -16.42 1.07 -16.3 1.14 -16.14 1.22 -15.96 1.3 -15.74 1.39 -15.5 1.47 -15.24 1.56 -14.95 1.66 -14.63 0 0zm168.75 -457.94l158.88 108.99 0 0 -6.43 9.51 -6.31 9.55 -6.16 9.61 -6.02 9.66 -5.89 9.74 -5.75 9.81 -5.61 9.9 -5.47 9.99 -5.34 10.1 -5.19 10.21 -5.06 10.33 -4.93 10.46 -4.78 10.61 -4.65 10.76 -4.51 10.93 -4.38 11.09 -4.23 11.28 -4.09 11.47 -3.95 11.68 -3.81 11.89 -3.66 12.11 -3.52 12.35 -3.36 12.6 -3.22 12.84 -3.06 13.12 -2.91 13.38 -2.75 13.67 -2.59 13.96 -2.42 14.27 -2.25 14.57 -2.08 14.9 -1.91 15.22 -191.34 -22.62 2.25 -17.91 2.46 -17.64 2.68 -17.36 2.91 -17.09 3.11 -16.82 3.33 -16.57 3.55 -16.31 3.75 -16.07 3.96 -15.82 4.16 -15.58 4.37 -15.34 4.57 -15.11 4.77 -14.89 4.96 -14.66 5.15 -14.45 5.34 -14.23 5.53 -14.02 5.7 -13.81 5.88 -13.61 6.05 -13.41 6.22 -13.22 6.38 -13.03 6.54 -12.84 6.69 -12.67 6.84 -12.49 6.98 -12.32 7.12 -12.15 7.25 -12 7.39 -11.84 7.5 -11.7 7.62 -11.55 7.74 -11.43 0 0zm543.09 -374.05l52.89 185.27 0 0 -16.37 4.83 -16.3 5.15 -16.22 5.45 -16.13 5.76 -16.02 6.06 -15.91 6.37 -15.78 6.66 -15.65 6.96 -15.5 7.26 -15.34 7.55 -15.18 7.84 -14.99 8.13 -14.81 8.42 -14.6 8.7 -14.4 8.99 -14.18 9.26 -13.95 9.54 -13.71 9.82 -13.46 10.09 -13.21 10.36 -12.94 10.62 -12.67 10.89 -12.38 11.16 -12.09 11.41 -11.79 11.67 -11.49 11.93 -11.16 12.19 -10.85 12.44 -10.52 12.69 -10.17 12.93 -9.84 13.2 -9.49 13.44 -158.88 -108.99 12.41 -17.58 12.83 -17.21 13.24 -16.83 13.62 -16.45 14.01 -16.06 14.38 -15.68 14.72 -15.3 15.07 -14.91 15.39 -14.53 15.7 -14.15 16.01 -13.76 16.29 -13.38 16.58 -13 16.83 -12.62 17.1 -12.24 17.33 -11.85 17.56 -11.48 17.79 -11.1 17.99 -10.72 18.19 -10.35 18.38 -9.96 18.56 -9.6 18.73 -9.21 18.88 -8.84 19.03 -8.47 19.16 -8.09 19.29 -7.72 19.41 -7.34 19.52 -6.97 19.61 -6.59 19.7 -6.22 19.78 -5.84 0 0zm872.56 208.91l-131.78 140.56 0 0 -18.39 -16.76 -18.6 -15.98 -18.8 -15.22 -18.99 -14.45 -19.19 -13.7 -19.38 -12.93 -19.56 -12.19 -19.75 -11.43 -19.94 -10.69 -20.12 -9.95 -20.3 -9.21 -20.49 -8.47 -20.68 -7.74 -20.87 -7.01 -21.06 -6.28 -21.27 -5.55 -21.46 -4.82 -21.68 -4.08 -21.88 -3.36 -22.11 -2.62 -22.32 -1.88 -22.56 -1.13 -22.78 -0.38 -23.02 0.38 -23.25 1.14 -23.49 1.92 -23.72 2.69 -23.97 3.49 -24.21 4.28 -24.44 5.09 -24.69 5.91 -24.92 6.73 -52.89 -185.27 30.25 -8.17 30.17 -7.22 30.08 -6.27 29.99 -5.3 29.87 -4.34 29.77 -3.38 29.64 -2.42 29.5 -1.45 29.35 -0.48 29.19 0.49 29.02 1.45 28.83 2.43 28.63 3.39 28.42 4.36 28.18 5.31 27.94 6.28 27.68 7.22 27.41 8.17 27.13 9.11 26.82 10.04 26.51 10.96 26.19 11.88 25.85 12.78 25.51 13.68 25.15 14.56 24.79 15.43 24.41 16.3 24.04 17.15 23.65 18 23.26 18.83 22.86 19.65 22.47 20.47 0 0zm230.51 351.47l-175.89 78.64 0 0 -5.68 -12.5 -5.84 -12.42 -5.98 -12.32 -6.11 -12.23 -6.23 -12.12 -6.33 -11.98 -6.42 -11.83 -6.49 -11.68 -6.56 -11.5 -6.6 -11.31 -6.64 -11.11 -6.65 -10.89 -6.66 -10.66 -6.65 -10.42 -6.62 -10.15 -6.58 -9.87 -6.52 -9.59 -6.45 -9.28 -6.36 -8.96 -6.26 -8.63 -6.13 -8.26 -5.99 -7.9 -5.84 -7.52 -5.64 -7.1 -5.45 -6.68 -5.22 -6.23 -4.95 -5.76 -4.68 -5.27 -4.34 -4.73 -3.97 -4.17 -3.54 -3.57 -3.02 -2.91 131.78 -140.56 6.52 6.28 6.5 6.55 6.54 6.87 6.6 7.19 6.68 7.53 6.78 7.87 6.88 8.21 6.98 8.57 7.08 8.9 7.18 9.25 7.26 9.58 7.35 9.91 7.43 10.24 7.49 10.55 7.55 10.86 7.59 11.15 7.63 11.45 7.65 11.73 7.66 12.01 7.66 12.26 7.65 12.53 7.63 12.77 7.59 13 7.55 13.24 7.48 13.45 7.41 13.66 7.32 13.87 7.23 14.05 7.11 14.24 6.99 14.41 6.85 14.57 6.69 14.72 0 0zm92.39 407.95l-192.45 -9.37 0 -0.01 0.25 -6.89 0.1 -7.27 -0.08 -7.63 -0.24 -7.97 -0.42 -8.29 -0.59 -8.58 -0.78 -8.86 -0.95 -9.11 -1.13 -9.36 -1.32 -9.57 -1.49 -9.78 -1.67 -9.96 -1.85 -10.14 -2.02 -10.29 -2.2 -10.44 -2.36 -10.56 -2.54 -10.67 -2.71 -10.78 -2.87 -10.86 -3.03 -10.93 -3.19 -10.99 -3.34 -11.03 -3.5 -11.06 -3.66 -11.09 -3.8 -11.09 -3.94 -11.08 -4.08 -11.06 -4.23 -11.04 -4.35 -10.99 -4.49 -10.92 -4.61 -10.86 -4.74 -10.78 175.89 -78.64 5.71 12.98 5.54 13.03 5.37 13.1 5.21 13.13 5.04 13.18 4.88 13.21 4.71 13.23 4.53 13.24 4.37 13.24 4.19 13.25 4.01 13.23 3.83 13.21 3.66 13.18 3.47 13.15 3.29 13.1 3.1 13.05 2.92 13 2.72 12.93 2.53 12.86 2.33 12.79 2.13 12.7 1.92 12.61 1.72 12.52 1.5 12.42 1.29 12.33 1.07 12.21 0.84 12.12 0.6 12 0.36 11.9 0.12 11.79 -0.15 11.68 -0.42 11.58 0 0zm-132.07 131.15l-42.58 -187.91 0 0 1.43 -0.33 1.36 -0.34 1.29 -0.33 1.2 -0.34 1.11 -0.32 0.98 -0.3 0.86 -0.28 0.73 -0.26 0.58 -0.22 0.43 -0.16 0.25 -0.11 0.06 -0.03 -0.13 0.07 -0.34 0.18 -0.55 0.31 -0.79 0.48 -1.02 0.67 -1.26 0.89 -1.49 1.16 -1.7 1.45 -1.9 1.78 -2.07 2.16 -2.2 2.56 -2.28 2.98 -2.28 3.41 -2.22 3.85 -2.07 4.24 -1.83 4.56 -1.54 4.82 -1.18 4.96 -0.81 5.01 -0.42 4.87 192.45 9.37 -0.8 9.25 -1.49 9.25 -2.17 9.08 -2.81 8.79 -3.38 8.42 -3.89 7.96 -4.3 7.44 -4.61 6.89 -4.84 6.34 -4.99 5.8 -5.08 5.27 -5.12 4.79 -5.1 4.34 -5.09 3.95 -5.02 3.57 -4.96 3.24 -4.87 2.95 -4.79 2.68 -4.71 2.45 -4.62 2.24 -4.54 2.06 -4.45 1.88 -4.37 1.74 -4.3 1.6 -4.22 1.47 -4.15 1.37 -4.08 1.26 -4 1.17 -3.93 1.09 -3.86 1 -3.79 0.94 -3.74 0.87 0 0zm-401.52 -62.16l176.12 -78.12 0 0 -7.72 -13.34 -8.41 -9.46 -7.05 -5.61 -4.71 -2.78 -2.2 -1 0.09 0.01 2.09 0.53 3.77 0.72 5.18 0.76 6.37 0.67 7.37 0.52 8.18 0.34 8.88 0.15 9.43 -0.05 9.88 -0.25 10.23 -0.43 10.48 -0.61 10.64 -0.76 10.71 -0.91 10.7 -1.04 10.62 -1.15 10.46 -1.23 10.21 -1.31 9.89 -1.36 9.5 -1.39 9.03 -1.4 8.48 -1.39 7.84 -1.36 7.11 -1.3 6.29 -1.21 5.31 -1.08 4.17 -0.91 42.58 187.91 -7.02 1.53 -7.6 1.55 -8.26 1.59 -8.9 1.63 -9.53 1.65 -10.12 1.66 -10.67 1.65 -11.16 1.64 -11.62 1.59 -12 1.54 -12.35 1.46 -12.65 1.36 -12.88 1.25 -13.08 1.11 -13.22 0.95 -13.33 0.77 -13.39 0.56 -13.43 0.34 -13.43 0.07 -13.42 -0.23 -13.41 -0.57 -13.41 -0.95 -13.44 -1.43 -13.55 -1.98 -13.76 -2.71 -14.1 -3.63 -14.62 -4.92 -15.32 -6.72 -16.11 -9.35 -16.59 -13.06 -15.97 -17.83 -13.18 -22.68 0 0zm-73.12 -243.7l179.78 -69.28 0 0 3.02 8.06 2.87 8.1 2.75 8.16 2.65 8.2 2.55 8.24 2.47 8.28 2.4 8.32 2.34 8.34 2.29 8.36 2.24 8.38 2.21 8.37 2.17 8.34 2.14 8.33 2.11 8.28 2.09 8.21 2.08 8.14 2.06 8.05 2.05 7.94 2.04 7.8 2.02 7.66 2.02 7.49 2.02 7.29 2 7.08 2 6.84 1.98 6.57 1.96 6.28 1.95 5.96 1.91 5.61 1.87 5.22 1.82 4.79 1.74 4.33 1.64 3.84 -176.12 78.12 -3.48 -8.11 -3.28 -8.15 -3.09 -8.18 -2.96 -8.22 -2.82 -8.26 -2.7 -8.3 -2.62 -8.34 -2.52 -8.37 -2.45 -8.41 -2.39 -8.43 -2.33 -8.44 -2.28 -8.44 -2.23 -8.43 -2.2 -8.41 -2.16 -8.37 -2.13 -8.31 -2.1 -8.26 -2.08 -8.17 -2.06 -8.06 -2.05 -7.95 -2.03 -7.82 -2.01 -7.65 -2 -7.47 -1.99 -7.28 -1.98 -7.05 -1.97 -6.8 -1.94 -6.53 -1.93 -6.23 -1.9 -5.89 -1.86 -5.53 -1.82 -5.13 -1.76 -4.71 0 0zm-540.02 -216.38l-69.71 -179.62 0 0 30.32 -11.27 30.16 -10.21 30.01 -9.11 29.87 -7.98 29.73 -6.83 29.59 -5.62 29.44 -4.38 29.29 -3.1 29.13 -1.76 28.95 -0.37 28.75 1.06 28.52 2.56 28.23 4.09 27.91 5.68 27.52 7.3 27.05 8.96 26.52 10.63 25.91 12.31 25.22 13.98 24.47 15.63 23.64 17.26 22.78 18.84 21.87 20.4 20.93 21.9 19.99 23.39 19.03 24.83 18.09 26.26 17.14 27.66 16.22 29.06 15.3 30.45 14.41 31.85 13.52 33.25 -179.78 69.28 -10.81 -26.59 -11.26 -24.88 -11.66 -23.21 -12.03 -21.56 -12.37 -19.95 -12.66 -18.4 -12.94 -16.88 -13.18 -15.42 -13.4 -14.03 -13.63 -12.71 -13.85 -11.46 -14.1 -10.29 -14.36 -9.18 -14.67 -8.13 -15.03 -7.14 -15.45 -6.18 -15.91 -5.27 -16.43 -4.36 -17 -3.46 -17.61 -2.54 -18.24 -1.64 -18.91 -0.69 -19.58 0.25 -20.25 1.23 -20.92 2.21 -21.57 3.22 -22.22 4.22 -22.84 5.25 -23.44 6.27 -24.02 7.29 -24.58 8.32 -25.09 9.33 -0.01 0zm-189.95 288.15l-186.67 -47.73 0 0 3.91 -14.85 4.16 -14.94 4.43 -15.01 4.69 -15.07 4.97 -15.12 5.26 -15.13 5.56 -15.14 5.87 -15.13 6.18 -15.09 6.52 -15.04 6.85 -14.96 7.21 -14.88 7.58 -14.77 7.96 -14.64 8.36 -14.49 8.77 -14.32 9.19 -14.12 9.64 -13.91 10.1 -13.66 10.58 -13.39 11.07 -13.08 11.59 -12.76 12.12 -12.39 12.66 -11.98 13.21 -11.55 13.79 -11.06 14.36 -10.53 14.93 -9.95 15.52 -9.33 16.08 -8.66 16.64 -7.93 17.15 -7.16 69.71 179.62 -8.28 3.46 -8.07 3.85 -7.89 4.25 -7.75 4.66 -7.61 5.08 -7.5 5.5 -7.38 5.92 -7.27 6.35 -7.16 6.78 -7.04 7.21 -6.92 7.62 -6.79 8.03 -6.67 8.44 -6.52 8.82 -6.37 9.19 -6.21 9.55 -6.05 9.88 -5.88 10.2 -5.71 10.49 -5.52 10.77 -5.34 11.02 -5.15 11.25 -4.96 11.45 -4.77 11.64 -4.57 11.79 -4.38 11.93 -4.19 12.04 -3.98 12.12 -3.8 12.19 -3.6 12.22 -3.4 12.23 -3.22 12.22 0 0zm-8.79 454.21l-192.51 7.78 -0.56 -13.05 -0.61 -13.47 -0.65 -13.9 -0.7 -14.27 -0.72 -14.63 -0.73 -14.95 -0.74 -15.25 -0.72 -15.52 -0.7 -15.77 -0.67 -15.98 -0.62 -16.17 -0.56 -16.35 -0.48 -16.49 -0.41 -16.61 -0.3 -16.71 -0.2 -16.79 -0.07 -16.85 0.06 -16.88 0.21 -16.89 0.38 -16.89 0.55 -16.87 0.75 -16.82 0.96 -16.76 1.18 -16.69 1.43 -16.6 1.68 -16.49 1.97 -16.37 2.27 -16.24 2.6 -16.1 2.95 -15.95 3.34 -15.8 3.74 -15.61 186.67 47.73 -2.46 10.24 -2.28 10.84 -2.11 11.39 -1.92 11.92 -1.73 12.39 -1.54 12.84 -1.36 13.24 -1.16 13.61 -0.99 13.93 -0.81 14.24 -0.65 14.51 -0.48 14.73 -0.34 14.93 -0.19 15.11 -0.05 15.25 0.07 15.36 0.18 15.44 0.28 15.5 0.38 15.53 0.46 15.54 0.53 15.5 0.59 15.47 0.64 15.38 0.68 15.29 0.71 15.16 0.72 15.02 0.73 14.85 0.72 14.67 0.71 14.45 0.67 14.22 0.63 13.97 0.58 13.69z"/>
</svg>
