<svg width="1584" height="1660" xmlns="http://www.w3.org/2000/svg" xmlns:svg="http://www.w3.org/2000/svg" clip-rule="evenodd">
  <path d="m334.06099,964.25556l0,105.761l-251.54,0l0,-474.498l251.54,0l0,111.479c0,17.293 22.888,39.936 47.014,21.288c6.25901,-4.838 8.88201,-10.391 9.945,-18.641l0.067,-111.412c-0.30399,-30.511 6.628,-22.39 35.11501,-47.779l287.611,-244.055c11.799,-9.534 51.149,-48.174 66.165,-48.174c19.725,0 31.441,11.675 31.441,28.587l0,1120.497c0,17.444 -12.751,28.586 -31.441,28.586c-16.312,0 -24.833,-16.259 -35.145,-24.882l-192.871,-175.866c-5.802,-5.739 -9.684,-10.315 -15.632,-15.814l-31.42,-28.602c-7.081,-7.011 -10.178,-8.088 -17.185,-14.26l-95.087,-90.711c-4.419,-11.16 -0.881,-101.683 -1.223,-121.687c-0.764,-44.907 -57.354,-43.767 -57.354,0.183l-0.00001,0zm-308.707,-400.179l0,537.38c0,27.007 26.753,28.757 54.291,28.607l254.566,-0.166c21.229,-0.199 23.178,1.608 52.013,30.875c26.845,27.248 80.562,71.893 110.013,101.513l198.745,181.427c8.885,8.935 32.961,32.525 43.954,38.939c19.609,11.437 41.466,15.589 67.915,8.702c46.628,-12.135 64.594,-58.048 64.594,-106.911l0,-1074.765c0,-24.928 -3.956,-50.501 -13.607,-66.431c-23.108,-38.145 -71.173,-55.7 -111.753,-36.063c-14.276,6.908 -54.604,42.538 -68.377,54.537l-292.83,247.409c-36.154,31.503 -24.737,26.644 -56.511,26.387l-248.742,-0.063c-26.766,-0.17 -54.271,2.76 -54.271,28.623z" fill="black" stroke="black" stroke-width="34.524" stroke-miterlimit="22.9256" />
  <path d="m1080.111,338.26356c0,20.95 4.746,23.806 24.875,32.293c13.356,5.631 23.25299,8.973 36.827,14.625c11.574,4.822 23.818,10.927 34.279,17.169c12.06999,7.207 20.82199,11.808 32.08099,19.372c11.155,7.489 19.475,12.779 30.41901,21.033c64.607,48.731 131.30299,133.054 157.74399,208.13c44.20901,125.527 50.663,237.222 0.26601,364.029c-22.098,55.609 -51.598,103.387 -89.98801,144.404c-5.77199,6.172 -6.02999,8.129 -11.429,14.297c-13.989,15.98 -67.902,58.51 -86.418,70.795c-68.367,45.376 -128.656,46.411 -128.656,82.865c0,41.232 50.53,20.963 70.292,13.125c7.319,-2.906 10.428,-5.05 17.335,-8.396c53.634,-25.976 104.43,-55.039 147.48,-98.342c62.279,-62.645 101.355,-112.771 134.882,-196.692c24.242,-60.67 36.502,-118.611 38.764,-177.739l0,-40.967c-1.264,-33.885 -5.581,-68.439 -12.61,-104.377c-10.61,-54.266 -34.454,-108.611 -60.778,-156.46c-33.478,-60.85 -99.573,-132.094 -156.977,-171.738c-24.142,-16.679 -76.335,-47.934 -104.456,-58.477c-17.766,-6.663 -32.433,-14.676 -48.206,-14.676c-14.13,0 -25.726,11.596 -25.726,25.727l0.00001,0z"  fill="black" stroke="black" stroke-width="34.524" stroke-miterlimit="22.9256" />
  <path  d="m925.75299,492.61656c0,25.012 12.45601,28.632 37.50901,36.812c116.433,37.994 214.03499,164.29 214.03499,283.329c0,91.114 -13.603,146.852 -67.333,218.511c-7.173,9.568 -10.265,11.33 -17.734,19.426c-8.732,9.476 -5.40699,8.96 -16.56999,17.73c-39.08,30.681 -59.291,50.476 -111.624,68.455c-23.059,7.922 -38.28301,9.488 -38.28301,36.042c0,15.352 11.65,25.722 28.58601,25.722c29.263,0 86.792,-34.209 111.358,-48.714c98.75299,-58.297 171.627,-194.859 171.627,-317.16c0,-46.636 -11.521,-93.662 -26.05501,-134.022c-31.141,-86.493 -113.063,-176.818 -195.241,-210.648c-17.106,-7.041 -90.275,-44.467 -90.275,4.517z"  fill="black" stroke="black" stroke-width="30" stroke-miterlimit="22.9256" />
  <line x1="65.43999" y1="59.58355" x2="1529.79399" y2="1605.31655" stroke="black" stroke-width="80" stroke-linecap="round" stroke-miterlimit="22.9256" />
</svg>