<svg width="20" height="20" viewBox="0 0 20 20" fill="none" xmlns="http://www.w3.org/2000/svg">
<mask id="mask0_5007_1269" style="mask-type:alpha" maskUnits="userSpaceOnUse" x="0" y="0" width="20" height="20">
<rect width="20" height="20" fill="#D9D9D9"/>
</mask>
<g mask="url(#mask0_5007_1269)">
<path d="M3.33341 16.6667C2.87508 16.6667 2.48272 16.5035 2.15633 16.1771C1.82994 15.8507 1.66675 15.4583 1.66675 15V5.00001C1.66675 4.54168 1.82994 4.14932 2.15633 3.82293C2.48272 3.49654 2.87508 3.33334 3.33341 3.33334H16.6667C17.1251 3.33334 17.5174 3.49654 17.8438 3.82293C18.1702 4.14932 18.3334 4.54168 18.3334 5.00001V15C18.3334 15.4583 18.1702 15.8507 17.8438 16.1771C17.5174 16.5035 17.1251 16.6667 16.6667 16.6667H3.33341ZM10.0001 10.8333L3.33341 6.66668V15H16.6667V6.66668L10.0001 10.8333ZM10.0001 9.16668L16.6667 5.00001H3.33341L10.0001 9.16668ZM3.33341 6.66668V5.00001V15V6.66668Z" fill="white"/>
</g>
</svg>
