<svg width="35" height="31" viewBox="0 0 35 31" fill="none" xmlns="http://www.w3.org/2000/svg">
<path d="M14.7485 3C7.16526 3 0.995797 9.1231 0.995797 16.6494C0.995797 19.0837 1.64725 21.4665 2.88134 23.5519L0.519252 30.5197C0.475252 30.6496 0.507979 30.7932 0.60407 30.891C0.673434 30.9618 0.767525 31 0.863616 31C0.900434 31 0.937525 30.9945 0.973707 30.9829L8.23917 28.6742C10.2274 29.7365 12.4744 30.2972 14.7486 30.2972C22.3312 30.2973 28.5 24.1748 28.5 16.6494C28.5 9.1231 22.3312 3 14.7485 3Z" fill="#00C45D"/>
<path d="M14.7485 3C7.16526 3 0.995797 9.1231 0.995797 16.6494C0.995797 19.0837 1.64725 21.4665 2.88134 23.5519L0.519252 30.5197C0.475252 30.6496 0.507979 30.7932 0.60407 30.891C0.673434 30.9618 0.767525 31 0.863616 31C0.900434 31 0.937525 30.9945 0.973707 30.9829L8.23917 28.6742C10.2274 29.7365 12.4744 30.2972 14.7486 30.2972C22.3312 30.2973 28.5 24.1748 28.5 16.6494C28.5 9.1231 22.3312 3 14.7485 3ZM14.7485 27.454C12.6086 27.454 10.536 26.8361 8.75435 25.667C8.69444 25.6277 8.62489 25.6075 8.55489 25.6075C8.51789 25.6075 8.4808 25.6131 8.44471 25.6246L4.80516 26.7815L5.98007 23.3152C6.01807 23.203 5.99907 23.0793 5.92907 22.9837C4.57235 21.1298 3.85516 18.9396 3.85516 16.6494C3.85516 10.6909 8.74189 5.84328 14.7484 5.84328C20.7543 5.84328 25.6405 10.6909 25.6405 16.6494C25.6405 22.6071 20.7544 27.454 14.7485 27.454Z" fill="white"/>
<path d="M21.2189 19.0892C21.1644 19.0631 19.1231 18.0579 18.7604 17.9273C18.6123 17.8742 18.4536 17.8222 18.2849 17.8222C18.0093 17.8222 17.7777 17.9596 17.5974 18.2294C17.3935 18.5325 16.7762 19.2541 16.5855 19.4696C16.5606 19.4981 16.5266 19.5321 16.5062 19.5321C16.4879 19.5321 16.172 19.402 16.0764 19.3604C13.8866 18.4092 12.2246 16.1219 11.9966 15.7362C11.9641 15.6807 11.9627 15.6555 11.9625 15.6555C11.9705 15.6262 12.0441 15.5523 12.0821 15.5142C12.1933 15.4042 12.3137 15.2592 12.4303 15.119C12.4855 15.0525 12.5407 14.986 12.595 14.9232C12.7641 14.7265 12.8394 14.5738 12.9266 14.3969L12.9724 14.305C13.1855 13.8816 13.0035 13.5243 12.9446 13.409C12.8964 13.3124 12.0345 11.2322 11.9428 11.0137C11.7225 10.4863 11.4313 10.2408 11.0266 10.2408C10.9891 10.2408 11.0266 10.2408 10.8692 10.2474C10.6775 10.2555 9.63337 10.393 9.17173 10.684C8.68219 10.9926 7.854 11.9764 7.854 13.7066C7.854 15.2638 8.84219 16.7341 9.26646 17.2932C9.27701 17.3073 9.29637 17.336 9.32446 17.3771C10.9493 19.75 12.9748 21.5085 15.0282 22.3288C17.005 23.1184 17.9411 23.2097 18.4733 23.2097H18.4734C18.697 23.2097 18.876 23.1922 19.0339 23.1766L19.1341 23.1671C19.817 23.1065 21.3177 22.3289 21.6591 21.3802C21.928 20.6331 21.9989 19.8167 21.82 19.5204C21.6975 19.319 21.4863 19.2176 21.2189 19.0892Z" fill="white"/>
<ellipse cx="26.1667" cy="8.83332" rx="8.16667" ry="8.16667" fill="#FE0002"/>
<path d="M27.3333 4.16666V12.3333H25.7433V6.02501L23.8333 6.64073V5.37011L27.1621 4.16666H27.3333Z" fill="white"/>
</svg>
